<?xml version="1.0" encoding="utf-8"?>
<!-- Generator: Adobe Illustrator 21.0.0, SVG Export Plug-In . SVG Version: 6.00 Build 0)  -->
<svg version="1.1" id="Camada_1" xmlns="http://www.w3.org/2000/svg" xmlns:xlink="http://www.w3.org/1999/xlink" x="0px" y="0px"
	 viewBox="0 0 623.6 510.2" style="enable-background:new 0 0 623.6 510.2;" xml:space="preserve">
<style type="text/css">
	.st0{fill:#343D46;}
	.st1{fill:#FFFFFF;}
</style>
<path class="st0" d="M111.6,70.4c0,23.9-19,42.6-42.9,42.8c-22.9,0.3-43.6-19-43.2-44C26,45.8,45,27.1,69.2,27.1
	C92.9,27.2,111.7,46.3,111.6,70.4z"/>
<path class="st0" d="M341.4,0c41.4-0.1,76.9,7.9,110.8,23.2c2,0.9,5.7,1.8,4.7,4.2c-1.3,3.2-4.3,0.6-6.4-0.3
	c-37.4-17-76.7-24.9-117.7-22.6c-60.3,3.4-113.4,25.1-158.2,65.7c-43.7,39.7-70.9,89-79.9,147.3c-12.3,79.2,8.8,149.4,61.3,209.9
	c21.3,24.5,46.9,43.6,76,58c0.6,0.3,1.2,0.6,1.8,0.9c1.6,0.7,3.4,1.9,2.7,3.5c-0.9,2-2.9,1.3-4.7,0.4c-16.6-8.2-32.3-17.9-46.7-29.4
	c-50.3-40.3-82.3-92.1-93.5-155.3c-15-85.7,7.4-161.3,66.6-225c40.3-43.3,90.6-68.6,149.1-77.6C320,0.9,332.7-0.2,341.4,0z"/>
<path class="st0" d="M587,230.1c1.5,19.4,1.9,38.8-0.6,58.3c-5.5,43.1-21.1,82.2-47.5,116.6c-38.9,50.7-90,82.5-153.1,92.7
	c-74.1,12-140.6-6.6-198.5-54.8c-9-7.5-17.1-15.8-24.9-24.5c-1.2-1.4-3.7-3.2-1.5-5c1.9-1.6,3.4,0.8,4.7,2.2
	c33.6,37.6,74.6,63.3,123.8,74.7c72.3,16.7,139,3.2,198.7-41c49.2-36.4,79.4-85.4,91.7-145.4c5.3-25.9,5.8-52.2,2.2-78.4
	c-0.2-1.1-0.6-2.2-0.9-3.4c-0.6-8.2-2.3-16.2-4.9-24c-3.7-17.5-10.5-33.8-18.6-49.6c-13.3-25.8-30.9-48.4-52.4-67.9
	c-0.5-0.4-0.9-0.9-1.4-1.4c-1.2-1.1-3.1-2.4-1.6-4.1c1.7-1.9,3.3-0.1,4.6,1.1c7.2,6.5,14.1,13.2,20.5,20.5
	c24,27.2,41.1,58.1,51.4,92.9C582.6,202.9,584.8,216.5,587,230.1z"/>
<path class="st0" d="M244.8,470.5c0,16.4-11.8,28.3-28.2,28.3c-16.2,0-28.3-11.9-28.3-27.8c0-16.6,11.7-28.5,28-28.6
	C232.8,442.4,244.7,454.2,244.8,470.5z"/>
<path class="st0" d="M102.2,250.5c2.1-100.6,69.8-191.2,167-223.3c23.5-7.8,47.7-11.8,72.4-12.1c0.8,0,1.7,0,2.5,0
	c1.4,0,2.9,0,3,1.8c0.2,2.1-1.4,2.2-3,2.3c-5.8,0.3-11.6,0.5-17.4,0.9c-47.9,3.5-90.8,20.2-128.5,49.9
	c-46.1,36.3-75.3,83.4-87.2,141c-3,14.7-4.5,29.6-4.8,44.5c0,1.7,0.9,4.3-1.8,4.5c-3.2,0.2-2.1-2.7-2.2-4.5
	C102.1,253.8,102.2,252.1,102.2,250.5z"/>
<path class="st0" d="M602.4,234.2c0.9,15.1,1.3,30.2,0,45.4c-3.9,46.2-19.2,88.3-45.5,126.3c-17.2,24.9-38.3,46-63.1,63.3
	c-0.3,0.2-0.5,0.4-0.8,0.6c-1.6,1.2-3.9,2.8-5.2,0.9c-1.4-2.1,1.3-3.4,2.8-4.5c33.1-23.1,59.1-52.4,78.2-87.9
	C591,337,601,292.8,599,246c-0.2-4-0.7-7.9-1-11.9c-0.3-2.5-0.4-4.9-0.8-7.4c-2.1-14.8-4.5-29.5-9.8-43.6c-1.5-7.8-5-15-7.7-22.4
	c-0.3-0.9-0.8-1.8-1.2-2.7c-0.5-1.3-0.7-2.9,0.7-3.5c1.7-0.7,2.6,0.5,3.2,2.1c2.2,5.9,4.5,11.7,6.8,17.5c0.8,2,1.5,4,2.2,6
	C596.8,197.8,600.4,215.8,602.4,234.2z"/>
<path class="st0" d="M558,257c0.3,123.7-89.3,213.5-213,213.6c-121.8,0.1-212.8-89.5-213.1-209.9C131.5,136,220.1,45.6,343.1,45.2
	C467.4,44.9,557.6,133.8,558,257z"/>
<g>
	<path class="st1" d="M470.7,203.4c-0.3,35.9-2.5,62.8-9.8,89.1c-7.9,28.4-24.8,50.7-46.7,69.6c-18.8,16.2-40,28.4-63.9,35.6
		c-2.7,0.8-6,1.1-8.7,0.3c-42.3-13.3-75.9-38.3-99.4-76.1c-9.7-15.4-14.1-32.9-17.3-50.6c-5.8-32.8-5.9-65.8-2.9-98.8
		c0.4-4.5,1-9.1,1.4-13.7c0.4-4.9,3-7.8,7.8-9.1c26.2-7.2,52.3-14.6,78.6-21.8c10.4-2.9,20.6-5.9,31-8.5c2.8-0.7,6.2-0.8,9,0
		c36.1,9.8,72.2,19.9,108.2,29.9c6.6,1.9,8.6,3.8,9.1,9.9C468.8,176.7,470,194.4,470.7,203.4z"/>
</g>
<g id="jW7Zbz.tif">
	<g>
		<path class="st0" d="M381,241.6c-0.3,1.4-1.2,2.5-2.2,3.5c-13.1,13.5-26.2,27-39.4,40.5c-1,1-2.1,1.6-3.6,1.6
			c-1.2,0-2.3-0.5-3.1-1.3c-7.1-7.1-14.2-14.2-21.3-21.3c-1.9-1.9-1.9-4.7,0-6.6c2.1-2.1,4.1-4.2,6.2-6.2c2-2,4.7-2,6.7,0
			c3.6,3.6,7.2,7.2,10.9,10.9c0.2,0.2,0.3,0.5,0.5,0.8c0-0.1,0-0.2,0-0.3c0.9-0.8,1.9-1.6,2.7-2.5c9.3-9.6,18.6-19.3,27.8-28.9
			c2.3-2.4,4.9-2.5,7.3-0.1c1.7,1.7,3.3,3.3,5,5c1.1,1,2,2.1,2.4,3.5C381,240.7,381,241.1,381,241.6z"/>
	</g>
</g>
<path class="st0" d="M499,35.9c0,16.4-11.8,28.3-28.2,28.3c-16.2,0-28.3-11.9-28.3-27.8c0-16.6,11.7-28.5,28-28.6
	C487,7.8,498.9,19.6,499,35.9z"/>
</svg>
