<?xml version="1.0" encoding="utf-8"?>
<!-- Generator: Adobe Illustrator 21.0.0, SVG Export Plug-In . SVG Version: 6.00 Build 0)  -->
<svg version="1.1" id="Camada_1" xmlns="http://www.w3.org/2000/svg" xmlns:xlink="http://www.w3.org/1999/xlink" x="0px" y="0px"
	 viewBox="0 0 566.2 416.9" style="enable-background:new 0 0 566.2 416.9;" xml:space="preserve">
<style type="text/css">
	.st0{fill:#54A8B1;}
	.st1{fill:url(#SVGID_1_);}
	.st2{fill:#292264;}
	.st3{fill:#FFFFFF;}
	.st4{opacity:0.51;fill:#433C8C;}
	.st5{opacity:0.8;fill:url(#SVGID_2_);}
	.st6{opacity:0.3;}
	.st7{clip-path:url(#SVGID_5_);fill:#54A8B1;}
	.st8{clip-path:url(#SVGID_5_);fill:#98C6CF;}
	.st9{opacity:0.4;fill:#292264;}
	.st10{fill:#98C6CF;}
	.st11{opacity:0.4;fill:#54A8B1;}
	.st12{fill:url(#SVGID_6_);}
	.st13{opacity:0.3;fill:#151B4A;}
	.st14{fill:url(#SVGID_7_);}
	.st15{fill:#151B4A;}
	.st16{fill:url(#SVGID_8_);}
	.st17{fill:url(#SVGID_9_);}
	.st18{fill:url(#SVGID_10_);}
	.st19{fill:url(#SVGID_11_);}
	.st20{fill:url(#SVGID_12_);}
	.st21{fill:url(#SVGID_13_);}
	.st22{fill:#4E4D95;}
	.st23{fill:url(#SVGID_14_);}
	.st24{fill:url(#SVGID_15_);}
	.st25{fill:url(#SVGID_16_);}
	.st26{fill:url(#SVGID_17_);}
</style>
<g>
	<path class="st0" d="M201.8,370.1c-4.4,0-8.7-0.9-11.8-2.7L35.5,278.2c-3.1-1.8-4.8-4.3-4.8-7c0-3.3,2.5-6.6,6.7-9L332.2,91.9
		c8-4.6,20.2-5.1,27.1-1.1l154.6,89.2c3.1,1.8,4.8,4.3,4.8,7c0,3.3-2.5,6.6-6.7,9L217.2,366.3C212.8,368.8,207.2,370.1,201.8,370.1z
		 M190.4,366.8c6.8,3.9,18.6,3.4,26.5-1.1l294.8-170.2c4.1-2.3,6.4-5.4,6.4-8.5c0-2.5-1.6-4.8-4.5-6.4L359,91.4
		c-6.8-3.9-18.6-3.4-26.5,1.1L37.7,262.7c-4.1,2.3-6.4,5.4-6.4,8.5c0,2.5,1.6,4.8,4.5,6.4L190.4,366.8z"/>
</g>
<g>
	<linearGradient id="SVGID_1_" gradientUnits="userSpaceOnUse" x1="31.0017" y1="205.1329" x2="518.3438" y2="205.1329">
		<stop  offset="0" style="stop-color:#B4B1D4"/>
		<stop  offset="2.881008e-02" style="stop-color:#AFACD1"/>
		<stop  offset="0.2452" style="stop-color:#8C8ABC"/>
		<stop  offset="0.4556" style="stop-color:#7373AD"/>
		<stop  offset="0.656" style="stop-color:#6164A4"/>
		<stop  offset="0.8421" style="stop-color:#555B9E"/>
		<stop  offset="1" style="stop-color:#50589D"/>
	</linearGradient>
	<path class="st1" d="M518.3,145.9l-22.2,3.8l-137-79.1c-6.9-4-18.9-3.5-26.8,1.1L70.3,223L31,229.8l0,13.9l0,0c0,2.5,1.5,5,4.6,6.8
		l154.6,89.2c6.9,4,18.9,3.5,26.8-1.1l294.8-170.2c4.3-2.5,6.5-5.6,6.5-8.6l0,0V145.9z"/>
	<path class="st2" d="M190.2,325.7L35.6,236.4c-6.9-4-6-10.9,1.9-15.5L332.3,50.8c7.9-4.6,19.9-5.1,26.8-1.1l154.6,89.2
		c6.9,4,6,10.9-1.9,15.5L217,324.6C209.1,329.1,197.1,329.6,190.2,325.7z"/>
	<path class="st3" d="M511.8,154.4L217,324.6c-7.9,4.6-19.9,5.1-26.8,1.1L35.6,236.4c-2.8-1.6-4.2-3.7-4.6-5.9
		c-0.4,2.9,1.1,5.6,4.6,7.7l154.6,89.2c6.9,4,18.9,3.5,26.8-1.1l294.8-170.2c4.8-2.7,6.9-6.3,6.5-9.6
		C517.9,149.3,515.7,152.1,511.8,154.4z"/>
	<path class="st4" d="M190.5,322.2l-149-86.1c-6.7-3.8-5.8-10.5,1.9-15l289.3-167c7.7-4.4,19.3-4.9,25.9-1.1l149,86.1
		c6.7,3.8,5.8,10.5-1.9,15l-289.3,167C208.8,325.6,197.2,326.1,190.5,322.2z"/>
</g>
<g>
	<linearGradient id="SVGID_2_" gradientUnits="userSpaceOnUse" x1="342.5524" y1="274.0793" x2="206.5141" y2="93.5505">
		<stop  offset="0" style="stop-color:#54A8B1"/>
		<stop  offset="4.207826e-02" style="stop-color:#4F9DA8"/>
		<stop  offset="0.1485" style="stop-color:#417E8F"/>
		<stop  offset="0.2591" style="stop-color:#35647B"/>
		<stop  offset="0.3715" style="stop-color:#2B516C"/>
		<stop  offset="0.4861" style="stop-color:#234261"/>
		<stop  offset="0.6036" style="stop-color:#1D3457"/>
		<stop  offset="0.7253" style="stop-color:#192951"/>
		<stop  offset="0.8536" style="stop-color:#161F4C"/>
		<stop  offset="1" style="stop-color:#151B4A"/>
	</linearGradient>
	<path class="st5" d="M201.8,321.4c-4.3,0-8.4-0.9-11.5-2.6l-149-86.1c-3.1-1.8-4.7-4.2-4.7-6.9c0-3.2,2.4-6.5,6.6-8.9l289.3-167
		c7.8-4.5,19.7-5,26.4-1.1l149,86.1c3.1,1.8,4.7,4.2,4.7,6.9c0,3.2-2.4,6.5-6.6,8.9l-289.3,167C212.4,320.2,207,321.4,201.8,321.4z
		 M190.7,318c6.5,3.8,17.9,3.3,25.5-1.1l289.3-167c3.9-2.2,6.1-5.2,6.1-8.1c0-2.3-1.5-4.5-4.2-6.1l-149-86.1
		c-6.5-3.8-17.9-3.3-25.5,1.1l-289.3,167c-3.9,2.2-6.1,5.2-6.1,8.1c0,2.3,1.5,4.5,4.2,6.1L190.7,318z"/>
</g>
<g class="st6">
	<defs>
		<path id="SVGID_3_" class="st6" d="M190.5,318.4l-149-86.1c-6.7-3.8-5.8-10.5,1.9-15l289.3-167c7.7-4.4,19.3-4.9,25.9-1.1
			l149,86.1c6.7,3.8,5.8,10.5-1.9,15l-289.3,167C208.8,321.7,197.2,322.2,190.5,318.4z"/>
	</defs>
	<radialGradient id="SVGID_4_" cx="203.2598" cy="211.928" r="381.4453" gradientUnits="userSpaceOnUse">
		<stop  offset="0" style="stop-color:#54A8B1"/>
		<stop  offset="4.207826e-02" style="stop-color:#4F9DA8"/>
		<stop  offset="0.1485" style="stop-color:#417E8F"/>
		<stop  offset="0.2591" style="stop-color:#35647B"/>
		<stop  offset="0.3715" style="stop-color:#2B516C"/>
		<stop  offset="0.4861" style="stop-color:#234261"/>
		<stop  offset="0.6036" style="stop-color:#1D3457"/>
		<stop  offset="0.7253" style="stop-color:#192951"/>
		<stop  offset="0.8536" style="stop-color:#161F4C"/>
		<stop  offset="1" style="stop-color:#151B4A"/>
	</radialGradient>
	<use xlink:href="#SVGID_3_"  style="overflow:visible;opacity:0.5;fill:url(#SVGID_4_);"/>
	<clipPath id="SVGID_5_">
		<use xlink:href="#SVGID_3_"  style="overflow:visible;opacity:0.5;"/>
	</clipPath>
	<path class="st7" d="M99.4,225.5v109l0,0c0,2.4,1.5,4.6,4.4,6.3l90.5,52.3c6.5,3.8,17.9,3.3,25.4-1.1l0,0c4.2-2.4,6.3-5.6,6.2-8.5
		l0,0v-109L99.4,225.5z"/>
	<path class="st8" d="M194.3,284.1l-90.5-52.3c-6.5-3.8-5.7-10.3,1.8-14.7l0,0c7.5-4.3,18.9-4.8,25.4-1.1l90.5,52.3
		c6.5,3.8,5.7,10.3-1.8,14.7v0C212.2,287.4,200.8,287.8,194.3,284.1z"/>
</g>
<path class="st9" d="M194.3,284.1l-90.5-52.3c-6.5-3.8-5.7-10.3,1.8-14.7l0,0c7.5-4.3,18.9-4.8,25.4-1.1l90.5,52.3
	c6.5,3.8,5.7,10.3-1.8,14.7v0C212.2,287.4,200.8,287.8,194.3,284.1z"/>
<g>
	<path class="st0" d="M99.4,96.6v109l0,0c0,2.4,1.5,4.6,4.4,6.3l90.5,52.3c6.5,3.8,17.9,3.3,25.4-1.1l0,0c4.2-2.4,6.3-5.6,6.2-8.5
		l0,0v-109L99.4,96.6z"/>
	<path class="st10" d="M194.3,155.2l-90.5-52.3c-6.5-3.8-5.7-10.3,1.8-14.7l0,0c7.5-4.3,18.9-4.8,25.4-1.1l90.5,52.3
		c6.5,3.8,5.7,10.3-1.8,14.7l0,0C212.2,158.5,200.8,159,194.3,155.2z"/>
	<g>
		<path class="st0" d="M203.3,148.2c-4.3,0-7.8-3.5-7.8-7.8V92c0-16.5-12.1-37.4-26.4-45.7l-20.8-12c-5.5-3.2-10.4-3.9-13.6-2.1
			c-3.2,1.8-5,6.5-5,12.8v48.4c0,4.3-3.5,7.8-7.8,7.8c-4.3,0-7.8-3.5-7.8-7.8V45c0-12.3,4.5-21.6,12.8-26.4c8.2-4.8,18.6-4,29.2,2.1
			l20.8,12c19.2,11.1,34.2,37.1,34.2,59.2v48.4C211.2,144.7,207.7,148.2,203.3,148.2z"/>
	</g>
</g>
<g>
	<path class="st9" d="M341,209.9l-103.2-59.6c-7-4.1-6.1-11.1,2-15.8l0,0c8.1-4.7,20.4-5.2,27.4-1.1l103.2,59.6
		c7,4.1,6.1,11.1-2,15.8h0C360.3,213.5,348,214,341,209.9z"/>
	<path class="st11" d="M341,202.5l-103.2-59.6c-7-4.1-6.1-11.1,2-15.8l0,0c8.1-4.7,20.4-5.2,27.4-1.1l103.2,59.6
		c7,4.1,6.1,11.1-2,15.8h0C360.3,206.1,348,206.6,341,202.5z"/>
	<path class="st0" d="M352.9,205.6c-4.5,0-8.8-0.9-12.1-2.8l-103.2-59.6c-3.2-1.8-4.9-4.4-4.9-7.2c0-3.4,2.5-6.7,6.9-9.2
		c8.2-4.7,20.6-5.2,27.8-1.1l103.2,59.6c3.2,1.8,4.9,4.4,4.9,7.2c0,3.4-2.5,6.7-6.9,9.2C364.1,204.3,358.4,205.6,352.9,205.6z
		 M341.2,202.2c6.9,4,19.1,3.5,27.1-1.1c4.2-2.4,6.5-5.6,6.5-8.7c0-2.5-1.6-4.9-4.6-6.6L267,126.3c-6.9-4-19.1-3.5-27.1,1.1
		c-4.2,2.4-6.5,5.6-6.5,8.7c0,2.5,1.6,4.9,4.6,6.6L341.2,202.2z"/>
	<g>
		<path class="st11" d="M359.8,196.9c-2.4,1.4-6.3,1.4-8.7,0c-2.4-1.4-2.4-3.6,0-5c2.4-1.4,6.3-1.4,8.7,0
			C362.2,193.3,362.2,195.5,359.8,196.9z"/>
		<path class="st0" d="M355.4,198.2c-1.6,0-3.2-0.4-4.5-1.1c-1.2-0.7-1.9-1.7-1.9-2.7c0-1,0.7-2,1.9-2.7c2.5-1.4,6.5-1.4,9,0
			c1.2,0.7,1.9,1.7,1.9,2.7c0,1-0.7,2-1.9,2.7C358.6,197.9,357,198.2,355.4,198.2z M355.4,191.1c-1.5,0-3.1,0.3-4.2,1
			c-1.1,0.6-1.7,1.5-1.7,2.3c0,0.9,0.6,1.7,1.7,2.3c2.3,1.4,6.2,1.4,8.5,0c1.1-0.6,1.7-1.5,1.7-2.3c0-0.9-0.6-1.7-1.7-2.3
			C358.5,191.4,356.9,191.1,355.4,191.1z"/>
		<path class="st11" d="M345.3,188.5c-2.4,1.4-6.3,1.4-8.7,0c-2.4-1.4-2.4-3.6,0-5c2.4-1.4,6.3-1.4,8.7,0
			C347.7,184.8,347.7,187.1,345.3,188.5z"/>
		<path class="st0" d="M340.9,187c-1.6,0-3.2-0.4-4.5-1.1c-1.2-0.7-1.9-1.7-1.9-2.7c0-1,0.7-2,1.9-2.7c2.5-1.4,6.5-1.4,9,0
			c1.2,0.7,1.9,1.7,1.9,2.7c0,1-0.7,2-1.9,2.7l0,0C344.1,186.6,342.5,187,340.9,187z M340.9,179.9c-1.5,0-3.1,0.3-4.2,1
			c-1.1,0.6-1.7,1.5-1.7,2.3c0,0.9,0.6,1.7,1.7,2.3c2.3,1.4,6.2,1.4,8.5,0l0,0c1.1-0.6,1.7-1.5,1.7-2.3c0-0.9-0.6-1.7-1.7-2.3
			C344,180.2,342.4,179.9,340.9,179.9z"/>
		<path class="st0" d="M303.2,156.5c-1.6,0-3.2-0.4-4.5-1.1c-1.2-0.7-1.9-1.7-1.9-2.7c0-1,0.7-2,1.9-2.7c2.5-1.4,6.5-1.4,9,0
			c1.2,0.7,1.9,1.7,1.9,2.7c0,1-0.7,2-1.9,2.7l0,0C306.4,156.1,304.8,156.5,303.2,156.5z M303.2,149.3c-1.5,0-3.1,0.3-4.2,1
			c-1.1,0.6-1.7,1.5-1.7,2.3s0.6,1.7,1.7,2.3c2.3,1.4,6.2,1.4,8.5,0l0,0c1.1-0.6,1.7-1.5,1.7-2.3s-0.6-1.7-1.7-2.3
			C306.3,149.7,304.7,149.3,303.2,149.3z"/>
		<path class="st11" d="M307.5,167.4c-2.4,1.4-6.3,1.4-8.7,0c-2.4-1.4-2.4-3.6,0-5s6.3-1.4,8.7,0C310,163.8,310,166,307.5,167.4z"/>
		<path class="st0" d="M288.7,140.8c-1.6,0-3.2-0.4-4.5-1.1c-1.2-0.7-1.9-1.7-1.9-2.7c0-1,0.7-2,1.9-2.7c2.5-1.4,6.5-1.4,9,0
			c1.2,0.7,1.9,1.7,1.9,2.7c0,1-0.7,2-1.9,2.7C291.9,140.5,290.3,140.8,288.7,140.8z M288.7,133.7c-1.5,0-3.1,0.3-4.2,1
			c-1.1,0.6-1.7,1.5-1.7,2.3c0,0.9,0.6,1.7,1.7,2.3c2.3,1.4,6.2,1.4,8.5,0l0,0c1.1-0.6,1.7-1.5,1.7-2.3c0-0.9-0.6-1.7-1.7-2.3
			C291.8,134.1,290.2,133.7,288.7,133.7z"/>
		<path class="st11" d="M293,159.7c-2.4,1.4-6.3,1.4-8.7,0c-2.4-1.4-2.4-3.6,0-5c2.4-1.4,6.3-1.4,8.7,0
			C295.5,156,295.5,158.3,293,159.7z"/>
		<path class="st0" d="M274.2,121.8c-1.6,0-3.2-0.4-4.5-1.1c-1.2-0.7-1.9-1.7-1.9-2.7c0-1,0.7-2,1.9-2.7c2.5-1.4,6.5-1.4,9,0
			c1.2,0.7,1.9,1.7,1.9,2.7c0,1-0.7,2-1.9,2.7l0,0C277.4,121.5,275.8,121.8,274.2,121.8z M274.2,114.7c-1.5,0-3.1,0.3-4.2,1
			c-1.1,0.6-1.7,1.5-1.7,2.3c0,0.9,0.6,1.7,1.7,2.3c2.3,1.4,6.2,1.4,8.5,0l0,0c1.1-0.6,1.7-1.5,1.7-2.3c0-0.9-0.6-1.7-1.7-2.3
			C277.3,115.1,275.7,114.7,274.2,114.7z"/>
		<path class="st11" d="M278.3,151.6c-2.4,1.4-6.3,1.4-8.7,0c-2.4-1.4-2.4-3.6,0-5c2.4-1.4,6.3-1.4,8.7,0
			C280.7,148,280.7,150.2,278.3,151.6z"/>
		<path class="st11" d="M319.9,169.3l12.6,7.3c2.1,1.2,1.8,3.3-0.6,4.7l0,0c-2.4,1.4-6.1,1.5-8.1,0.3l-12.6-7.3
			c-2.1-1.2-1.8-3.3,0.6-4.7l0,0C314.1,168.2,317.8,168.1,319.9,169.3z"/>
		<path class="st0" d="M327.3,176.8c-1.4,0-2.7-0.3-3.7-0.8l-12.6-7.3c-1-0.6-1.5-1.4-1.5-2.2c0-1,0.8-2.1,2.1-2.9
			c2.5-1.4,6.2-1.6,8.4-0.3l12.6,7.3c1,0.6,1.5,1.4,1.5,2.2c0,1-0.8,2.1-2.1,2.9C330.7,176.4,328.9,176.8,327.3,176.8z M316.3,162.8
			c-1.6,0-3.2,0.4-4.5,1.1c-1.2,0.7-1.9,1.6-1.9,2.5c0,0.7,0.5,1.4,1.3,1.8l12.6,7.3c2,1.2,5.6,1,7.9-0.3c1.2-0.7,1.9-1.6,1.9-2.5
			c0-0.7-0.5-1.4-1.3-1.8l-12.6-7.3C318.8,163.1,317.6,162.8,316.3,162.8z"/>
	</g>
</g>
<path class="st9" d="M475.8,149.6c-2.3,1.3-6,1.3-8.2,0s-2.3-3.4,0-4.8c2.3-1.3,6-1.3,8.2,0C478.1,146.2,478.1,148.3,475.8,149.6z"
	/>
<path class="st9" d="M444.3,126.7l16.1,9.3c2,1.1,1.7,3.1-0.6,4.4l0,0c-2.3,1.3-5.7,1.5-7.7,0.3l-16.1-9.3c-2-1.1-1.7-3.1,0.6-4.4
	l0,0C438.9,125.7,442.4,125.6,444.3,126.7z"/>
<path class="st9" d="M353.7,73.3l16.1,9.3c2,1.1,1.7,3.1-0.6,4.4v0c-2.3,1.3-5.7,1.5-7.7,0.3L345.5,78c-2-1.1-1.7-3.1,0.6-4.4l0,0
	C348.3,72.3,351.7,72.1,353.7,73.3z"/>
<path class="st0" d="M475.8,143.8c-2.3,1.3-6,1.3-8.2,0s-2.3-3.4,0-4.8c2.3-1.3,6-1.3,8.2,0C478.1,140.4,478.1,142.5,475.8,143.8z"
	/>
<path class="st0" d="M444.3,120.9l16.1,9.3c2,1.1,1.7,3.1-0.6,4.4l0,0c-2.3,1.3-5.7,1.5-7.7,0.3l-16.1-9.3c-2-1.1-1.7-3.1,0.6-4.4
	l0,0C438.9,119.9,442.4,119.8,444.3,120.9z"/>
<path class="st0" d="M353.7,67.5l16.1,9.3c2,1.1,1.7,3.1-0.6,4.4l0,0c-2.3,1.3-5.7,1.5-7.7,0.3l-16.1-9.3c-2-1.1-1.7-3.1,0.6-4.4h0
	C348.3,66.5,351.7,66.3,353.7,67.5z"/>
<g class="st6">
	<linearGradient id="SVGID_6_" gradientUnits="userSpaceOnUse" x1="488.3995" y1="324.641" x2="556.9115" y2="364.1965">
		<stop  offset="0" style="stop-color:#B4B1D4"/>
		<stop  offset="0.1898" style="stop-color:#A5A2CB"/>
		<stop  offset="0.5707" style="stop-color:#807EB4"/>
		<stop  offset="1" style="stop-color:#50589D"/>
	</linearGradient>
	<path class="st12" d="M566.2,347.1v-7.5l-2.1-1.2c-0.6,3.6-4.8,5.9-8.3,6.4L532,358.7l-10.4,3.7l-33.1-17.1l0.8-0.4
		c-2.8-1.3-4.4-4.4-5.9-7.1l-2.2,1.3l-1.3,0.4v7.7l0,0c0,1.5,1,2.9,2.9,4.1l33.2,19.2c3.9,2.2,10.2,2.2,14.1,0l33.2-19.2
		c1.9-1.1,2.9-2.5,2.9-4C566.2,347.2,566.2,347.2,566.2,347.1L566.2,347.1z"/>
	<path class="st13" d="M555.8,344.8L532,358.7l-9,3.3v10.2c2.6,0,5.1-0.6,7.1-1.7l33.2-19.2c1.9-1.1,2.9-2.5,2.9-4
		c0-0.1,0-0.1,0-0.2l0,0v-7.5l-1.9-1.1h-0.2C563.4,342,559.3,344.3,555.8,344.8z"/>
	<g>
		<linearGradient id="SVGID_7_" gradientUnits="userSpaceOnUse" x1="479.8087" y1="339.5928" x2="566.1597" y2="339.5928">
			<stop  offset="0" style="stop-color:#E8E7F3"/>
			<stop  offset="0.1126" style="stop-color:#DFDDEE"/>
			<stop  offset="0.4385" style="stop-color:#C9C6E1"/>
			<stop  offset="0.7423" style="stop-color:#BDB9D8"/>
			<stop  offset="1" style="stop-color:#B9B4D5"/>
		</linearGradient>
		<path class="st14" d="M515.9,362.8l-33.2-19.2c-3.9-2.2-3.9-5.9,0-8.1l33.2-19.2c3.9-2.2,10.2-2.2,14.1,0l33.2,19.2
			c3.9,2.2,3.9,5.9,0,8.1L530,362.8C526.1,365.1,519.8,365.1,515.9,362.8z"/>
	</g>
	<g class="st6">
		<path class="st15" d="M515.9,362.8l-33.2-19.2c-3.9-2.2-3.9-5.9,0-8.1l33.2-19.2c3.9-2.2,10.2-2.2,14.1,0l33.2,19.2
			c3.9,2.2,3.9,5.9,0,8.1L530,362.8C526.1,365.1,519.8,365.1,515.9,362.8z"/>
	</g>
</g>
<g>
	<g>
		<path class="st0" d="M523,338.6c-2.3,0-4.5-0.5-6.3-1.5l-33.2-19.2c-1.7-1-2.7-2.3-2.7-3.8s0.9-2.8,2.7-3.8l33.2-19.2
			c3.5-2,9.1-2,12.5,0l33.2,19.2c1.7,1,2.7,2.3,2.7,3.8c0,1.4-1,2.8-2.7,3.8l-33.2,19.2C527.5,338.1,525.3,338.6,523,338.6z
			 M523,290.3c-2.2,0-4.3,0.5-6,1.4l-33.2,19.2c-1.5,0.9-2.4,2.1-2.4,3.3s0.8,2.4,2.4,3.3l33.2,19.2c3.3,1.9,8.6,1.9,11.9,0
			l33.2-19.2c1.5-0.9,2.4-2,2.4-3.3c0-1.2-0.8-2.4-2.4-3.3L529,291.7C527.3,290.8,525.1,290.3,523,290.3z"/>
		<g>
			<path class="st11" d="M566.2,306.8v-11.4l-2.1-1.2c-0.6,3.6-4.8,5.9-8.3,6.4L532,314.6l-10.4,3.7l-33.1-17.1l0.8-0.4
				c-2.8-1.3-4.4-4.4-5.9-7.1l-2.2,1.3l-1.3,0.4v11.6l0,0c0,1.5,1,2.9,2.9,4.1l33.2,19.2c3.9,2.2,10.2,2.2,14.1,0l33.2-19.2
				c1.9-1.1,2.9-2.5,2.9-4C566.2,306.9,566.2,306.9,566.2,306.8L566.2,306.8z"/>
			<g>
				<g>
					<linearGradient id="SVGID_8_" gradientUnits="userSpaceOnUse" x1="488.3994" y1="274.2123" x2="556.9115" y2="313.7678">
						<stop  offset="0" style="stop-color:#B4B1D4"/>
						<stop  offset="0.1898" style="stop-color:#A5A2CB"/>
						<stop  offset="0.5707" style="stop-color:#807EB4"/>
						<stop  offset="1" style="stop-color:#50589D"/>
					</linearGradient>
					<path class="st16" d="M566.2,296.7v-7.5l-2.1-1.2c-0.6,3.6-4.8,5.9-8.3,6.4L532,308.3l-10.4,3.7l-33.1-17.1l0.8-0.4
						c-2.8-1.3-4.4-4.4-5.9-7.1l-2.2,1.3l-1.3,0.4v7.7l0,0c0,1.5,1,2.9,2.9,4.1l33.2,19.2c3.9,2.2,10.2,2.2,14.1,0l33.2-19.2
						c1.9-1.1,2.9-2.5,2.9-4C566.2,296.8,566.2,296.8,566.2,296.7L566.2,296.7z"/>
					<path class="st13" d="M555.8,294.4L532,308.3l-9,3.3v10.2c2.6,0,5.1-0.6,7.1-1.7l33.2-19.2c1.9-1.1,2.9-2.5,2.9-4
						c0-0.1,0-0.1,0-0.2l0,0v-7.5l-1.9-1.1h-0.2C563.4,291.6,559.3,293.9,555.8,294.4z"/>
					<g>
						<linearGradient id="SVGID_9_" gradientUnits="userSpaceOnUse" x1="479.8087" y1="289.1642" x2="566.1597" y2="289.1642">
							<stop  offset="0" style="stop-color:#E8E7F3"/>
							<stop  offset="0.1126" style="stop-color:#DFDDEE"/>
							<stop  offset="0.4385" style="stop-color:#C9C6E1"/>
							<stop  offset="0.7423" style="stop-color:#BDB9D8"/>
							<stop  offset="1" style="stop-color:#B9B4D5"/>
						</linearGradient>
						<path class="st17" d="M515.9,312.4l-33.2-19.2c-3.9-2.2-3.9-5.9,0-8.1l33.2-19.2c3.9-2.2,10.2-2.2,14.1,0l33.2,19.2
							c3.9,2.2,3.9,5.9,0,8.1L530,312.4C526.1,314.7,519.8,314.7,515.9,312.4z"/>
					</g>
					<g>
						<path class="st3" d="M563.2,293.2L530,312.4c-3.9,2.2-10.2,2.2-14.1,0l-33.2-19.2c-1.7-1-2.7-2.3-2.9-3.6
							c-0.2,1.6,0.7,3.3,2.9,4.5l33.2,19.2c3.9,2.2,10.2,2.2,14.1,0l33.2-19.2c2.2-1.2,3.1-2.9,2.9-4.5
							C565.9,290.9,565,292.2,563.2,293.2z"/>
					</g>
				</g>
			</g>
		</g>
	</g>
</g>
<g class="st6">
	<linearGradient id="SVGID_10_" gradientUnits="userSpaceOnUse" x1="340.548" y1="369.385" x2="409.06" y2="408.9405">
		<stop  offset="0" style="stop-color:#B4B1D4"/>
		<stop  offset="0.1898" style="stop-color:#A5A2CB"/>
		<stop  offset="0.5707" style="stop-color:#807EB4"/>
		<stop  offset="1" style="stop-color:#50589D"/>
	</linearGradient>
	<path class="st18" d="M418.3,391.9v-7.5l-2.1-1.2c-0.6,3.6-4.8,5.9-8.3,6.4l-23.8,13.9l-10.4,3.7l-33.1-17.1l0.8-0.4
		c-2.8-1.3-4.4-4.4-5.9-7.1l-2.2,1.3l-1.3,0.4v7.7l0,0c0,1.5,1,2.9,2.9,4.1l33.2,19.2c3.9,2.2,10.2,2.2,14.1,0l33.2-19.2
		c1.9-1.1,2.9-2.5,2.9-4C418.3,392,418.3,391.9,418.3,391.9L418.3,391.9z"/>
	<path class="st13" d="M408,389.6l-23.8,13.9l-9,3.3v10.2c2.6,0,5.1-0.6,7.1-1.7l33.2-19.2c1.9-1.1,2.9-2.5,2.9-4c0-0.1,0-0.1,0-0.2
		l0,0v-7.5l-1.9-1.1h-0.2C415.6,386.8,411.4,389.1,408,389.6z"/>
	<g>
		<linearGradient id="SVGID_11_" gradientUnits="userSpaceOnUse" x1="331.9572" y1="384.3368" x2="418.3082" y2="384.3368">
			<stop  offset="0" style="stop-color:#E8E7F3"/>
			<stop  offset="0.1126" style="stop-color:#DFDDEE"/>
			<stop  offset="0.4385" style="stop-color:#C9C6E1"/>
			<stop  offset="0.7423" style="stop-color:#BDB9D8"/>
			<stop  offset="1" style="stop-color:#B9B4D5"/>
		</linearGradient>
		<path class="st19" d="M368.1,407.6l-33.2-19.2c-3.9-2.2-3.9-5.9,0-8.1l33.2-19.2c3.9-2.2,10.2-2.2,14.1,0l33.2,19.2
			c3.9,2.2,3.9,5.9,0,8.1l-33.2,19.2C378.3,409.8,372,409.8,368.1,407.6z"/>
	</g>
	<g class="st6">
		<path class="st15" d="M368.1,407.6l-33.2-19.2c-3.9-2.2-3.9-5.9,0-8.1l33.2-19.2c3.9-2.2,10.2-2.2,14.1,0l33.2,19.2
			c3.9,2.2,3.9,5.9,0,8.1l-33.2,19.2C378.3,409.8,372,409.8,368.1,407.6z"/>
	</g>
</g>
<g>
	<g>
		<path class="st0" d="M375.1,379.7c-2.3,0-4.5-0.5-6.3-1.5L335.7,359c-1.7-1-2.7-2.3-2.7-3.8c0-1.4,0.9-2.8,2.7-3.8l33.2-19.2
			c3.5-2,9.1-2,12.5,0l33.2,19.2c1.7,1,2.7,2.3,2.7,3.8c0,1.4-0.9,2.8-2.7,3.8l-33.2,19.2C379.7,379.2,377.4,379.7,375.1,379.7z
			 M369.2,377.7c3.3,1.9,8.6,1.9,11.9,0l33.2-19.2c1.5-0.9,2.4-2.1,2.4-3.3c0-1.2-0.8-2.4-2.4-3.3l-33.2-19.2
			c-3.3-1.9-8.6-1.9-11.9,0L336,352c-1.5,0.9-2.4,2.1-2.4,3.3c0,1.2,0.8,2.4,2.4,3.3L369.2,377.7z"/>
		<g>
			<path class="st11" d="M418.3,347.9v-11.4l-2.1-1.2c-0.6,3.6-4.8,5.9-8.3,6.4l-23.8,13.9l-10.4,3.7l-33.1-17.1l0.8-0.4
				c-2.8-1.3-4.4-4.4-5.9-7.1l-2.2,1.3l-1.3,0.4V348l0,0c0,1.5,1,2.9,2.9,4.1l33.2,19.2c3.9,2.2,10.2,2.2,14.1,0l33.2-19.2
				c1.9-1.1,2.9-2.5,2.9-4C418.3,348,418.3,347.9,418.3,347.9L418.3,347.9z"/>
			<g>
				<g>
					<linearGradient id="SVGID_12_" gradientUnits="userSpaceOnUse" x1="340.548" y1="315.2966" x2="409.06" y2="354.852">
						<stop  offset="0" style="stop-color:#B4B1D4"/>
						<stop  offset="0.1898" style="stop-color:#A5A2CB"/>
						<stop  offset="0.5707" style="stop-color:#807EB4"/>
						<stop  offset="1" style="stop-color:#50589D"/>
					</linearGradient>
					<path class="st20" d="M418.3,337.8v-7.5l-2.1-1.2c-0.6,3.6-4.8,5.9-8.3,6.4l-23.8,13.9l-10.4,3.7L340.6,336l0.8-0.4
						c-2.8-1.3-4.4-4.4-5.9-7.1l-2.2,1.3l-1.3,0.4v7.7l0,0c0,1.5,1,2.9,2.9,4.1l33.2,19.2c3.9,2.2,10.2,2.2,14.1,0l33.2-19.2
						c1.9-1.1,2.9-2.5,2.9-4C418.3,337.9,418.3,337.8,418.3,337.8L418.3,337.8z"/>
					<path class="st13" d="M408,335.5l-23.8,13.9l-9,3.3v10.2c2.6,0,5.1-0.6,7.1-1.7l33.2-19.2c1.9-1.1,2.9-2.5,2.9-4
						c0-0.1,0-0.1,0-0.2l0,0v-7.5l-1.9-1.1h-0.2C415.6,332.7,411.4,335,408,335.5z"/>
					<g>
						<linearGradient id="SVGID_13_" gradientUnits="userSpaceOnUse" x1="331.9572" y1="330.2484" x2="418.3082" y2="330.2484">
							<stop  offset="0" style="stop-color:#E8E7F3"/>
							<stop  offset="0.1126" style="stop-color:#DFDDEE"/>
							<stop  offset="0.4385" style="stop-color:#C9C6E1"/>
							<stop  offset="0.7423" style="stop-color:#BDB9D8"/>
							<stop  offset="1" style="stop-color:#B9B4D5"/>
						</linearGradient>
						<path class="st21" d="M368.1,353.5l-33.2-19.2c-3.9-2.2-3.9-5.9,0-8.1l33.2-19.2c3.9-2.2,10.2-2.2,14.1,0l33.2,19.2
							c3.9,2.2,3.9,5.9,0,8.1l-33.2,19.2C378.3,355.7,372,355.7,368.1,353.5z"/>
					</g>
					<g>
						<path class="st22" d="M375.1,350c-2,0-4.1-0.4-5.7-1.3l-25.9-15c-1.6-0.9-2.4-2.1-2.4-3.4c0-1.3,0.9-2.5,2.4-3.4l25.9-15
							c3.1-1.8,8.2-1.8,11.3,0l25.9,15c1.6,0.9,2.4,2.1,2.4,3.4c0,1.3-0.9,2.5-2.4,3.4l-25.9,15C379.2,349.6,377.2,350,375.1,350z
							 M375.1,311.1c-1.9,0-3.9,0.4-5.4,1.3l-25.9,15c-1.4,0.8-2.1,1.8-2.1,2.9c0,1.1,0.8,2.1,2.1,2.9l25.9,15c3,1.7,7.8,1.7,10.7,0
							l25.9-15c1.4-0.8,2.1-1.8,2.1-2.9c0-1.1-0.8-2.1-2.1-2.9l-25.9-15C379,311.5,377.1,311.1,375.1,311.1z"/>
					</g>
					<g>
						<path class="st3" d="M415.4,334.3l-33.2,19.2c-3.9,2.2-10.2,2.2-14.1,0l-33.2-19.2c-1.7-1-2.7-2.3-2.9-3.6
							c-0.2,1.6,0.7,3.3,2.9,4.5l33.2,19.2c3.9,2.2,10.2,2.2,14.1,0l33.2-19.2c2.2-1.2,3.1-2.9,2.9-4.5
							C418.1,332,417.1,333.3,415.4,334.3z"/>
					</g>
				</g>
			</g>
		</g>
	</g>
</g>
<g class="st6">
	<linearGradient id="SVGID_14_" gradientUnits="userSpaceOnUse" x1="8.5907" y1="60.34" x2="77.1028" y2="99.8955">
		<stop  offset="0" style="stop-color:#B4B1D4"/>
		<stop  offset="0.1898" style="stop-color:#A5A2CB"/>
		<stop  offset="0.5707" style="stop-color:#807EB4"/>
		<stop  offset="1" style="stop-color:#50589D"/>
	</linearGradient>
	<path class="st23" d="M86.4,82.8v-7.5l-2.1-1.2c-0.6,3.6-4.8,5.9-8.3,6.4L52.2,94.4l-10.4,3.7L8.7,81.1l0.8-0.4
		c-2.8-1.3-4.4-4.4-5.9-7.1l-2.2,1.3L0,75.2v7.7l0,0c0,1.5,1,2.9,2.9,4.1l33.2,19.2c3.9,2.2,10.2,2.2,14.1,0L83.4,87
		c1.9-1.1,2.9-2.5,2.9-4C86.4,82.9,86.3,82.9,86.4,82.8L86.4,82.8z"/>
	<path class="st13" d="M76,80.5L52.2,94.4l-9,3.3v10.2c2.6,0,5.1-0.6,7.1-1.7L83.4,87c1.9-1.1,2.9-2.5,2.9-4c0-0.1,0-0.1,0-0.2l0,0
		v-7.5l-1.9-1.1h-0.2C83.6,77.7,79.5,80,76,80.5z"/>
	<g>
		<linearGradient id="SVGID_15_" gradientUnits="userSpaceOnUse" x1="2.098486e-05" y1="75.2919" x2="86.351" y2="75.2919">
			<stop  offset="0" style="stop-color:#E8E7F3"/>
			<stop  offset="0.1126" style="stop-color:#DFDDEE"/>
			<stop  offset="0.4385" style="stop-color:#C9C6E1"/>
			<stop  offset="0.7423" style="stop-color:#BDB9D8"/>
			<stop  offset="1" style="stop-color:#B9B4D5"/>
		</linearGradient>
		<path class="st24" d="M36.1,98.5L2.9,79.4c-3.9-2.2-3.9-5.9,0-8.1L36.1,52c3.9-2.2,10.2-2.2,14.1,0l33.2,19.2
			c3.9,2.2,3.9,5.9,0,8.1L50.2,98.5C46.3,100.8,40,100.8,36.1,98.5z"/>
	</g>
	<g class="st6">
		<path class="st15" d="M36.1,98.5L2.9,79.4c-3.9-2.2-3.9-5.9,0-8.1L36.1,52c3.9-2.2,10.2-2.2,14.1,0l33.2,19.2
			c3.9,2.2,3.9,5.9,0,8.1L50.2,98.5C46.3,100.8,40,100.8,36.1,98.5z"/>
	</g>
</g>
<g>
	<g>
		<path class="st0" d="M43.2,74.4c-2.3,0-4.5-0.5-6.3-1.5L3.7,53.7C2,52.7,1,51.4,1,49.9c0-1.4,0.9-2.8,2.7-3.8L36.9,27
			c3.4-2,9.1-2,12.5,0l33.2,19.2c1.7,1,2.7,2.3,2.7,3.8c0,1.4-0.9,2.8-2.7,3.8L49.4,72.9C47.7,73.9,45.4,74.4,43.2,74.4z M43.2,26
			c-2.2,0-4.3,0.5-6,1.4L4,46.6c-1.5,0.9-2.4,2.1-2.4,3.3c0,1.2,0.8,2.4,2.4,3.3l33.2,19.2c3.3,1.9,8.6,1.9,11.9,0l33.2-19.2
			c1.5-0.9,2.4-2.1,2.4-3.3c0-1.2-0.8-2.4-2.4-3.3L49.1,27.5C47.5,26.5,45.3,26,43.2,26z"/>
		<g>
			<path class="st11" d="M86.4,42.6V31.2L84.3,30c-0.6,3.6-4.8,5.9-8.3,6.4L52.2,50.3l-10.4,3.7L8.7,37l0.8-0.4
				c-2.8-1.3-4.4-4.4-5.9-7.1l-2.2,1.3L0,31.1v11.6l0,0c0,1.5,1,2.9,2.9,4.1l33.2,19.2c3.9,2.2,10.2,2.2,14.1,0l33.2-19.2
				c1.9-1.1,2.9-2.5,2.9-4C86.4,42.7,86.3,42.6,86.4,42.6L86.4,42.6z"/>
			<g>
				<g>
					<linearGradient id="SVGID_16_" gradientUnits="userSpaceOnUse" x1="8.5907" y1="9.9756" x2="77.1028" y2="49.531">
						<stop  offset="0" style="stop-color:#B4B1D4"/>
						<stop  offset="0.1898" style="stop-color:#A5A2CB"/>
						<stop  offset="0.5707" style="stop-color:#807EB4"/>
						<stop  offset="1" style="stop-color:#50589D"/>
					</linearGradient>
					<path class="st25" d="M86.4,32.5v-7.5l-2.1-1.2c-0.6,3.6-4.8,5.9-8.3,6.4L52.2,44.1l-10.4,3.7L8.7,30.7l0.8-0.4
						c-2.8-1.3-4.4-4.4-5.9-7.1l-2.2,1.3L0,24.9v7.7l0,0c0,1.5,1,2.9,2.9,4.1l33.2,19.2c3.9,2.2,10.2,2.2,14.1,0l33.2-19.2
						c1.9-1.1,2.9-2.5,2.9-4C86.4,32.6,86.3,32.5,86.4,32.5L86.4,32.5z"/>
					<path class="st13" d="M76,30.1L52.2,44.1l-9,3.3v10.2c2.6,0,5.1-0.6,7.1-1.7l33.2-19.2c1.9-1.1,2.9-2.5,2.9-4
						c0-0.1,0-0.1,0-0.2l0,0v-7.5l-1.9-1.1h-0.2C83.6,27.4,79.5,29.7,76,30.1z"/>
					<g>
						<linearGradient id="SVGID_17_" gradientUnits="userSpaceOnUse" x1="2.098486e-05" y1="24.9274" x2="86.351" y2="24.9274">
							<stop  offset="0" style="stop-color:#E8E7F3"/>
							<stop  offset="0.1126" style="stop-color:#DFDDEE"/>
							<stop  offset="0.4385" style="stop-color:#C9C6E1"/>
							<stop  offset="0.7423" style="stop-color:#BDB9D8"/>
							<stop  offset="1" style="stop-color:#B9B4D5"/>
						</linearGradient>
						<path class="st26" d="M36.1,48.2L2.9,29c-3.9-2.2-3.9-5.9,0-8.1L36.1,1.7c3.9-2.2,10.2-2.2,14.1,0l33.2,19.2
							c3.9,2.2,3.9,5.9,0,8.1L50.2,48.2C46.3,50.4,40,50.4,36.1,48.2z"/>
					</g>
					<g>
						<path class="st22" d="M43.2,44.7c-2,0-4.1-0.4-5.7-1.3h0l-25.9-15c-1.6-0.9-2.4-2.1-2.4-3.4c0-1.3,0.9-2.5,2.4-3.4l25.9-15
							c3.1-1.8,8.2-1.8,11.3,0l25.9,15c1.6,0.9,2.4,2.1,2.4,3.4c0,1.3-0.9,2.5-2.4,3.4l-25.9,15C47.3,44.2,45.2,44.7,43.2,44.7z
							 M43.2,5.7c-1.9,0-3.9,0.4-5.4,1.3L11.9,22c-1.4,0.8-2.1,1.8-2.1,2.9c0,1.1,0.8,2.1,2.1,2.9l25.9,15c3,1.7,7.8,1.7,10.7,0
							l25.9-15c1.4-0.8,2.1-1.8,2.1-2.9c0-1.1-0.8-2.1-2.1-2.9L48.5,7C47.1,6.2,45.1,5.7,43.2,5.7z"/>
					</g>
					<g>
						<path class="st3" d="M83.4,29L50.2,48.2c-3.9,2.2-10.2,2.2-14.1,0L2.9,29c-1.7-1-2.7-2.3-2.9-3.6c-0.2,1.6,0.7,3.3,2.9,4.5
							l33.2,19.2c3.9,2.2,10.2,2.2,14.1,0l33.2-19.2c2.2-1.2,3.1-2.9,2.9-4.5C86.1,26.7,85.2,28,83.4,29z"/>
					</g>
				</g>
			</g>
		</g>
	</g>
</g>
</svg>
