<?xml version="1.0" encoding="utf-8"?>
<!-- Generator: Adobe Illustrator 21.0.0, SVG Export Plug-In . SVG Version: 6.00 Build 0)  -->
<svg version="1.1" id="_x2014_ÎÓÈ_x5F_1" xmlns="http://www.w3.org/2000/svg" xmlns:xlink="http://www.w3.org/1999/xlink"
	 x="0px" y="0px" viewBox="0 0 315.7 275.3" style="enable-background:new 0 0 315.7 275.3;" xml:space="preserve">
<style type="text/css">
	.st0{fill:#42E8E0;}
	.st1{fill:#2FD3C7;}
	.st2{fill:#FFFFFF;}
	.st3{opacity:0.7;fill:#18B2A3;}
	.st4{opacity:0.1;fill:#42E8E0;}
	.st5{opacity:0.1;fill:#2FD3C7;}
	.st6{opacity:0.1;}
	.st7{opacity:0.4;fill:#03002D;}
	.st8{fill:url(#SVGID_1_);}
	.st9{fill:url(#SVGID_2_);}
	.st10{fill:url(#SVGID_3_);}
	.st11{fill:url(#SVGID_4_);}
	.st12{fill:url(#SVGID_5_);}
	.st13{fill:url(#SVGID_6_);}
	.st14{fill:#393091;}
	.st15{fill:#BCBEFF;}
	.st16{fill:url(#SVGID_7_);}
	.st17{fill:url(#SVGID_8_);}
	.st18{fill:#453C9E;}
	.st19{fill:url(#SVGID_9_);}
	.st20{fill:url(#SVGID_10_);}
	.st21{fill:url(#SVGID_11_);}
	.st22{fill:url(#SVGID_12_);}
</style>
<g>
	<g>
		<polygon class="st0" points="153,146 127.7,131.4 127.7,160.6 153,175.2 178.2,160.6 178.2,131.4 		"/>
		<polygon class="st0" points="153,175.2 127.7,160.6 127.7,131.4 153,146 		"/>
		<polygon class="st1" points="178.2,160.6 153,175.2 153,146 178.2,131.4 		"/>
		<polygon class="st0" points="153,146 127.7,131.4 153,116.8 178.2,131.4 		"/>
		<polygon class="st2" points="153,146 128.8,132.1 127.7,132.7 153,147.3 178.2,132.7 177.2,132.1 		"/>
	</g>
	<g>
		<polygon class="st0" points="185.8,164.7 160.5,150.1 160.5,179.3 185.8,193.9 211,179.3 211,150.1 		"/>
		<polygon class="st0" points="185.8,193.9 160.5,179.3 160.5,150.1 185.8,164.7 		"/>
		<polygon class="st1" points="211,179.3 185.8,193.9 185.8,164.7 211,150.1 		"/>
		<polygon class="st0" points="185.8,164.7 160.5,150.1 185.8,135.6 211,150.1 		"/>
		<polygon class="st2" points="185.8,164.7 161.6,150.8 160.5,151.4 185.8,166 211,151.4 210,150.8 		"/>
	</g>
	<g>
		<polygon class="st0" points="218.6,183.4 193.3,168.9 193.3,198 218.6,212.6 243.8,198 243.8,168.9 		"/>
		<polygon class="st0" points="218.6,212.6 193.3,198 193.3,168.9 218.6,183.4 		"/>
		<polygon class="st1" points="243.8,198 218.6,212.6 218.6,183.4 243.8,168.9 		"/>
		<polygon class="st0" points="218.6,183.4 193.3,168.9 218.6,154.3 243.8,168.9 		"/>
		<polygon class="st2" points="218.6,183.4 194.4,169.5 193.3,170.1 218.6,184.7 243.8,170.1 243.8,168.9 		"/>
	</g>
	<g>
		<polygon class="st0" points="120.2,166 94.9,151.4 94.9,180.6 120.2,195.1 145.4,180.6 145.4,151.4 		"/>
		<polygon class="st0" points="120.2,195.1 94.9,180.6 94.9,151.4 120.2,166 		"/>
		<polygon class="st1" points="145.4,180.6 120.2,195.1 120.2,166 145.4,151.4 		"/>
		<polygon class="st0" points="120.2,166 94.9,151.4 120.2,136.8 145.4,151.4 		"/>
		<polygon class="st2" points="120.2,166 96,152 94.9,152.7 120.2,167.2 145.4,152.7 144.4,152 		"/>
	</g>
	<g>
		<polygon class="st0" points="153,184.7 127.7,170.1 127.7,199.3 153,213.9 178.2,199.3 178.2,170.1 		"/>
		<polygon class="st0" points="153,213.9 127.7,199.3 127.7,170.1 153,184.7 		"/>
		<polygon class="st1" points="178.2,199.3 153,213.9 153,184.7 178.2,170.1 		"/>
		<polygon class="st0" points="153,184.7 127.7,170.1 153,155.5 178.2,170.1 		"/>
		<polygon class="st2" points="153,184.7 128.8,170.7 127.7,171.4 153,186 178.2,171.4 177.2,170.7 		"/>
	</g>
	<g>
		<polygon class="st0" points="185.8,203.4 160.5,188.8 160.5,218 185.8,232.6 211,218 211,188.8 		"/>
		<polygon class="st0" points="185.8,232.6 160.5,218 160.5,188.8 185.8,203.4 		"/>
		<polygon class="st1" points="211,218 185.8,232.6 185.8,203.4 211,188.8 		"/>
		<polygon class="st0" points="185.8,203.4 160.5,188.8 185.8,174.3 211,188.8 		"/>
		<polygon class="st2" points="185.8,203.4 161.6,189.5 160.5,190.1 185.8,204.7 211,190.1 211,188.8 		"/>
	</g>
	<g>
		<polygon class="st0" points="87.4,186 62.1,171.4 62.1,200.5 87.4,215.1 112.7,200.5 112.7,171.4 		"/>
		<polygon class="st0" points="87.4,215.1 62.1,200.5 62.1,171.4 87.4,186 		"/>
		<polygon class="st1" points="112.7,200.5 87.4,215.1 87.4,186 112.7,171.4 		"/>
		<polygon class="st0" points="87.4,186 62.1,171.4 87.4,156.8 112.6,171.4 		"/>
		<polygon class="st2" points="87.4,186 62.1,171.4 62.1,172.6 87.4,187.2 112.6,172.6 111.6,172 		"/>
	</g>
	<g>
		<polygon class="st0" points="120.2,204.7 94.9,190.1 94.9,219.3 120.2,233.8 145.4,219.3 145.4,190.1 		"/>
		<polygon class="st0" points="120.2,233.8 94.9,219.3 94.9,190.1 120.2,204.7 		"/>
		<polygon class="st1" points="145.4,219.3 120.2,233.8 120.2,204.7 145.4,190.1 		"/>
		<polygon class="st0" points="120.2,204.7 94.9,190.1 120.2,175.5 145.4,190.1 		"/>
		<polygon class="st2" points="120.2,204.7 94.9,190.1 94.9,191.4 120.2,205.9 145.4,191.4 144.4,190.7 		"/>
	</g>
	<g>
		<polygon class="st0" points="153,223.4 127.7,208.8 127.7,238 153,252.5 178.2,238 178.2,208.8 		"/>
		<polygon class="st0" points="153,252.5 127.7,238 127.7,208.8 153,223.4 		"/>
		<polygon class="st1" points="178.2,238 153,252.5 153,223.4 178.2,208.8 		"/>
		<polygon class="st0" points="153,223.4 127.7,208.8 153,194.2 178.2,208.8 		"/>
		<polygon class="st2" points="153,223.4 127.7,208.8 127.7,210.1 153,224.7 178.2,210.1 178.2,208.8 		"/>
	</g>
	<g>
		<polygon class="st0" points="153,107.3 127.7,92.7 127.7,121.9 153,136.5 178.2,121.9 178.2,92.7 		"/>
		<polygon class="st0" points="153,136.5 127.7,121.9 127.7,92.7 153,107.3 		"/>
		<polygon class="st1" points="178.2,121.9 153,136.5 153,107.3 178.2,92.7 		"/>
		<polygon class="st0" points="153,107.3 127.7,92.7 153,78.1 178.2,92.7 		"/>
		<polygon class="st2" points="153,107.3 128.8,93.4 127.7,94 153,108.6 178.2,94 177.2,93.4 		"/>
	</g>
	<g>
		<polygon class="st3" points="153,218.6 135.8,208.7 153,198.8 170.2,208.7 		"/>
		<polygon class="st3" points="120.2,199.9 103,190 120.2,180 137.4,190 		"/>
		<polygon class="st3" points="185.8,198.7 168.6,188.7 185.8,178.8 203,188.7 		"/>
		<polygon class="st3" points="218.7,178.9 201.4,169 218.7,159 235.9,169 		"/>
		<polygon class="st3" points="87.4,181.2 70.2,171.3 87.4,161.3 104.6,171.3 		"/>
	</g>
	<g>
		<polygon class="st0" points="185.8,126 160.5,111.4 160.5,140.6 185.8,155.2 211,140.6 211,111.4 		"/>
		<polygon class="st0" points="185.8,155.2 160.5,140.6 160.5,111.4 185.8,126 		"/>
		<polygon class="st1" points="211,140.6 185.8,155.2 185.8,126 211,111.4 		"/>
		<polygon class="st0" points="185.8,126 160.5,111.4 185.8,96.9 211,111.4 		"/>
		<polygon class="st2" points="185.8,126 161.6,112.1 160.5,112.7 185.8,127.3 211,112.7 210,112.1 		"/>
	</g>
	<g>
		<polygon class="st0" points="218.6,144.7 193.3,130.2 193.3,159.3 218.6,173.9 243.8,159.3 243.8,130.2 		"/>
		<polygon class="st0" points="218.6,173.9 193.3,159.3 193.3,130.2 218.6,144.7 		"/>
		<polygon class="st1" points="243.8,159.3 218.6,173.9 218.6,144.7 243.8,130.2 		"/>
		<polygon class="st0" points="218.6,144.7 193.3,130.2 218.6,115.6 243.8,130.2 		"/>
		<polygon class="st2" points="218.6,144.7 194.4,130.8 193.3,131.4 218.6,146 243.8,131.4 243.8,130.2 		"/>
	</g>
	<g>
		<polygon class="st0" points="120.2,127.3 94.9,112.7 94.9,141.9 120.2,156.4 145.4,141.9 145.4,112.7 		"/>
		<polygon class="st0" points="120.2,156.4 94.9,141.9 94.9,112.7 120.2,127.3 		"/>
		<polygon class="st1" points="145.4,141.9 120.2,156.4 120.2,127.3 145.4,112.7 		"/>
		<polygon class="st0" points="120.2,127.3 94.9,112.7 120.2,98.1 145.4,112.7 		"/>
		<polygon class="st2" points="120.2,127.3 96,113.3 94.9,114 120.2,128.6 145.4,114 144.4,113.3 		"/>
	</g>
	<g>
		<polygon class="st0" points="153,146 127.7,131.4 127.7,160.6 153,175.2 178.2,160.6 178.2,131.4 		"/>
		<polygon class="st0" points="153,175.2 127.7,160.6 127.7,131.4 153,146 		"/>
		<polygon class="st1" points="178.2,160.6 153,175.2 153,146 178.2,131.4 		"/>
		<polygon class="st0" points="153,146 127.7,131.4 153,116.8 178.2,131.4 		"/>
		<polygon class="st2" points="153,146 128.8,132.1 127.7,132.7 153,147.3 178.2,132.7 177.2,132.1 		"/>
	</g>
	<g>
		<polygon class="st0" points="185.8,164.7 160.5,150.1 160.5,179.3 185.8,193.9 211,179.3 211,150.1 		"/>
		<polygon class="st0" points="185.8,193.9 160.5,179.3 160.5,150.1 185.8,164.7 		"/>
		<polygon class="st1" points="211,179.3 185.8,193.9 185.8,164.7 211,150.1 		"/>
		<polygon class="st0" points="185.8,164.7 160.5,150.1 185.8,135.6 211,150.1 		"/>
		<polygon class="st2" points="185.8,164.7 161.6,150.8 160.5,151.4 185.8,166 211,151.4 211,150.1 		"/>
	</g>
	<g>
		<polygon class="st0" points="87.4,147.3 62.1,132.7 62.1,161.8 87.4,176.4 112.7,161.8 112.7,132.7 		"/>
		<polygon class="st0" points="87.4,176.4 62.1,161.8 62.1,132.7 87.4,147.3 		"/>
		<polygon class="st1" points="112.7,161.8 87.4,176.4 87.4,147.3 112.7,132.7 		"/>
		<polygon class="st0" points="87.4,147.3 62.1,132.7 87.4,118.1 112.6,132.7 		"/>
		<polygon class="st2" points="87.4,147.3 63.2,133.3 62.1,134 87.4,148.5 112.6,134 111.6,133.3 		"/>
	</g>
	<g>
		<polygon class="st0" points="120.2,166 94.9,151.4 94.9,180.6 120.2,195.1 145.4,180.6 145.4,151.4 		"/>
		<polygon class="st0" points="120.2,195.1 94.9,180.6 94.9,151.4 120.2,166 		"/>
		<polygon class="st1" points="145.4,180.6 120.2,195.1 120.2,166 145.4,151.4 		"/>
		<polygon class="st0" points="120.2,166 94.9,151.4 120.2,136.8 145.4,151.4 		"/>
		<polygon class="st2" points="120.2,166 94.9,151.4 94.9,152.7 120.2,167.2 145.4,152.7 144.4,152 		"/>
	</g>
	<g>
		<polygon class="st0" points="153,184.7 127.7,170.1 127.7,199.3 153,213.9 178.2,199.3 178.2,170.1 		"/>
		<polygon class="st0" points="153,213.9 127.7,199.3 127.7,170.1 153,184.7 		"/>
		<polygon class="st1" points="178.2,199.3 153,213.9 153,184.7 178.2,170.1 		"/>
		<polygon class="st0" points="153,184.7 127.7,170.1 153,155.5 178.2,170.1 		"/>
		<polygon class="st2" points="153,184.7 127.7,170.1 127.7,171.4 153,186 178.2,171.4 178.2,170.1 		"/>
	</g>
	<g>
		<polygon class="st3" points="218.7,140.4 201.4,130.4 218.7,120.5 235.9,130.4 		"/>
		<polygon class="st3" points="87.4,142.7 70.2,132.7 87.4,122.8 104.6,132.7 		"/>
	</g>
	<g>
		<polygon class="st0" points="153,68.6 127.7,54 127.7,83.2 153,97.8 178.2,83.2 178.2,54 		"/>
		<polygon class="st0" points="153,97.8 127.7,83.2 127.7,54 153,68.6 		"/>
		<polygon class="st1" points="178.2,83.2 153,97.8 153,68.6 178.2,54 		"/>
		<polygon class="st0" points="153,68.6 127.7,54 153,39.5 178.2,54 		"/>
		<polygon class="st2" points="153,68.6 127.7,54 127.7,55.3 153,69.9 178.2,55.3 178.2,54 		"/>
	</g>
	<g>
		<polygon class="st0" points="185.8,87.3 160.5,72.7 160.5,101.9 185.8,116.5 211,101.9 211,72.7 		"/>
		<polygon class="st0" points="185.8,116.5 160.5,101.9 160.5,72.7 185.8,87.3 		"/>
		<polygon class="st1" points="211,101.9 185.8,116.5 185.8,87.3 211,72.7 		"/>
		<polygon class="st0" points="185.8,87.3 160.5,72.7 185.8,58.2 211,72.7 		"/>
		<polygon class="st2" points="185.8,87.3 160.5,72.7 160.5,74 185.8,88.6 211,74 211,72.7 		"/>
	</g>
	<g>
		<polygon class="st0" points="218.6,106 193.3,91.5 193.3,120.6 218.6,135.2 243.8,120.6 243.8,91.5 		"/>
		<polygon class="st0" points="218.6,135.2 193.3,120.6 193.3,91.5 218.6,106 		"/>
		<polygon class="st1" points="243.8,120.6 218.6,135.2 218.6,106 243.8,91.5 		"/>
		<polygon class="st0" points="218.6,106 193.3,91.5 218.6,76.9 243.8,91.5 		"/>
		<polygon class="st2" points="218.6,106 193.3,91.5 193.3,92.7 218.6,107.3 243.8,92.7 243.8,91.5 		"/>
	</g>
	<g>
		<polygon class="st0" points="120.2,88.6 94.9,74 94.9,103.2 120.2,117.7 145.4,103.2 145.4,74 		"/>
		<polygon class="st0" points="120.2,117.7 94.9,103.2 94.9,74 120.2,88.6 		"/>
		<polygon class="st1" points="145.4,103.2 120.2,117.7 120.2,88.6 145.4,74 		"/>
		<polygon class="st0" points="120.2,88.6 94.9,74 120.2,59.4 145.4,74 		"/>
		<polygon class="st2" points="120.2,88.6 94.9,74 94.9,75.3 120.2,89.9 145.4,75.3 145.4,74 		"/>
	</g>
	<g>
		<polygon class="st0" points="87.4,108.6 62.1,94 62.1,123.1 87.4,137.7 112.7,123.1 112.7,94 		"/>
		<polygon class="st0" points="87.4,137.7 62.1,123.1 62.1,94 87.4,108.6 		"/>
		<polygon class="st1" points="112.7,123.1 87.4,137.7 87.4,108.6 112.7,94 		"/>
		<polygon class="st0" points="87.4,108.6 62.1,94 87.4,79.4 112.6,94 		"/>
		<polygon class="st2" points="87.4,108.6 62.1,94 62.1,95.3 87.4,109.8 112.6,95.3 112.7,94 		"/>
	</g>
</g>
<g>
	<polygon class="st4" points="295.3,203.4 274.9,191.6 274.9,215.2 295.3,227 315.7,215.2 315.7,191.6 	"/>
	<polygon class="st4" points="295.3,227 274.9,215.2 274.9,191.6 295.3,203.4 	"/>
	<polygon class="st5" points="315.7,215.2 295.3,227 295.3,203.4 315.7,191.6 	"/>
	<polygon class="st4" points="295.3,203.4 274.9,191.6 295.3,179.8 315.7,191.6 	"/>
	<g class="st6">
		<polygon class="st2" points="295.3,203.4 275.8,192.1 274.9,192.6 295.3,204.4 315.7,192.6 314.9,192.1 		"/>
	</g>
	<polygon class="st7" points="295.3,193 274.9,181.2 295.3,169.4 315.7,181.2 	"/>
	<polygon class="st0" points="295.3,148.5 274.9,136.7 274.9,160.3 295.3,172.1 315.7,160.3 315.7,136.7 	"/>
	<polygon class="st0" points="295.3,172.1 274.9,160.3 274.9,136.7 295.3,148.5 	"/>
	<polygon class="st1" points="315.7,160.3 295.3,172.1 295.3,148.5 315.7,136.7 	"/>
	<polygon class="st0" points="295.3,148.5 274.9,136.7 295.3,124.9 315.7,136.7 	"/>
	<polygon class="st2" points="295.3,148.5 275.8,137.2 274.9,137.8 295.3,149.6 315.7,137.8 314.9,137.2 	"/>
</g>
<g>
	<polygon class="st0" points="19.7,61.6 5.9,53.6 5.9,69.5 19.7,77.5 33.5,69.5 33.5,53.6 	"/>
	<polygon class="st0" points="19.7,77.5 5.9,69.5 5.9,53.6 19.7,61.6 	"/>
	<polygon class="st1" points="33.5,69.5 19.7,77.5 19.7,61.6 33.5,53.6 	"/>
	<polygon class="st0" points="19.7,61.6 5.9,53.6 19.7,45.6 33.5,53.6 	"/>
	<polygon class="st7" points="19.7,104.8 5.9,96.9 19.7,88.9 33.5,96.9 	"/>
	<polygon class="st2" points="19.7,61.6 6.5,54 5.9,54.3 19.7,62.3 33.5,54.3 32.9,54 	"/>
	<polygon class="st4" points="19.7,127.3 5.9,119.3 5.9,135.2 19.7,143.2 33.5,135.2 33.5,119.3 	"/>
	<polygon class="st4" points="19.7,143.2 5.9,135.2 5.9,119.3 19.7,127.3 	"/>
	<polygon class="st5" points="33.5,135.2 19.7,143.2 19.7,127.3 33.5,119.3 	"/>
	<polygon class="st4" points="19.7,127.3 5.9,119.3 19.7,111.4 33.5,119.3 	"/>
	<g class="st6">
		<polygon class="st2" points="19.7,127.3 6.5,119.7 5.9,120 19.7,128 33.5,120 32.9,119.7 		"/>
	</g>
</g>
<g>
	<polygon class="st4" points="19.7,252.5 0,241.2 0,263.9 19.7,275.3 39.4,263.9 39.4,241.2 	"/>
	<polygon class="st4" points="19.7,275.3 0,263.9 0,241.2 19.7,252.5 	"/>
	<polygon class="st5" points="39.4,263.9 19.7,275.3 19.7,252.5 39.4,241.2 	"/>
	<polygon class="st4" points="19.7,252.5 0,241.2 19.7,229.8 39.4,241.2 	"/>
	<g class="st6">
		<polygon class="st2" points="19.7,252.5 0.9,241.7 0,242.2 19.7,253.5 39.4,242.2 38.6,241.7 		"/>
	</g>
	<polygon class="st7" points="19.7,245.2 0,233.8 19.7,222.5 39.4,233.8 	"/>
	<polygon class="st0" points="19.7,209.6 0,198.2 0,221 19.7,232.4 39.4,221 39.4,198.2 	"/>
	<polygon class="st0" points="19.7,232.4 0,221 0,198.2 19.7,209.6 	"/>
	<polygon class="st1" points="39.4,221 19.7,232.4 19.7,209.6 39.4,198.2 	"/>
	<polygon class="st0" points="19.7,209.6 0,198.2 19.7,186.9 39.4,198.2 	"/>
	<polygon class="st2" points="19.7,209.6 0.9,198.7 0,199.2 19.7,210.6 39.4,199.2 38.6,198.7 	"/>
</g>
<g>
	<g>
		<g>
			
				<radialGradient id="SVGID_1_" cx="-1568.8955" cy="-2630.8684" r="20.6255" fx="-1568.8644" fy="-2629.5264" gradientTransform="matrix(-0.5036 0.7671 -1.2636 -0.8297 -4001.4746 -903.8861)" gradientUnits="userSpaceOnUse">
				<stop  offset="0" style="stop-color:#C0BFF6"/>
				<stop  offset="1" style="stop-color:#393091"/>
			</radialGradient>
			<path class="st8" d="M95.8,69.7c-4.3-2.8-10.9-11.1-8.6-14.5c2.2-3.4,12.5-0.7,16.7,2.2c4.3,2.8,5.9,7.8,3.7,11.3
				C105.3,72.1,100.1,72.5,95.8,69.7z"/>
			
				<linearGradient id="SVGID_2_" gradientUnits="userSpaceOnUse" x1="-3000.3022" y1="1465.7927" x2="-3009.9575" y2="1478.6876" gradientTransform="matrix(-0.5036 0.7671 -0.9596 -0.6301 -1.7854 3296.2427)">
				<stop  offset="0" style="stop-color:#42E8E0"/>
				<stop  offset="4.674554e-03" style="stop-color:#42E6DF"/>
				<stop  offset="0.1358" style="stop-color:#40B6CB"/>
				<stop  offset="0.2707" style="stop-color:#3E8DB9"/>
				<stop  offset="0.4074" style="stop-color:#3C6BAA"/>
				<stop  offset="0.5467" style="stop-color:#3B519F"/>
				<stop  offset="0.6893" style="stop-color:#3A3F97"/>
				<stop  offset="0.8375" style="stop-color:#393493"/>
				<stop  offset="1" style="stop-color:#393091"/>
			</linearGradient>
			<path class="st9" d="M95.8,69.7c-4.3-2.8-10.9-11.1-8.6-14.5c2.2-3.4,12.5-0.7,16.7,2.2c4.3,2.8,5.9,7.8,3.7,11.3
				C105.3,72.1,100.1,72.5,95.8,69.7z"/>
		</g>
		<path class="st1" d="M124.3,77.6c-0.2,0-0.5,0-0.7-0.1l-17.6-7c-1-0.4-1.5-1.6-1.1-2.6c0.4-1,1.6-1.5,2.6-1.1l17.6,7
			c1,0.4,1.5,1.6,1.1,2.6C125.8,77.1,125.1,77.6,124.3,77.6z"/>
		<path class="st1" d="M197,123.7c-0.8,0-1.5-0.5-1.9-1.3l-11-27.2c-0.4-1,0.1-2.2,1.1-2.6c1-0.4,2.2,0.1,2.6,1.1l11,27.2
			c0.4,1-0.1,2.2-1.1,2.6C197.5,123.6,197.2,123.7,197,123.7z"/>
		<g>
			<g>
				<g>
					
						<radialGradient id="SVGID_3_" cx="-251.4565" cy="-307.3351" r="61.5992" gradientTransform="matrix(0.981 0.1942 -0.1942 0.981 366.9956 393.8236)" gradientUnits="userSpaceOnUse">
						<stop  offset="0" style="stop-color:#C0BFF6"/>
						<stop  offset="1" style="stop-color:#393091"/>
					</radialGradient>
					<circle class="st10" cx="129" cy="77.6" r="10.7"/>
				</g>
			</g>
			<g>
				<g>
					
						<linearGradient id="SVGID_4_" gradientUnits="userSpaceOnUse" x1="-564.5793" y1="427.7042" x2="-543.2352" y2="427.7042" gradientTransform="matrix(0.5372 -0.8434 0.8434 0.5372 65.7926 -619.3387)">
						<stop  offset="0" style="stop-color:#42E8E0"/>
						<stop  offset="4.674554e-03" style="stop-color:#42E6DF"/>
						<stop  offset="0.1358" style="stop-color:#40B6CB"/>
						<stop  offset="0.2707" style="stop-color:#3E8DB9"/>
						<stop  offset="0.4074" style="stop-color:#3C6BAA"/>
						<stop  offset="0.5467" style="stop-color:#3B519F"/>
						<stop  offset="0.6893" style="stop-color:#3A3F97"/>
						<stop  offset="0.8375" style="stop-color:#393493"/>
						<stop  offset="1" style="stop-color:#393091"/>
					</linearGradient>
					<circle class="st11" cx="129" cy="77.6" r="10.7"/>
				</g>
			</g>
			<g>
				<g>
					
						<radialGradient id="SVGID_5_" cx="782.0851" cy="196.858" r="60.8552" gradientTransform="matrix(0.7781 0 0 1.0592 -437.6589 -117.165)" gradientUnits="userSpaceOnUse">
						<stop  offset="0" style="stop-color:#C0BFF6"/>
						<stop  offset="1" style="stop-color:#393091"/>
					</radialGradient>
					<path class="st12" d="M182.2,97c0,20.7-12.3,37.5-27.6,37.5c-15.2,0-27.6-16.8-27.6-37.5c0-20.7,12.3-26.9,27.6-26.9
						C169.8,70,182.2,76.3,182.2,97z"/>
				</g>
			</g>
			<g>
				<g>
					
						<linearGradient id="SVGID_6_" gradientUnits="userSpaceOnUse" x1="761.192" y1="237.5765" x2="761.192" y2="176.7466" gradientTransform="matrix(0.7781 0 0 1.0592 -437.6589 -117.165)">
						<stop  offset="0" style="stop-color:#42E8E0"/>
						<stop  offset="4.674554e-03" style="stop-color:#42E6DF"/>
						<stop  offset="0.1358" style="stop-color:#40B6CB"/>
						<stop  offset="0.2707" style="stop-color:#3E8DB9"/>
						<stop  offset="0.4074" style="stop-color:#3C6BAA"/>
						<stop  offset="0.5467" style="stop-color:#3B519F"/>
						<stop  offset="0.6893" style="stop-color:#3A3F97"/>
						<stop  offset="0.8375" style="stop-color:#393493"/>
						<stop  offset="1" style="stop-color:#393091"/>
					</linearGradient>
					<path class="st13" d="M182.2,97c0,20.7-12.3,37.5-27.6,37.5c-15.2,0-27.6-16.8-27.6-37.5c0-20.7,12.3-26.9,27.6-26.9
						C169.8,70,182.2,76.3,182.2,97z"/>
				</g>
			</g>
			<path class="st14" d="M167.9,88.9c-7.3,4.2-19.2,4.2-26.6,0c-7.3-4.2-7.3-11.1,0-15.4c7.3-4.2,19.2-4.2,26.6,0
				C175.3,77.7,175.3,84.6,167.9,88.9z"/>
			<path class="st0" d="M141.3,76.4c7.3-4.2,19.2-4.2,26.6,0c3,1.8,4.8,4,5.3,6.2c0.7-3.2-1-6.6-5.3-9.1c-7.3-4.2-19.3-4.2-26.6,0
				c-4.3,2.5-6.1,5.9-5.3,9.1C136.5,80.3,138.3,78.1,141.3,76.4z"/>
			<path class="st15" d="M146.4,41.1c0,5.1-3.6,11.2-7.9,13.7c-4.4,2.5-7.9,0.5-7.9-4.6c0-5.1,3.6-11.2,7.9-13.7
				C142.9,34,146.4,36,146.4,41.1z"/>
			<g>
				<g>
					<radialGradient id="SVGID_7_" cx="173.2547" cy="51.1056" r="47.4966" gradientUnits="userSpaceOnUse">
						<stop  offset="0" style="stop-color:#C0BFF6"/>
						<stop  offset="1" style="stop-color:#393091"/>
					</radialGradient>
					<circle class="st16" cx="155.7" cy="55.3" r="28.1"/>
				</g>
			</g>
			<g>
				<g>
					<linearGradient id="SVGID_8_" gradientUnits="userSpaceOnUse" x1="151.806" y1="83.1002" x2="159.6288" y2="27.4374">
						<stop  offset="0" style="stop-color:#42E8E0"/>
						<stop  offset="4.674554e-03" style="stop-color:#42E6DF"/>
						<stop  offset="0.1358" style="stop-color:#40B6CB"/>
						<stop  offset="0.2707" style="stop-color:#3E8DB9"/>
						<stop  offset="0.4074" style="stop-color:#3C6BAA"/>
						<stop  offset="0.5467" style="stop-color:#3B519F"/>
						<stop  offset="0.6893" style="stop-color:#3A3F97"/>
						<stop  offset="0.8375" style="stop-color:#393493"/>
						<stop  offset="1" style="stop-color:#393091"/>
					</linearGradient>
					<circle class="st17" cx="155.7" cy="55.3" r="28.1"/>
				</g>
			</g>
			<g>
				<path class="st14" d="M147,68.6c-0.7,5.5-4.9,7.3-9.3,3.9c-4.4-3.4-7.4-10.6-6.7-16.1c0.7-5.5,4.9-7.3,9.3-3.9
					C144.7,55.8,147.7,63.1,147,68.6z"/>
				<path class="st0" d="M143.3,63.8c-0.3,2-1.8,2.6-3.4,1.4s-2.7-3.9-2.4-5.9s1.8-2.6,3.4-1.4C142.5,59.2,143.6,61.8,143.3,63.8z"
					/>
				<path class="st18" d="M139.8,71.7c-4.4-3.4-7.4-10.6-6.7-16.1c0.3-2.3,1.2-3.9,2.4-4.8c-2.3,0.2-4.1,2.2-4.5,5.6
					c-0.7,5.5,2.3,12.8,6.7,16.1c2.6,2,5.2,2.2,6.9,0.9C143.1,73.5,141.5,73,139.8,71.7z"/>
				<path class="st0" d="M138,72.3c-4.4-3.4-7.4-10.6-6.7-16.1c0.3-2.6,1.4-4.3,2.9-5.1c-1.7,0.7-2.9,2.5-3.3,5.3
					c-0.7,5.5,2.3,12.8,6.7,16.1c2.4,1.8,4.7,2.2,6.4,1.2C142.4,74.4,140.2,74,138,72.3z"/>
			</g>
			<g>
				<g>
					
						<radialGradient id="SVGID_9_" cx="-230.8449" cy="-266.5361" r="22.2633" gradientTransform="matrix(0.981 0.1942 -0.1942 0.981 366.9956 393.8236)" gradientUnits="userSpaceOnUse">
						<stop  offset="0" style="stop-color:#C0BFF6"/>
						<stop  offset="1" style="stop-color:#393091"/>
					</radialGradient>
					<circle class="st19" cx="186" cy="94.5" r="10.7"/>
				</g>
			</g>
			<g>
				<g>
					
						<linearGradient id="SVGID_10_" gradientUnits="userSpaceOnUse" x1="-242.9455" y1="-250.6467" x2="-228.4444" y2="-266.3061" gradientTransform="matrix(0.981 0.1942 -0.1942 0.981 366.9956 393.8236)">
						<stop  offset="0" style="stop-color:#42E8E0"/>
						<stop  offset="4.674554e-03" style="stop-color:#42E6DF"/>
						<stop  offset="0.1358" style="stop-color:#40B6CB"/>
						<stop  offset="0.2707" style="stop-color:#3E8DB9"/>
						<stop  offset="0.4074" style="stop-color:#3C6BAA"/>
						<stop  offset="0.5467" style="stop-color:#3B519F"/>
						<stop  offset="0.6893" style="stop-color:#3A3F97"/>
						<stop  offset="0.8375" style="stop-color:#393493"/>
						<stop  offset="1" style="stop-color:#393091"/>
					</linearGradient>
					<circle class="st20" cx="186" cy="94.5" r="10.7"/>
				</g>
			</g>
		</g>
		
			<radialGradient id="SVGID_11_" cx="276.0722" cy="-1961.1351" r="20.6255" fx="276.1033" fy="-1959.7931" gradientTransform="matrix(0.9112 0.1087 -0.1791 1.501 -397.0262 3035.0981)" gradientUnits="userSpaceOnUse">
			<stop  offset="0" style="stop-color:#C0BFF6"/>
			<stop  offset="1" style="stop-color:#393091"/>
		</radialGradient>
		<path class="st21" d="M203,129.8c-0.6,5.1-5.1,14.7-9.1,14.2c-4.1-0.5-6.1-10.9-5.5-15.9c0.6-5.1,4.4-8.8,8.4-8.3
			C200.8,120.3,203.6,124.8,203,129.8z"/>
		
			<linearGradient id="SVGID_12_" gradientUnits="userSpaceOnUse" x1="50.8402" y1="200.3327" x2="66.9488" y2="200.3327" gradientTransform="matrix(0.9112 0.1087 -0.136 1.1399 168.8854 -102.8499)">
			<stop  offset="0" style="stop-color:#42E8E0"/>
			<stop  offset="4.674554e-03" style="stop-color:#42E6DF"/>
			<stop  offset="0.1358" style="stop-color:#40B6CB"/>
			<stop  offset="0.2707" style="stop-color:#3E8DB9"/>
			<stop  offset="0.4074" style="stop-color:#3C6BAA"/>
			<stop  offset="0.5467" style="stop-color:#3B519F"/>
			<stop  offset="0.6893" style="stop-color:#3A3F97"/>
			<stop  offset="0.8375" style="stop-color:#393493"/>
			<stop  offset="1" style="stop-color:#393091"/>
		</linearGradient>
		<path class="st22" d="M203,129.8c-0.6,5.1-5.1,14.7-9.1,14.2c-4.1-0.5-6.1-10.9-5.5-15.9c0.6-5.1,4.4-8.8,8.4-8.3
			C200.8,120.3,203.6,124.8,203,129.8z"/>
	</g>
</g>
<g>
	<polygon class="st0" points="87.4,39.5 62.1,24.9 62.1,54 87.4,68.6 112.7,54 112.7,24.9 	"/>
	<polygon class="st0" points="87.4,68.6 62.1,54 62.1,24.9 87.4,39.5 	"/>
	<polygon class="st1" points="112.7,54 87.4,68.6 87.4,39.5 112.7,24.9 	"/>
	<polygon class="st0" points="87.4,39.5 62.1,24.9 87.4,10.3 112.6,24.9 	"/>
	<g>
		<path class="st2" d="M87.4,49.8c-0.1,0-0.1,0-0.2,0l-1.7-1c-0.2-0.1-0.2-0.3-0.1-0.5c0.1-0.2,0.3-0.2,0.5-0.1l1.5,0.9l1.5-0.9
			c0.2-0.1,0.4,0,0.5,0.1c0.1,0.2,0,0.4-0.1,0.5l-1.7,1C87.5,49.7,87.5,49.8,87.4,49.8z"/>
		<path class="st2" d="M82.1,46.7c-0.1,0-0.1,0-0.2,0l-3.5-2c-0.2-0.1-0.2-0.3-0.1-0.5c0.1-0.2,0.3-0.2,0.5-0.1l3.5,2
			c0.2,0.1,0.2,0.3,0.1,0.5C82.4,46.6,82.3,46.7,82.1,46.7z M75,42.6c-0.1,0-0.1,0-0.2,0l-3.5-2c-0.2-0.1-0.2-0.3-0.1-0.5
			c0.1-0.2,0.3-0.2,0.5-0.1l3.5,2c0.2,0.1,0.2,0.3,0.1,0.5C75.3,42.6,75.2,42.6,75,42.6z M68,38.5c-0.1,0-0.1,0-0.2,0l-3.5-2
			c-0.2-0.1-0.2-0.3-0.1-0.5c0.1-0.2,0.3-0.2,0.5-0.1l3.5,2c0.2,0.1,0.2,0.3,0.1,0.5C68.2,38.5,68.1,38.5,68,38.5z M60.9,34.4
			c-0.1,0-0.1,0-0.2,0l-3.5-2C57,32.2,56.9,32,57,31.8c0.1-0.2,0.3-0.2,0.5-0.1l3.5,2c0.2,0.1,0.2,0.3,0.1,0.5
			C61.1,34.4,61,34.4,60.9,34.4z M53.8,30.3c-0.1,0-0.1,0-0.2,0l-3.5-2c-0.2-0.1-0.2-0.3-0.1-0.5c0.1-0.2,0.3-0.2,0.5-0.1l3.5,2
			c0.2,0.1,0.2,0.3,0.1,0.5C54,30.3,53.9,30.3,53.8,30.3z"/>
		<path class="st2" d="M46.7,26.3c-0.1,0-0.1,0-0.2,0l-1.7-1c-0.1-0.1-0.2-0.2-0.2-0.3s0.1-0.3,0.2-0.3l1.7-1c0.2-0.1,0.4,0,0.5,0.1
			c0.1,0.2,0,0.4-0.1,0.5l-1.2,0.7l1.2,0.7c0.2,0.1,0.2,0.3,0.1,0.5C46.9,26.2,46.8,26.3,46.7,26.3z"/>
		<path class="st2" d="M50.2,22.2c-0.1,0-0.3-0.1-0.3-0.2c-0.1-0.2,0-0.4,0.1-0.5l3.5-2c0.2-0.1,0.4,0,0.5,0.1
			c0.1,0.2,0,0.4-0.1,0.5l-3.5,2C50.4,22.2,50.3,22.2,50.2,22.2z M57.3,18.1c-0.1,0-0.3-0.1-0.3-0.2c-0.1-0.2,0-0.4,0.1-0.5l3.5-2
			c0.2-0.1,0.4,0,0.5,0.1c0.1,0.2,0,0.4-0.1,0.5l-3.5,2C57.4,18.1,57.4,18.1,57.3,18.1z M64.4,14c-0.1,0-0.3-0.1-0.3-0.2
			c-0.1-0.2,0-0.4,0.1-0.5l3.5-2c0.2-0.1,0.4,0,0.5,0.1c0.1,0.2,0,0.4-0.1,0.5l-3.5,2C64.5,14,64.5,14,64.4,14z M71.5,9.9
			c-0.1,0-0.3-0.1-0.3-0.2c-0.1-0.2,0-0.4,0.1-0.5l3.5-2c0.2-0.1,0.4,0,0.5,0.1c0.1,0.2,0,0.4-0.1,0.5l-3.5,2
			C71.6,9.9,71.6,9.9,71.5,9.9z M78.6,5.8c-0.1,0-0.3-0.1-0.3-0.2c-0.1-0.2,0-0.4,0.1-0.5l3.5-2c0.2-0.1,0.4,0,0.5,0.1
			c0.1,0.2,0,0.4-0.1,0.5l-3.5,2C78.7,5.8,78.6,5.8,78.6,5.8z"/>
		<path class="st2" d="M89.1,1.8c-0.1,0-0.1,0-0.2,0l-1.5-0.9l-1.5,0.9c-0.2,0.1-0.4,0-0.5-0.1c-0.1-0.2,0-0.4,0.1-0.5l1.7-1
			C87.3,0,87.5,0,87.6,0l1.7,1c0.2,0.1,0.2,0.3,0.1,0.5C89.4,1.7,89.3,1.8,89.1,1.8z"/>
		<path class="st2" d="M124.6,22.2c-0.1,0-0.1,0-0.2,0l-3.5-2c-0.2-0.1-0.2-0.3-0.1-0.5c0.1-0.2,0.3-0.2,0.5-0.1l3.5,2
			c0.2,0.1,0.2,0.3,0.1,0.5C124.8,22.1,124.7,22.2,124.6,22.2z M117.5,18.1c-0.1,0-0.1,0-0.2,0l-3.5-2c-0.2-0.1-0.2-0.3-0.1-0.5
			c0.1-0.2,0.3-0.2,0.5-0.1l3.5,2c0.2,0.1,0.2,0.3,0.1,0.5C117.7,18,117.6,18.1,117.5,18.1z M110.4,14c-0.1,0-0.1,0-0.2,0l-3.5-2
			c-0.2-0.1-0.2-0.3-0.1-0.5c0.1-0.2,0.3-0.2,0.5-0.1l3.5,2c0.2,0.1,0.2,0.3,0.1,0.5C110.6,14,110.5,14,110.4,14z M103.3,9.9
			c-0.1,0-0.1,0-0.2,0l-3.5-2c-0.2-0.1-0.2-0.3-0.1-0.5c0.1-0.2,0.3-0.2,0.5-0.1l3.5,2c0.2,0.1,0.2,0.3,0.1,0.5
			C103.6,9.9,103.4,9.9,103.3,9.9z M96.2,5.8c-0.1,0-0.1,0-0.2,0l-3.5-2c-0.2-0.1-0.2-0.3-0.1-0.5c0.1-0.2,0.3-0.2,0.5-0.1l3.5,2
			c0.2,0.1,0.2,0.3,0.1,0.5C96.5,5.8,96.3,5.8,96.2,5.8z"/>
		<path class="st2" d="M128.1,26.3c-0.1,0-0.3-0.1-0.3-0.2c-0.1-0.2,0-0.4,0.1-0.5l1.2-0.7l-1.2-0.7c-0.2-0.1-0.2-0.3-0.1-0.5
			c0.1-0.2,0.3-0.2,0.5-0.1l1.7,1c0.1,0.1,0.2,0.2,0.2,0.3c0,0.1-0.1,0.3-0.2,0.3l-1.7,1C128.2,26.2,128.2,26.3,128.1,26.3z"/>
		<path class="st2" d="M92.7,46.7c-0.1,0-0.3-0.1-0.3-0.2c-0.1-0.2,0-0.4,0.1-0.5l3.5-2c0.2-0.1,0.4,0,0.5,0.1
			c0.1,0.2,0,0.4-0.1,0.5l-3.5,2C92.8,46.7,92.7,46.7,92.7,46.7z M99.8,42.6c-0.1,0-0.3-0.1-0.3-0.2c-0.1-0.2,0-0.4,0.1-0.5l3.5-2
			c0.2-0.1,0.4,0,0.5,0.1c0.1,0.2,0,0.4-0.1,0.5l-3.5,2C99.9,42.6,99.8,42.6,99.8,42.6z M106.8,38.5c-0.1,0-0.3-0.1-0.3-0.2
			c-0.1-0.2,0-0.4,0.1-0.5l3.5-2c0.2-0.1,0.4,0,0.5,0.1c0.1,0.2,0,0.4-0.1,0.5l-3.5,2C107,38.5,106.9,38.5,106.8,38.5z M113.9,34.4
			c-0.1,0-0.3-0.1-0.3-0.2c-0.1-0.2,0-0.4,0.1-0.5l3.5-2c0.2-0.1,0.4,0,0.5,0.1c0.1,0.2,0,0.4-0.1,0.5l-3.5,2
			C114.1,34.4,114,34.4,113.9,34.4z M121,30.3c-0.1,0-0.3-0.1-0.3-0.2c-0.1-0.2,0-0.4,0.1-0.5l3.5-2c0.2-0.1,0.4,0,0.5,0.1
			c0.1,0.2,0,0.4-0.1,0.5l-3.5,2C121.1,30.3,121.1,30.3,121,30.3z"/>
	</g>
	<polygon class="st2" points="87.4,39.5 62.1,24.9 62.1,26.1 87.4,40.7 112.6,26.1 112.7,24.9 	"/>
</g>
<path class="st2" d="M45,137.7c-0.2,0-0.4-0.2-0.4-0.4v-0.6c0-0.2,0.2-0.4,0.4-0.4s0.4,0.2,0.4,0.4v0.6
	C45.3,137.5,45.2,137.7,45,137.7z M45,133.1c-0.2,0-0.4-0.2-0.4-0.4v-4c0-0.2,0.2-0.4,0.4-0.4s0.4,0.2,0.4,0.4v4
	C45.3,132.9,45.2,133.1,45,133.1z M45,125.1c-0.2,0-0.4-0.2-0.4-0.4v-4c0-0.2,0.2-0.4,0.4-0.4s0.4,0.2,0.4,0.4v4
	C45.3,124.9,45.2,125.1,45,125.1z M45,117.1c-0.2,0-0.4-0.2-0.4-0.4v-4c0-0.2,0.2-0.4,0.4-0.4s0.4,0.2,0.4,0.4v4
	C45.3,116.9,45.2,117.1,45,117.1z M45,109.1c-0.2,0-0.4-0.2-0.4-0.4v-4c0-0.2,0.2-0.4,0.4-0.4s0.4,0.2,0.4,0.4v4
	C45.3,108.9,45.2,109.1,45,109.1z M45,101.1c-0.2,0-0.4-0.2-0.4-0.4v-4c0-0.2,0.2-0.4,0.4-0.4s0.4,0.2,0.4,0.4v4
	C45.3,100.9,45.2,101.1,45,101.1z M45,93.1c-0.2,0-0.4-0.2-0.4-0.4v-4c0-0.2,0.2-0.4,0.4-0.4s0.4,0.2,0.4,0.4v4
	C45.3,92.9,45.2,93.1,45,93.1z M45,85.1c-0.2,0-0.4-0.2-0.4-0.4v-4c0-0.2,0.2-0.4,0.4-0.4s0.4,0.2,0.4,0.4v4
	C45.3,84.9,45.2,85.1,45,85.1z M45,77.1c-0.2,0-0.4-0.2-0.4-0.4v-4c0-0.2,0.2-0.4,0.4-0.4s0.4,0.2,0.4,0.4v4
	C45.3,76.9,45.2,77.1,45,77.1z M45,69.1c-0.2,0-0.4-0.2-0.4-0.4v-4c0-0.2,0.2-0.4,0.4-0.4s0.4,0.2,0.4,0.4v4
	C45.3,68.9,45.2,69.1,45,69.1z M45,61.1c-0.2,0-0.4-0.2-0.4-0.4v-4c0-0.2,0.2-0.4,0.4-0.4s0.4,0.2,0.4,0.4v4
	C45.3,60.9,45.2,61.1,45,61.1z M45,53.1c-0.2,0-0.4-0.2-0.4-0.4v-2.8c0-0.1,0.1-0.3,0.2-0.3l1-0.6c0.2-0.1,0.4,0,0.5,0.1
	c0.1,0.2,0,0.4-0.1,0.5l-0.8,0.5v2.6C45.3,52.9,45.2,53.1,45,53.1z M49.5,47.7c-0.1,0-0.3-0.1-0.3-0.2c-0.1-0.2,0-0.4,0.1-0.5l3.5-2
	c0.2-0.1,0.4,0,0.5,0.1c0.1,0.2,0,0.4-0.1,0.5l-3.5,2C49.6,47.7,49.5,47.7,49.5,47.7z M56.5,43.8c-0.1,0-0.3-0.1-0.3-0.2
	c-0.1-0.2,0-0.4,0.1-0.5l3.5-2c0.2-0.1,0.4,0,0.5,0.1c0.1,0.2,0,0.4-0.1,0.5l-3.5,2C56.6,43.8,56.5,43.8,56.5,43.8z M63.4,39.9
	c-0.1,0-0.3-0.1-0.3-0.2c-0.1-0.2,0-0.4,0.1-0.5l3.5-2c0.2-0.1,0.4,0,0.5,0.1c0.1,0.2,0,0.4-0.1,0.5l-3.5,2
	C63.6,39.9,63.5,39.9,63.4,39.9z"/>
</svg>
