<?xml version="1.0" encoding="utf-8"?>
<!-- Generator: Adobe Illustrator 21.0.0, SVG Export Plug-In . SVG Version: 6.00 Build 0)  -->
<svg version="1.1" id="_x2014_ÎÓÈ_x5F_1" xmlns="http://www.w3.org/2000/svg" xmlns:xlink="http://www.w3.org/1999/xlink"
	 x="0px" y="0px" viewBox="0 0 199.3 252.5" style="enable-background:new 0 0 199.3 252.5;" xml:space="preserve">
<style type="text/css">
	.st0{fill:#42E8E0;}
	.st1{fill:#2FD3C7;}
	.st2{fill:#FFFFFF;}
	.st3{opacity:0.7;fill:#18B2A3;}
</style>
<g>
	<g>
		<polygon class="st0" points="108.4,146 83.2,131.4 83.2,160.6 108.4,175.2 133.7,160.6 133.7,131.4 		"/>
		<polygon class="st0" points="108.4,175.2 83.2,160.6 83.2,131.4 108.4,146 		"/>
		<polygon class="st1" points="133.7,160.6 108.4,175.2 108.4,146 133.7,131.4 		"/>
		<polygon class="st0" points="108.4,146 83.2,131.4 108.4,116.8 133.7,131.4 		"/>
		<polygon class="st2" points="108.4,146 84.3,132.1 83.2,132.7 108.4,147.3 133.7,132.7 132.6,132.1 		"/>
	</g>
	<g>
		<polygon class="st0" points="141.2,164.7 116,150.1 116,179.3 141.2,193.9 166.5,179.3 166.5,150.1 		"/>
		<polygon class="st0" points="141.2,193.9 116,179.3 116,150.1 141.2,164.7 		"/>
		<polygon class="st1" points="166.5,179.3 141.2,193.9 141.2,164.7 166.5,150.1 		"/>
		<polygon class="st0" points="141.2,164.7 116,150.1 141.2,135.6 166.5,150.1 		"/>
		<polygon class="st2" points="141.2,164.7 117.1,150.8 116,151.4 141.2,166 166.5,151.4 165.4,150.8 		"/>
	</g>
	<g>
		<polygon class="st0" points="174,183.4 148.8,168.9 148.8,198 174,212.6 199.3,198 199.3,168.9 		"/>
		<polygon class="st0" points="174,212.6 148.8,198 148.8,168.9 174,183.4 		"/>
		<polygon class="st1" points="199.3,198 174,212.6 174,183.4 199.3,168.9 		"/>
		<polygon class="st0" points="174,183.4 148.8,168.9 174,154.3 199.3,168.9 		"/>
		<polygon class="st2" points="174,183.4 149.9,169.5 148.8,170.1 174,184.7 199.3,170.1 199.3,168.9 		"/>
	</g>
	<g>
		<polygon class="st0" points="75.6,166 50.4,151.4 50.4,180.6 75.6,195.1 100.9,180.6 100.9,151.4 		"/>
		<polygon class="st0" points="75.6,195.1 50.4,180.6 50.4,151.4 75.6,166 		"/>
		<polygon class="st1" points="100.9,180.6 75.6,195.1 75.6,166 100.9,151.4 		"/>
		<polygon class="st0" points="75.6,166 50.4,151.4 75.6,136.8 100.9,151.4 		"/>
		<polygon class="st2" points="75.6,166 51.5,152 50.4,152.7 75.6,167.2 100.9,152.7 99.8,152 		"/>
	</g>
	<g>
		<polygon class="st0" points="108.4,184.7 83.2,170.1 83.2,199.3 108.4,213.9 133.7,199.3 133.7,170.1 		"/>
		<polygon class="st0" points="108.4,213.9 83.2,199.3 83.2,170.1 108.4,184.7 		"/>
		<polygon class="st1" points="133.7,199.3 108.4,213.9 108.4,184.7 133.7,170.1 		"/>
		<polygon class="st0" points="108.4,184.7 83.2,170.1 108.4,155.5 133.7,170.1 		"/>
		<polygon class="st2" points="108.4,184.7 84.3,170.7 83.2,171.4 108.4,186 133.7,171.4 132.6,170.7 		"/>
	</g>
	<g>
		<polygon class="st0" points="141.2,203.4 116,188.8 116,218 141.2,232.6 166.5,218 166.5,188.8 		"/>
		<polygon class="st0" points="141.2,232.6 116,218 116,188.8 141.2,203.4 		"/>
		<polygon class="st1" points="166.5,218 141.2,232.6 141.2,203.4 166.5,188.8 		"/>
		<polygon class="st0" points="141.2,203.4 116,188.8 141.2,174.3 166.5,188.8 		"/>
		<polygon class="st2" points="141.2,203.4 117.1,189.5 116,190.1 141.2,204.7 166.5,190.1 166.5,188.8 		"/>
	</g>
	<g>
		<polygon class="st0" points="42.8,186 17.6,171.4 17.6,200.5 42.8,215.1 68.1,200.5 68.1,171.4 		"/>
		<polygon class="st0" points="42.8,215.1 17.6,200.5 17.6,171.4 42.8,186 		"/>
		<polygon class="st1" points="68.1,200.5 42.8,215.1 42.8,186 68.1,171.4 		"/>
		<polygon class="st0" points="42.8,186 17.6,171.4 42.8,156.8 68.1,171.4 		"/>
		<polygon class="st2" points="42.8,186 17.6,171.4 17.6,172.6 42.8,187.2 68.1,172.6 67,172 		"/>
	</g>
	<g>
		<polygon class="st0" points="75.6,204.7 50.4,190.1 50.4,219.3 75.6,233.8 100.9,219.3 100.9,190.1 		"/>
		<polygon class="st0" points="75.6,233.8 50.4,219.3 50.4,190.1 75.6,204.7 		"/>
		<polygon class="st1" points="100.9,219.3 75.6,233.8 75.6,204.7 100.9,190.1 		"/>
		<polygon class="st0" points="75.6,204.7 50.4,190.1 75.6,175.5 100.9,190.1 		"/>
		<polygon class="st2" points="75.6,204.7 50.4,190.1 50.4,191.4 75.6,205.9 100.9,191.4 99.8,190.7 		"/>
	</g>
	<g>
		<polygon class="st0" points="108.4,223.4 83.2,208.8 83.2,238 108.4,252.5 133.7,238 133.7,208.8 		"/>
		<polygon class="st0" points="108.4,252.5 83.2,238 83.2,208.8 108.4,223.4 		"/>
		<polygon class="st1" points="133.7,238 108.4,252.5 108.4,223.4 133.7,208.8 		"/>
		<polygon class="st0" points="108.4,223.4 83.2,208.8 108.4,194.2 133.7,208.8 		"/>
		<polygon class="st2" points="108.4,223.4 83.2,208.8 83.2,210.1 108.4,224.7 133.7,210.1 133.7,208.8 		"/>
	</g>
	<g>
		<polygon class="st0" points="108.4,107.3 83.2,92.7 83.2,121.9 108.4,136.5 133.7,121.9 133.7,92.7 		"/>
		<polygon class="st0" points="108.4,136.5 83.2,121.9 83.2,92.7 108.4,107.3 		"/>
		<polygon class="st1" points="133.7,121.9 108.4,136.5 108.4,107.3 133.7,92.7 		"/>
		<polygon class="st0" points="108.4,107.3 83.2,92.7 108.4,78.1 133.7,92.7 		"/>
		<polygon class="st2" points="108.4,107.3 84.3,93.4 83.2,94 108.4,108.6 133.7,94 132.6,93.4 		"/>
	</g>
	<g>
		<polygon class="st3" points="108.4,218.6 91.2,208.7 108.4,198.8 125.6,208.7 		"/>
		<polygon class="st3" points="75.6,199.9 58.4,190 75.6,180 92.8,190 		"/>
		<polygon class="st3" points="141.2,198.7 124,188.7 141.2,178.8 158.4,188.7 		"/>
		<polygon class="st3" points="174.1,178.9 156.9,169 174.1,159 191.3,169 		"/>
		<polygon class="st3" points="42.8,181.2 25.6,171.3 42.8,161.3 60,171.3 		"/>
	</g>
	<g>
		<polygon class="st0" points="141.2,126 116,111.4 116,140.6 141.2,155.2 166.5,140.6 166.5,111.4 		"/>
		<polygon class="st0" points="141.2,155.2 116,140.6 116,111.4 141.2,126 		"/>
		<polygon class="st1" points="166.5,140.6 141.2,155.2 141.2,126 166.5,111.4 		"/>
		<polygon class="st0" points="141.2,126 116,111.4 141.2,96.9 166.5,111.4 		"/>
		<polygon class="st2" points="141.2,126 117.1,112.1 116,112.7 141.2,127.3 166.5,112.7 165.4,112.1 		"/>
	</g>
	<g>
		<polygon class="st0" points="174,144.7 148.8,130.2 148.8,159.3 174,173.9 199.3,159.3 199.3,130.2 		"/>
		<polygon class="st0" points="174,173.9 148.8,159.3 148.8,130.2 174,144.7 		"/>
		<polygon class="st1" points="199.3,159.3 174,173.9 174,144.7 199.3,130.2 		"/>
		<polygon class="st0" points="174,144.7 148.8,130.2 174,115.6 199.3,130.2 		"/>
		<polygon class="st2" points="174,144.7 149.9,130.8 148.8,131.4 174,146 199.3,131.4 199.3,130.2 		"/>
	</g>
	<g>
		<polygon class="st0" points="75.6,127.3 50.4,112.7 50.4,141.9 75.6,156.4 100.9,141.9 100.9,112.7 		"/>
		<polygon class="st0" points="75.6,156.4 50.4,141.9 50.4,112.7 75.6,127.3 		"/>
		<polygon class="st1" points="100.9,141.9 75.6,156.4 75.6,127.3 100.9,112.7 		"/>
		<polygon class="st0" points="75.6,127.3 50.4,112.7 75.6,98.1 100.9,112.7 		"/>
		<polygon class="st2" points="75.6,127.3 51.5,113.3 50.4,114 75.6,128.6 100.9,114 99.8,113.3 		"/>
	</g>
	<g>
		<polygon class="st0" points="108.4,146 83.2,131.4 83.2,160.6 108.4,175.2 133.7,160.6 133.7,131.4 		"/>
		<polygon class="st0" points="108.4,175.2 83.2,160.6 83.2,131.4 108.4,146 		"/>
		<polygon class="st1" points="133.7,160.6 108.4,175.2 108.4,146 133.7,131.4 		"/>
		<polygon class="st0" points="108.4,146 83.2,131.4 108.4,116.8 133.7,131.4 		"/>
		<polygon class="st2" points="108.4,146 84.3,132.1 83.2,132.7 108.4,147.3 133.7,132.7 132.6,132.1 		"/>
	</g>
	<g>
		<polygon class="st0" points="141.2,164.7 116,150.1 116,179.3 141.2,193.9 166.5,179.3 166.5,150.1 		"/>
		<polygon class="st0" points="141.2,193.9 116,179.3 116,150.1 141.2,164.7 		"/>
		<polygon class="st1" points="166.5,179.3 141.2,193.9 141.2,164.7 166.5,150.1 		"/>
		<polygon class="st0" points="141.2,164.7 116,150.1 141.2,135.6 166.5,150.1 		"/>
		<polygon class="st2" points="141.2,164.7 117.1,150.8 116,151.4 141.2,166 166.5,151.4 166.5,150.1 		"/>
	</g>
	<g>
		<polygon class="st0" points="42.8,147.3 17.6,132.7 17.6,161.8 42.8,176.4 68.1,161.8 68.1,132.7 		"/>
		<polygon class="st0" points="42.8,176.4 17.6,161.8 17.6,132.7 42.8,147.3 		"/>
		<polygon class="st1" points="68.1,161.8 42.8,176.4 42.8,147.3 68.1,132.7 		"/>
		<polygon class="st0" points="42.8,147.3 17.6,132.7 42.8,118.1 68.1,132.7 		"/>
		<polygon class="st2" points="42.8,147.3 18.7,133.3 17.6,134 42.8,148.5 68.1,134 67,133.3 		"/>
	</g>
	<g>
		<polygon class="st0" points="75.6,166 50.4,151.4 50.4,180.6 75.6,195.1 100.9,180.6 100.9,151.4 		"/>
		<polygon class="st0" points="75.6,195.1 50.4,180.6 50.4,151.4 75.6,166 		"/>
		<polygon class="st1" points="100.9,180.6 75.6,195.1 75.6,166 100.9,151.4 		"/>
		<polygon class="st0" points="75.6,166 50.4,151.4 75.6,136.8 100.9,151.4 		"/>
		<polygon class="st2" points="75.6,166 50.4,151.4 50.4,152.7 75.6,167.2 100.9,152.7 99.8,152 		"/>
	</g>
	<g>
		<polygon class="st0" points="108.4,184.7 83.2,170.1 83.2,199.3 108.4,213.9 133.7,199.3 133.7,170.1 		"/>
		<polygon class="st0" points="108.4,213.9 83.2,199.3 83.2,170.1 108.4,184.7 		"/>
		<polygon class="st1" points="133.7,199.3 108.4,213.9 108.4,184.7 133.7,170.1 		"/>
		<polygon class="st0" points="108.4,184.7 83.2,170.1 108.4,155.5 133.7,170.1 		"/>
		<polygon class="st2" points="108.4,184.7 83.2,170.1 83.2,171.4 108.4,186 133.7,171.4 133.7,170.1 		"/>
	</g>
	<g>
		<polygon class="st3" points="174.1,140.4 156.9,130.4 174.1,120.5 191.3,130.4 		"/>
		<polygon class="st3" points="42.8,142.7 25.6,132.7 42.8,122.8 60,132.7 		"/>
	</g>
	<g>
		<polygon class="st0" points="108.4,68.6 83.2,54 83.2,83.2 108.4,97.8 133.7,83.2 133.7,54 		"/>
		<polygon class="st0" points="108.4,97.8 83.2,83.2 83.2,54 108.4,68.6 		"/>
		<polygon class="st1" points="133.7,83.2 108.4,97.8 108.4,68.6 133.7,54 		"/>
		<polygon class="st0" points="108.4,68.6 83.2,54 108.4,39.5 133.7,54 		"/>
		<polygon class="st2" points="108.4,68.6 83.2,54 83.2,55.3 108.4,69.9 133.7,55.3 133.7,54 		"/>
	</g>
	<g>
		<polygon class="st0" points="141.2,87.3 116,72.7 116,101.9 141.2,116.5 166.5,101.9 166.5,72.7 		"/>
		<polygon class="st0" points="141.2,116.5 116,101.9 116,72.7 141.2,87.3 		"/>
		<polygon class="st1" points="166.5,101.9 141.2,116.5 141.2,87.3 166.5,72.7 		"/>
		<polygon class="st0" points="141.2,87.3 116,72.7 141.2,58.2 166.5,72.7 		"/>
		<polygon class="st2" points="141.2,87.3 116,72.7 116,74 141.2,88.6 166.5,74 166.5,72.7 		"/>
	</g>
	<g>
		<polygon class="st0" points="174,106 148.8,91.5 148.8,120.6 174,135.2 199.3,120.6 199.3,91.5 		"/>
		<polygon class="st0" points="174,135.2 148.8,120.6 148.8,91.5 174,106 		"/>
		<polygon class="st1" points="199.3,120.6 174,135.2 174,106 199.3,91.5 		"/>
		<polygon class="st0" points="174,106 148.8,91.5 174,76.9 199.3,91.5 		"/>
		<polygon class="st2" points="174,106 148.8,91.5 148.8,92.7 174,107.3 199.3,92.7 199.3,91.5 		"/>
	</g>
	<g>
		<polygon class="st0" points="75.6,88.6 50.4,74 50.4,103.2 75.6,117.7 100.9,103.2 100.9,74 		"/>
		<polygon class="st0" points="75.6,117.7 50.4,103.2 50.4,74 75.6,88.6 		"/>
		<polygon class="st1" points="100.9,103.2 75.6,117.7 75.6,88.6 100.9,74 		"/>
		<polygon class="st0" points="75.6,88.6 50.4,74 75.6,59.4 100.9,74 		"/>
		<polygon class="st2" points="75.6,88.6 50.4,74 50.4,75.3 75.6,89.9 100.9,75.3 100.9,74 		"/>
	</g>
	<g>
		<polygon class="st0" points="42.8,108.6 17.6,94 17.6,123.1 42.8,137.7 68.1,123.1 68.1,94 		"/>
		<polygon class="st0" points="42.8,137.7 17.6,123.1 17.6,94 42.8,108.6 		"/>
		<polygon class="st1" points="68.1,123.1 42.8,137.7 42.8,108.6 68.1,94 		"/>
		<polygon class="st0" points="42.8,108.6 17.6,94 42.8,79.4 68.1,94 		"/>
		<polygon class="st2" points="42.8,108.6 17.6,94 17.6,95.3 42.8,109.8 68.1,95.3 68.1,94 		"/>
	</g>
</g>
<polygon class="st0" points="42.8,39.5 17.6,24.9 17.6,54 42.8,68.6 68.1,54 68.1,24.9 "/>
<polygon class="st0" points="42.8,68.6 17.6,54 17.6,24.9 42.8,39.5 "/>
<polygon class="st1" points="68.1,54 42.8,68.6 42.8,39.5 68.1,24.9 "/>
<polygon class="st0" points="42.8,39.5 17.6,24.9 42.8,10.3 68.1,24.9 "/>
<g>
	<path class="st2" d="M42.8,49.8c-0.1,0-0.1,0-0.2,0l-1.7-1c-0.2-0.1-0.2-0.3-0.1-0.5c0.1-0.2,0.3-0.2,0.5-0.1l1.5,0.9l1.5-0.9
		c0.2-0.1,0.4,0,0.5,0.1c0.1,0.2,0,0.4-0.1,0.5l-1.7,1C42.9,49.7,42.9,49.8,42.8,49.8z"/>
	<path class="st2" d="M37.5,46.7c-0.1,0-0.1,0-0.2,0l-3.5-2c-0.2-0.1-0.2-0.3-0.1-0.5c0.1-0.2,0.3-0.2,0.5-0.1l3.5,2
		c0.2,0.1,0.2,0.3,0.1,0.5C37.8,46.6,37.7,46.7,37.5,46.7z M30.5,42.6c-0.1,0-0.1,0-0.2,0l-3.5-2c-0.2-0.1-0.2-0.3-0.1-0.5
		c0.1-0.2,0.3-0.2,0.5-0.1l3.5,2c0.2,0.1,0.2,0.3,0.1,0.5C30.7,42.6,30.6,42.6,30.5,42.6z M23.4,38.5c-0.1,0-0.1,0-0.2,0l-3.5-2
		c-0.2-0.1-0.2-0.3-0.1-0.5c0.1-0.2,0.3-0.2,0.5-0.1l3.5,2c0.2,0.1,0.2,0.3,0.1,0.5C23.6,38.5,23.5,38.5,23.4,38.5z M16.3,34.4
		c-0.1,0-0.1,0-0.2,0l-3.5-2c-0.2-0.1-0.2-0.3-0.1-0.5c0.1-0.2,0.3-0.2,0.5-0.1l3.5,2c0.2,0.1,0.2,0.3,0.1,0.5
		C16.5,34.4,16.4,34.4,16.3,34.4z M9.2,30.3c-0.1,0-0.1,0-0.2,0l-3.5-2c-0.2-0.1-0.2-0.3-0.1-0.5c0.1-0.2,0.3-0.2,0.5-0.1l3.5,2
		c0.2,0.1,0.2,0.3,0.1,0.5C9.4,30.3,9.3,30.3,9.2,30.3z"/>
	<path class="st2" d="M2.1,26.3c-0.1,0-0.1,0-0.2,0l-1.7-1C0.1,25.1,0,25,0,24.9s0.1-0.3,0.2-0.3l1.7-1c0.2-0.1,0.4,0,0.5,0.1
		c0.1,0.2,0,0.4-0.1,0.5l-1.2,0.7l1.2,0.7c0.2,0.1,0.2,0.3,0.1,0.5C2.4,26.2,2.2,26.3,2.1,26.3z"/>
	<path class="st2" d="M5.7,22.2c-0.1,0-0.3-0.1-0.3-0.2c-0.1-0.2,0-0.4,0.1-0.5l3.5-2c0.2-0.1,0.4,0,0.5,0.1c0.1,0.2,0,0.4-0.1,0.5
		l-3.5,2C5.8,22.2,5.7,22.2,5.7,22.2z M12.7,18.1c-0.1,0-0.3-0.1-0.3-0.2c-0.1-0.2,0-0.4,0.1-0.5l3.5-2c0.2-0.1,0.4,0,0.5,0.1
		c0.1,0.2,0,0.4-0.1,0.5l-3.5,2C12.9,18.1,12.8,18.1,12.7,18.1z M19.8,14c-0.1,0-0.3-0.1-0.3-0.2c-0.1-0.2,0-0.4,0.1-0.5l3.5-2
		c0.2-0.1,0.4,0,0.5,0.1c0.1,0.2,0,0.4-0.1,0.5L20,14C20,14,19.9,14,19.8,14z M26.9,9.9c-0.1,0-0.3-0.1-0.3-0.2
		c-0.1-0.2,0-0.4,0.1-0.5l3.5-2c0.2-0.1,0.4,0,0.5,0.1c0.1,0.2,0,0.4-0.1,0.5l-3.5,2C27,9.9,27,9.9,26.9,9.9z M34,5.8
		c-0.1,0-0.3-0.1-0.3-0.2c-0.1-0.2,0-0.4,0.1-0.5l3.5-2c0.2-0.1,0.4,0,0.5,0.1c0.1,0.2,0,0.4-0.1,0.5l-3.5,2
		C34.1,5.8,34.1,5.8,34,5.8z"/>
	<path class="st2" d="M44.5,1.8c-0.1,0-0.1,0-0.2,0l-1.5-0.9l-1.5,0.9c-0.2,0.1-0.4,0-0.5-0.1c-0.1-0.2,0-0.4,0.1-0.5l1.7-1
		C42.7,0,42.9,0,43,0l1.7,1c0.2,0.1,0.2,0.3,0.1,0.5C44.8,1.7,44.7,1.8,44.5,1.8z"/>
	<path class="st2" d="M80,22.2c-0.1,0-0.1,0-0.2,0l-3.5-2c-0.2-0.1-0.2-0.3-0.1-0.5c0.1-0.2,0.3-0.2,0.5-0.1l3.5,2
		c0.2,0.1,0.2,0.3,0.1,0.5C80.2,22.1,80.1,22.2,80,22.2z M72.9,18.1c-0.1,0-0.1,0-0.2,0l-3.5-2c-0.2-0.1-0.2-0.3-0.1-0.5
		c0.1-0.2,0.3-0.2,0.5-0.1l3.5,2c0.2,0.1,0.2,0.3,0.1,0.5C73.1,18,73,18.1,72.9,18.1z M65.8,14c-0.1,0-0.1,0-0.2,0l-3.5-2
		c-0.2-0.1-0.2-0.3-0.1-0.5c0.1-0.2,0.3-0.2,0.5-0.1l3.5,2c0.2,0.1,0.2,0.3,0.1,0.5C66.1,14,65.9,14,65.8,14z M58.7,9.9
		c-0.1,0-0.1,0-0.2,0l-3.5-2c-0.2-0.1-0.2-0.3-0.1-0.5c0.1-0.2,0.3-0.2,0.5-0.1l3.5,2c0.2,0.1,0.2,0.3,0.1,0.5
		C59,9.9,58.8,9.9,58.7,9.9z M51.6,5.8c-0.1,0-0.1,0-0.2,0l-3.5-2c-0.2-0.1-0.2-0.3-0.1-0.5c0.1-0.2,0.3-0.2,0.5-0.1l3.5,2
		C52,5.2,52.1,5.5,52,5.7C51.9,5.8,51.8,5.8,51.6,5.8z"/>
	<path class="st2" d="M83.5,26.3c-0.1,0-0.3-0.1-0.3-0.2c-0.1-0.2,0-0.4,0.1-0.5l1.2-0.7l-1.2-0.7c-0.2-0.1-0.2-0.3-0.1-0.5
		c0.1-0.2,0.3-0.2,0.5-0.1l1.7,1c0.1,0.1,0.2,0.2,0.2,0.3c0,0.1-0.1,0.3-0.2,0.3l-1.7,1C83.7,26.2,83.6,26.3,83.5,26.3z"/>
	<path class="st2" d="M48.1,46.7c-0.1,0-0.3-0.1-0.3-0.2c-0.1-0.2,0-0.4,0.1-0.5l3.5-2c0.2-0.1,0.4,0,0.5,0.1c0.1,0.2,0,0.4-0.1,0.5
		l-3.5,2C48.2,46.7,48.2,46.7,48.1,46.7z M55.2,42.6c-0.1,0-0.3-0.1-0.3-0.2c-0.1-0.2,0-0.4,0.1-0.5l3.5-2c0.2-0.1,0.4,0,0.5,0.1
		c0.1,0.2,0,0.4-0.1,0.5l-3.5,2C55.3,42.6,55.2,42.6,55.2,42.6z M62.3,38.5c-0.1,0-0.3-0.1-0.3-0.2c-0.1-0.2,0-0.4,0.1-0.5l3.5-2
		c0.2-0.1,0.4,0,0.5,0.1c0.1,0.2,0,0.4-0.1,0.5l-3.5,2C62.4,38.5,62.3,38.5,62.3,38.5z M69.3,34.4c-0.1,0-0.3-0.1-0.3-0.2
		c-0.1-0.2,0-0.4,0.1-0.5l3.5-2c0.2-0.1,0.4,0,0.5,0.1c0.1,0.2,0,0.4-0.1,0.5l-3.5,2C69.5,34.4,69.4,34.4,69.3,34.4z M76.4,30.3
		c-0.1,0-0.3-0.1-0.3-0.2c-0.1-0.2,0-0.4,0.1-0.5l3.5-2c0.2-0.1,0.4,0,0.5,0.1c0.1,0.2,0,0.4-0.1,0.5l-3.5,2
		C76.6,30.3,76.5,30.3,76.4,30.3z"/>
</g>
<polygon class="st2" points="42.8,39.5 17.6,24.9 17.6,26.1 42.8,40.7 68.1,26.1 68.1,24.9 "/>
<path class="st2" d="M0.4,137.7c-0.2,0-0.4-0.2-0.4-0.4v-0.6c0-0.2,0.2-0.4,0.4-0.4s0.4,0.2,0.4,0.4v0.6
	C0.8,137.5,0.6,137.7,0.4,137.7z M0.4,133.1c-0.2,0-0.4-0.2-0.4-0.4v-4c0-0.2,0.2-0.4,0.4-0.4s0.4,0.2,0.4,0.4v4
	C0.8,132.9,0.6,133.1,0.4,133.1z M0.4,125.1c-0.2,0-0.4-0.2-0.4-0.4v-4c0-0.2,0.2-0.4,0.4-0.4s0.4,0.2,0.4,0.4v4
	C0.8,124.9,0.6,125.1,0.4,125.1z M0.4,117.1c-0.2,0-0.4-0.2-0.4-0.4v-4c0-0.2,0.2-0.4,0.4-0.4s0.4,0.2,0.4,0.4v4
	C0.8,116.9,0.6,117.1,0.4,117.1z M0.4,109.1c-0.2,0-0.4-0.2-0.4-0.4v-4c0-0.2,0.2-0.4,0.4-0.4s0.4,0.2,0.4,0.4v4
	C0.8,108.9,0.6,109.1,0.4,109.1z M0.4,101.1c-0.2,0-0.4-0.2-0.4-0.4v-4c0-0.2,0.2-0.4,0.4-0.4s0.4,0.2,0.4,0.4v4
	C0.8,100.9,0.6,101.1,0.4,101.1z M0.4,93.1c-0.2,0-0.4-0.2-0.4-0.4v-4c0-0.2,0.2-0.4,0.4-0.4s0.4,0.2,0.4,0.4v4
	C0.8,92.9,0.6,93.1,0.4,93.1z M0.4,85.1c-0.2,0-0.4-0.2-0.4-0.4v-4c0-0.2,0.2-0.4,0.4-0.4s0.4,0.2,0.4,0.4v4
	C0.8,84.9,0.6,85.1,0.4,85.1z M0.4,77.1c-0.2,0-0.4-0.2-0.4-0.4v-4c0-0.2,0.2-0.4,0.4-0.4s0.4,0.2,0.4,0.4v4
	C0.8,76.9,0.6,77.1,0.4,77.1z M0.4,69.1c-0.2,0-0.4-0.2-0.4-0.4v-4c0-0.2,0.2-0.4,0.4-0.4s0.4,0.2,0.4,0.4v4
	C0.8,68.9,0.6,69.1,0.4,69.1z M0.4,61.1c-0.2,0-0.4-0.2-0.4-0.4v-4c0-0.2,0.2-0.4,0.4-0.4s0.4,0.2,0.4,0.4v4
	C0.8,60.9,0.6,61.1,0.4,61.1z M0.4,53.1c-0.2,0-0.4-0.2-0.4-0.4v-2.8c0-0.1,0.1-0.3,0.2-0.3l1-0.6c0.2-0.1,0.4,0,0.5,0.1
	c0.1,0.2,0,0.4-0.1,0.5l-0.8,0.5v2.6C0.8,52.9,0.6,53.1,0.4,53.1z M4.9,47.7c-0.1,0-0.3-0.1-0.3-0.2c-0.1-0.2,0-0.4,0.1-0.5l3.5-2
	c0.2-0.1,0.4,0,0.5,0.1c0.1,0.2,0,0.4-0.1,0.5l-3.5,2C5,47.7,5,47.7,4.9,47.7z M11.9,43.8c-0.1,0-0.3-0.1-0.3-0.2
	c-0.1-0.2,0-0.4,0.1-0.5l3.5-2c0.2-0.1,0.4,0,0.5,0.1c0.1,0.2,0,0.4-0.1,0.5l-3.5,2C12,43.8,11.9,43.8,11.9,43.8z M18.9,39.9
	c-0.1,0-0.3-0.1-0.3-0.2c-0.1-0.2,0-0.4,0.1-0.5l3.5-2c0.2-0.1,0.4,0,0.5,0.1c0.1,0.2,0,0.4-0.1,0.5l-3.5,2
	C19,39.9,18.9,39.9,18.9,39.9z"/>
</svg>
