<?xml version="1.0" encoding="utf-8"?>
<!-- Generator: Adobe Illustrator 21.0.0, SVG Export Plug-In . SVG Version: 6.00 Build 0)  -->
<svg version="1.1" id="_x2014_ÎÓÈ_x5F_1" xmlns="http://www.w3.org/2000/svg" xmlns:xlink="http://www.w3.org/1999/xlink"
	 x="0px" y="0px" viewBox="0 0 315.4 310" style="enable-background:new 0 0 315.4 310;" xml:space="preserve">
<style type="text/css">
	.st0{opacity:0.3;fill:url(#SVGID_1_);}
	.st1{opacity:0.5;fill:url(#SVGID_2_);}
	.st2{fill:url(#SVGID_3_);}
	.st3{opacity:0.5;fill:url(#SVGID_4_);enable-background:new    ;}
	.st4{fill:#86BCC7;}
	.st5{fill:url(#SVGID_5_);}
	.st6{fill:url(#SVGID_6_);}
	.st7{fill:url(#SVGID_7_);}
	.st8{fill:url(#SVGID_8_);}
	.st9{fill:url(#SVGID_9_);}
	.st10{fill:url(#SVGID_10_);}
	.st11{fill:url(#SVGID_11_);}
	.st12{fill:url(#SVGID_12_);}
	.st13{opacity:0.7;fill:url(#SVGID_13_);enable-background:new    ;}
	.st14{opacity:0.6;fill:url(#SVGID_14_);enable-background:new    ;}
	.st15{opacity:0.11;fill:url(#SVGID_15_);enable-background:new    ;}
	.st16{opacity:0.11;fill:url(#SVGID_16_);enable-background:new    ;}
	.st17{opacity:0.11;fill:url(#SVGID_17_);enable-background:new    ;}
	.st18{opacity:0.11;fill:url(#SVGID_18_);enable-background:new    ;}
	.st19{opacity:0.11;fill:url(#SVGID_19_);enable-background:new    ;}
	.st20{opacity:0.11;fill:url(#SVGID_20_);enable-background:new    ;}
</style>
<radialGradient id="SVGID_1_" cx="160.4226" cy="6506.2427" r="96.3459" gradientTransform="matrix(1 0 0 0.5677 0 -3471.896)" gradientUnits="userSpaceOnUse">
	<stop  offset="0" style="stop-color:#42E8E0"/>
	<stop  offset="1" style="stop-color:#180D5B"/>
</radialGradient>
<path class="st0" d="M311.6,221.5l-0.6-0.4l-0.1,0l-5.7-3.3l0.1,0l-0.6-0.4l-0.1,0l-5.7-3.3l0.1,0l-0.6-0.4l-0.1,0l-5.7-3.3l0.1,0
	l-0.6-0.4l-0.1,0l-5.7-3.3l0.1,0l-0.6-0.4l-0.1,0l-5.7-3.3l0.1,0l-0.6-0.4l-0.1,0l-5.7-3.3l0.1,0l-0.6-0.4l-0.1,0l-5.7-3.3l0.1,0
	l-0.6-0.4l-0.1,0l-5.7-3.3l0.1,0l-0.6-0.4l-0.1,0l-5.7-3.3l0.1,0l-0.6-0.4l-0.1,0l-5.7-3.3l0.1,0l-0.6-0.4l-0.1,0l-5.7-3.3l0.1,0
	l-0.6-0.4l-0.1,0l-5.7-3.3l0.1,0l-0.6-0.4l-0.1,0l-5.7-3.3l0.1,0l-0.6-0.4l-0.1,0l-5.7-3.3l0.1,0l-0.6-0.4l-0.1,0l-5.7-3.3l0.1,0
	l-0.6-0.4l-0.1,0l-5.7-3.3l0.1,0l-0.6-0.4l-0.1,0l-5.7-3.3l0.1,0l-0.6-0.4l-0.1,0l-5.7-3.3l0.1,0l-0.6-0.4l-0.1,0l-5.7-3.3l0.1,0
	l-0.6-0.4l-0.1,0l-5.7-3.3l0.1,0l-0.6-0.4l-0.1,0l-5.7-3.3l0.1,0l-0.6-0.4l-0.1,0l-5.7-3.3l0.1,0l-0.6-0.4l-0.1,0l-5.7-3.3l0.1,0
	l-0.6-0.4l-0.1,0l-5.7-3.3l0.1,0l-0.6-0.4l-0.1,0l0,0l-0.6,0.4l0,0l-5.7,3.3l0,0l-0.6,0.4l0,0l-5.7,3.3h0l-0.6,0.4l0,0l-5.7,3.3h0
	l-0.6,0.4l0,0l-5.7,3.3l0,0l-0.6,0.4l0,0l-5.7,3.3h0l-0.6,0.4l0,0l-5.7,3.3l0,0l-0.6,0.4l0,0l-5.7,3.3l0,0l-0.6,0.4l0,0l-5.7,3.3
	l0,0l-0.6,0.4l0,0l-5.7,3.3h0l-0.6,0.4l0,0l-5.7,3.3h0l-0.6,0.4l0,0l-5.7,3.3h0l-0.6,0.4l0,0l-5.7,3.3l0,0l-0.6,0.4l0,0l-5.7,3.3
	l0,0l-0.6,0.4l0,0l-5.8,3.3l-0.6,0.3h0l-5.7,3.3v0l-0.6,0.4l0,0l-5.7,3.3l0,0l-0.6,0.4l0,0l-5.7,3.3h0l-0.6,0.4l0,0l-5.7,3.3l0,0
	l-0.6,0.4l0,0l-5.7,3.3l0,0l-0.6,0.4l0,0l-5.7,3.3l0,0l-0.6,0.4l0,0l-5.7,3.3l0,0l-0.6,0.4l0,0l-5.7,3.3v0l-0.6,0.4l0,0l-5.7,3.3h0
	l-0.6,0.4l0,0l-5.7,3.3l0,0l-0.6,0.4l0,0l-0.1,0l0.6,0.4l0.1,0l5.7,3.3l-0.1,0l0.6,0.4l0.1,0l5.7,3.3l-0.1,0l0.6,0.4l0.1,0l5.7,3.3
	l-0.1,0l0.6,0.4l0.1,0l5.7,3.3l-0.1,0l0.6,0.4l0.1,0l5.7,3.3l-0.1,0l0.6,0.4l0.1,0l5.7,3.3l-0.1,0l0.6,0.4l0.1,0l5.7,3.3l-0.1,0
	l0.6,0.4l0.1,0l5.7,3.3l-0.1,0l0.6,0.4l0.1,0l5.7,3.3l-0.1,0l0.6,0.4l0.1,0l5.7,3.3l-0.1,0l0.6,0.4l0.1,0l5.7,3.3l-0.1,0l0.6,0.4
	l0.1,0l5.7,3.3l-0.1,0l0.6,0.4l0.1,0l5.7,3.3l-0.1,0l0.6,0.4l0.1,0l5.7,3.3l-0.1,0l0.6,0.4l0.1,0l5.7,3.3l-0.1,0l0.6,0.4l0.1,0
	l5.7,3.3l-0.1,0l0.6,0.4l0.1,0l5.7,3.3l-0.1,0l0.6,0.4l0.1,0l5.7,3.3l-0.1,0l0.6,0.4l0.1,0l5.7,3.3l-0.1,0l0.6,0.4l0.1,0l5.7,3.3
	l-0.1,0l0.6,0.4l0.1,0l5.7,3.3l-0.1,0l0.6,0.4l0.1,0l5.7,3.3l-0.1,0l0.6,0.4l0.1,0l5.7,3.3l-0.1,0l0.6,0.4l0.1,0l5.7,3.3l-0.1,0
	l0.6,0.4l0.3-0.1l0.4-0.3l0,0l6.1-3.5l0.2-0.1l0,0l5.7-3.3l0,0l0.6-0.4l0,0l5.7-3.3h0l0.5-0.3l5.9-3.4l0,0l0.3-0.2l6-3.5l0,0
	l0.6-0.4l0,0l5.7-3.3l0.6-0.4h0l6-3.4l0.4-0.2l0,0l5.7-3.3l0,0l0.6-0.4l0,0l5.7-3.3h0l0.6-0.3l5.8-3.3l0,0l0.6-0.4l0,0l5.7-3.3l0,0
	l0.6-0.4l0,0l5.7-3.3l0,0l0.6-0.4h0l5.7-3.3l0,0l0.6-0.4h0l5.7-3.3l0,0l0.6-0.4l0,0l5.7-3.3l0,0l0.6-0.4h0l5.7-3.3h0l0.6-0.4l0,0
	l5.7-3.3l0,0l0.6-0.4l0,0l5.7-3.3h0l0.6-0.4l0,0l5.7-3.3l0,0l0.6-0.4h0l5.7-3.3l0,0l0.6-0.4l0,0l5.7-3.3l0,0l0.6-0.4h0l5.7-3.3
	l0.6-0.4l0,0l5.7-3.3l0,0l0.6-0.4l0,0l5.7-3.3h0L311.6,221.5L311.6,221.5L311.6,221.5z M303.9,217.8l-5.7,3.3l-5.7-3.3l5.7-3.3
	L303.9,217.8z M157.8,221.5l-5.7,3.3l-5.7-3.3l5.7-3.3L157.8,221.5z M152.7,217.8l5.7-3.3l5.7,3.3l-5.7,3.3L152.7,217.8z
	 M158.4,221.9l5.7,3.3l-5.7,3.3l-5.7-3.3L158.4,221.9z M159,221.5l5.7-3.3l5.7,3.3l-5.7,3.3L159,221.5z M165.4,217.8l5.7-3.3
	l5.7,3.3l-5.7,3.3L165.4,217.8z M164.8,217.5l-5.7-3.3l5.7-3.3l5.7,3.3L164.8,217.5z M158.4,213.8l-5.7-3.3l5.7-3.3l5.7,3.3
	L158.4,213.8z M157.8,214.2l-5.7,3.3l-5.7-3.3l5.7-3.3L157.8,214.2z M151.4,217.8l-5.7,3.3l-5.7-3.3l5.7-3.3L151.4,217.8z
	 M145.1,221.5l-5.7,3.3l-5.7-3.3l5.7-3.3L145.1,221.5z M145.7,221.9l5.7,3.3l-5.7,3.3l-5.7-3.3L145.7,221.9z M152,225.5l5.7,3.3
	l-5.7,3.3l-5.7-3.3L152,225.5z M158.4,229.2l5.7,3.3l-5.7,3.3l-5.7-3.3L158.4,229.2z M159,228.8l5.7-3.3l5.7,3.3l-5.7,3.3L159,228.8
	z M165.4,225.2l5.7-3.3l5.7,3.3l-5.7,3.3L165.4,225.2z M171.7,221.5l5.7-3.3l5.7,3.3l-5.7,3.3L171.7,221.5z M178.1,217.8l5.7-3.3
	l5.7,3.3l-5.7,3.3L178.1,217.8z M177.5,217.5l-5.7-3.3l5.7-3.3l5.7,3.3L177.5,217.5z M171.1,213.8l-5.7-3.3l5.7-3.3l5.7,3.3
	L171.1,213.8z M164.8,210.1l-5.7-3.3l5.7-3.3l5.7,3.3L164.8,210.1z M158.4,206.5l-5.7-3.3l5.7-3.3l5.7,3.3L158.4,206.5z
	 M157.8,206.8l-5.7,3.3l-5.7-3.3l5.7-3.3L157.8,206.8z M151.4,210.5l-5.7,3.3l-5.7-3.3l5.7-3.3L151.4,210.5z M145.1,214.2l-5.7,3.3
	l-5.7-3.3l5.7-3.3L145.1,214.2z M138.7,217.8l-5.7,3.3l-5.7-3.3l5.7-3.3L138.7,217.8z M132.4,221.5l-5.7,3.3l-5.7-3.3l5.7-3.3
	L132.4,221.5z M133,221.9l5.7,3.3l-5.7,3.3l-5.7-3.3L133,221.9z M139.3,225.5l5.7,3.3l-5.7,3.3l-5.7-3.3L139.3,225.5z M145.7,229.2
	l5.7,3.3l-5.7,3.3l-5.7-3.3L145.7,229.2z M152,232.9l5.7,3.3l-5.7,3.3l-5.7-3.3L152,232.9z M158.4,236.5l5.7,3.3l-5.7,3.3l-5.7-3.3
	L158.4,236.5z M159,236.2l5.7-3.3l5.7,3.3l-5.7,3.3L159,236.2z M165.4,232.5l5.7-3.3l5.7,3.3l-5.7,3.3L165.4,232.5z M171.7,228.8
	l5.7-3.3l5.7,3.3l-5.7,3.3L171.7,228.8z M178.1,225.2l5.7-3.3l5.7,3.3l-5.7,3.3L178.1,225.2z M184.5,221.5l5.7-3.3l5.7,3.3l-5.7,3.3
	L184.5,221.5z M190.8,217.8l5.7-3.3l5.7,3.3l-5.7,3.3L190.8,217.8z M190.2,217.5l-5.7-3.3l5.7-3.3l5.7,3.3L190.2,217.5z
	 M183.8,213.8l-5.7-3.3l5.7-3.3l5.7,3.3L183.8,213.8z M177.5,210.1l-5.7-3.3l5.7-3.3l5.7,3.3L177.5,210.1z M171.1,206.5l-5.7-3.3
	l5.7-3.3l5.7,3.3L171.1,206.5z M164.8,202.8l-5.7-3.3l5.7-3.3l5.7,3.3L164.8,202.8z M158.4,199.1l-5.7-3.3l5.7-3.3l5.7,3.3
	L158.4,199.1z M157.8,199.5l-5.7,3.3l-5.7-3.3l5.7-3.3L157.8,199.5z M151.4,203.2l-5.7,3.3l-5.7-3.3l5.7-3.3L151.4,203.2z
	 M145.1,206.8l-5.7,3.3l-5.7-3.3l5.7-3.3L145.1,206.8z M138.7,210.5l-5.7,3.3l-5.7-3.3l5.7-3.3L138.7,210.5z M132.4,214.2l-5.7,3.3
	l-5.7-3.3l5.7-3.3L132.4,214.2z M126,217.8l-5.7,3.3l-5.7-3.3l5.7-3.3L126,217.8z M119.6,221.5l-5.7,3.3l-5.7-3.3l5.7-3.3
	L119.6,221.5z M120.3,221.9l5.7,3.3l-5.7,3.3l-5.7-3.3L120.3,221.9z M126.6,225.5l5.7,3.3l-5.7,3.3l-5.7-3.3L126.6,225.5z
	 M133,229.2l5.7,3.3l-5.7,3.3l-5.7-3.3L133,229.2z M139.3,232.9l5.7,3.3l-5.7,3.3l-5.7-3.3L139.3,232.9z M145.7,236.5l5.7,3.3
	l-5.7,3.3l-5.7-3.3L145.7,236.5z M152,240.2l5.7,3.3l-5.7,3.3l-5.7-3.3L152,240.2z M158.4,243.9l5.7,3.3l-5.7,3.3l-5.7-3.3
	L158.4,243.9z M159,243.5l5.7-3.3l5.7,3.3l-5.7,3.3L159,243.5z M165.4,239.8l5.7-3.3l5.7,3.3l-5.7,3.3L165.4,239.8z M171.7,236.2
	l5.7-3.3l5.7,3.3l-5.7,3.3L171.7,236.2z M178.1,232.5l5.7-3.3l5.7,3.3l-5.7,3.3L178.1,232.5z M184.5,228.8l5.7-3.3l5.7,3.3l-5.7,3.3
	L184.5,228.8z M190.8,225.2l5.7-3.3l5.7,3.3l-5.7,3.3L190.8,225.2z M197.2,221.5l5.7-3.3l5.7,3.3l-5.7,3.3L197.2,221.5z
	 M203.5,217.8l5.7-3.3l5.7,3.3l-5.7,3.3L203.5,217.8z M202.9,217.5l-5.7-3.3l5.7-3.3l5.7,3.3L202.9,217.5z M196.5,213.8l-5.7-3.3
	l5.7-3.3l5.7,3.3L196.5,213.8z M190.2,210.1l-5.7-3.3l5.7-3.3l5.7,3.3L190.2,210.1z M183.8,206.5l-5.7-3.3l5.7-3.3l5.7,3.3
	L183.8,206.5z M177.5,202.8l-5.7-3.3l5.7-3.3l5.7,3.3L177.5,202.8z M171.1,199.1l-5.7-3.3l5.7-3.3l5.7,3.3L171.1,199.1z
	 M164.8,195.5l-5.7-3.3l5.7-3.3l5.7,3.3L164.8,195.5z M158.4,191.8l-5.7-3.3l5.7-3.3l5.7,3.3L158.4,191.8z M157.8,192.2l-5.7,3.3
	l-5.7-3.3l5.7-3.3L157.8,192.2z M151.4,195.8l-5.7,3.3l-5.7-3.3l5.7-3.3L151.4,195.8z M145.1,199.5l-5.7,3.3l-5.7-3.3l5.7-3.3
	L145.1,199.5z M138.7,203.2l-5.7,3.3l-5.7-3.3l5.7-3.3L138.7,203.2z M132.4,206.8l-5.7,3.3l-5.7-3.3l5.7-3.3L132.4,206.8z
	 M126,210.5l-5.7,3.3l-5.7-3.3l5.7-3.3L126,210.5z M119.6,214.2l-5.7,3.3l-5.7-3.3l5.7-3.3L119.6,214.2z M113.3,217.8l-5.7,3.3
	l-5.7-3.3l5.7-3.3L113.3,217.8z M106.9,221.5l-5.7,3.3l-5.7-3.3l5.7-3.3L106.9,221.5z M107.6,221.9l5.7,3.3l-5.7,3.3l-5.7-3.3
	L107.6,221.9z M113.9,225.5l5.7,3.3l-5.7,3.3l-5.7-3.3L113.9,225.5z M120.3,229.2l5.7,3.3l-5.7,3.3l-5.7-3.3L120.3,229.2z
	 M126.6,232.9l5.7,3.3l-5.7,3.3l-5.7-3.3L126.6,232.9z M133,236.5l5.7,3.3l-5.7,3.3l-5.7-3.3L133,236.5z M139.3,240.2l5.7,3.3
	l-5.7,3.3l-5.7-3.3L139.3,240.2z M145.7,243.9l5.7,3.3l-5.7,3.3l-5.7-3.3L145.7,243.9z M152,247.5l5.7,3.3l-5.7,3.3l-5.7-3.3
	L152,247.5z M158.4,251.2l5.7,3.3l-5.7,3.3l-5.7-3.3L158.4,251.2z M159,250.9l5.7-3.3l5.7,3.3l-5.7,3.3L159,250.9z M165.4,247.2
	l5.7-3.3l5.7,3.3l-5.7,3.3L165.4,247.2z M171.7,243.5l5.7-3.3l5.7,3.3l-5.7,3.3L171.7,243.5z M178.1,239.8l5.7-3.3l5.7,3.3l-5.7,3.3
	L178.1,239.8z M184.5,236.2l5.7-3.3l5.7,3.3l-5.7,3.3L184.5,236.2z M190.8,232.5l5.7-3.3l5.7,3.3l-5.7,3.3L190.8,232.5z
	 M197.2,228.8l5.7-3.3l5.7,3.3l-5.7,3.3L197.2,228.8z M203.5,225.2l5.7-3.3l5.7,3.3l-5.7,3.3L203.5,225.2z M209.9,221.5l5.7-3.3
	l5.7,3.3l-5.7,3.3L209.9,221.5z M216.2,217.8l5.7-3.3l5.7,3.3l-5.7,3.3L216.2,217.8z M215.6,217.5l-5.7-3.3l5.7-3.3l5.7,3.3
	L215.6,217.5z M209.2,213.8l-5.7-3.3l5.7-3.3l5.7,3.3L209.2,213.8z M202.9,210.1l-5.7-3.3l5.7-3.3l5.7,3.3L202.9,210.1z
	 M196.5,206.5l-5.7-3.3l5.7-3.3l5.7,3.3L196.5,206.5z M190.2,202.8l-5.7-3.3l5.7-3.3l5.7,3.3L190.2,202.8z M183.8,199.1l-5.7-3.3
	l5.7-3.3l5.7,3.3L183.8,199.1z M177.5,195.5l-5.7-3.3l5.7-3.3l5.7,3.3L177.5,195.5z M171.1,191.8l-5.7-3.3l5.7-3.3l5.7,3.3
	L171.1,191.8z M164.8,188.1l-5.7-3.3l5.7-3.3l5.7,3.3L164.8,188.1z M158.4,184.4l-5.7-3.3l5.7-3.3l5.7,3.3L158.4,184.4z
	 M157.8,184.8l-5.7,3.3l-5.7-3.3l5.7-3.3L157.8,184.8z M151.4,188.5l-5.7,3.3l-5.7-3.3l5.7-3.3L151.4,188.5z M145.1,192.2l-5.7,3.3
	l-5.7-3.3l5.7-3.3L145.1,192.2z M138.7,195.8l-5.7,3.3l-5.7-3.3l5.7-3.3L138.7,195.8z M132.4,199.5l-5.7,3.3l-5.7-3.3l5.7-3.3
	L132.4,199.5z M126,203.2l-5.7,3.3l-5.7-3.3l5.7-3.3L126,203.2z M119.6,206.8l-5.7,3.3l-5.7-3.3l5.7-3.3L119.6,206.8z M113.3,210.5
	l-5.7,3.3l-5.7-3.3l5.7-3.3L113.3,210.5z M106.9,214.2l-5.7,3.3l-5.7-3.3l5.7-3.3L106.9,214.2z M100.6,217.8l-5.7,3.3l-5.7-3.3
	l5.7-3.3L100.6,217.8z M94.2,221.5l-5.7,3.3l-5.7-3.3l5.7-3.3L94.2,221.5z M94.9,221.9l5.7,3.3l-5.7,3.3l-5.7-3.3L94.9,221.9z
	 M101.2,225.5l5.7,3.3l-5.7,3.3l-5.7-3.3L101.2,225.5z M107.6,229.2l5.7,3.3l-5.7,3.3l-5.7-3.3L107.6,229.2z M113.9,232.9l5.7,3.3
	l-5.7,3.3l-5.7-3.3L113.9,232.9z M120.3,236.5l5.7,3.3l-5.7,3.3l-5.7-3.3L120.3,236.5z M126.6,240.2l5.7,3.3l-5.7,3.3l-5.7-3.3
	L126.6,240.2z M133,243.9l5.7,3.3l-5.7,3.3l-5.7-3.3L133,243.9z M139.3,247.5l5.7,3.3l-5.7,3.3l-5.7-3.3L139.3,247.5z M145.7,251.2
	l5.7,3.3l-5.7,3.3l-5.7-3.3L145.7,251.2z M152,254.9l5.7,3.3l-5.7,3.3l-5.7-3.3L152,254.9z M158.4,258.6l5.7,3.3l-5.7,3.3l-5.7-3.3
	L158.4,258.6z M159,258.2l5.7-3.3l5.7,3.3l-5.7,3.3L159,258.2z M165.4,254.5l5.7-3.3l5.7,3.3l-5.7,3.3L165.4,254.5z M171.7,250.9
	l5.7-3.3l5.7,3.3l-5.7,3.3L171.7,250.9z M178.1,247.2l5.7-3.3l5.7,3.3l-5.7,3.3L178.1,247.2z M184.5,243.5l5.7-3.3l5.7,3.3l-5.7,3.3
	L184.5,243.5z M190.8,239.8l5.7-3.3l5.7,3.3l-5.7,3.3L190.8,239.8z M197.2,236.2l5.7-3.3l5.7,3.3l-5.7,3.3L197.2,236.2z
	 M203.5,232.5l5.7-3.3l5.7,3.3l-5.7,3.3L203.5,232.5z M209.9,228.8l5.7-3.3l5.7,3.3l-5.7,3.3L209.9,228.8z M216.2,225.2l5.7-3.3
	l5.7,3.3l-5.7,3.3L216.2,225.2z M222.6,221.5l5.7-3.3l5.7,3.3l-5.7,3.3L222.6,221.5z M228.9,217.8l5.7-3.3l5.7,3.3l-5.7,3.3
	L228.9,217.8z M228.3,217.5l-5.7-3.3l5.7-3.3l5.7,3.3L228.3,217.5z M221.9,213.8l-5.7-3.3l5.7-3.3l5.7,3.3L221.9,213.8z
	 M215.6,210.1l-5.7-3.3l5.7-3.3l5.7,3.3L215.6,210.1z M209.2,206.5l-5.7-3.3l5.7-3.3l5.7,3.3L209.2,206.5z M202.9,202.8l-5.7-3.3
	l5.7-3.3l5.7,3.3L202.9,202.8z M196.5,199.1l-5.7-3.3l5.7-3.3l5.7,3.3L196.5,199.1z M190.2,195.5l-5.7-3.3l5.7-3.3l5.7,3.3
	L190.2,195.5z M183.8,191.8l-5.7-3.3l5.7-3.3l5.7,3.3L183.8,191.8z M177.5,188.1l-5.7-3.3l5.7-3.3l5.7,3.3L177.5,188.1z
	 M171.1,184.4l-5.7-3.3l5.7-3.3l5.7,3.3L171.1,184.4z M164.8,180.8l-5.7-3.3l5.7-3.3l5.7,3.3L164.8,180.8z M158.4,177.1l-5.7-3.3
	l5.7-3.3l5.7,3.3L158.4,177.1z M157.8,177.5l-5.7,3.3l-5.7-3.3l5.7-3.3L157.8,177.5z M151.4,181.1l-5.7,3.3l-5.7-3.3l5.7-3.3
	L151.4,181.1z M145.1,184.8l-5.7,3.3l-5.7-3.3l5.7-3.3L145.1,184.8z M138.7,188.5l-5.7,3.3l-5.7-3.3l5.7-3.3L138.7,188.5z
	 M132.4,192.2l-5.7,3.3l-5.7-3.3l5.7-3.3L132.4,192.2z M126,195.8l-5.7,3.3l-5.7-3.3l5.7-3.3L126,195.8z M119.6,199.5l-5.7,3.3
	l-5.7-3.3l5.7-3.3L119.6,199.5z M113.3,203.2l-5.7,3.3l-5.7-3.3l5.7-3.3L113.3,203.2z M106.9,206.8l-5.7,3.3l-5.7-3.3l5.7-3.3
	L106.9,206.8z M100.6,210.5l-5.7,3.3l-5.7-3.3l5.7-3.3L100.6,210.5z M94.2,214.2l-5.7,3.3l-5.7-3.3l5.7-3.3L94.2,214.2z M87.9,217.8
	l-5.7,3.3l-5.7-3.3l5.7-3.3L87.9,217.8z M81.5,221.5l-5.7,3.3l-5.7-3.3l5.7-3.3L81.5,221.5z M82.1,221.9l5.7,3.3l-5.7,3.3l-5.7-3.3
	L82.1,221.9z M88.5,225.5l5.7,3.3l-5.7,3.3l-5.7-3.3L88.5,225.5z M94.9,229.2l5.7,3.3l-5.7,3.3l-5.7-3.3L94.9,229.2z M101.2,232.9
	l5.7,3.3l-5.7,3.3l-5.7-3.3L101.2,232.9z M107.6,236.5l5.7,3.3l-5.7,3.3l-5.7-3.3L107.6,236.5z M113.9,240.2l5.7,3.3l-5.7,3.3
	l-5.7-3.3L113.9,240.2z M120.3,243.9l5.7,3.3l-5.7,3.3l-5.7-3.3L120.3,243.9z M126.6,247.5l5.7,3.3l-5.7,3.3l-5.7-3.3L126.6,247.5z
	 M133,251.2l5.7,3.3l-5.7,3.3l-5.7-3.3L133,251.2z M139.3,254.9l5.7,3.3l-5.7,3.3l-5.7-3.3L139.3,254.9z M145.7,258.6l5.7,3.3
	l-5.7,3.3l-5.7-3.3L145.7,258.6z M152,262.2l5.7,3.3l-5.7,3.3l-5.7-3.3L152,262.2z M158.4,265.9l5.7,3.3l-5.7,3.3l-5.7-3.3
	L158.4,265.9z M159,265.5l5.7-3.3l5.7,3.3l-5.7,3.3L159,265.5z M165.4,261.9l5.7-3.3l5.7,3.3l-5.7,3.3L165.4,261.9z M171.7,258.2
	l5.7-3.3l5.7,3.3l-5.7,3.3L171.7,258.2z M178.1,254.5l5.7-3.3l5.7,3.3l-5.7,3.3L178.1,254.5z M184.5,250.9l5.7-3.3l5.7,3.3l-5.7,3.3
	L184.5,250.9z M190.8,247.2l5.7-3.3l5.7,3.3l-5.7,3.3L190.8,247.2z M197.2,243.5l5.7-3.3l5.7,3.3l-5.7,3.3L197.2,243.5z
	 M203.5,239.8l5.7-3.3l5.7,3.3l-5.7,3.3L203.5,239.8z M209.9,236.2l5.7-3.3l5.7,3.3l-5.7,3.3L209.9,236.2z M216.2,232.5l5.7-3.3
	l5.7,3.3l-5.7,3.3L216.2,232.5z M222.6,228.8l5.7-3.3l5.7,3.3l-5.7,3.3L222.6,228.8z M228.9,225.2l5.7-3.3l5.7,3.3l-5.7,3.3
	L228.9,225.2z M235.3,221.5l5.7-3.3l5.7,3.3l-5.7,3.3L235.3,221.5z M241.6,217.8l5.7-3.3l5.7,3.3l-5.7,3.3L241.6,217.8z M241,217.5
	l-5.7-3.3l5.7-3.3l5.7,3.3L241,217.5z M234.7,213.8l-5.7-3.3l5.7-3.3l5.7,3.3L234.7,213.8z M228.3,210.1l-5.7-3.3l5.7-3.3l5.7,3.3
	L228.3,210.1z M221.9,206.5l-5.7-3.3l5.7-3.3l5.7,3.3L221.9,206.5z M215.6,202.8l-5.7-3.3l5.7-3.3l5.7,3.3L215.6,202.8z
	 M209.2,199.1l-5.7-3.3l5.7-3.3l5.7,3.3L209.2,199.1z M202.9,195.5l-5.7-3.3l5.7-3.3l5.7,3.3L202.9,195.5z M196.5,191.8l-5.7-3.3
	l5.7-3.3l5.7,3.3L196.5,191.8z M190.2,188.1l-5.7-3.3l5.7-3.3l5.7,3.3L190.2,188.1z M183.8,184.4l-5.7-3.3l5.7-3.3l5.7,3.3
	L183.8,184.4z M177.5,180.8l-5.7-3.3l5.7-3.3l5.7,3.3L177.5,180.8z M171.1,177.1l-5.7-3.3l5.7-3.3l5.7,3.3L171.1,177.1z
	 M164.8,173.4l-5.7-3.3l5.7-3.3l5.7,3.3L164.8,173.4z M158.4,169.8l-5.7-3.3l5.7-3.3l5.7,3.3L158.4,169.8z M157.8,170.1l-5.7,3.3
	l-5.7-3.3l5.7-3.3L157.8,170.1z M151.4,173.8l-5.7,3.3l-5.7-3.3l5.7-3.3L151.4,173.8z M145.1,177.5l-5.7,3.3l-5.7-3.3l5.7-3.3
	L145.1,177.5z M138.7,181.1l-5.7,3.3l-5.7-3.3l5.7-3.3L138.7,181.1z M132.4,184.8l-5.7,3.3l-5.7-3.3l5.7-3.3L132.4,184.8z
	 M126,188.5l-5.7,3.3l-5.7-3.3l5.7-3.3L126,188.5z M119.6,192.2l-5.7,3.3l-5.7-3.3l5.7-3.3L119.6,192.2z M113.3,195.8l-5.7,3.3
	l-5.7-3.3l5.7-3.3L113.3,195.8z M106.9,199.5l-5.7,3.3l-5.7-3.3l5.7-3.3L106.9,199.5z M100.6,203.2l-5.7,3.3l-5.7-3.3l5.7-3.3
	L100.6,203.2z M94.2,206.8l-5.7,3.3l-5.7-3.3l5.7-3.3L94.2,206.8z M87.9,210.5l-5.7,3.3l-5.7-3.3l5.7-3.3L87.9,210.5z M81.5,214.2
	l-5.7,3.3l-5.7-3.3l5.7-3.3L81.5,214.2z M75.2,217.8l-5.7,3.3l-5.7-3.3l5.7-3.3L75.2,217.8z M68.8,221.5l-5.7,3.3l-5.7-3.3l5.7-3.3
	L68.8,221.5z M69.4,221.9l5.7,3.3l-5.7,3.3l-5.7-3.3L69.4,221.9z M75.8,225.5l5.7,3.3l-5.7,3.3l-5.7-3.3L75.8,225.5z M82.1,229.2
	l5.7,3.3l-5.7,3.3l-5.7-3.3L82.1,229.2z M88.5,232.9l5.7,3.3l-5.7,3.3l-5.7-3.3L88.5,232.9z M94.9,236.5l5.7,3.3l-5.7,3.3l-5.7-3.3
	L94.9,236.5z M101.2,240.2l5.7,3.3l-5.7,3.3l-5.7-3.3L101.2,240.2z M107.6,243.9l5.7,3.3l-5.7,3.3l-5.7-3.3L107.6,243.9z
	 M113.9,247.5l5.7,3.3l-5.7,3.3l-5.7-3.3L113.9,247.5z M120.3,251.2l5.7,3.3l-5.7,3.3l-5.7-3.3L120.3,251.2z M126.6,254.9l5.7,3.3
	l-5.7,3.3l-5.7-3.3L126.6,254.9z M133,258.6l5.7,3.3l-5.7,3.3l-5.7-3.3L133,258.6z M139.3,262.2l5.7,3.3l-5.7,3.3l-5.7-3.3
	L139.3,262.2z M145.7,265.9l5.7,3.3l-5.7,3.3l-5.7-3.3L145.7,265.9z M152,269.6l5.7,3.3l-5.7,3.3l-5.7-3.3L152,269.6z M158.4,273.2
	l5.7,3.3l-5.7,3.3l-5.7-3.3L158.4,273.2z M159,272.9l5.7-3.3l5.7,3.3l-5.7,3.3L159,272.9z M165.4,269.2l5.7-3.3l5.7,3.3l-5.7,3.3
	L165.4,269.2z M171.7,265.5l5.7-3.3l5.7,3.3l-5.7,3.3L171.7,265.5z M178.1,261.9l5.7-3.3l5.7,3.3l-5.7,3.3L178.1,261.9z
	 M184.5,258.2l5.7-3.3l5.7,3.3l-5.7,3.3L184.5,258.2z M190.8,254.5l5.7-3.3l5.7,3.3l-5.7,3.3L190.8,254.5z M197.2,250.9l5.7-3.3
	l5.7,3.3l-5.7,3.3L197.2,250.9z M203.5,247.2l5.7-3.3l5.7,3.3l-5.7,3.3L203.5,247.2z M209.9,243.5l5.7-3.3l5.7,3.3l-5.7,3.3
	L209.9,243.5z M216.2,239.8l5.7-3.3l5.7,3.3l-5.7,3.3L216.2,239.8z M222.6,236.2l5.7-3.3l5.7,3.3l-5.7,3.3L222.6,236.2z
	 M228.9,232.5l5.7-3.3l5.7,3.3l-5.7,3.3L228.9,232.5z M235.3,228.8l5.7-3.3l5.7,3.3l-5.7,3.3L235.3,228.8z M241.6,225.2l5.7-3.3
	l5.7,3.3l-5.7,3.3L241.6,225.2z M248,221.5l5.7-3.3l5.7,3.3l-5.7,3.3L248,221.5z M254.4,217.8l5.7-3.3l5.7,3.3l-5.7,3.3L254.4,217.8
	z M253.7,217.5l-5.7-3.3l5.7-3.3l5.7,3.3L253.7,217.5z M247.4,213.8l-5.7-3.3l5.7-3.3l5.7,3.3L247.4,213.8z M241,210.1l-5.7-3.3
	l5.7-3.3l5.7,3.3L241,210.1z M234.7,206.5l-5.7-3.3l5.7-3.3l5.7,3.3L234.7,206.5z M228.3,202.8l-5.7-3.3l5.7-3.3l5.7,3.3
	L228.3,202.8z M221.9,199.1l-5.7-3.3l5.7-3.3l5.7,3.3L221.9,199.1z M215.6,195.5l-5.7-3.3l5.7-3.3l5.7,3.3L215.6,195.5z
	 M209.2,191.8l-5.7-3.3l5.7-3.3l5.7,3.3L209.2,191.8z M202.9,188.1l-5.7-3.3l5.7-3.3l5.7,3.3L202.9,188.1z M196.5,184.4l-5.7-3.3
	l5.7-3.3l5.7,3.3L196.5,184.4z M190.2,180.8l-5.7-3.3l5.7-3.3l5.7,3.3L190.2,180.8z M183.8,177.1l-5.7-3.3l5.7-3.3l5.7,3.3
	L183.8,177.1z M177.5,173.4l-5.7-3.3l5.7-3.3l5.7,3.3L177.5,173.4z M171.1,169.8l-5.7-3.3l5.7-3.3l5.7,3.3L171.1,169.8z
	 M164.8,166.1l-5.7-3.3l5.7-3.3l5.7,3.3L164.8,166.1z M158.4,162.4l-5.7-3.3l5.7-3.3l5.7,3.3L158.4,162.4z M157.8,162.8l-5.7,3.3
	l-5.7-3.3l5.7-3.3L157.8,162.8z M151.4,166.5l-5.7,3.3l-5.7-3.3l5.7-3.3L151.4,166.5z M145.1,170.1l-5.7,3.3l-5.7-3.3l5.7-3.3
	L145.1,170.1z M138.7,173.8l-5.7,3.3l-5.7-3.3l5.7-3.3L138.7,173.8z M132.4,177.5l-5.7,3.3l-5.7-3.3l5.7-3.3L132.4,177.5z
	 M126,181.1l-5.7,3.3l-5.7-3.3l5.7-3.3L126,181.1z M119.6,184.8l-5.7,3.3l-5.7-3.3l5.7-3.3L119.6,184.8z M113.3,188.5l-5.7,3.3
	l-5.7-3.3l5.7-3.3L113.3,188.5z M106.9,192.1l-5.7,3.3l-5.7-3.3l5.7-3.3L106.9,192.1z M100.6,195.8l-5.7,3.3l-5.7-3.3l5.7-3.3
	L100.6,195.8z M94.2,199.5l-5.7,3.3l-5.7-3.3l5.7-3.3L94.2,199.5z M87.9,203.2l-5.7,3.3l-5.7-3.3l5.7-3.3L87.9,203.2z M81.5,206.8
	l-5.7,3.3l-5.7-3.3l5.7-3.3L81.5,206.8z M75.2,210.5l-5.7,3.3l-5.7-3.3l5.7-3.3L75.2,210.5z M68.8,214.2l-5.7,3.3l-5.7-3.3l5.7-3.3
	L68.8,214.2z M62.5,217.8l-5.7,3.3l-5.7-3.3l5.7-3.3L62.5,217.8z M56.1,221.5l-5.7,3.3l-5.7-3.3l5.7-3.3L56.1,221.5z M56.7,221.9
	l5.7,3.3l-5.7,3.3l-5.7-3.3L56.7,221.9z M63.1,225.5l5.7,3.3l-5.7,3.3l-5.7-3.3L63.1,225.5z M69.4,229.2l5.7,3.3l-5.7,3.3l-5.7-3.3
	L69.4,229.2z M75.8,232.9l5.7,3.3l-5.7,3.3l-5.7-3.3L75.8,232.9z M82.1,236.5l5.7,3.3l-5.7,3.3l-5.7-3.3L82.1,236.5z M88.5,240.2
	l5.7,3.3l-5.7,3.3l-5.7-3.3L88.5,240.2z M94.9,243.9l5.7,3.3l-5.7,3.3l-5.7-3.3L94.9,243.9z M101.2,247.5l5.7,3.3l-5.7,3.3l-5.7-3.3
	L101.2,247.5z M107.6,251.2l5.7,3.3l-5.7,3.3l-5.7-3.3L107.6,251.2z M113.9,254.9l5.7,3.3l-5.7,3.3l-5.7-3.3L113.9,254.9z
	 M120.3,258.6l5.7,3.3l-5.7,3.3l-5.7-3.3L120.3,258.6z M126.6,262.2l5.7,3.3l-5.7,3.3l-5.7-3.3L126.6,262.2z M133,265.9l5.7,3.3
	l-5.7,3.3l-5.7-3.3L133,265.9z M139.3,269.6l5.7,3.3l-5.7,3.3l-5.7-3.3L139.3,269.6z M145.7,273.2l5.7,3.3l-5.7,3.3l-5.7-3.3
	L145.7,273.2z M152,276.9l5.7,3.3l-5.7,3.3l-5.7-3.3L152,276.9z M158.4,280.6l5.7,3.3l-5.7,3.3l-5.7-3.3L158.4,280.6z M159,280.2
	l5.7-3.3l5.7,3.3l-5.7,3.3L159,280.2z M165.4,276.5l5.7-3.3l5.7,3.3l-5.7,3.3L165.4,276.5z M171.7,272.9l5.7-3.3l5.7,3.3l-5.7,3.3
	L171.7,272.9z M178.1,269.2l5.7-3.3l5.7,3.3l-5.7,3.3L178.1,269.2z M184.5,265.5l5.7-3.3l5.7,3.3l-5.7,3.3L184.5,265.5z
	 M190.8,261.9l5.7-3.3l5.7,3.3l-5.7,3.3L190.8,261.9z M197.2,258.2l5.7-3.3l5.7,3.3l-5.7,3.3L197.2,258.2z M203.5,254.5l5.7-3.3
	l5.7,3.3l-5.7,3.3L203.5,254.5z M209.9,250.9l5.7-3.3l5.7,3.3l-5.7,3.3L209.9,250.9z M216.2,247.2l5.7-3.3l5.7,3.3l-5.7,3.3
	L216.2,247.2z M222.6,243.5l5.7-3.3l5.7,3.3l-5.7,3.3L222.6,243.5z M228.9,239.8l5.7-3.3l5.7,3.3l-5.7,3.3L228.9,239.8z
	 M235.3,236.2l5.7-3.3l5.7,3.3l-5.7,3.3L235.3,236.2z M241.6,232.5l5.7-3.3l5.7,3.3l-5.7,3.3L241.6,232.5z M248,228.8l5.7-3.3
	l5.7,3.3l-5.7,3.3L248,228.8z M254.4,225.2l5.7-3.3l5.7,3.3l-5.7,3.3L254.4,225.2z M260.7,221.5l5.7-3.3l5.7,3.3l-5.7,3.3
	L260.7,221.5z M267.1,217.8l5.7-3.3l5.7,3.3l-5.7,3.3L267.1,217.8z M266.4,217.5l-5.7-3.3l5.7-3.3l5.7,3.3L266.4,217.5z
	 M260.1,213.8l-5.7-3.3l5.7-3.3l5.7,3.3L260.1,213.8z M253.7,210.1l-5.7-3.3l5.7-3.3l5.7,3.3L253.7,210.1z M247.4,206.5l-5.7-3.3
	l5.7-3.3l5.7,3.3L247.4,206.5z M241,202.8l-5.7-3.3l5.7-3.3l5.7,3.3L241,202.8z M234.7,199.1l-5.7-3.3l5.7-3.3l5.7,3.3L234.7,199.1z
	 M228.3,195.5l-5.7-3.3l5.7-3.3l5.7,3.3L228.3,195.5z M221.9,191.8l-5.7-3.3l5.7-3.3l5.7,3.3L221.9,191.8z M215.6,188.1l-5.7-3.3
	l5.7-3.3l5.7,3.3L215.6,188.1z M209.2,184.4l-5.7-3.3l5.7-3.3l5.7,3.3L209.2,184.4z M202.9,180.8l-5.7-3.3l5.7-3.3l5.7,3.3
	L202.9,180.8z M196.5,177.1l-5.7-3.3l5.7-3.3l5.7,3.3L196.5,177.1z M190.2,173.4l-5.7-3.3l5.7-3.3l5.7,3.3L190.2,173.4z
	 M183.8,169.8l-5.7-3.3l5.7-3.3l5.7,3.3L183.8,169.8z M177.5,166.1l-5.7-3.3l5.7-3.3l5.7,3.3L177.5,166.1z M171.1,162.4l-5.7-3.3
	l5.7-3.3l5.7,3.3L171.1,162.4z M164.8,158.8l-5.7-3.3l5.7-3.3l5.7,3.3L164.8,158.8z M158.4,155.1l-5.7-3.3l5.7-3.3l5.7,3.3
	L158.4,155.1z M157.8,155.5l-5.7,3.3l-5.7-3.3l5.7-3.3L157.8,155.5z M151.4,159.1l-5.7,3.3l-5.7-3.3l5.7-3.3L151.4,159.1z
	 M145.1,162.8l-5.7,3.3l-5.7-3.3l5.7-3.3L145.1,162.8z M138.7,166.5l-5.7,3.3l-5.7-3.3l5.7-3.3L138.7,166.5z M132.3,170.1l-5.7,3.3
	l-5.7-3.3l5.7-3.3L132.3,170.1z M126,173.8l-5.7,3.3l-5.7-3.3l5.7-3.3L126,173.8z M119.6,177.5l-5.7,3.3l-5.7-3.3l5.7-3.3
	L119.6,177.5z M113.3,181.1l-5.7,3.3l-5.7-3.3l5.7-3.3L113.3,181.1z M106.9,184.8l-5.7,3.3l-5.7-3.3l5.7-3.3L106.9,184.8z
	 M100.6,188.5l-5.7,3.3l-5.7-3.3l5.7-3.3L100.6,188.5z M94.2,192.1l-5.7,3.3l-5.7-3.3l5.7-3.3L94.2,192.1z M87.9,195.8l-5.7,3.3
	l-5.7-3.3l5.7-3.3L87.9,195.8z M81.5,199.5l-5.7,3.3l-5.7-3.3l5.7-3.3L81.5,199.5z M75.2,203.2l-5.7,3.3l-5.7-3.3l5.7-3.3
	L75.2,203.2z M68.8,206.8l-5.7,3.3l-5.7-3.3l5.7-3.3L68.8,206.8z M62.5,210.5l-5.7,3.3l-5.7-3.3l5.7-3.3L62.5,210.5z M56.1,214.2
	l-5.7,3.3l-5.7-3.3l5.7-3.3L56.1,214.2z M49.7,217.8l-5.7,3.3l-5.7-3.3l5.7-3.3L49.7,217.8z M43.4,221.5l-5.7,3.3l-5.7-3.3l5.7-3.3
	L43.4,221.5z M44,221.9l5.7,3.3l-5.7,3.3l-5.7-3.3L44,221.9z M50.4,225.5l5.7,3.3l-5.7,3.3l-5.7-3.3L50.4,225.5z M56.7,229.2
	l5.7,3.3l-5.7,3.3l-5.7-3.3L56.7,229.2z M63.1,232.9l5.7,3.3l-5.7,3.3l-5.7-3.3L63.1,232.9z M69.4,236.5l5.7,3.3l-5.7,3.3l-5.7-3.3
	L69.4,236.5z M75.8,240.2l5.7,3.3l-5.7,3.3l-5.7-3.3L75.8,240.2z M82.1,243.9l5.7,3.3l-5.7,3.3l-5.7-3.3L82.1,243.9z M88.5,247.5
	l5.7,3.3l-5.7,3.3l-5.7-3.3L88.5,247.5z M94.9,251.2l5.7,3.3l-5.7,3.3l-5.7-3.3L94.9,251.2z M101.2,254.9l5.7,3.3l-5.7,3.3l-5.7-3.3
	L101.2,254.9z M107.6,258.6l5.7,3.3l-5.7,3.3l-5.7-3.3L107.6,258.6z M113.9,262.2l5.7,3.3l-5.7,3.3l-5.7-3.3L113.9,262.2z
	 M120.3,265.9l5.7,3.3l-5.7,3.3l-5.7-3.3L120.3,265.9z M126.6,269.6l5.7,3.3l-5.7,3.3l-5.7-3.3L126.6,269.6z M133,273.2l5.7,3.3
	l-5.7,3.3l-5.7-3.3L133,273.2z M139.3,276.9l5.7,3.3l-5.7,3.3l-5.7-3.3L139.3,276.9z M145.7,280.6l5.7,3.3l-5.7,3.3l-5.7-3.3
	L145.7,280.6z M152,284.2l5.7,3.3l-5.7,3.3l-5.7-3.3L152,284.2z M158.4,287.9l5.7,3.3l-5.7,3.3l-5.7-3.3L158.4,287.9z M159,287.5
	l5.7-3.3l5.7,3.3l-5.7,3.3L159,287.5z M165.4,283.9l5.7-3.3l5.7,3.3l-5.7,3.3L165.4,283.9z M171.7,280.2l5.7-3.3l5.7,3.3l-5.7,3.3
	L171.7,280.2z M178.1,276.5l5.7-3.3l5.7,3.3l-5.7,3.3L178.1,276.5z M184.5,272.9l5.7-3.3l5.7,3.3l-5.7,3.3L184.5,272.9z
	 M190.8,269.2l5.7-3.3l5.7,3.3l-5.7,3.3L190.8,269.2z M197.2,265.5l5.7-3.3l5.7,3.3l-5.7,3.3L197.2,265.5z M203.5,261.9l5.7-3.3
	l5.7,3.3l-5.7,3.3L203.5,261.9z M209.9,258.2l5.7-3.3l5.7,3.3l-5.7,3.3L209.9,258.2z M216.2,254.5l5.7-3.3l5.7,3.3l-5.7,3.3
	L216.2,254.5z M222.6,250.9l5.7-3.3l5.7,3.3l-5.7,3.3L222.6,250.9z M228.9,247.2l5.7-3.3l5.7,3.3l-5.7,3.3L228.9,247.2z
	 M235.3,243.5l5.7-3.3l5.7,3.3l-5.7,3.3L235.3,243.5z M241.6,239.8l5.7-3.3l5.7,3.3l-5.7,3.3L241.6,239.8z M248,236.2l5.7-3.3
	l5.7,3.3l-5.7,3.3L248,236.2z M254.4,232.5l5.7-3.3l5.7,3.3l-5.7,3.3L254.4,232.5z M260.7,228.8l5.7-3.3l5.7,3.3l-5.7,3.3
	L260.7,228.8z M267.1,225.2l5.7-3.3l5.7,3.3l-5.7,3.3L267.1,225.2z M273.4,221.5l5.7-3.3l5.7,3.3l-5.7,3.3L273.4,221.5z
	 M279.8,217.8l5.7-3.3l5.7,3.3l-5.7,3.3L279.8,217.8z M279.1,217.5l-5.7-3.3l5.7-3.3l5.7,3.3L279.1,217.5z M272.8,213.8l-5.7-3.3
	l5.7-3.3l5.7,3.3L272.8,213.8z M266.4,210.1l-5.7-3.3l5.7-3.3l5.7,3.3L266.4,210.1z M260.1,206.5l-5.7-3.3l5.7-3.3l5.7,3.3
	L260.1,206.5z M253.7,202.8l-5.7-3.3l5.7-3.3l5.7,3.3L253.7,202.8z M247.4,199.1l-5.7-3.3l5.7-3.3l5.7,3.3L247.4,199.1z M241,195.5
	l-5.7-3.3l5.7-3.3l5.7,3.3L241,195.5z M234.7,191.8l-5.7-3.3l5.7-3.3l5.7,3.3L234.7,191.8z M228.3,188.1l-5.7-3.3l5.7-3.3l5.7,3.3
	L228.3,188.1z M221.9,184.4l-5.7-3.3l5.7-3.3l5.7,3.3L221.9,184.4z M215.6,180.8l-5.7-3.3l5.7-3.3l5.7,3.3L215.6,180.8z
	 M209.2,177.1l-5.7-3.3l5.7-3.3l5.7,3.3L209.2,177.1z M202.9,173.4l-5.7-3.3l5.7-3.3l5.7,3.3L202.9,173.4z M196.5,169.8l-5.7-3.3
	l5.7-3.3l5.7,3.3L196.5,169.8z M190.2,166.1l-5.7-3.3l5.7-3.3l5.7,3.3L190.2,166.1z M183.8,162.4l-5.7-3.3l5.7-3.3l5.7,3.3
	L183.8,162.4z M177.5,158.8l-5.7-3.3l5.7-3.3l5.7,3.3L177.5,158.8z M171.1,155.1l-5.7-3.3l5.7-3.3l5.7,3.3L171.1,155.1z
	 M164.8,151.4l-5.7-3.3l5.7-3.3l5.7,3.3L164.8,151.4z M158.4,147.8l-5.7-3.3l5.7-3.3l5.7,3.3L158.4,147.8z M157.8,148.1l-5.7,3.3
	l-5.7-3.3l5.7-3.3L157.8,148.1z M151.4,151.8l-5.7,3.3l-5.7-3.3l5.7-3.3L151.4,151.8z M145.1,155.5l-5.7,3.3l-5.7-3.3l5.7-3.3
	L145.1,155.5z M138.7,159.1l-5.7,3.3l-5.7-3.3l5.7-3.3L138.7,159.1z M132.3,162.8l-5.7,3.3l-5.7-3.3l5.7-3.3L132.3,162.8z
	 M126,166.5l-5.7,3.3l-5.7-3.3l5.7-3.3L126,166.5z M119.6,170.1l-5.7,3.3l-5.7-3.3l5.7-3.3L119.6,170.1z M113.3,173.8l-5.7,3.3
	l-5.7-3.3l5.7-3.3L113.3,173.8z M106.9,177.5l-5.7,3.3l-5.7-3.3l5.7-3.3L106.9,177.5z M100.6,181.1l-5.7,3.3l-5.7-3.3l5.7-3.3
	L100.6,181.1z M94.2,184.8l-5.7,3.3l-5.7-3.3l5.7-3.3L94.2,184.8z M87.9,188.5l-5.7,3.3l-5.7-3.3l5.7-3.3L87.9,188.5z M81.5,192.1
	l-5.7,3.3l-5.7-3.3l5.7-3.3L81.5,192.1z M75.2,195.8l-5.7,3.3l-5.7-3.3l5.7-3.3L75.2,195.8z M68.8,199.5l-5.7,3.3l-5.7-3.3l5.7-3.3
	L68.8,199.5z M62.5,203.2l-5.7,3.3l-5.7-3.3l5.7-3.3L62.5,203.2z M56.1,206.8l-5.7,3.3l-5.7-3.3l5.7-3.3L56.1,206.8z M49.7,210.5
	l-5.7,3.3l-5.7-3.3l5.7-3.3L49.7,210.5z M43.4,214.2l-5.7,3.3l-5.7-3.3l5.7-3.3L43.4,214.2z M37,217.8l-5.7,3.3l-5.7-3.3l5.7-3.3
	L37,217.8z M30.7,221.5l-5.7,3.3l-5.7-3.3l5.7-3.3L30.7,221.5z M31.3,221.9l5.7,3.3l-5.7,3.3l-5.7-3.3L31.3,221.9z M37.7,225.5
	l5.7,3.3l-5.7,3.3l-5.7-3.3L37.7,225.5z M44,229.2l5.7,3.3l-5.7,3.3l-5.7-3.3L44,229.2z M50.4,232.9l5.7,3.3l-5.7,3.3l-5.7-3.3
	L50.4,232.9z M56.7,236.5l5.7,3.3l-5.7,3.3l-5.7-3.3L56.7,236.5z M63.1,240.2l5.7,3.3l-5.7,3.3l-5.7-3.3L63.1,240.2z M69.4,243.9
	l5.7,3.3l-5.7,3.3l-5.7-3.3L69.4,243.9z M75.8,247.5l5.7,3.3l-5.7,3.3l-5.7-3.3L75.8,247.5z M82.1,251.2l5.7,3.3l-5.7,3.3l-5.7-3.3
	L82.1,251.2z M88.5,254.9l5.7,3.3l-5.7,3.3l-5.7-3.3L88.5,254.9z M94.9,258.6l5.7,3.3l-5.7,3.3l-5.7-3.3L94.9,258.6z M101.2,262.2
	l5.7,3.3l-5.7,3.3l-5.7-3.3L101.2,262.2z M107.6,265.9l5.7,3.3l-5.7,3.3l-5.7-3.3L107.6,265.9z M113.9,269.6l5.7,3.3l-5.7,3.3
	l-5.7-3.3L113.9,269.6z M120.3,273.2l5.7,3.3l-5.7,3.3l-5.7-3.3L120.3,273.2z M126.6,276.9l5.7,3.3l-5.7,3.3l-5.7-3.3L126.6,276.9z
	 M133,280.6l5.7,3.3l-5.7,3.3l-5.7-3.3L133,280.6z M139.3,284.2l5.7,3.3l-5.7,3.3l-5.7-3.3L139.3,284.2z M145.7,287.9l5.7,3.3
	l-5.7,3.3l-5.7-3.3L145.7,287.9z M152,291.6l5.7,3.3l-5.7,3.3l-5.7-3.3L152,291.6z M158.4,295.2l5.7,3.3l-5.7,3.3l-5.7-3.3
	L158.4,295.2z M159,294.9l5.7-3.3l5.7,3.3l-5.7,3.3L159,294.9z M165.4,291.2l5.7-3.3l5.7,3.3l-5.7,3.3L165.4,291.2z M171.7,287.5
	l5.7-3.3l5.7,3.3l-5.7,3.3L171.7,287.5z M178.1,283.9l5.7-3.3l5.7,3.3l-5.7,3.3L178.1,283.9z M184.5,280.2l5.7-3.3l5.7,3.3l-5.7,3.3
	L184.5,280.2z M190.8,276.5l5.7-3.3l5.7,3.3l-5.7,3.3L190.8,276.5z M197.2,272.9l5.7-3.3l5.7,3.3l-5.7,3.3L197.2,272.9z
	 M203.5,269.2l5.7-3.3l5.7,3.3l-5.7,3.3L203.5,269.2z M209.9,265.5l5.7-3.3l5.7,3.3l-5.7,3.3L209.9,265.5z M216.2,261.9l5.7-3.3
	l5.7,3.3l-5.7,3.3L216.2,261.9z M222.6,258.2l5.7-3.3l5.7,3.3l-5.7,3.3L222.6,258.2z M228.9,254.5l5.7-3.3l5.7,3.3l-5.7,3.3
	L228.9,254.5z M235.3,250.9l5.7-3.3l5.7,3.3l-5.7,3.3L235.3,250.9z M241.6,247.2l5.7-3.3l5.7,3.3l-5.7,3.3L241.6,247.2z M248,243.5
	l5.7-3.3l5.7,3.3l-5.7,3.3L248,243.5z M254.4,239.8l5.7-3.3l5.7,3.3l-5.7,3.3L254.4,239.8z M260.7,236.2l5.7-3.3l5.7,3.3l-5.7,3.3
	L260.7,236.2z M267.1,232.5l5.7-3.3l5.7,3.3l-5.7,3.3L267.1,232.5z M273.4,228.8l5.7-3.3l5.7,3.3l-5.7,3.3L273.4,228.8z
	 M279.8,225.2l5.7-3.3l5.7,3.3l-5.7,3.3L279.8,225.2z M286.1,221.5l5.7-3.3l5.7,3.3l-5.7,3.3L286.1,221.5z M297.6,214.2l-5.7,3.3
	l-5.7-3.3l5.7-3.3L297.6,214.2z M291.2,210.5l-5.7,3.3l-5.7-3.3l5.7-3.3L291.2,210.5z M284.9,206.8l-5.7,3.3l-5.7-3.3l5.7-3.3
	L284.9,206.8z M278.5,203.2l-5.7,3.3l-5.7-3.3l5.7-3.3L278.5,203.2z M272.1,199.5l-5.7,3.3l-5.7-3.3l5.7-3.3L272.1,199.5z
	 M265.8,195.8l-5.7,3.3l-5.7-3.3l5.7-3.3L265.8,195.8z M259.4,192.2l-5.7,3.3l-5.7-3.3l5.7-3.3L259.4,192.2z M253.1,188.5l-5.7,3.3
	l-5.7-3.3l5.7-3.3L253.1,188.5z M246.7,184.8l-5.7,3.3l-5.7-3.3l5.7-3.3L246.7,184.8z M240.4,181.1l-5.7,3.3l-5.7-3.3l5.7-3.3
	L240.4,181.1z M234,177.5l-5.7,3.3l-5.7-3.3l5.7-3.3L234,177.5z M227.7,173.8l-5.7,3.3l-5.7-3.3l5.7-3.3L227.7,173.8z M221.3,170.1
	l-5.7,3.3l-5.7-3.3l5.7-3.3L221.3,170.1z M215,166.5l-5.7,3.3l-5.7-3.3l5.7-3.3L215,166.5z M208.6,162.8l-5.7,3.3l-5.7-3.3l5.7-3.3
	L208.6,162.8z M202.2,159.1l-5.7,3.3l-5.7-3.3l5.7-3.3L202.2,159.1z M195.9,155.5l-5.7,3.3l-5.7-3.3l5.7-3.3L195.9,155.5z
	 M189.5,151.8l-5.7,3.3l-5.7-3.3l5.7-3.3L189.5,151.8z M183.2,148.1l-5.7,3.3l-5.7-3.3l5.7-3.3L183.2,148.1z M176.8,144.5l-5.7,3.3
	l-5.7-3.3l5.7-3.3L176.8,144.5z M170.5,140.8l-5.7,3.3l-5.7-3.3l5.7-3.3L170.5,140.8z M158.4,133.8l5.7,3.3l-5.7,3.3l-5.7-3.3
	L158.4,133.8z M152,137.5l5.7,3.3l-5.7,3.3l-5.7-3.3L152,137.5z M145.7,141.2l5.7,3.3l-5.7,3.3l-5.7-3.3L145.7,141.2z M139.3,144.8
	l5.7,3.3l-5.7,3.3l-5.7-3.3L139.3,144.8z M133,148.5l5.7,3.3l-5.7,3.3l-5.7-3.3L133,148.5z M126.6,152.2l5.7,3.3l-5.7,3.3l-5.7-3.3
	L126.6,152.2z M120.3,155.8l5.7,3.3l-5.7,3.3l-5.7-3.3L120.3,155.8z M113.9,159.5l5.7,3.3l-5.7,3.3l-5.7-3.3L113.9,159.5z
	 M107.6,163.2l5.7,3.3l-5.7,3.3l-5.7-3.3L107.6,163.2z M101.2,166.8l5.7,3.3l-5.7,3.3l-5.7-3.3L101.2,166.8z M94.9,170.5l5.7,3.3
	l-5.7,3.3l-5.7-3.3L94.9,170.5z M88.5,174.2l5.7,3.3l-5.7,3.3l-5.7-3.3L88.5,174.2z M82.1,177.8l5.7,3.3l-5.7,3.3l-5.7-3.3
	L82.1,177.8z M81.5,184.8l-5.7,3.3l-5.7-3.3l5.7-3.3L81.5,184.8z M69.4,185.2l5.7,3.3l-5.7,3.3l-5.7-3.3L69.4,185.2z M63.1,188.8
	l5.7,3.3l-5.7,3.3l-5.7-3.3L63.1,188.8z M56.7,192.5l5.7,3.3l-5.7,3.3l-5.7-3.3L56.7,192.5z M50.4,196.2l5.7,3.3l-5.7,3.3l-5.7-3.3
	L50.4,196.2z M44,199.9l5.7,3.3l-5.7,3.3l-5.7-3.3L44,199.9z M37.7,203.5l5.7,3.3l-5.7,3.3l-5.7-3.3L37.7,203.5z M31.3,207.2
	l5.7,3.3l-5.7,3.3l-5.7-3.3L31.3,207.2z M25,210.9l5.7,3.3l-5.7,3.3l-5.7-3.3L25,210.9z M18.6,214.5l5.7,3.3l-5.7,3.3l-5.7-3.3
	L18.6,214.5z M6.5,221.5l5.7-3.3l5.7,3.3l-5.7,3.3L6.5,221.5z M12.9,225.2l5.7-3.3l5.7,3.3l-5.7,3.3L12.9,225.2z M19.2,228.8
	l5.7-3.3l5.7,3.3l-5.7,3.3L19.2,228.8z M25.6,232.5l5.7-3.3l5.7,3.3l-5.7,3.3L25.6,232.5z M31.9,236.2l5.7-3.3l5.7,3.3l-5.7,3.3
	L31.9,236.2z M38.3,239.8l5.7-3.3l5.7,3.3l-5.7,3.3L38.3,239.8z M44.7,243.5l5.7-3.3l5.7,3.3l-5.7,3.3L44.7,243.5z M51,247.2
	l5.7-3.3l5.7,3.3l-5.7,3.3L51,247.2z M57.4,250.8l5.7-3.3l5.7,3.3l-5.7,3.3L57.4,250.8z M63.7,254.5l5.7-3.3l5.7,3.3l-5.7,3.3
	L63.7,254.5z M70.1,258.2l5.7-3.3l5.7,3.3l-5.7,3.3L70.1,258.2z M76.4,261.9l5.7-3.3l5.7,3.3l-5.7,3.3L76.4,261.9z M82.8,265.5
	l5.7-3.3l5.7,3.3l-5.7,3.3L82.8,265.5z M89.1,269.2l5.7-3.3l5.7,3.3l-5.7,3.3L89.1,269.2z M95.5,272.9l5.7-3.3l5.7,3.3l-5.7,3.3
	L95.5,272.9z M101.8,276.5l5.7-3.3l5.7,3.3l-5.7,3.3L101.8,276.5z M108.2,280.2l5.7-3.3l5.7,3.3l-5.7,3.3L108.2,280.2z M114.6,283.9
	l5.7-3.3l5.7,3.3l-5.7,3.3L114.6,283.9z M120.9,287.5l5.7-3.3l5.7,3.3l-5.7,3.3L120.9,287.5z M127.3,291.2l5.7-3.3l5.7,3.3l-5.7,3.3
	L127.3,291.2z M133.6,294.9l5.7-3.3l5.7,3.3l-5.7,3.3L133.6,294.9z M140,298.5l5.7-3.3l5.7,3.3l-5.7,3.3L140,298.5z M146.3,302.2
	l5.7-3.3l5.7,3.3l-5.7,3.3L146.3,302.2z M152.7,305.9l5.7-3.3l5.7,3.3l-5.7,3.3L152.7,305.9z M164.8,305.5l-5.7-3.3l5.7-3.3l5.7,3.3
	L164.8,305.5z M171.1,301.8l-5.7-3.3l5.7-3.3l5.7,3.3L171.1,301.8z M177.5,298.2l-5.7-3.3l5.7-3.3l5.7,3.3L177.5,298.2z
	 M183.8,294.5l-5.7-3.3l5.7-3.3l5.7,3.3L183.8,294.5z M184.5,287.5l5.7-3.3l5.7,3.3l-5.7,3.3L184.5,287.5z M190.8,283.9l5.7-3.3
	l5.7,3.3l-5.7,3.3L190.8,283.9z M202.9,283.5l-5.7-3.3l5.7-3.3l5.7,3.3L202.9,283.5z M209.2,279.8l-5.7-3.3l5.7-3.3l5.7,3.3
	L209.2,279.8z M215.6,276.2l-5.7-3.3l5.7-3.3l5.7,3.3L215.6,276.2z M221.9,272.5l-5.7-3.3l5.7-3.3l5.7,3.3L221.9,272.5z
	 M228.3,268.8l-5.7-3.3l5.7-3.3l5.7,3.3L228.3,268.8z M234.7,265.2l-5.7-3.3l5.7-3.3l5.7,3.3L234.7,265.2z M241,261.5l-5.7-3.3
	l5.7-3.3l5.7,3.3L241,261.5z M247.4,257.8l-5.7-3.3l5.7-3.3l5.7,3.3L247.4,257.8z M253.7,254.2l-5.7-3.3l5.7-3.3l5.7,3.3
	L253.7,254.2z M260.1,250.5l-5.7-3.3l5.7-3.3l5.7,3.3L260.1,250.5z M266.4,246.8l-5.7-3.3l5.7-3.3l5.7,3.3L266.4,246.8z
	 M272.8,243.1l-5.7-3.3l5.7-3.3l5.7,3.3L272.8,243.1z M279.1,239.5l-5.7-3.3l5.7-3.3l5.7,3.3L279.1,239.5z M285.5,235.8l-5.7-3.3
	l5.7-3.3l5.7,3.3L285.5,235.8z M286.1,228.8l5.7-3.3l5.7,3.3l-5.7,3.3L286.1,228.8z M298.2,228.5l-5.7-3.3l5.7-3.3l5.7,3.3
	L298.2,228.5z M304.6,224.8l-5.7-3.3l5.7-3.3l5.7,3.3L304.6,224.8z"/>
<radialGradient id="SVGID_2_" cx="-524.8283" cy="-243.8894" r="128.773" gradientTransform="matrix(0.866 0.5 -0.866 0.5 401.0048 602.351)" gradientUnits="userSpaceOnUse">
	<stop  offset="0" style="stop-color:#42E8E0"/>
	<stop  offset="5.656976e-02" style="stop-color:#3DD0D1"/>
	<stop  offset="0.1886" style="stop-color:#349DB2"/>
	<stop  offset="0.3231" style="stop-color:#2B7197"/>
	<stop  offset="0.4576" style="stop-color:#244D82"/>
	<stop  offset="0.5923" style="stop-color:#1F3171"/>
	<stop  offset="0.7273" style="stop-color:#1B1D65"/>
	<stop  offset="0.8629" style="stop-color:#19115D"/>
	<stop  offset="1" style="stop-color:#180D5B"/>
</radialGradient>
<path class="st1" d="M269.2,282.4c-61.6,35.6-161.4,35.6-223,0c-61.6-35.6-61.6-93.2,0-128.8s161.4-35.6,223,0
	S330.8,246.8,269.2,282.4z"/>
<g>
	
		<radialGradient id="SVGID_3_" cx="287.5976" cy="667.3238" r="18.9825" gradientTransform="matrix(0.8633 -0.5047 0.5047 0.8633 -428.0595 -254.8394)" gradientUnits="userSpaceOnUse">
		<stop  offset="0" style="stop-color:#54A8B1"/>
		<stop  offset="1" style="stop-color:#54A8B1"/>
	</radialGradient>
	<circle class="st2" cx="157" cy="176.1" r="18.9"/>
	
		<radialGradient id="SVGID_4_" cx="325.4879" cy="652.3671" r="6.0666" gradientTransform="matrix(0.8633 -0.5047 0.5047 0.8633 -428.0595 -254.8394)" gradientUnits="userSpaceOnUse">
		<stop  offset="0" style="stop-color:#54A8B1"/>
		<stop  offset="1" style="stop-color:#54A8B1"/>
	</radialGradient>
	<circle class="st3" cx="182.2" cy="144.1" r="6"/>
	<ellipse transform="matrix(0.729 -0.6845 0.6845 0.729 -74.7462 148.2717)" class="st4" cx="149.9" cy="168.5" rx="8.5" ry="6.8"/>
	
		<radialGradient id="SVGID_5_" cx="285.6247" cy="627.9648" r="3.2844" gradientTransform="matrix(0.8633 -0.5047 0.5047 0.8633 -428.0595 -254.8394)" gradientUnits="userSpaceOnUse">
		<stop  offset="0" style="stop-color:#54A8B1"/>
		<stop  offset="1" style="stop-color:#54A8B1"/>
	</radialGradient>
	<circle class="st5" cx="135.4" cy="143.2" r="3.2"/>
	
		<radialGradient id="SVGID_6_" cx="262.9488" cy="604.455" r="7.109" gradientTransform="matrix(0.8633 -0.5047 0.5047 0.8633 -428.0595 -254.8394)" gradientUnits="userSpaceOnUse">
		<stop  offset="0" style="stop-color:#54A8B1"/>
		<stop  offset="1" style="stop-color:#54A8B1"/>
	</radialGradient>
	<circle class="st6" cx="104" cy="134.3" r="7.1"/>
	
		<radialGradient id="SVGID_7_" cx="336.969" cy="624.6794" r="10.6047" gradientTransform="matrix(0.8633 -0.5047 0.5047 0.8633 -428.0595 -254.8394)" gradientUnits="userSpaceOnUse">
		<stop  offset="0" style="stop-color:#54A8B1"/>
		<stop  offset="1" style="stop-color:#54A8B1"/>
	</radialGradient>
	<circle class="st7" cx="178.2" cy="114.3" r="10.6"/>
	
		<radialGradient id="SVGID_8_" cx="336.9698" cy="600.8643" r="4.2363" gradientTransform="matrix(0.8633 -0.5047 0.5047 0.8633 -428.0595 -254.8394)" gradientUnits="userSpaceOnUse">
		<stop  offset="0" style="stop-color:#54A8B1"/>
		<stop  offset="1" style="stop-color:#54A8B1"/>
	</radialGradient>
	<circle class="st8" cx="166.1" cy="93.8" r="4.3"/>
	
		<radialGradient id="SVGID_9_" cx="368.9055" cy="529.7684" r="3.0374" gradientTransform="matrix(0.8633 -0.5047 0.5047 0.8633 -428.0595 -254.8394)" gradientUnits="userSpaceOnUse">
		<stop  offset="0" style="stop-color:#54A8B1"/>
		<stop  offset="1" style="stop-color:#54A8B1"/>
	</radialGradient>
	<circle class="st9" cx="157.8" cy="16.3" r="3.1"/>
	
		<radialGradient id="SVGID_10_" cx="376.1214" cy="558.0753" r="4.0967" gradientTransform="matrix(0.8633 -0.5047 0.5047 0.8633 -428.0595 -254.8394)" gradientUnits="userSpaceOnUse">
		<stop  offset="0" style="stop-color:#54A8B1"/>
		<stop  offset="1" style="stop-color:#54A8B1"/>
	</radialGradient>
	<circle class="st10" cx="178.3" cy="37.1" r="4.2"/>
	
		<radialGradient id="SVGID_11_" cx="367.6579" cy="562.4728" r="1.5799" gradientTransform="matrix(0.8633 -0.5047 0.5047 0.8633 -428.0595 -254.8394)" gradientUnits="userSpaceOnUse">
		<stop  offset="0" style="stop-color:#54A8B1"/>
		<stop  offset="1" style="stop-color:#54A8B1"/>
	</radialGradient>
	<circle class="st11" cx="173.2" cy="45.2" r="1.6"/>
	
		<radialGradient id="SVGID_12_" cx="354.6924" cy="626.3707" r="2.1379" gradientTransform="matrix(0.8633 -0.5047 0.5047 0.8633 -428.0595 -254.8394)" gradientUnits="userSpaceOnUse">
		<stop  offset="0" style="stop-color:#54A8B1"/>
		<stop  offset="1" style="stop-color:#54A8B1"/>
	</radialGradient>
	<circle class="st12" cx="194.3" cy="106.8" r="2.1"/>
	
		<radialGradient id="SVGID_13_" cx="279.8157" cy="562.9169" r="3.6675" gradientTransform="matrix(0.8633 -0.5047 0.5047 0.8633 -428.0595 -254.8394)" gradientUnits="userSpaceOnUse">
		<stop  offset="0" style="stop-color:#54A8B1"/>
		<stop  offset="1" style="stop-color:#54A8B1"/>
	</radialGradient>
	<circle class="st13" cx="97.6" cy="89.9" r="3.6"/>
	
		<radialGradient id="SVGID_14_" cx="130.0663" cy="239.4319" r="128.0474" gradientTransform="matrix(1 0 0 -1 0 321.0423)" gradientUnits="userSpaceOnUse">
		<stop  offset="0" style="stop-color:#1F2158"/>
		<stop  offset="0.1096" style="stop-color:#20265A"/>
		<stop  offset="0.2335" style="stop-color:#23325F"/>
		<stop  offset="0.3644" style="stop-color:#274067"/>
		<stop  offset="0.5001" style="stop-color:#2D5071"/>
		<stop  offset="0.6396" style="stop-color:#36627E"/>
		<stop  offset="0.7822" style="stop-color:#407B8F"/>
		<stop  offset="0.9247" style="stop-color:#4D99A6"/>
		<stop  offset="1" style="stop-color:#54A8B1"/>
	</radialGradient>
	<path class="st14" d="M157,0c-11.1,0-21.9,1.7-31.8,5c0.4,0.7,0.9,1.2,1.3,1.9c5.2,9,2.3,20.7-6.8,26c-2.4,1.3-5,2.1-7.5,2.4
		c1.7,7.8-1.6,16.2-9,20.5c-5.2,3.1-11.4,3.4-16.6,1.2c0.1,5.1-1.6,10.2-5.5,14.1c-6.4,6.4-16.4,7.2-23.6,2.5
		c-3.1,9.7-4.7,20-4.7,30.6c0,57.6,46.7,104.2,104.2,104.2s104.2-46.7,104.2-104.2C261.4,46.7,214.7,0,157,0z"/>
	
		<linearGradient id="SVGID_15_" gradientUnits="userSpaceOnUse" x1="72.8681" y1="213.4014" x2="242.0353" y2="213.4014" gradientTransform="matrix(1 0 0 -1 0 321.0423)">
		<stop  offset="0" style="stop-color:#50589D"/>
		<stop  offset="4.996443e-02" style="stop-color:#5060A0"/>
		<stop  offset="0.2264" style="stop-color:#5177A9"/>
		<stop  offset="0.4001" style="stop-color:#538AAF"/>
		<stop  offset="0.5674" style="stop-color:#5499B2"/>
		<stop  offset="0.7267" style="stop-color:#54A2B2"/>
		<stop  offset="0.8746" style="stop-color:#54A7B2"/>
		<stop  offset="1" style="stop-color:#54A8B1"/>
	</linearGradient>
	<path class="st15" d="M239.1,129c-12.2-45.3-58.8-92-104.1-104.1c-2.4-0.7-4.8-1.2-7.2-1.6c-1.5,4-4.3,7.5-8.2,9.8
		c-2.4,1.3-5,2.1-7.5,2.4c1.7,7.8-1.6,16.2-9,20.5c-5.2,3.1-11.4,3.4-16.6,1.2c0.1,5.1-1.6,10.2-5.5,14.1c-2.3,2.3-5.1,3.9-8,4.8
		c0.5,3,1.1,5.9,1.9,9c12.2,45.3,58.8,92,104.1,104.1C224.3,201.1,251.3,174.3,239.1,129z"/>
	
		<linearGradient id="SVGID_16_" gradientUnits="userSpaceOnUse" x1="96.8786" y1="216.9651" x2="217.1288" y2="216.9651" gradientTransform="matrix(1 0 0 -1 0 321.0423)">
		<stop  offset="0" style="stop-color:#50589D"/>
		<stop  offset="4.996443e-02" style="stop-color:#5060A0"/>
		<stop  offset="0.2264" style="stop-color:#5177A9"/>
		<stop  offset="0.4001" style="stop-color:#538AAF"/>
		<stop  offset="0.5674" style="stop-color:#5499B2"/>
		<stop  offset="0.7267" style="stop-color:#54A2B2"/>
		<stop  offset="0.8746" style="stop-color:#54A7B2"/>
		<stop  offset="1" style="stop-color:#54A8B1"/>
	</linearGradient>
	<path class="st16" d="M199.5,30.5c-19.2-33.3-48.2-39.3-71-18.1c1.7,7.8-1.6,16.2-9,20.5c-2.4,1.3-5,2.1-7.5,2.4
		c1.6,7.5-1.5,15.7-8.2,20c-12.1,39.3-8.5,89.2,10.6,122.4c23.5,40.7,61.6,40.7,85.1,0C223,137.1,223,71.1,199.5,30.5z"/>
	
		<linearGradient id="SVGID_17_" gradientUnits="userSpaceOnUse" x1="71.9429" y1="214.1931" x2="242.0359" y2="214.1931" gradientTransform="matrix(1 0 0 -1 0 321.0423)">
		<stop  offset="0" style="stop-color:#50589D"/>
		<stop  offset="4.996443e-02" style="stop-color:#5060A0"/>
		<stop  offset="0.2264" style="stop-color:#5177A9"/>
		<stop  offset="0.4001" style="stop-color:#538AAF"/>
		<stop  offset="0.5674" style="stop-color:#5499B2"/>
		<stop  offset="0.7267" style="stop-color:#54A2B2"/>
		<stop  offset="0.8746" style="stop-color:#54A7B2"/>
		<stop  offset="1" style="stop-color:#54A8B1"/>
	</linearGradient>
	<path class="st17" d="M179,24.7C133.6,36.9,87,83.5,74.9,128.8c-12.2,45.3,14.8,72.3,60.1,60.1c45.3-12.2,92-58.8,104.1-104.1
		C251.3,39.5,224.3,12.6,179,24.7z"/>
	
		<linearGradient id="SVGID_18_" gradientUnits="userSpaceOnUse" x1="52.8832" y1="214.1493" x2="261.1348" y2="214.1493" gradientTransform="matrix(1 0 0 -1 0 321.0423)">
		<stop  offset="0" style="stop-color:#50589D"/>
		<stop  offset="4.996443e-02" style="stop-color:#5060A0"/>
		<stop  offset="0.2264" style="stop-color:#5177A9"/>
		<stop  offset="0.4001" style="stop-color:#538AAF"/>
		<stop  offset="0.5674" style="stop-color:#5499B2"/>
		<stop  offset="0.7267" style="stop-color:#54A2B2"/>
		<stop  offset="0.8746" style="stop-color:#54A7B2"/>
		<stop  offset="1" style="stop-color:#54A8B1"/>
	</linearGradient>
	<path class="st18" d="M230.6,64.4c-33.9-19.6-85.5-22.8-125.2-9.8c-0.5,0.4-1.2,0.8-1.9,1.2c-2.5,1.5-5.5,2.4-8.3,2.5
		c-3.1,1.3-6.2,2.8-9,4.3c-0.8,3.1-2.4,6-4.8,8.5c-4,4-9.3,5.8-14.5,5.5c-23.2,23.1-17.7,53,16.4,72.7c40.7,23.5,106.7,23.5,147.3,0
		S271.3,87.9,230.6,64.4z"/>
	<g>
		
			<linearGradient id="SVGID_19_" gradientUnits="userSpaceOnUse" x1="74.9354" y1="281.0972" x2="75.066" y2="281.0972" gradientTransform="matrix(1 0 0 -1 0 321.0423)">
			<stop  offset="0" style="stop-color:#50589D"/>
			<stop  offset="4.996443e-02" style="stop-color:#5060A0"/>
			<stop  offset="0.2264" style="stop-color:#5177A9"/>
			<stop  offset="0.4001" style="stop-color:#538AAF"/>
			<stop  offset="0.5674" style="stop-color:#5499B2"/>
			<stop  offset="0.7267" style="stop-color:#54A2B2"/>
			<stop  offset="0.8746" style="stop-color:#54A7B2"/>
			<stop  offset="1" style="stop-color:#54A8B1"/>
		</linearGradient>
		<path class="st19" d="M75,39.9L74.9,40H75C75,40,75,40,75,39.9z"/>
		
			<linearGradient id="SVGID_20_" gradientUnits="userSpaceOnUse" x1="52.7434" y1="216.7652" x2="261.2357" y2="216.7652" gradientTransform="matrix(1 0 0 -1 0 321.0423)">
			<stop  offset="0" style="stop-color:#50589D"/>
			<stop  offset="4.996443e-02" style="stop-color:#5060A0"/>
			<stop  offset="0.2264" style="stop-color:#5177A9"/>
			<stop  offset="0.4001" style="stop-color:#538AAF"/>
			<stop  offset="0.5674" style="stop-color:#5499B2"/>
			<stop  offset="0.7267" style="stop-color:#54A2B2"/>
			<stop  offset="0.8746" style="stop-color:#54A7B2"/>
			<stop  offset="1" style="stop-color:#54A8B1"/>
		</linearGradient>
		<path class="st20" d="M157,0c-11,0-21.6,1.7-31.5,4.8c0.5,0.7,0.9,1.3,1.3,2c5.2,9,2.3,20.7-6.8,26c-2.4,1.3-5,2.1-7.5,2.4
			c1.7,7.8-1.6,16.2-9,20.5c-5.2,3.1-11.4,3.4-16.6,1.2c0.1,5.1-1.6,10.2-5.5,14.1c-6.4,6.6-16.5,7.2-23.9,2.3
			c-3.1,9.8-4.7,20.1-4.7,30.9c0,57.6,46.7,104.2,104.2,104.2s104.2-46.7,104.2-104.2C261.4,46.7,214.7,0,157,0z"/>
	</g>
</g>
</svg>
