<?xml version="1.0" encoding="utf-8"?>
<!-- Generator: Adobe Illustrator 21.0.0, SVG Export Plug-In . SVG Version: 6.00 Build 0)  -->
<svg version="1.1" id="Camada_1" xmlns="http://www.w3.org/2000/svg" xmlns:xlink="http://www.w3.org/1999/xlink" x="0px" y="0px"
	 viewBox="0 0 155.5 155.5" style="enable-background:new 0 0 155.5 155.5;" xml:space="preserve">
<style type="text/css">
	.st0{fill:url(#SVGID_1_);}
	.st1{opacity:0.5;fill:url(#SVGID_2_);}
	.st2{fill:#86BCC7;}
	.st3{fill:url(#SVGID_3_);}
	.st4{fill:url(#SVGID_4_);}
	.st5{fill:url(#SVGID_5_);}
	.st6{fill:url(#SVGID_6_);}
	.st7{fill:url(#SVGID_7_);}
	.st8{fill:url(#SVGID_8_);}
	.st9{fill:url(#SVGID_9_);}
	.st10{fill:url(#SVGID_10_);}
	.st11{opacity:0.7;fill:url(#SVGID_11_);}
	.st12{opacity:0.6;fill:url(#SVGID_12_);}
	.st13{opacity:0.11;fill:url(#SVGID_13_);}
	.st14{opacity:0.11;fill:url(#SVGID_14_);}
	.st15{opacity:0.11;fill:url(#SVGID_15_);}
	.st16{opacity:0.11;fill:url(#SVGID_16_);}
	.st17{opacity:0.11;fill:url(#SVGID_17_);}
	.st18{opacity:0.11;fill:url(#SVGID_18_);}
</style>
<g>
	
		<radialGradient id="SVGID_1_" cx="392.323" cy="288.2372" r="14.1481" gradientTransform="matrix(0.8633 -0.5047 -0.5047 -0.8633 -115.4941 578.0814)" gradientUnits="userSpaceOnUse">
		<stop  offset="0" style="stop-color:#54A8B1"/>
		<stop  offset="1" style="stop-color:#54A8B1"/>
	</radialGradient>
	<circle class="st0" cx="77.7" cy="131.2" r="14.1"/>
	
		<radialGradient id="SVGID_2_" cx="420.5593" cy="299.3852" r="4.5277" gradientTransform="matrix(0.8633 -0.5047 -0.5047 -0.8633 -115.4941 578.0814)" gradientUnits="userSpaceOnUse">
		<stop  offset="0" style="stop-color:#54A8B1"/>
		<stop  offset="1" style="stop-color:#54A8B1"/>
	</radialGradient>
	<circle class="st1" cx="96.5" cy="107.4" r="4.5"/>
	<ellipse transform="matrix(0.729 -0.6845 0.6845 0.729 -66.3459 83.5918)" class="st2" cx="72.4" cy="125.6" rx="6.3" ry="5.1"/>
	
		<radialGradient id="SVGID_3_" cx="390.8515" cy="317.5735" r="2.448" gradientTransform="matrix(0.8633 -0.5047 -0.5047 -0.8633 -115.4941 578.0814)" gradientUnits="userSpaceOnUse">
		<stop  offset="0" style="stop-color:#54A8B1"/>
		<stop  offset="1" style="stop-color:#54A8B1"/>
	</radialGradient>
	<circle class="st3" cx="61.6" cy="106.7" r="2.4"/>
	
		<radialGradient id="SVGID_4_" cx="373.95" cy="335.0966" r="5.3033" gradientTransform="matrix(0.8633 -0.5047 -0.5047 -0.8633 -115.4941 578.0814)" gradientUnits="userSpaceOnUse">
		<stop  offset="0" style="stop-color:#54A8B1"/>
		<stop  offset="1" style="stop-color:#54A8B1"/>
	</radialGradient>
	<circle class="st4" cx="38.2" cy="100.1" r="5.3"/>
	
		<radialGradient id="SVGID_5_" cx="429.1211" cy="320.0202" r="7.9032" gradientTransform="matrix(0.8633 -0.5047 -0.5047 -0.8633 -115.4941 578.0814)" gradientUnits="userSpaceOnUse">
		<stop  offset="0" style="stop-color:#54A8B1"/>
		<stop  offset="1" style="stop-color:#54A8B1"/>
	</radialGradient>
	<circle class="st5" cx="93.5" cy="85.2" r="7.9"/>
	
		<radialGradient id="SVGID_6_" cx="429.1217" cy="337.7753" r="3.1587" gradientTransform="matrix(0.8633 -0.5047 -0.5047 -0.8633 -115.4941 578.0814)" gradientUnits="userSpaceOnUse">
		<stop  offset="0" style="stop-color:#54A8B1"/>
		<stop  offset="1" style="stop-color:#54A8B1"/>
	</radialGradient>
	<circle class="st6" cx="84.5" cy="69.9" r="3.2"/>
	
		<radialGradient id="SVGID_7_" cx="452.925" cy="390.7644" r="2.2639" gradientTransform="matrix(0.8633 -0.5047 -0.5047 -0.8633 -115.4941 578.0814)" gradientUnits="userSpaceOnUse">
		<stop  offset="0" style="stop-color:#54A8B1"/>
		<stop  offset="1" style="stop-color:#54A8B1"/>
	</radialGradient>
	<circle class="st7" cx="78.3" cy="12.1" r="2.3"/>
	
		<radialGradient id="SVGID_8_" cx="458.3034" cy="369.6658" r="3.0535" gradientTransform="matrix(0.8633 -0.5047 -0.5047 -0.8633 -115.4941 578.0814)" gradientUnits="userSpaceOnUse">
		<stop  offset="0" style="stop-color:#54A8B1"/>
		<stop  offset="1" style="stop-color:#54A8B1"/>
	</radialGradient>
	<circle class="st8" cx="93.6" cy="27.6" r="3.1"/>
	
		<radialGradient id="SVGID_9_" cx="451.9951" cy="366.3881" r="1.1776" gradientTransform="matrix(0.8633 -0.5047 -0.5047 -0.8633 -115.4941 578.0814)" gradientUnits="userSpaceOnUse">
		<stop  offset="0" style="stop-color:#54A8B1"/>
		<stop  offset="1" style="stop-color:#54A8B1"/>
	</radialGradient>
	<circle class="st9" cx="89.8" cy="33.7" r="1.2"/>
	
		<radialGradient id="SVGID_10_" cx="442.3313" cy="318.7617" r="1.5935" gradientTransform="matrix(0.8633 -0.5047 -0.5047 -0.8633 -115.4941 578.0814)" gradientUnits="userSpaceOnUse">
		<stop  offset="0" style="stop-color:#54A8B1"/>
		<stop  offset="1" style="stop-color:#54A8B1"/>
	</radialGradient>
	<circle class="st10" cx="105.5" cy="79.6" r="1.6"/>
	
		<radialGradient id="SVGID_11_" cx="386.5218" cy="366.0571" r="2.7336" gradientTransform="matrix(0.8633 -0.5047 -0.5047 -0.8633 -115.4941 578.0814)" gradientUnits="userSpaceOnUse">
		<stop  offset="0" style="stop-color:#54A8B1"/>
		<stop  offset="1" style="stop-color:#54A8B1"/>
	</radialGradient>
	<circle class="st11" cx="33.4" cy="67" r="2.7"/>
	<radialGradient id="SVGID_12_" cx="57.6328" cy="60.8053" r="95.4404" gradientUnits="userSpaceOnUse">
		<stop  offset="0" style="stop-color:#1F2158"/>
		<stop  offset="0.1096" style="stop-color:#20265A"/>
		<stop  offset="0.2335" style="stop-color:#23325F"/>
		<stop  offset="0.3644" style="stop-color:#274067"/>
		<stop  offset="0.5001" style="stop-color:#2D5071"/>
		<stop  offset="0.6396" style="stop-color:#36627E"/>
		<stop  offset="0.7822" style="stop-color:#407B8F"/>
		<stop  offset="0.9247" style="stop-color:#4D99A6"/>
		<stop  offset="1" style="stop-color:#54A8B1"/>
	</radialGradient>
	<path class="st12" d="M77.7,0C69.4,0,61.4,1.3,54,3.7c0.3,0.5,0.7,0.9,1,1.4c3.9,6.7,1.7,15.4-5.1,19.4c-1.8,1-3.7,1.6-5.6,1.8
		c1.3,5.8-1.2,12.1-6.7,15.3c-3.9,2.3-8.5,2.5-12.4,0.9c0.1,3.8-1.2,7.6-4.1,10.5c-4.8,4.8-12.2,5.4-17.6,1.9
		C1.2,62.1,0,69.8,0,77.7c0,42.9,34.8,77.7,77.7,77.7s77.7-34.8,77.7-77.7C155.5,34.8,120.7,0,77.7,0z"/>
	<linearGradient id="SVGID_13_" gradientUnits="userSpaceOnUse" x1="15.0712" y1="80.1375" x2="141.1187" y2="80.1375">
		<stop  offset="0" style="stop-color:#50589D"/>
		<stop  offset="4.996443e-02" style="stop-color:#5060A0"/>
		<stop  offset="0.2264" style="stop-color:#5177A9"/>
		<stop  offset="0.4001" style="stop-color:#538AAF"/>
		<stop  offset="0.5674" style="stop-color:#5499B2"/>
		<stop  offset="0.7267" style="stop-color:#54A2B2"/>
		<stop  offset="0.8746" style="stop-color:#54A7B2"/>
		<stop  offset="1" style="stop-color:#54A8B1"/>
	</linearGradient>
	<path class="st13" d="M138.9,96.1c-9.1-33.8-43.8-68.6-77.6-77.6c-1.8-0.5-3.6-0.9-5.4-1.2c-1.1,3-3.2,5.6-6.1,7.3
		c-1.8,1-3.7,1.6-5.6,1.8c1.3,5.8-1.2,12.1-6.7,15.3c-3.9,2.3-8.5,2.5-12.4,0.9c0.1,3.8-1.2,7.6-4.1,10.5c-1.7,1.7-3.8,2.9-6,3.6
		c0.4,2.2,0.8,4.4,1.4,6.7c9.1,33.8,43.8,68.6,77.6,77.6C127.9,149.9,148,129.9,138.9,96.1z"/>
	<linearGradient id="SVGID_14_" gradientUnits="userSpaceOnUse" x1="32.9119" y1="77.6272" x2="122.5406" y2="77.6272">
		<stop  offset="0" style="stop-color:#50589D"/>
		<stop  offset="4.996443e-02" style="stop-color:#5060A0"/>
		<stop  offset="0.2264" style="stop-color:#5177A9"/>
		<stop  offset="0.4001" style="stop-color:#538AAF"/>
		<stop  offset="0.5674" style="stop-color:#5499B2"/>
		<stop  offset="0.7267" style="stop-color:#54A2B2"/>
		<stop  offset="0.8746" style="stop-color:#54A7B2"/>
		<stop  offset="1" style="stop-color:#54A8B1"/>
	</linearGradient>
	<path class="st14" d="M109.4,22.7C95.1-2.1,73.5-6.6,56.5,9.2c1.3,5.8-1.2,12.1-6.7,15.3c-1.8,1-3.7,1.6-5.6,1.8
		c1.2,5.6-1.1,11.7-6.1,14.9c-9,29.3-6.3,66.5,7.9,91.2c17.5,30.3,45.9,30.3,63.4,0C126.9,102.2,126.9,53,109.4,22.7z"/>
	<linearGradient id="SVGID_15_" gradientUnits="userSpaceOnUse" x1="14.3298" y1="79.6498" x2="141.1203" y2="79.6498">
		<stop  offset="0" style="stop-color:#50589D"/>
		<stop  offset="4.996443e-02" style="stop-color:#5060A0"/>
		<stop  offset="0.2264" style="stop-color:#5177A9"/>
		<stop  offset="0.4001" style="stop-color:#538AAF"/>
		<stop  offset="0.5674" style="stop-color:#5499B2"/>
		<stop  offset="0.7267" style="stop-color:#54A2B2"/>
		<stop  offset="0.8746" style="stop-color:#54A7B2"/>
		<stop  offset="1" style="stop-color:#54A8B1"/>
	</linearGradient>
	<path class="st15" d="M94.1,18.4c-33.8,9.1-68.6,43.8-77.6,77.6c-9.1,33.8,11,53.9,44.8,44.8c33.8-9.1,68.6-43.8,77.6-77.6
		C148,29.4,127.9,9.4,94.1,18.4z"/>
	<linearGradient id="SVGID_16_" gradientUnits="userSpaceOnUse" x1="0.1083" y1="79.6533" x2="155.3478" y2="79.6533">
		<stop  offset="0" style="stop-color:#50589D"/>
		<stop  offset="4.996443e-02" style="stop-color:#5060A0"/>
		<stop  offset="0.2264" style="stop-color:#5177A9"/>
		<stop  offset="0.4001" style="stop-color:#538AAF"/>
		<stop  offset="0.5674" style="stop-color:#5499B2"/>
		<stop  offset="0.7267" style="stop-color:#54A2B2"/>
		<stop  offset="0.8746" style="stop-color:#54A7B2"/>
		<stop  offset="1" style="stop-color:#54A8B1"/>
	</linearGradient>
	<path class="st16" d="M132.6,48c-25.3-14.6-63.7-17-93.3-7.3c-0.4,0.3-0.9,0.6-1.4,0.9c-1.9,1.1-4.1,1.8-6.2,1.9
		c-2.3,1-4.6,2.1-6.7,3.2c-0.6,2.3-1.8,4.5-3.6,6.3c-3,3-6.9,4.3-10.8,4.1C-6.7,74.3-2.6,96.6,22.8,111.3
		c30.3,17.5,79.5,17.5,109.8,0C162.9,93.8,162.9,65.5,132.6,48z"/>
	<g>
		<linearGradient id="SVGID_17_" gradientUnits="userSpaceOnUse" x1="16.5409" y1="29.7771" x2="16.6382" y2="29.7771">
			<stop  offset="0" style="stop-color:#50589D"/>
			<stop  offset="4.996443e-02" style="stop-color:#5060A0"/>
			<stop  offset="0.2264" style="stop-color:#5177A9"/>
			<stop  offset="0.4001" style="stop-color:#538AAF"/>
			<stop  offset="0.5674" style="stop-color:#5499B2"/>
			<stop  offset="0.7267" style="stop-color:#54A2B2"/>
			<stop  offset="0.8746" style="stop-color:#54A7B2"/>
			<stop  offset="1" style="stop-color:#54A8B1"/>
		</linearGradient>
		<path class="st17" d="M16.6,29.7c0,0-0.1,0.1-0.1,0.1c0,0,0.1,0,0.1,0C16.6,29.8,16.6,29.8,16.6,29.7z"/>
		<linearGradient id="SVGID_18_" gradientUnits="userSpaceOnUse" x1="0" y1="77.7251" x2="155.4501" y2="77.7251">
			<stop  offset="0" style="stop-color:#50589D"/>
			<stop  offset="4.996443e-02" style="stop-color:#5060A0"/>
			<stop  offset="0.2264" style="stop-color:#5177A9"/>
			<stop  offset="0.4001" style="stop-color:#538AAF"/>
			<stop  offset="0.5674" style="stop-color:#5499B2"/>
			<stop  offset="0.7267" style="stop-color:#54A2B2"/>
			<stop  offset="0.8746" style="stop-color:#54A7B2"/>
			<stop  offset="1" style="stop-color:#54A8B1"/>
		</linearGradient>
		<path class="st18" d="M77.7,0c-8.2,0-16.1,1.3-23.5,3.6c0.4,0.5,0.7,1,1,1.5c3.9,6.7,1.7,15.4-5.1,19.4c-1.8,1-3.7,1.6-5.6,1.8
			c1.3,5.8-1.2,12.1-6.7,15.3c-3.9,2.3-8.5,2.5-12.4,0.9c0.1,3.8-1.2,7.6-4.1,10.5C16.5,57.9,9,58.4,3.5,54.7C1.2,62,0,69.7,0,77.7
			c0,42.9,34.8,77.7,77.7,77.7s77.7-34.8,77.7-77.7C155.5,34.8,120.7,0,77.7,0z"/>
	</g>
</g>
</svg>
