<svg xmlns="http://www.w3.org/2000/svg" viewBox="0 0 120.9 51">
  <path d="M80.1 37.3c-.8 0-1.5.3-1.9.9-.5.6-.7 1.4-.7 2.5s.2 1.9.7 2.5c.5.6 1.1.9 1.9.9.8 0 1.5-.3 1.9-.9.4-.6.7-1.4.7-2.5s-.2-1.9-.7-2.5c-.5-.6-1.1-.9-1.9-.9zm-69.8 7.2c.1 0 .1 0 0 0v-.2H10V44v-.1c-.1 0-.1-.1-.2-.1h-.1c0 .1-.1.1-.2.1s-.2-.1-.2-.1h-.1c-.1 0-.1 0-.2.1V44.2c-.1.1-.1.1-.2 0h-.1c0 .1-.1.1-.1.2v.1c.1 0 .1.1.1.2s-.1.1-.1.2v.1c0 .1 0 .1.1.2H9c.1.1.1.1 0 .2v.1H9.3c0-.1.1-.1.2-.1s.2.1.2.1h.1c.1 0 .1 0 .2-.1v-.1-.2c.1-.1.1-.1.2 0h.1c0-.1.1-.1.1-.2v-.1c-.1 0-.1-.1-.1-.2-.1 0 0-.1 0-.1zm-.5.3c-.1.1-.2.2-.4.1-.1-.1-.2-.2-.1-.4.1-.1.2-.2.4-.1.1.1.2.2.1.4zm104-17.7c-.9 2.3-1.6 3.8-2.1 4.4-.7.8-2.2 1.3-4.3 1.3h-1c-.3 0-.7 0-1.2-.1v-3.9h.6c.5 0 .9 0 1.4-.1s.8-.2 1.1-.4c.3-.2.5-.6.8-1.2 0 0 0-.1.1-.1H0v24h120.9V27.1h-7.1zm-101.4 13v6.6H7.6v-6.6c-1.2-.8-2-2.1-2-3.6 0-2.4 2-4.4 4.4-4.4 2.4 0 4.4 2 4.4 4.4-.1 1.4-.8 2.8-2 3.6zm60.9-2.7h-1.8v5.8c0 .4.1.7.2.8.1.1.5.2 1 .2h.6v2.1l-1.4.1c-1.4 0-2.3-.2-2.8-.7-.3-.3-.5-.8-.5-1.5v-6.8h-1.5v-2h1.5v-3.1h2.8v3.1h1.8v2zm11 7.5c-.9 1.1-2.3 1.7-4.2 1.7-1.9 0-3.3-.6-4.2-1.7-.9-1.1-1.4-2.5-1.4-4.1 0-1.6.5-3 1.4-4.1.9-1.2 2.3-1.7 4.2-1.7 1.9 0 3.3.6 4.2 1.7.9 1.2 1.4 2.5 1.4 4.1 0 1.5-.5 2.9-1.4 4.1zm12.6 0c-.9 1.1-2.3 1.7-4.2 1.7-1.9 0-3.3-.6-4.2-1.7-.9-1.1-1.4-2.5-1.4-4.1 0-1.6.5-3 1.4-4.1.9-1.2 2.3-1.7 4.2-1.7 1.9 0 3.3.6 4.2 1.7.9 1.2 1.4 2.5 1.4 4.1 0 1.5-.5 2.9-1.4 4.1zm6.4 1.3h-2.9l.1-17.4h2.9l-.1 17.4zm10.9-.7c-.8.7-2.1 1-3.8 1-1.7 0-3-.4-3.8-1.1-.8-.7-1.2-1.7-1.2-2.8h2.9c.1.5.2.9.4 1.1.4.4 1 .6 2 .6.6 0 1-.1 1.4-.3.3-.2.5-.4.5-.8 0-.3-.1-.6-.4-.7-.3-.2-1.3-.5-3-.9-1.2-.3-2.1-.7-2.6-1.2s-.8-1.1-.8-2c0-1 .4-1.9 1.2-2.6.8-.7 1.9-1.1 3.4-1.1 1.4 0 2.5.3 3.4.8.9.5 1.4 1.5 1.5 2.8h-2.9c0-.4-.1-.7-.3-.9-.3-.4-.9-.6-1.6-.6-.6 0-1.1.1-1.3.3-.3.2-.4.4-.4.7 0 .3.1.6.4.7.3.2 1.3.4 3 .8 1.1.3 2 .7 2.6 1.2.6.6.8 1.2.8 2.1-.2 1.4-.6 2.3-1.4 2.9zm-21.5-8.2c-.8 0-1.5.3-1.9.9-.5.6-.7 1.4-.7 2.5s.2 1.9.7 2.5c.5.6 1.1.9 1.9.9.8 0 1.5-.3 1.9-.9.4-.6.7-1.4.7-2.5s-.2-1.9-.7-2.5c-.4-.6-1.1-.9-1.9-.9zm-80.2-1.2c0-.3.1-.6.4-.7.1 0 .1-.1.1-.2-.1-.2-.2-.4-.4-.6-.1-.1-.2-.1-.2 0-.2.2-.6.2-.8 0-.2-.2-.4-.5-.3-.8 0-.1 0-.2-.1-.2-.2-.1-.5-.1-.7-.2-.1 0-.2.1-.2.1-.1.3-.3.5-.6.6-.3 0-.6-.1-.7-.4 0-.1-.1-.1-.2-.1-.2.1-.4.2-.6.4-.1.1-.1.2 0 .2.2.3.2.6 0 .8-.2.2-.5.3-.8.3-.1 0-.2 0-.2.1-.1.2-.1.5-.2.7 0 .1.1.2.2.2.3.1.5.3.6.6 0 .3-.1.6-.4.7-.4.1-.4.2-.4.3.1.2.2.4.4.6.1.1.2.1.2 0 .2-.2.6-.2.8 0 .2.2.4.5.3.8 0 .1 0 .2.1.2s.2.1.4.1c.1 0 .2.1.4.1.1 0 .2-.1.2-.1.1-.3.3-.5.6-.6.3 0 .6.1.7.4 0 .1.1.1.2.1.2-.1.4-.2.6-.4.1-.1.1-.2 0-.2-.2-.3-.2-.6 0-.8.2-.2.5-.3.8-.3.1 0 .2 0 .2-.1.1-.2.1-.5.2-.7 0-.1-.1-.2-.2-.2-.1-.2-.3-.4-.4-.7zm-1.4.7c-.1.6-.7.9-1.3.8-.6-.1-.9-.7-.8-1.3.1-.6.7-.9 1.3-.8.5.1.9.7.8 1.3zm.9 4.7c-.1 0-.3-.1-.4-.2-.1-.1 0-.3.1-.4v-.1c-.1-.1-.2-.2-.3-.2h-.1c-.1.1-.3.2-.4.1-.1 0-.2-.2-.2-.3 0 0 0-.1-.1-.1h-.4l-.1.1c0 .1-.1.3-.2.4-.1.1-.3 0-.4-.1h-.1c-.1.1-.2.2-.2.3v.1c.1.1.1.2.1.4 0 .1-.2.2-.3.2 0 0-.1 0-.1.1v.4l.1.1c.1 0 .3.1.4.2.1.1 0 .3-.1.4v.1l.1.1.1.1h.1c.1-.1.3-.2.4-.1.1 0 .2.2.2.3 0 0 0 .1.1.1h.4l.1-.1c0-.1.1-.3.2-.4.1-.1.3 0 .4.1h.1c.1-.1.2-.2.2-.3v-.1c-.1-.1-.1-.2-.1-.4 0-.1.2-.2.3-.2 0 0 .1 0 .1-.1.1-.2.1-.4 0-.5 0 0 0-.1 0 0zm-1.1.6c-.2.2-.5.2-.8 0-.2-.2-.2-.5 0-.8.2-.2.5-.2.8 0 .2.3.2.6 0 .8zm98.1-15h4.8c.2-.6.5-1.3.8-2.1L121 6.7h-5.2L112 20.4l-4.1-13.7h-5.4l6.8 19.4c0 .1-.1.5-.3 1zm-53-1.8l6.7-18.6h-5.2l-4 13.7-3.8-13.7h-5.5l6.7 18.6H56zm36.6.6c3 0 5.3-1.1 6.8-3.2 1-1.3 1.5-2.7 1.6-4.2h-5c-.1 1-.4 1.8-.9 2.4-.5.6-1.3.9-2.4.9-1.6 0-2.7-.8-3.3-2.3-.3-.8-.5-1.9-.5-3.3s.2-2.6.5-3.4c.6-1.6 1.7-2.4 3.4-2.4 1.2 0 2 .4 2.5 1.1.4.6.6 1.2.7 1.9h5c-.3-2.6-1.2-4.5-2.6-5.5-1.5-1-3.4-1.6-5.7-1.6-2.7 0-4.9.9-6.5 2.7-1.6 1.8-2.3 4.3-2.3 7.4 0 2.8.7 5.1 2.1 6.9 1.4 1.7 3.6 2.6 6.6 2.6zM74.8 13.6c-.4.2-1 .3-1.9.4l-1.7.2c-1.9.2-3.3.6-4.3 1.2-1.8 1-2.7 2.7-2.7 5 0 1.8.6 3.1 1.7 4.1 1.1 1 2.5 1.4 4.2 1.4 1.3 0 2.5-.3 3.6-.9.9-.5 1.7-1.1 2.3-1.9 0 .4.1.8.1 1.1.1.3.2.7.3 1.1h5.3v-.7c-.3-.1-.6-.3-.7-.6s-.3-.7-.3-1.3V12c0-2.2-.8-3.8-2.4-4.6-1.6-.8-3.4-1.2-5.4-1.2-3.1 0-5.4.8-6.6 2.5-.8 1-1.3 2.4-1.4 4h4.7c.1-.7.3-1.3.7-1.7.5-.6 1.3-.9 2.5-.9 1 0 1.8.1 2.4.4.5.3.8.8.8 1.6-.1.7-.5 1.2-1.2 1.5zm1 4.5c0 1.6-.5 2.7-1.4 3.4-.9.6-1.9.9-2.9.9-.7 0-1.2-.2-1.7-.6-.5-.4-.7-1-.7-1.8 0-.9.4-1.6 1.1-2.1.5-.3 1.2-.5 2.2-.7l1.1-.2c.6-.1 1-.2 1.3-.3.3-.1.6-.3.9-.5v1.9zm-48.2-1.7c0-1.5.2-2.6.6-3.3.7-1.3 2-1.9 3.9-1.9h.6c.2 0 .5 0 .8.1v-5H32.9c-1.5 0-2.6.4-3.5 1.1-.6.5-1.2 1.3-2 2.5V6.7h-4.6v18.6h4.9v-8.9zM41.4 0h-4.9v4.5h4.9V0zM5.2 16.3h5.2c2.7 0 4.8-.6 6.3-1.8 1.5-1.2 2.2-3.3 2.2-6.3 0-2.7-.7-4.7-2.2-6C15.2.9 13.2.3 10.7.3H0v25.1h5.2v-9.1zm0-11.8H10c1.2 0 2.1.3 2.8.8s1 1.5 1 2.8c0 1.3-.3 2.3-1 2.9-.7.6-1.6.9-2.8.9H5.2V4.5zm36.2 2.2h-4.9v18.6h4.9V6.7z" fill="#040006"/>
</svg>