<?xml version="1.0" encoding="utf-8"?>
<!-- Generator: Adobe Illustrator 21.0.0, SVG Export Plug-In . SVG Version: 6.00 Build 0)  -->
<svg version="1.1" id="_x2014_ÎÓÈ_x5F_1" xmlns="http://www.w3.org/2000/svg" xmlns:xlink="http://www.w3.org/1999/xlink"
	 x="0px" y="0px" viewBox="0 0 181.7 242.2" style="enable-background:new 0 0 181.7 242.2;" xml:space="preserve">
<style type="text/css">
	.st0{fill:#42E8E0;}
	.st1{fill:#2FD3C7;}
	.st2{fill:#FFFFFF;}
	.st3{opacity:0.7;fill:#18B2A3;enable-background:new    ;}
</style>
<g>
	<g>
		<polygon class="st0" points="90.8,135.7 65.6,121.1 65.6,150.3 90.8,164.9 116.1,150.3 116.1,121.1 		"/>
		<polygon class="st0" points="90.8,164.9 65.6,150.3 65.6,121.1 90.8,135.7 		"/>
		<polygon class="st1" points="116.1,150.3 90.8,164.9 90.8,135.7 116.1,121.1 		"/>
		<polygon class="st0" points="90.8,135.7 65.6,121.1 90.8,106.5 116.1,121.1 		"/>
		<polygon class="st2" points="90.8,135.7 66.7,121.8 65.6,122.4 90.8,137 116.1,122.4 115,121.8 		"/>
	</g>
	<g>
		<polygon class="st0" points="123.6,154.4 98.4,139.8 98.4,169 123.6,183.6 148.9,169 148.9,139.8 		"/>
		<polygon class="st0" points="123.6,183.6 98.4,169 98.4,139.8 123.6,154.4 		"/>
		<polygon class="st1" points="148.9,169 123.6,183.6 123.6,154.4 148.9,139.8 		"/>
		<polygon class="st0" points="123.6,154.4 98.4,139.8 123.6,125.3 148.9,139.8 		"/>
		<polygon class="st2" points="123.6,154.4 99.5,140.5 98.4,141.1 123.6,155.7 148.9,141.1 147.8,140.5 		"/>
	</g>
	<g>
		<polygon class="st0" points="156.4,173.1 131.2,158.6 131.2,187.7 156.4,202.3 181.7,187.7 181.7,158.6 		"/>
		<polygon class="st0" points="156.4,202.3 131.2,187.7 131.2,158.6 156.4,173.1 		"/>
		<polygon class="st1" points="181.7,187.7 156.4,202.3 156.4,173.1 181.7,158.6 		"/>
		<polygon class="st0" points="156.4,173.1 131.2,158.6 156.4,144 181.7,158.6 		"/>
		<polygon class="st2" points="156.4,173.1 132.3,159.2 131.2,159.8 156.4,174.4 181.7,159.8 181.7,158.6 		"/>
	</g>
	<g>
		<polygon class="st0" points="58,155.7 32.8,141.1 32.8,170.3 58,184.8 83.3,170.3 83.3,141.1 		"/>
		<polygon class="st0" points="58,184.8 32.8,170.3 32.8,141.1 58,155.7 		"/>
		<polygon class="st1" points="83.3,170.3 58,184.8 58,155.7 83.3,141.1 		"/>
		<polygon class="st0" points="58,155.7 32.8,141.1 58,126.5 83.3,141.1 		"/>
		<polygon class="st2" points="58,155.7 33.9,141.7 32.8,142.4 58,156.9 83.3,142.4 82.2,141.7 		"/>
	</g>
	<g>
		<polygon class="st0" points="90.8,174.4 65.6,159.8 65.6,189 90.8,203.6 116.1,189 116.1,159.8 		"/>
		<polygon class="st0" points="90.8,203.6 65.6,189 65.6,159.8 90.8,174.4 		"/>
		<polygon class="st1" points="116.1,189 90.8,203.6 90.8,174.4 116.1,159.8 		"/>
		<polygon class="st0" points="90.8,174.4 65.6,159.8 90.8,145.2 116.1,159.8 		"/>
		<polygon class="st2" points="90.8,174.4 66.7,160.4 65.6,161.1 90.8,175.7 116.1,161.1 115,160.4 		"/>
	</g>
	<g>
		<polygon class="st0" points="123.6,193.1 98.4,178.5 98.4,207.7 123.6,222.3 148.9,207.7 148.9,178.5 		"/>
		<polygon class="st0" points="123.6,222.3 98.4,207.7 98.4,178.5 123.6,193.1 		"/>
		<polygon class="st1" points="148.9,207.7 123.6,222.3 123.6,193.1 148.9,178.5 		"/>
		<polygon class="st0" points="123.6,193.1 98.4,178.5 123.6,164 148.9,178.5 		"/>
		<polygon class="st2" points="123.6,193.1 99.5,179.2 98.4,179.8 123.6,194.4 148.9,179.8 148.9,178.5 		"/>
	</g>
	<g>
		<polygon class="st0" points="25.2,175.7 0,161.1 0,190.2 25.2,204.8 50.5,190.2 50.5,161.1 		"/>
		<polygon class="st0" points="25.2,204.8 0,190.2 0,161.1 25.2,175.7 		"/>
		<polygon class="st1" points="50.5,190.2 25.2,204.8 25.2,175.7 50.5,161.1 		"/>
		<polygon class="st0" points="25.2,175.7 0,161.1 25.2,146.5 50.5,161.1 		"/>
		<polygon class="st2" points="25.2,175.7 0,161.1 0,162.3 25.2,176.9 50.5,162.3 49.4,161.7 		"/>
	</g>
	<g>
		<polygon class="st0" points="58,194.4 32.8,179.8 32.8,209 58,223.5 83.3,209 83.3,179.8 		"/>
		<polygon class="st0" points="58,223.5 32.8,209 32.8,179.8 58,194.4 		"/>
		<polygon class="st1" points="83.3,209 58,223.5 58,194.4 83.3,179.8 		"/>
		<polygon class="st0" points="58,194.4 32.8,179.8 58,165.2 83.3,179.8 		"/>
		<polygon class="st2" points="58,194.4 32.8,179.8 32.8,181.1 58,195.6 83.3,181.1 82.2,180.4 		"/>
	</g>
	<g>
		<polygon class="st0" points="90.8,213.1 65.6,198.5 65.6,227.7 90.8,242.2 116.1,227.7 116.1,198.5 		"/>
		<polygon class="st0" points="90.8,242.2 65.6,227.7 65.6,198.5 90.8,213.1 		"/>
		<polygon class="st1" points="116.1,227.7 90.8,242.2 90.8,213.1 116.1,198.5 		"/>
		<polygon class="st0" points="90.8,213.1 65.6,198.5 90.8,183.9 116.1,198.5 		"/>
		<polygon class="st2" points="90.8,213.1 65.6,198.5 65.6,199.8 90.8,214.4 116.1,199.8 116.1,198.5 		"/>
	</g>
	<g>
		<polygon class="st0" points="90.8,97 65.6,82.4 65.6,111.6 90.8,126.2 116.1,111.6 116.1,82.4 		"/>
		<polygon class="st0" points="90.8,126.2 65.6,111.6 65.6,82.4 90.8,97 		"/>
		<polygon class="st1" points="116.1,111.6 90.8,126.2 90.8,97 116.1,82.4 		"/>
		<polygon class="st0" points="90.8,97 65.6,82.4 90.8,67.8 116.1,82.4 		"/>
		<polygon class="st2" points="90.8,97 66.7,83.1 65.6,83.7 90.8,98.3 116.1,83.7 115,83.1 		"/>
	</g>
	<g>
		<polygon class="st3" points="90.8,208.3 73.6,198.4 90.8,188.5 108,198.4 		"/>
		<polygon class="st3" points="58,189.6 40.8,179.7 58,169.7 75.2,179.7 		"/>
		<polygon class="st3" points="123.6,188.4 106.4,178.4 123.6,168.5 140.8,178.4 		"/>
		<polygon class="st3" points="156.5,168.6 139.3,158.7 156.5,148.7 173.7,158.7 		"/>
		<polygon class="st3" points="25.2,170.9 8,161 25.2,151 42.4,161 		"/>
	</g>
	<g>
		<polygon class="st0" points="123.6,115.7 98.4,101.1 98.4,130.3 123.6,144.9 148.9,130.3 148.9,101.1 		"/>
		<polygon class="st0" points="123.6,144.9 98.4,130.3 98.4,101.1 123.6,115.7 		"/>
		<polygon class="st1" points="148.9,130.3 123.6,144.9 123.6,115.7 148.9,101.1 		"/>
		<polygon class="st0" points="123.6,115.7 98.4,101.1 123.6,86.6 148.9,101.1 		"/>
		<polygon class="st2" points="123.6,115.7 99.5,101.8 98.4,102.4 123.6,117 148.9,102.4 147.8,101.8 		"/>
	</g>
	<g>
		<polygon class="st0" points="156.4,134.4 131.2,119.9 131.2,149 156.4,163.6 181.7,149 181.7,119.9 		"/>
		<polygon class="st0" points="156.4,163.6 131.2,149 131.2,119.9 156.4,134.4 		"/>
		<polygon class="st1" points="181.7,149 156.4,163.6 156.4,134.4 181.7,119.9 		"/>
		<polygon class="st0" points="156.4,134.4 131.2,119.9 156.4,105.3 181.7,119.9 		"/>
		<polygon class="st2" points="156.4,134.4 132.3,120.5 131.2,121.1 156.4,135.7 181.7,121.1 181.7,119.9 		"/>
	</g>
	<g>
		<polygon class="st0" points="58,117 32.8,102.4 32.8,131.6 58,146.1 83.3,131.6 83.3,102.4 		"/>
		<polygon class="st0" points="58,146.1 32.8,131.6 32.8,102.4 58,117 		"/>
		<polygon class="st1" points="83.3,131.6 58,146.1 58,117 83.3,102.4 		"/>
		<polygon class="st0" points="58,117 32.8,102.4 58,87.8 83.3,102.4 		"/>
		<polygon class="st2" points="58,117 33.9,103 32.8,103.7 58,118.3 83.3,103.7 82.2,103 		"/>
	</g>
	<g>
		<polygon class="st0" points="90.8,135.7 65.6,121.1 65.6,150.3 90.8,164.9 116.1,150.3 116.1,121.1 		"/>
		<polygon class="st0" points="90.8,164.9 65.6,150.3 65.6,121.1 90.8,135.7 		"/>
		<polygon class="st1" points="116.1,150.3 90.8,164.9 90.8,135.7 116.1,121.1 		"/>
		<polygon class="st0" points="90.8,135.7 65.6,121.1 90.8,106.5 116.1,121.1 		"/>
		<polygon class="st2" points="90.8,135.7 66.7,121.8 65.6,122.4 90.8,137 116.1,122.4 115,121.8 		"/>
	</g>
	<g>
		<polygon class="st0" points="123.6,154.4 98.4,139.8 98.4,169 123.6,183.6 148.9,169 148.9,139.8 		"/>
		<polygon class="st0" points="123.6,183.6 98.4,169 98.4,139.8 123.6,154.4 		"/>
		<polygon class="st1" points="148.9,169 123.6,183.6 123.6,154.4 148.9,139.8 		"/>
		<polygon class="st0" points="123.6,154.4 98.4,139.8 123.6,125.3 148.9,139.8 		"/>
		<polygon class="st2" points="123.6,154.4 99.5,140.5 98.4,141.1 123.6,155.7 148.9,141.1 148.9,139.8 		"/>
	</g>
	<g>
		<polygon class="st0" points="25.2,137 0,122.4 0,151.5 25.2,166.1 50.5,151.5 50.5,122.4 		"/>
		<polygon class="st0" points="25.2,166.1 0,151.5 0,122.4 25.2,137 		"/>
		<polygon class="st1" points="50.5,151.5 25.2,166.1 25.2,137 50.5,122.4 		"/>
		<polygon class="st0" points="25.2,137 0,122.4 25.2,107.8 50.5,122.4 		"/>
		<polygon class="st2" points="25.2,137 1.1,123 0,123.7 25.2,138.2 50.5,123.7 49.4,123 		"/>
	</g>
	<g>
		<polygon class="st0" points="58,155.7 32.8,141.1 32.8,170.3 58,184.8 83.3,170.3 83.3,141.1 		"/>
		<polygon class="st0" points="58,184.8 32.8,170.3 32.8,141.1 58,155.7 		"/>
		<polygon class="st1" points="83.3,170.3 58,184.8 58,155.7 83.3,141.1 		"/>
		<polygon class="st0" points="58,155.7 32.8,141.1 58,126.5 83.3,141.1 		"/>
		<polygon class="st2" points="58,155.7 32.8,141.1 32.8,142.4 58,156.9 83.3,142.4 82.2,141.7 		"/>
	</g>
	<g>
		<polygon class="st0" points="90.8,174.4 65.6,159.8 65.6,189 90.8,203.6 116.1,189 116.1,159.8 		"/>
		<polygon class="st0" points="90.8,203.6 65.6,189 65.6,159.8 90.8,174.4 		"/>
		<polygon class="st1" points="116.1,189 90.8,203.6 90.8,174.4 116.1,159.8 		"/>
		<polygon class="st0" points="90.8,174.4 65.6,159.8 90.8,145.2 116.1,159.8 		"/>
		<polygon class="st2" points="90.8,174.4 65.6,159.8 65.6,161.1 90.8,175.7 116.1,161.1 116.1,159.8 		"/>
	</g>
	<g>
		<polygon class="st3" points="156.5,130.1 139.3,120.1 156.5,110.2 173.7,120.1 		"/>
		<polygon class="st3" points="25.2,132.4 8,122.4 25.2,112.5 42.4,122.4 		"/>
	</g>
	<g>
		<polygon class="st0" points="90.8,58.3 65.6,43.7 65.6,72.9 90.8,87.5 116.1,72.9 116.1,43.7 		"/>
		<polygon class="st0" points="90.8,87.5 65.6,72.9 65.6,43.7 90.8,58.3 		"/>
		<polygon class="st1" points="116.1,72.9 90.8,87.5 90.8,58.3 116.1,43.7 		"/>
		<polygon class="st0" points="90.8,58.3 65.6,43.7 90.8,29.2 116.1,43.7 		"/>
		<polygon class="st2" points="90.8,58.3 65.6,43.7 65.6,45 90.8,59.6 116.1,45 116.1,43.7 		"/>
	</g>
	<g>
		<polygon class="st0" points="123.6,77 98.4,62.4 98.4,91.6 123.6,106.2 148.9,91.6 148.9,62.4 		"/>
		<polygon class="st0" points="123.6,106.2 98.4,91.6 98.4,62.4 123.6,77 		"/>
		<polygon class="st1" points="148.9,91.6 123.6,106.2 123.6,77 148.9,62.4 		"/>
		<polygon class="st0" points="123.6,77 98.4,62.4 123.6,47.9 148.9,62.4 		"/>
		<polygon class="st2" points="123.6,77 98.4,62.4 98.4,63.7 123.6,78.3 148.9,63.7 148.9,62.4 		"/>
	</g>
	<g>
		<polygon class="st0" points="156.4,95.7 131.2,81.2 131.2,110.3 156.4,124.9 181.7,110.3 181.7,81.2 		"/>
		<polygon class="st0" points="156.4,124.9 131.2,110.3 131.2,81.2 156.4,95.7 		"/>
		<polygon class="st1" points="181.7,110.3 156.4,124.9 156.4,95.7 181.7,81.2 		"/>
		<polygon class="st0" points="156.4,95.7 131.2,81.2 156.4,66.6 181.7,81.2 		"/>
		<polygon class="st2" points="156.4,95.7 131.2,81.2 131.2,82.4 156.4,97 181.7,82.4 181.7,81.2 		"/>
	</g>
	<g>
		<polygon class="st0" points="58,78.3 32.8,63.7 32.8,92.9 58,107.4 83.3,92.9 83.3,63.7 		"/>
		<polygon class="st0" points="58,107.4 32.8,92.9 32.8,63.7 58,78.3 		"/>
		<polygon class="st1" points="83.3,92.9 58,107.4 58,78.3 83.3,63.7 		"/>
		<polygon class="st0" points="58,78.3 32.8,63.7 58,49.1 83.3,63.7 		"/>
		<polygon class="st2" points="58,78.3 32.8,63.7 32.8,65 58,79.6 83.3,65 83.3,63.7 		"/>
	</g>
	<g>
		<polygon class="st0" points="25.2,98.3 0,83.7 0,112.8 25.2,127.4 50.5,112.8 50.5,83.7 		"/>
		<polygon class="st0" points="25.2,127.4 0,112.8 0,83.7 25.2,98.3 		"/>
		<polygon class="st1" points="50.5,112.8 25.2,127.4 25.2,98.3 50.5,83.7 		"/>
		<polygon class="st0" points="25.2,98.3 0,83.7 25.2,69.1 50.5,83.7 		"/>
		<polygon class="st2" points="25.2,98.3 0,83.7 0,85 25.2,99.5 50.5,85 50.5,83.7 		"/>
	</g>
</g>
<polygon class="st0" points="25.2,29.2 0,14.6 0,43.7 25.2,58.3 50.5,43.7 50.5,14.6 "/>
<polygon class="st0" points="25.2,58.3 0,43.7 0,14.6 25.2,29.2 "/>
<polygon class="st1" points="50.5,43.7 25.2,58.3 25.2,29.2 50.5,14.6 "/>
<polygon class="st0" points="25.2,29.2 0,14.6 25.2,0 50.5,14.6 "/>
<polygon class="st2" points="25.2,29.2 0,14.6 0,15.8 25.2,30.4 50.5,15.8 50.5,14.6 "/>
</svg>
