<?xml version="1.0" encoding="utf-8"?>
<!-- Generator: Adobe Illustrator 21.0.0, SVG Export Plug-In . SVG Version: 6.00 Build 0)  -->
<svg version="1.1" id="Camada_1" xmlns="http://www.w3.org/2000/svg" xmlns:xlink="http://www.w3.org/1999/xlink" x="0px" y="0px"
	 viewBox="0 0 319 294.8" style="enable-background:new 0 0 319 294.8;" xml:space="preserve">
<style type="text/css">
	.st0{fill:#54A8B1;}
	.st1{fill:url(#SVGID_1_);}
	.st2{fill:#292264;}
	.st3{fill:#FFFFFF;}
	.st4{opacity:0.51;fill:#433C8C;}
	.st5{opacity:0.8;fill:url(#SVGID_2_);}
	.st6{opacity:0.5;fill:url(#SVGID_3_);}
	.st7{opacity:0.4;fill:#292264;}
	.st8{opacity:0.3;}
	.st9{fill:url(#SVGID_4_);}
	.st10{opacity:0.3;fill:#151B4A;}
	.st11{fill:url(#SVGID_5_);}
	.st12{fill:#151B4A;}
	.st13{opacity:0.4;fill:#54A8B1;}
	.st14{fill:url(#SVGID_6_);}
	.st15{fill:url(#SVGID_7_);}
	.st16{fill:url(#SVGID_8_);}
	.st17{fill:url(#SVGID_9_);}
	.st18{opacity:0.2;fill:#54A8B1;}
	.st19{fill:url(#SVGID_10_);}
	.st20{fill:url(#SVGID_11_);}
	.st21{fill:#4E4D95;}
	.st22{fill:url(#SVGID_12_);}
	.st23{fill:url(#SVGID_13_);}
	.st24{fill:url(#SVGID_14_);}
	.st25{fill:url(#SVGID_15_);}
	.st26{fill:url(#SVGID_16_);}
	.st27{opacity:0.5;fill:url(#SVGID_17_);}
	.st28{fill:url(#SVGID_18_);}
	.st29{fill:url(#SVGID_19_);}
	.st30{opacity:0.5;fill:url(#SVGID_20_);}
	.st31{opacity:0.8;fill:#54A8B1;}
	.st32{opacity:0.8;}
</style>
<g>
	<path class="st0" d="M102,261.5c-2.6,0-5.2-0.5-7-1.6L2.9,206.7C1,205.6,0,204.2,0,202.5c0-2,1.5-3.9,4-5.4L179.6,95.8
		c4.8-2.8,12-3.1,16.2-0.7l92.1,53.2c1.8,1.1,2.9,2.5,2.9,4.2c0,2-1.5,3.9-4,5.4L111.1,259.2C108.5,260.7,105.1,261.5,102,261.5z
		 M188.7,93.9c-3.1,0-6.4,0.8-8.9,2.2L4.2,197.5c-2.4,1.4-3.8,3.2-3.8,5c0,1.5,0.9,2.8,2.7,3.8l92.1,53.2c4,2.3,11.1,2,15.8-0.7
		l175.6-101.4c2.4-1.4,3.8-3.2,3.8-5c0-1.5-0.9-2.8-2.7-3.8l-92.1-53.2C193.7,94.4,191.3,93.9,188.7,93.9z"/>
</g>
<g>
	<linearGradient id="SVGID_1_" gradientUnits="userSpaceOnUse" x1="0.1983" y1="163.2038" x2="290.4874" y2="163.2038">
		<stop  offset="0" style="stop-color:#B4B1D4"/>
		<stop  offset="2.881008e-02" style="stop-color:#AFACD1"/>
		<stop  offset="0.2452" style="stop-color:#8C8ABC"/>
		<stop  offset="0.4556" style="stop-color:#7373AD"/>
		<stop  offset="0.656" style="stop-color:#6164A4"/>
		<stop  offset="0.8421" style="stop-color:#555B9E"/>
		<stop  offset="1" style="stop-color:#50589D"/>
	</linearGradient>
	<path class="st1" d="M290.5,127.9l-13.2,2.3l-81.6-47.1c-4.1-2.4-11.2-2.1-16,0.7L23.6,173.9l-23.4,4l0,8.3l0,0c0,1.5,0.9,3,2.8,4
		L95,243.3c4.1,2.4,11.2,2.1,16-0.7l175.6-101.4c2.5-1.5,3.9-3.3,3.9-5.1l0,0V127.9z"/>
	<path class="st2" d="M95,235L3,181.9c-4.1-2.4-3.6-6.5,1.1-9.2L179.7,71.3c4.7-2.7,11.9-3,16-0.7l92.1,53.2
		c4.1,2.4,3.6,6.5-1.1,9.2L111,234.3C106.3,237.1,99.1,237.4,95,235z"/>
	<path class="st3" d="M286.6,133L111,234.3c-4.7,2.7-11.9,3-16,0.7L3,181.9c-1.6-0.9-2.5-2.2-2.7-3.5c-0.3,1.7,0.6,3.4,2.7,4.6
		L95,236.1c4.1,2.4,11.2,2.1,16-0.7L286.6,134c2.8-1.6,4.1-3.8,3.9-5.7C290.2,130,288.9,131.6,286.6,133z"/>
	<path class="st4" d="M95.2,232.9L6.4,181.7c-4-2.3-3.5-6.3,1.1-8.9l172.3-99.5c4.6-2.6,11.5-2.9,15.5-0.6l88.8,51.3
		c4,2.3,3.5,6.3-1.1,8.9l-172.3,99.5C106.1,234.9,99.2,235.2,95.2,232.9z"/>
</g>
<g>
	<linearGradient id="SVGID_2_" gradientUnits="userSpaceOnUse" x1="185.7758" y1="204.2724" x2="104.7437" y2="96.7392">
		<stop  offset="0" style="stop-color:#54A8B1"/>
		<stop  offset="4.207826e-02" style="stop-color:#4F9DA8"/>
		<stop  offset="0.1485" style="stop-color:#417E8F"/>
		<stop  offset="0.2591" style="stop-color:#35647B"/>
		<stop  offset="0.3715" style="stop-color:#2B516C"/>
		<stop  offset="0.4861" style="stop-color:#234261"/>
		<stop  offset="0.6036" style="stop-color:#1D3457"/>
		<stop  offset="0.7253" style="stop-color:#192951"/>
		<stop  offset="0.8536" style="stop-color:#161F4C"/>
		<stop  offset="1" style="stop-color:#151B4A"/>
	</linearGradient>
	<path class="st5" d="M101.9,232.5c-2.6,0-5-0.5-6.9-1.6L6.3,179.6c-1.8-1-2.8-2.5-2.8-4.1c0-1.9,1.4-3.9,3.9-5.3l172.3-99.5
		c4.6-2.7,11.7-3,15.7-0.6l88.8,51.3c1.8,1,2.8,2.5,2.8,4.1c0,1.9-1.4,3.9-3.9,5.3l-172.3,99.5C108.3,231.7,105,232.5,101.9,232.5z
		 M95.3,230.4c3.9,2.2,10.7,2,15.2-0.6l172.3-99.5c2.3-1.3,3.6-3.1,3.6-4.8c0-1.4-0.9-2.7-2.5-3.6l-88.8-51.3
		c-3.9-2.2-10.7-2-15.2,0.6L7.7,170.7C5.4,172,4,173.8,4,175.5c0,1.4,0.9,2.7,2.5,3.6L95.3,230.4z"/>
</g>
<radialGradient id="SVGID_3_" cx="102.8052" cy="167.2514" r="227.2109" gradientUnits="userSpaceOnUse">
	<stop  offset="0" style="stop-color:#54A8B1"/>
	<stop  offset="4.207826e-02" style="stop-color:#4F9DA8"/>
	<stop  offset="0.1485" style="stop-color:#417E8F"/>
	<stop  offset="0.2591" style="stop-color:#35647B"/>
	<stop  offset="0.3715" style="stop-color:#2B516C"/>
	<stop  offset="0.4861" style="stop-color:#234261"/>
	<stop  offset="0.6036" style="stop-color:#1D3457"/>
	<stop  offset="0.7253" style="stop-color:#192951"/>
	<stop  offset="0.8536" style="stop-color:#161F4C"/>
	<stop  offset="1" style="stop-color:#151B4A"/>
</radialGradient>
<path class="st6" d="M95.2,230.7L6.4,179.4c-4-2.3-3.5-6.3,1.1-8.9L179.9,71c4.6-2.6,11.5-2.9,15.5-0.6l88.8,51.3
	c4,2.3,3.5,6.3-1.1,8.9L110.7,230C106.1,232.7,99.2,232.9,95.2,230.7z"/>
<path class="st7" d="M265.1,130.1c-1.4,0.8-3.6,0.8-4.9,0c-1.4-0.8-1.4-2.1,0-2.8c1.4-0.8,3.6-0.8,4.9,0
	C266.5,128.1,266.5,129.4,265.1,130.1z"/>
<path class="st7" d="M246.4,116.5l9.6,5.5c1.2,0.7,1,1.9-0.3,2.6l0,0c-1.4,0.8-3.4,0.9-4.6,0.2l-9.6-5.5c-1.2-0.7-1-1.9,0.3-2.6l0,0
	C243.2,115.9,245.2,115.8,246.4,116.5z"/>
<path class="st7" d="M191.6,83.2l9.6,5.5c1.2,0.7,1,1.9-0.3,2.6l0,0c-1.4,0.8-3.4,0.9-4.6,0.2l-9.6-5.5c-1.2-0.7-1-1.9,0.3-2.6l0,0
	C188.4,82.6,190.4,82.5,191.6,83.2z"/>
<path class="st0" d="M265.1,126.7c-1.4,0.8-3.6,0.8-4.9,0c-1.4-0.8-1.4-2.1,0-2.8c1.4-0.8,3.6-0.8,4.9,0
	C266.5,124.6,266.5,125.9,265.1,126.7z"/>
<path class="st0" d="M246.4,113l9.6,5.5c1.2,0.7,1,1.9-0.3,2.6l0,0c-1.4,0.8-3.4,0.9-4.6,0.2l-9.6-5.5c-1.2-0.7-1-1.9,0.3-2.6l0,0
	C243.2,112.5,245.2,112.4,246.4,113z"/>
<path class="st0" d="M191.6,79.8l9.6,5.5c1.2,0.7,1,1.9-0.3,2.6l0,0c-1.4,0.8-3.4,0.9-4.6,0.2l-9.6-5.5c-1.2-0.7-1-1.9,0.3-2.6l0,0
	C188.4,79.2,190.4,79.1,191.6,79.8z"/>
<g class="st8">
	<linearGradient id="SVGID_4_" gradientUnits="userSpaceOnUse" x1="272.6508" y1="234.3898" x2="313.4606" y2="257.9513">
		<stop  offset="0" style="stop-color:#B4B1D4"/>
		<stop  offset="0.1898" style="stop-color:#A5A2CB"/>
		<stop  offset="0.5707" style="stop-color:#807EB4"/>
		<stop  offset="1" style="stop-color:#50589D"/>
	</linearGradient>
	<path class="st9" d="M319,247.8v-4.5l-1.2-0.7c-0.4,2.1-2.8,3.5-4.9,3.8l-14.2,8.3l-6.2,2.2l-19.7-10.2l0.5-0.3
		c-1.7-0.8-2.6-2.6-3.5-4.2l-1.3,0.8l-0.8,0.2v4.6l0,0c0,0.9,0.6,1.8,1.7,2.4l19.8,11.4c2.3,1.3,6.1,1.3,8.4,0l19.8-11.4
		c1.1-0.7,1.7-1.5,1.7-2.4C319,247.9,319,247.8,319,247.8L319,247.8z"/>
	<path class="st10" d="M312.8,246.4l-14.2,8.3l-5.4,1.9v6.1c1.5,0,3-0.3,4.2-1l19.8-11.4c1.1-0.7,1.7-1.5,1.7-2.4c0,0,0-0.1,0-0.1
		l0,0v-4.5l-1.1-0.6h-0.1C317.3,244.7,314.9,246.1,312.8,246.4z"/>
	<g>
		<linearGradient id="SVGID_5_" gradientUnits="userSpaceOnUse" x1="267.5337" y1="243.296" x2="318.9694" y2="243.296">
			<stop  offset="0" style="stop-color:#E8E7F3"/>
			<stop  offset="0.1126" style="stop-color:#DFDDEE"/>
			<stop  offset="0.4385" style="stop-color:#C9C6E1"/>
			<stop  offset="0.7423" style="stop-color:#BDB9D8"/>
			<stop  offset="1" style="stop-color:#B9B4D5"/>
		</linearGradient>
		<path class="st11" d="M289.1,257.1l-19.8-11.4c-2.3-1.3-2.3-3.5,0-4.9l19.8-11.4c2.3-1.3,6.1-1.3,8.4,0l19.8,11.4
			c2.3,1.3,2.3,3.5,0,4.9l-19.8,11.4C295.1,258.5,291.4,258.5,289.1,257.1z"/>
	</g>
	<g class="st8">
		<path class="st12" d="M289.1,257.1l-19.8-11.4c-2.3-1.3-2.3-3.5,0-4.9l19.8-11.4c2.3-1.3,6.1-1.3,8.4,0l19.8,11.4
			c2.3,1.3,2.3,3.5,0,4.9l-19.8,11.4C295.1,258.5,291.4,258.5,289.1,257.1z"/>
	</g>
</g>
<g>
	<g>
		<path class="st0" d="M293.3,242.7c-1.4,0-2.7-0.3-3.7-0.9l-19.8-11.4c-1-0.6-1.6-1.4-1.6-2.3c0-0.9,0.6-1.7,1.6-2.3l19.8-11.4
			c2.1-1.2,5.4-1.2,7.5,0l19.8,11.4c1,0.6,1.6,1.4,1.6,2.3c0,0.9-0.6,1.7-1.6,2.3L297,241.8C296,242.4,294.6,242.7,293.3,242.7z
			 M293.3,213.9c-1.3,0-2.6,0.3-3.6,0.8l-19.8,11.4c-0.9,0.5-1.4,1.2-1.4,2s0.5,1.4,1.4,2l19.8,11.4c2,1.1,5.1,1.1,7.1,0l19.8-11.4
			c0.9-0.5,1.4-1.2,1.4-2s-0.5-1.4-1.4-2l-19.8-11.4C295.8,214.2,294.5,213.9,293.3,213.9z"/>
		<g>
			<path class="st13" d="M319,223.8V217l-1.2-0.7c-0.4,2.1-2.8,3.5-4.9,3.8l-14.2,8.3l-6.2,2.2l-19.7-10.2l0.5-0.3
				c-1.7-0.8-2.6-2.6-3.5-4.2l-1.3,0.8l-0.8,0.2v6.9l0,0c0,0.9,0.6,1.8,1.7,2.4l19.8,11.4c2.3,1.3,6.1,1.3,8.4,0l19.8-11.4
				c1.1-0.7,1.7-1.5,1.7-2.4C319,223.8,319,223.8,319,223.8L319,223.8z"/>
			<g>
				<g>
					<linearGradient id="SVGID_6_" gradientUnits="userSpaceOnUse" x1="272.6508" y1="204.3515" x2="313.4606" y2="227.9131">
						<stop  offset="0" style="stop-color:#B4B1D4"/>
						<stop  offset="0.1898" style="stop-color:#A5A2CB"/>
						<stop  offset="0.5707" style="stop-color:#807EB4"/>
						<stop  offset="1" style="stop-color:#50589D"/>
					</linearGradient>
					<path class="st14" d="M319,217.7v-4.5l-1.2-0.7c-0.4,2.1-2.8,3.5-4.9,3.8l-14.2,8.3l-6.2,2.2l-19.7-10.2l0.5-0.3
						c-1.7-0.8-2.6-2.6-3.5-4.2l-1.3,0.8l-0.8,0.2v4.6l0,0c0,0.9,0.6,1.8,1.7,2.4l19.8,11.4c2.3,1.3,6.1,1.3,8.4,0l19.8-11.4
						c1.1-0.7,1.7-1.5,1.7-2.4C319,217.8,319,217.8,319,217.7L319,217.7z"/>
					<path class="st10" d="M312.8,216.4l-14.2,8.3l-5.4,1.9v6.1c1.5,0,3-0.3,4.2-1l19.8-11.4c1.1-0.7,1.7-1.5,1.7-2.4
						c0,0,0-0.1,0-0.1l0,0v-4.5l-1.1-0.6h-0.1C317.3,214.7,314.9,216.1,312.8,216.4z"/>
					<g>
						<linearGradient id="SVGID_7_" gradientUnits="userSpaceOnUse" x1="267.5337" y1="213.2577" x2="318.9694" y2="213.2577">
							<stop  offset="0" style="stop-color:#E8E7F3"/>
							<stop  offset="0.1126" style="stop-color:#DFDDEE"/>
							<stop  offset="0.4385" style="stop-color:#C9C6E1"/>
							<stop  offset="0.7423" style="stop-color:#BDB9D8"/>
							<stop  offset="1" style="stop-color:#B9B4D5"/>
						</linearGradient>
						<path class="st15" d="M289.1,227.1l-19.8-11.4c-2.3-1.3-2.3-3.5,0-4.9l19.8-11.4c2.3-1.3,6.1-1.3,8.4,0l19.8,11.4
							c2.3,1.3,2.3,3.5,0,4.9l-19.8,11.4C295.1,228.4,291.4,228.4,289.1,227.1z"/>
					</g>
					<g>
						<path class="st3" d="M317.2,215.7l-19.8,11.4c-2.3,1.3-6.1,1.3-8.4,0l-19.8-11.4c-1-0.6-1.6-1.4-1.7-2.1c-0.1,1,0.4,2,1.7,2.7
							l19.8,11.4c2.3,1.3,6.1,1.3,8.4,0l19.8-11.4c1.3-0.7,1.9-1.7,1.7-2.7C318.8,214.3,318.3,215.1,317.2,215.7z"/>
					</g>
				</g>
			</g>
		</g>
	</g>
</g>
<g class="st8">
	<linearGradient id="SVGID_8_" gradientUnits="userSpaceOnUse" x1="184.5819" y1="261.0419" x2="225.3917" y2="284.6034">
		<stop  offset="0" style="stop-color:#B4B1D4"/>
		<stop  offset="0.1898" style="stop-color:#A5A2CB"/>
		<stop  offset="0.5707" style="stop-color:#807EB4"/>
		<stop  offset="1" style="stop-color:#50589D"/>
	</linearGradient>
	<path class="st16" d="M230.9,274.4v-4.5l-1.2-0.7c-0.4,2.1-2.8,3.5-4.9,3.8l-14.2,8.3l-6.2,2.2l-19.7-10.2l0.5-0.3
		c-1.7-0.8-2.6-2.6-3.5-4.2l-1.3,0.8l-0.8,0.2v4.6v0c0,0.9,0.6,1.8,1.7,2.4l19.8,11.4c2.3,1.3,6.1,1.3,8.4,0l19.8-11.4
		c1.1-0.7,1.7-1.5,1.7-2.4C230.9,274.5,230.9,274.5,230.9,274.4L230.9,274.4z"/>
	<path class="st10" d="M224.7,273.1l-14.2,8.3l-5.4,1.9v6.1c1.5,0,3-0.3,4.2-1l19.8-11.4c1.1-0.7,1.7-1.5,1.7-2.4c0,0,0-0.1,0-0.1
		l0,0v-4.5l-1.1-0.6h-0.1C229.3,271.4,226.8,272.8,224.7,273.1z"/>
	<g>
		<linearGradient id="SVGID_9_" gradientUnits="userSpaceOnUse" x1="179.4648" y1="269.9481" x2="230.9004" y2="269.9481">
			<stop  offset="0" style="stop-color:#E8E7F3"/>
			<stop  offset="0.1126" style="stop-color:#DFDDEE"/>
			<stop  offset="0.4385" style="stop-color:#C9C6E1"/>
			<stop  offset="0.7423" style="stop-color:#BDB9D8"/>
			<stop  offset="1" style="stop-color:#B9B4D5"/>
		</linearGradient>
		<path class="st17" d="M201,283.8l-19.8-11.4c-2.3-1.3-2.3-3.5,0-4.9l19.8-11.4c2.3-1.3,6.1-1.3,8.4,0l19.8,11.4
			c2.3,1.3,2.3,3.5,0,4.9l-19.8,11.4C207.1,285.1,203.3,285.1,201,283.8z"/>
	</g>
	<g class="st8">
		<path class="st12" d="M201,283.8l-19.8-11.4c-2.3-1.3-2.3-3.5,0-4.9l19.8-11.4c2.3-1.3,6.1-1.3,8.4,0l19.8,11.4
			c2.3,1.3,2.3,3.5,0,4.9l-19.8,11.4C207.1,285.1,203.3,285.1,201,283.8z"/>
	</g>
</g>
<path class="st13" d="M205.2,287.4c-12.1,0-24.1-2.7-33.3-8c-8.9-5.2-13.8-12-13.8-19.3c0-7.3,4.9-14.2,13.8-19.3
	c18.4-10.6,48.3-10.6,66.6,0c8.9,5.2,13.8,12,13.8,19.3c0,7.3-4.9,14.2-13.8,19.3C229.3,284.8,217.2,287.4,205.2,287.4z
	 M205.2,233.2c-12,0-24,2.6-33.1,7.9c-8.8,5.1-13.7,11.8-13.7,19c0,7.2,4.9,13.9,13.7,19c18.3,10.6,48,10.6,66.3,0l0.1,0.2l-0.1-0.2
	c8.8-5.1,13.7-11.8,13.7-19c0-7.2-4.9-13.9-13.7-19C229.2,235.9,217.2,233.2,205.2,233.2z"/>
<path class="st18" d="M205.2,294.8c-15.3,0-30.6-3.4-42.3-10.1c-11.3-6.5-17.6-15.2-17.6-24.5c0-9.3,6.2-18,17.6-24.5
	c23.3-13.5,61.2-13.5,84.5,0c11.3,6.5,17.6,15.2,17.6,24.5c0,9.3-6.2,18-17.6,24.5l0,0C235.8,291.4,220.5,294.8,205.2,294.8z
	 M205.2,225.9c-15.2,0-30.5,3.3-42.1,10.1c-11.2,6.5-17.4,15.1-17.4,24.2c0,9.1,6.2,17.7,17.4,24.2c23.2,13.4,61,13.4,84.2,0
	c11.2-6.5,17.4-15.1,17.4-24.2c0-9.1-6.2-17.7-17.4-24.2C235.7,229.3,220.4,225.9,205.2,225.9z"/>
<path class="st0" d="M205.2,281.7c-9.5,0-19-2.1-26.3-6.3c-7-4.1-10.9-9.5-10.9-15.3c0-5.8,3.9-11.2,10.9-15.3
	c14.5-8.4,38-8.4,52.5,0c7,4.1,10.9,9.5,10.9,15.3c0,5.8-3.9,11.2-10.9,15.3l0,0C224.2,279.6,214.7,281.7,205.2,281.7z M205.2,239
	c-9.4,0-18.9,2.1-26.1,6.2c-6.9,4-10.8,9.3-10.8,15c0,5.6,3.8,11,10.8,15c14.4,8.3,37.8,8.3,52.2,0l0,0c6.9-4,10.8-9.3,10.8-15
	c0-5.6-3.8-11-10.8-15C224.1,241.1,214.6,239,205.2,239z"/>
<g>
	<g>
		<path class="st0" d="M205.2,267.2c-1.4,0-2.7-0.3-3.7-0.9l-19.8-11.4c-1-0.6-1.6-1.4-1.6-2.3c0-0.9,0.6-1.7,1.6-2.3l19.8-11.4
			c2.1-1.2,5.4-1.2,7.5,0l19.8,11.4c1,0.6,1.6,1.4,1.6,2.3c0,0.9-0.6,1.7-1.6,2.3l-19.8,11.4C207.9,266.9,206.5,267.2,205.2,267.2z
			 M201.6,266c2,1.1,5.1,1.1,7.1,0l19.8-11.4c0.9-0.5,1.4-1.2,1.4-2c0-0.7-0.5-1.4-1.4-2l-19.8-11.4c-2-1.1-5.1-1.1-7.1,0
			l-19.8,11.4c-0.9,0.5-1.4,1.2-1.4,2c0,0.7,0.5,1.4,1.4,2L201.6,266z"/>
		<g>
			<path class="st13" d="M230.9,248.2v-6.8l-1.2-0.7c-0.4,2.1-2.8,3.5-4.9,3.8l-14.2,8.3l-6.2,2.2l-19.7-10.2l0.5-0.3
				c-1.7-0.8-2.6-2.6-3.5-4.2l-1.3,0.8l-0.8,0.2v6.9l0,0c0,0.9,0.6,1.8,1.7,2.4l19.8,11.4c2.3,1.3,6.1,1.3,8.4,0l19.8-11.4
				c1.1-0.7,1.7-1.5,1.7-2.4C230.9,248.3,230.9,248.3,230.9,248.2L230.9,248.2z"/>
			<g>
				<g>
					<linearGradient id="SVGID_10_" gradientUnits="userSpaceOnUse" x1="184.5819" y1="228.8237" x2="225.3917" y2="252.3852">
						<stop  offset="0" style="stop-color:#B4B1D4"/>
						<stop  offset="0.1898" style="stop-color:#A5A2CB"/>
						<stop  offset="0.5707" style="stop-color:#807EB4"/>
						<stop  offset="1" style="stop-color:#50589D"/>
					</linearGradient>
					<path class="st19" d="M230.9,242.2v-4.5l-1.2-0.7c-0.4,2.1-2.8,3.5-4.9,3.8l-14.2,8.3l-6.2,2.2l-19.7-10.2l0.5-0.3
						c-1.7-0.8-2.6-2.6-3.5-4.2l-1.3,0.8l-0.8,0.2v4.6l0,0c0,0.9,0.6,1.8,1.7,2.4l19.8,11.4c2.3,1.3,6.1,1.3,8.4,0l19.8-11.4
						c1.1-0.7,1.7-1.5,1.7-2.4C230.9,242.3,230.9,242.2,230.9,242.2L230.9,242.2z"/>
					<path class="st10" d="M224.7,240.8l-14.2,8.3l-5.4,1.9v6.1c1.5,0,3-0.3,4.2-1l19.8-11.4c1.1-0.7,1.7-1.5,1.7-2.4
						c0,0,0-0.1,0-0.1l0,0v-4.5l-1.1-0.6h-0.1C229.3,239.2,226.8,240.6,224.7,240.8z"/>
					<g>
						<linearGradient id="SVGID_11_" gradientUnits="userSpaceOnUse" x1="179.4648" y1="237.7298" x2="230.9005" y2="237.7298">
							<stop  offset="0" style="stop-color:#E8E7F3"/>
							<stop  offset="0.1126" style="stop-color:#DFDDEE"/>
							<stop  offset="0.4385" style="stop-color:#C9C6E1"/>
							<stop  offset="0.7423" style="stop-color:#BDB9D8"/>
							<stop  offset="1" style="stop-color:#B9B4D5"/>
						</linearGradient>
						<path class="st20" d="M201,251.6l-19.8-11.4c-2.3-1.3-2.3-3.5,0-4.9l19.8-11.4c2.3-1.3,6.1-1.3,8.4,0l19.8,11.4
							c2.3,1.3,2.3,3.5,0,4.9l-19.8,11.4C207.1,252.9,203.3,252.9,201,251.6z"/>
					</g>
					<g>
						<path class="st21" d="M205.2,249.5c-1.2,0-2.4-0.3-3.4-0.8l-15.5-8.9c-0.9-0.5-1.4-1.3-1.4-2c0-0.8,0.5-1.5,1.4-2l15.5-8.9
							c1.9-1.1,4.9-1.1,6.7,0l15.5,8.9c0.9,0.5,1.4,1.3,1.4,2c0,0.8-0.5,1.5-1.4,2l-15.5,8.9C207.6,249.2,206.4,249.5,205.2,249.5z
							 M205.2,226.3c-1.2,0-2.3,0.3-3.2,0.8l-15.5,8.9c-0.8,0.5-1.3,1.1-1.3,1.7c0,0.7,0.5,1.3,1.3,1.7l15.5,8.9c1.8,1,4.6,1,6.4,0
							l15.5-8.9c0.8-0.5,1.3-1.1,1.3-1.7c0-0.7-0.5-1.3-1.3-1.7l-15.5-8.9C207.5,226.6,206.3,226.3,205.2,226.3z"/>
					</g>
					<g>
						<path class="st3" d="M229.2,240.2l-19.8,11.4c-2.3,1.3-6.1,1.3-8.4,0l-19.8-11.4c-1-0.6-1.6-1.4-1.7-2.1c-0.1,1,0.4,2,1.7,2.7
							l19.8,11.4c2.3,1.3,6.1,1.3,8.4,0l19.8-11.4c1.3-0.7,1.9-1.7,1.7-2.7C230.8,238.8,230.2,239.6,229.2,240.2z"/>
					</g>
				</g>
			</g>
		</g>
	</g>
</g>
<g class="st8">
	<linearGradient id="SVGID_12_" gradientUnits="userSpaceOnUse" x1="15.4148" y1="102.0569" x2="56.2246" y2="125.6184">
		<stop  offset="0" style="stop-color:#B4B1D4"/>
		<stop  offset="0.1898" style="stop-color:#A5A2CB"/>
		<stop  offset="0.5707" style="stop-color:#807EB4"/>
		<stop  offset="1" style="stop-color:#50589D"/>
	</linearGradient>
	<path class="st22" d="M61.7,115.4V111l-1.2-0.7c-0.4,2.1-2.8,3.5-4.9,3.8l-14.2,8.3l-6.2,2.2l-19.7-10.2l0.5-0.3
		c-1.7-0.8-2.6-2.6-3.5-4.2l-1.3,0.8l-0.8,0.2v4.6v0c0,0.9,0.6,1.8,1.7,2.4l19.8,11.4c2.3,1.3,6.1,1.3,8.4,0L60,117.9
		c1.1-0.7,1.7-1.5,1.7-2.4C61.7,115.5,61.7,115.5,61.7,115.4L61.7,115.4z"/>
	<path class="st10" d="M55.6,114.1l-14.2,8.3l-5.4,1.9v6.1c1.5,0,3-0.3,4.2-1L60,117.9c1.1-0.7,1.7-1.5,1.7-2.4c0,0,0-0.1,0-0.1l0,0
		V111l-1.1-0.6h-0.1C60.1,112.4,57.6,113.8,55.6,114.1z"/>
	<g>
		<linearGradient id="SVGID_13_" gradientUnits="userSpaceOnUse" x1="10.2977" y1="110.963" x2="61.7333" y2="110.963">
			<stop  offset="0" style="stop-color:#E8E7F3"/>
			<stop  offset="0.1126" style="stop-color:#DFDDEE"/>
			<stop  offset="0.4385" style="stop-color:#C9C6E1"/>
			<stop  offset="0.7423" style="stop-color:#BDB9D8"/>
			<stop  offset="1" style="stop-color:#B9B4D5"/>
		</linearGradient>
		<path class="st23" d="M31.8,124.8L12,113.4c-2.3-1.3-2.3-3.5,0-4.9l19.8-11.4c2.3-1.3,6.1-1.3,8.4,0L60,108.5
			c2.3,1.3,2.3,3.5,0,4.8l-19.8,11.4C37.9,126.1,34.1,126.1,31.8,124.8z"/>
	</g>
	<g class="st8">
		<path class="st12" d="M31.8,124.8L12,113.4c-2.3-1.3-2.3-3.5,0-4.9l19.8-11.4c2.3-1.3,6.1-1.3,8.4,0L60,108.5
			c2.3,1.3,2.3,3.5,0,4.8l-19.8,11.4C37.9,126.1,34.1,126.1,31.8,124.8z"/>
	</g>
</g>
<g>
	<g>
		<path class="st0" d="M36,110.4c-1.4,0-2.7-0.3-3.7-0.9L12.5,98.1c-1-0.6-1.6-1.4-1.6-2.3c0-0.9,0.6-1.7,1.6-2.3l19.8-11.4
			c2.1-1.2,5.4-1.2,7.5,0l19.8,11.4c1,0.6,1.6,1.4,1.6,2.3c0,0.9-0.6,1.7-1.6,2.3l-19.8,11.4C38.7,110.1,37.4,110.4,36,110.4z
			 M32.5,109.2c2,1.1,5.1,1.1,7.1,0l19.8-11.4c0.9-0.5,1.4-1.2,1.4-2c0-0.7-0.5-1.4-1.4-2L39.6,82.5c-2-1.1-5.1-1.1-7.1,0L12.7,93.9
			c-0.9,0.5-1.4,1.2-1.4,2c0,0.7,0.5,1.4,1.4,2L32.5,109.2z"/>
		<g>
			<path class="st13" d="M61.7,91.5v-6.8L60.5,84c-0.4,2.1-2.8,3.5-4.9,3.8l-14.2,8.3l-6.2,2.2L15.5,88.1l0.5-0.3
				c-1.7-0.8-2.6-2.6-3.5-4.2l-1.3,0.8l-0.8,0.2v6.9v0c0,0.9,0.6,1.8,1.7,2.4l19.8,11.4c2.3,1.3,6.1,1.3,8.4,0L60,94
				c1.1-0.7,1.7-1.5,1.7-2.4C61.7,91.5,61.7,91.5,61.7,91.5L61.7,91.5z"/>
			<g>
				<g>
					<linearGradient id="SVGID_14_" gradientUnits="userSpaceOnUse" x1="15.4148" y1="72.0569" x2="56.2246" y2="95.6184">
						<stop  offset="0" style="stop-color:#B4B1D4"/>
						<stop  offset="0.1898" style="stop-color:#A5A2CB"/>
						<stop  offset="0.5707" style="stop-color:#807EB4"/>
						<stop  offset="1" style="stop-color:#50589D"/>
					</linearGradient>
					<path class="st24" d="M61.7,85.4V81l-1.2-0.7c-0.4,2.1-2.8,3.5-4.9,3.8l-14.2,8.3l-6.2,2.2L15.5,84.4l0.5-0.3
						c-1.7-0.8-2.6-2.6-3.5-4.2l-1.3,0.8l-0.8,0.2v4.6v0c0,0.9,0.6,1.8,1.7,2.4l19.8,11.4c2.3,1.3,6.1,1.3,8.4,0L60,87.9
						c1.1-0.7,1.7-1.5,1.7-2.4C61.7,85.5,61.7,85.5,61.7,85.4L61.7,85.4z"/>
					<path class="st10" d="M55.6,84.1l-14.2,8.3L36,94.3v6.1c1.5,0,3-0.3,4.2-1L60,87.9c1.1-0.7,1.7-1.5,1.7-2.4c0,0,0-0.1,0-0.1
						l0,0V81l-1.1-0.6h-0.1C60.1,82.4,57.6,83.8,55.6,84.1z"/>
					<g>
						<linearGradient id="SVGID_15_" gradientUnits="userSpaceOnUse" x1="10.2977" y1="80.963" x2="61.7333" y2="80.963">
							<stop  offset="0" style="stop-color:#E8E7F3"/>
							<stop  offset="0.1126" style="stop-color:#DFDDEE"/>
							<stop  offset="0.4385" style="stop-color:#C9C6E1"/>
							<stop  offset="0.7423" style="stop-color:#BDB9D8"/>
							<stop  offset="1" style="stop-color:#B9B4D5"/>
						</linearGradient>
						<path class="st25" d="M31.8,94.8L12,83.4c-2.3-1.3-2.3-3.5,0-4.9l19.8-11.4c2.3-1.3,6.1-1.3,8.4,0L60,78.5
							c2.3,1.3,2.3,3.5,0,4.8L40.2,94.8C37.9,96.1,34.1,96.1,31.8,94.8z"/>
					</g>
					<g>
						<path class="st21" d="M36,92.7c-1.2,0-2.4-0.3-3.4-0.8L17.2,83c-0.9-0.5-1.4-1.3-1.4-2c0-0.8,0.5-1.5,1.4-2L32.6,70
							c1.9-1.1,4.9-1.1,6.7,0l15.5,8.9c0.9,0.5,1.4,1.3,1.4,2c0,0.8-0.5,1.5-1.4,2l-15.5,8.9C38.5,92.5,37.2,92.7,36,92.7z
							 M32.8,91.6c1.8,1,4.6,1,6.4,0l15.5-8.9c0.8-0.5,1.3-1.1,1.3-1.7c0-0.7-0.5-1.3-1.3-1.7l-15.5-8.9c-1.8-1-4.6-1-6.4,0
							l-15.5,8.9c-0.8,0.5-1.3,1.1-1.3,1.7c0,0.7,0.5,1.3,1.3,1.7L32.8,91.6z"/>
					</g>
					<g>
						<path class="st3" d="M60,83.4L40.2,94.8c-2.3,1.3-6.1,1.3-8.4,0L12,83.4c-1-0.6-1.6-1.4-1.7-2.1c-0.1,1,0.4,2,1.7,2.7
							l19.8,11.4c2.3,1.3,6.1,1.3,8.4,0L60,83.9c1.3-0.7,1.9-1.7,1.7-2.7C61.6,82,61,82.8,60,83.4z"/>
					</g>
				</g>
			</g>
		</g>
	</g>
</g>
<path class="st7" d="M136.3,159.1c-18.6-10.7-48.8-10.7-67.4,0c-18.6,10.7-18.6,28.2,0,38.9c18.6,10.7,48.8,10.7,67.4,0
	C154.9,187.2,154.9,169.8,136.3,159.1z M122.8,190.1c-11.1,6.4-29.1,6.4-40.2,0c-11.1-6.4-11.1-16.8,0-23.2s29.1-6.4,40.2,0
	C133.9,173.3,133.9,183.7,122.8,190.1z"/>
<g>
	<g>
		<g>
			<g>
				<path class="st21" d="M83.5,152.1c10.4-6,27.2-6,37.6,0c1.7,1,3.1,2,4.2,3.2c5.9-5.9,4.5-13.5-4.2-18.5c-10.4-6-27.2-6-37.6,0
					c-8.7,5-10.1,12.7-4.2,18.5C80.4,154.2,81.8,153.1,83.5,152.1z"/>
				<linearGradient id="SVGID_16_" gradientUnits="userSpaceOnUse" x1="55.2065" y1="163.1566" x2="149.3833" y2="163.1566">
					<stop  offset="0" style="stop-color:#B4B1D4"/>
					<stop  offset="2.881008e-02" style="stop-color:#AFACD1"/>
					<stop  offset="0.2452" style="stop-color:#8C8ABC"/>
					<stop  offset="0.4556" style="stop-color:#7373AD"/>
					<stop  offset="0.656" style="stop-color:#6164A4"/>
					<stop  offset="0.8421" style="stop-color:#555B9E"/>
					<stop  offset="1" style="stop-color:#50589D"/>
				</linearGradient>
				<path class="st26" d="M142.4,147.7c-1.9-1.8-4.2-3.4-6.8-5c-4.1-2.4-8.9-4.2-13.9-5.6c9.7,6.1,9.4,15.7-0.9,21.6
					c-10.6,6.1-27.8,6.1-38.3,0c-9.9-5.7-10.5-14.8-1.9-21c-4.2,1.3-8.1,2.9-11.6,4.9c-2.7,1.5-4.9,3.2-6.8,5h-7V162l0,0
					c0,7,4.6,13.9,13.8,19.2c18.4,10.6,48.2,10.6,66.6,0c9.2-5.3,13.8-12.3,13.8-19.2v-14.3H142.4z"/>
				<path class="st10" d="M135.6,142.7c-4.1-2.4-8.9-4.2-13.9-5.6c9.7,6.1,9.4,15.7-0.9,21.6c-5.1,3-11.8,4.5-18.5,4.6v25.8
					c12.1,0,24.1-2.7,33.3-8c9.2-5.3,13.8-12.3,13.8-19.2v-14.3h-7C140.5,145.9,138.2,144.3,135.6,142.7z"/>
				<radialGradient id="SVGID_17_" cx="147.0059" cy="177.5363" r="54.7289" gradientUnits="userSpaceOnUse">
					<stop  offset="0" style="stop-color:#54A8B1"/>
					<stop  offset="0.1055" style="stop-color:#4A94A0"/>
					<stop  offset="0.2922" style="stop-color:#3A6F83"/>
					<stop  offset="0.4704" style="stop-color:#2D546F"/>
					<stop  offset="0.6351" style="stop-color:#234160"/>
					<stop  offset="0.7833" style="stop-color:#1C3055"/>
					<stop  offset="0.9099" style="stop-color:#17224E"/>
					<stop  offset="1" style="stop-color:#151B4A"/>
				</radialGradient>
				<path class="st27" d="M135.6,142.7c-4.1-2.4-8.9-4.2-13.9-5.6c9.7,6.1,9.4,15.7-0.9,21.6c-5.1,3-11.8,4.5-18.5,4.6v25.8
					c12.1,0,24.1-2.7,33.3-8c9.2-5.3,13.8-12.3,13.8-19.2v-14.3h-7C140.5,145.9,138.2,144.3,135.6,142.7z"/>
				<linearGradient id="SVGID_18_" gradientUnits="userSpaceOnUse" x1="55.2065" y1="148.8753" x2="149.3832" y2="148.8753">
					<stop  offset="0" style="stop-color:#B9B4D5"/>
					<stop  offset="0.2577" style="stop-color:#BDB9D8"/>
					<stop  offset="0.5615" style="stop-color:#C9C6E1"/>
					<stop  offset="0.8874" style="stop-color:#DFDDEE"/>
					<stop  offset="1" style="stop-color:#E8E7F3"/>
				</linearGradient>
				<path class="st28" d="M135.6,129.7c-18.4-10.6-48.2-10.6-66.6,0c-18.4,10.6-18.4,27.8,0,38.4c18.4,10.6,48.2,10.6,66.6,0
					C154,157.5,154,140.3,135.6,129.7z M121.1,159.9c-10.6,6.1-27.8,6.1-38.3,0s-10.6-16,0-22.1c10.6-6.1,27.8-6.1,38.3,0
					S131.7,153.8,121.1,159.9z"/>
				<g>
					<path class="st3" d="M135.6,166.6c-18.4,10.6-48.2,10.6-66.6,0c-8.9-5.1-13.5-11.8-13.8-18.5c-0.3,7.2,4.3,14.5,13.8,20
						c18.4,10.6,48.2,10.6,66.6,0c9.5-5.5,14.1-12.8,13.8-20C149.1,154.9,144.5,161.5,135.6,166.6z"/>
					<path class="st3" d="M121.1,136.3c-10.6-6.1-27.8-6.1-38.3,0c-5.6,3.2-8.3,7.6-7.9,11.8c0.3-3.8,2.9-7.5,7.9-10.3
						c10.6-6.1,27.8-6.1,38.3,0c5,2.9,7.6,6.6,7.9,10.3C129.4,143.9,126.7,139.6,121.1,136.3z"/>
				</g>
				<linearGradient id="SVGID_19_" gradientUnits="userSpaceOnUse" x1="58.6285" y1="147.534" x2="146.2966" y2="147.534">
					<stop  offset="0" style="stop-color:#B9B4D5"/>
					<stop  offset="0.2577" style="stop-color:#BDB9D8"/>
					<stop  offset="0.5615" style="stop-color:#C9C6E1"/>
					<stop  offset="0.8874" style="stop-color:#DFDDEE"/>
					<stop  offset="1" style="stop-color:#E8E7F3"/>
				</linearGradient>
				<path class="st29" d="M133.5,129.6c-17.1-9.9-44.9-9.9-62,0s-17.1,25.9,0,35.8c17.1,9.9,44.9,9.9,62,0
					C150.6,155.5,150.6,139.5,133.5,129.6z M121,158.2c-10.2,5.9-26.8,5.9-37,0s-10.2-15.5,0-21.4c10.2-5.9,26.8-5.9,37,0
					C131.2,142.7,131.2,152.3,121,158.2z"/>
			</g>
		</g>
		<path class="st13" d="M121,158.2c-10.2,5.9-26.8,5.9-37,0s-10.2-15.5,0-21.4c10.2-5.9,26.8-5.9,37,0
			C131.2,142.7,131.2,152.3,121,158.2z"/>
		<linearGradient id="SVGID_20_" gradientUnits="userSpaceOnUse" x1="102.4596" y1="10.7186" x2="102.4596" y2="162.6499">
			<stop  offset="0" style="stop-color:#151B4A"/>
			<stop  offset="0.1464" style="stop-color:#161F4C"/>
			<stop  offset="0.2747" style="stop-color:#192951"/>
			<stop  offset="0.3964" style="stop-color:#1D3457"/>
			<stop  offset="0.5139" style="stop-color:#234261"/>
			<stop  offset="0.6285" style="stop-color:#2B516C"/>
			<stop  offset="0.7409" style="stop-color:#35647B"/>
			<stop  offset="0.8515" style="stop-color:#417E8F"/>
			<stop  offset="0.9579" style="stop-color:#4F9DA8"/>
			<stop  offset="1" style="stop-color:#54A8B1"/>
		</linearGradient>
		<path class="st30" d="M128.6,147.2L128.6,147.2l0-136.5H76.3v136.7h0c0,3.9,2.5,7.8,7.7,10.8c10.2,5.9,26.8,5.9,37,0
			C126.2,155.2,128.8,151.2,128.6,147.2z"/>
	</g>
	<g>
		<circle class="st13" cx="120.2" cy="92.6" r="1.6"/>
		<circle class="st13" cx="92.9" cy="21" r="1.6"/>
		<circle class="st13" cx="95.2" cy="74.5" r="2.3"/>
		<circle class="st31" cx="91.6" cy="113.9" r="1.6"/>
		<circle class="st31" cx="114" cy="47.9" r="2.5"/>
		<circle class="st31" cx="112.9" cy="56" r="1.7"/>
	</g>
	<g class="st32">
		<g>
			<defs>
				<path id="SVGID_21_" d="M132.1,111.1l0.3-0.1l0,0c0.1-0.1,0.3,0,0.3,0.1c0.1,0.1,0,0.3-0.1,0.3l-0.3,0.1L132.1,111.1z"/>
			</defs>
			<clipPath id="SVGID_22_">
				<use xlink:href="#SVGID_21_"  style="overflow:visible;"/>
			</clipPath>
			<g style="clip-path:url(#SVGID_22_);">
				
					<image style="overflow:visible;" width="10" height="6" xlink:href="471F332A2CA095FB.png"  transform="matrix(0.24 0 0 0.24 131.4048 110.5452)">
				</image>
			</g>
		</g>
		
			<image style="overflow:visible;" width="395" height="230" xlink:href="471F332A2CA095F9.png"  transform="matrix(0.24 0 0 0.24 55.0848 62.7852)">
		</image>
		<g>
			<defs>
				<path id="SVGID_23_" d="M136.2,109.5l-0.3,0.2c-0.1,0.1-0.3,0-0.3-0.1c-0.1-0.1,0-0.3,0.1-0.3l0,0l0.3-0.2L136.2,109.5z"/>
			</defs>
			<clipPath id="SVGID_24_">
				<use xlink:href="#SVGID_23_"  style="overflow:visible;"/>
			</clipPath>
			<g style="clip-path:url(#SVGID_24_);">
				
					<image style="overflow:visible;" width="9" height="8" xlink:href="471F332A2CA095FF.png"  transform="matrix(0.24 0 0 0.24 134.7648 108.6252)">
				</image>
			</g>
		</g>
	</g>
	<g class="st32">
		<g>
			<defs>
				<path id="SVGID_25_" d="M69,46.3l0.3,0.2l0,0c0.1,0.1,0.2,0.2,0.1,0.3c-0.1,0.1-0.2,0.2-0.3,0.1l-0.3-0.2L69,46.3z"/>
			</defs>
			<clipPath id="SVGID_26_">
				<use xlink:href="#SVGID_25_"  style="overflow:visible;"/>
			</clipPath>
			<g style="clip-path:url(#SVGID_26_);">
				
					<image style="overflow:visible;" width="9" height="8" xlink:href="471F332A2CA095F8.png"  transform="matrix(0.24 0 0 0.24 68.0448 45.7452)">
				</image>
			</g>
		</g>
		
			<image style="overflow:visible;" width="395" height="196" xlink:href="471F332A2CA095F6.png"  transform="matrix(0.24 0 0 0.24 55.0848 -9.476250e-02)">
		</image>
		<g>
			<defs>
				<path id="SVGID_27_" d="M136.2,46.7l-0.3,0.2c-0.1,0.1-0.3,0-0.3-0.1c-0.1-0.1,0-0.3,0.1-0.3l0,0l0.3-0.2L136.2,46.7z"/>
			</defs>
			<clipPath id="SVGID_28_">
				<use xlink:href="#SVGID_27_"  style="overflow:visible;"/>
			</clipPath>
			<g style="clip-path:url(#SVGID_28_);">
				
					<image style="overflow:visible;" width="9" height="8" xlink:href="471F332A2CA095F7.png"  transform="matrix(0.24 0 0 0.24 134.7648 45.7452)">
				</image>
			</g>
		</g>
	</g>
	<g class="st32">
		<g>
			<defs>
				<path id="SVGID_29_" d="M132.1,48.3l0.3-0.1l0,0c0.1-0.1,0.3,0,0.3,0.1c0.1,0.1,0,0.3-0.1,0.3l-0.3,0.1L132.1,48.3z"/>
			</defs>
			<clipPath id="SVGID_30_">
				<use xlink:href="#SVGID_29_"  style="overflow:visible;"/>
			</clipPath>
			<g style="clip-path:url(#SVGID_30_);">
				
					<image style="overflow:visible;" width="10" height="6" xlink:href="471F332A2CA09607.png"  transform="matrix(0.24 0 0 0.24 131.4048 47.6652)">
				</image>
			</g>
		</g>
		
			<image style="overflow:visible;" width="138" height="30" xlink:href="471F332A2CA09609.png"  transform="matrix(0.24 0 0 0.24 99.7248 47.9052)">
		</image>
		<g>
			<defs>
				<path id="SVGID_31_" d="M100.1,54.8l-0.3,0c-0.1,0-0.2-0.1-0.2-0.3c0-0.1,0.1-0.2,0.3-0.2l0,0l0.3,0L100.1,54.8z"/>
			</defs>
			<clipPath id="SVGID_32_">
				<use xlink:href="#SVGID_31_"  style="overflow:visible;"/>
			</clipPath>
			<g style="clip-path:url(#SVGID_32_);">
				
					<image style="overflow:visible;" width="10" height="4" xlink:href="471F332A2CA0960B.png"  transform="matrix(0.24 0 0 0.24 98.5248 54.1452)">
				</image>
			</g>
		</g>
	</g>
	<g class="st32">
		<g>
			<defs>
				<path id="SVGID_33_" d="M135.3,80.8l0.3-0.2l0,0c0.1-0.1,0.3,0,0.3,0.1c0.1,0.1,0,0.3-0.1,0.3l-0.3,0.2L135.3,80.8z"/>
			</defs>
			<clipPath id="SVGID_34_">
				<use xlink:href="#SVGID_33_"  style="overflow:visible;"/>
			</clipPath>
			<g style="clip-path:url(#SVGID_34_);">
				
					<image style="overflow:visible;" width="10" height="7" xlink:href="478265187335AD58.png"  transform="matrix(0.24 0 0 0.24 134.5248 80.0652)">
				</image>
			</g>
		</g>
		
			<image style="overflow:visible;" width="338" height="197" xlink:href="478265187335AD5F.png"  transform="matrix(0.24 0 0 0.24 55.0848 42.1452)">
		</image>
		<g>
			<defs>
				<path id="SVGID_35_" d="M68.8,42.3l0.3-0.2c0.1-0.1,0.3,0,0.3,0.1c0.1,0.1,0,0.3-0.1,0.3l0,0L69,42.8L68.8,42.3z"/>
			</defs>
			<clipPath id="SVGID_36_">
				<use xlink:href="#SVGID_35_"  style="overflow:visible;"/>
			</clipPath>
			<g style="clip-path:url(#SVGID_36_);">
				
					<image style="overflow:visible;" width="9" height="9" xlink:href="478265187335AD59.png"  transform="matrix(0.24 0 0 0.24 68.0448 41.4252)">
				</image>
			</g>
		</g>
	</g>
	<circle class="st31" cx="135.7" cy="109.5" r="2.5"/>
	<circle class="st31" cx="137.5" cy="102.5" r="1.9"/>
	<circle class="st31" cx="142.8" cy="101.7" r="1.2"/>
	
		<ellipse transform="matrix(0.5547 -0.8321 0.8321 0.5547 -17.1216 167.7902)" class="st31" cx="148.2" cy="99.9" rx="0.8" ry="0.8"/>
	
		<ellipse transform="matrix(0.5547 -0.8321 0.8321 0.5547 -13.5251 168.133)" class="st31" cx="150.3" cy="96.7" rx="1.1" ry="1.1"/>
	<ellipse transform="matrix(0.5547 -0.8321 0.8321 0.5547 -12.647 165.215)" class="st31" cx="148" cy="94.4" rx="1.3" ry="1.3"/>
	<circle class="st31" cx="69.1" cy="42.4" r="2.5"/>
	<circle class="st31" cx="61.4" cy="42.9" r="1.7"/>
	<circle class="st31" cx="62.6" cy="47.9" r="1.5"/>
	<circle class="st31" cx="61.3" cy="51.5" r="1"/>
	<ellipse transform="matrix(0.2701 -0.9628 0.9628 0.2701 -8.9093 92.6945)" class="st31" cx="56.7" cy="52.2" rx="0.7" ry="0.7"/>
	<circle class="st31" cx="135.7" cy="46.6" r="2.5"/>
	<circle class="st31" cx="138.2" cy="39.9" r="1.8"/>
	<circle class="st31" cx="143.3" cy="37.6" r="1.3"/>
	<circle class="st31" cx="147.4" cy="38" r="0.9"/>
	<circle class="st31" cx="149.5" cy="35.3" r="0.5"/>
</g>
<g>
	<path class="st0" d="M180.7,145.3l0-0.4c8.8-0.9,17.6-3.8,24.7-8.1c7.8-4.7,12.4-9.4,13.7-13.8l0.4,0.1c-1.4,4.5-6,9.3-13.9,14
		C198.4,141.5,189.5,144.4,180.7,145.3z"/>
	<path class="st0" d="M219.4,119.9c-0.2-3.6-2.9-6.9-7.7-9.5c-10.5-5.7-23.9-5.4-37.8,0.9l-0.2-0.4c14.1-6.4,27.6-6.7,38.2-0.9
		c4.9,2.7,7.6,6.1,7.9,9.8L219.4,119.9z"/>
	<path class="st0" d="M171.8,145.5c-4.8-0.3-9.1-1.5-12.4-3.2c-3.5-1.9-5.8-4.6-6.5-7.7c-0.1-0.3,0-0.7,0.3-1
		c0.5-0.6,1.5-0.9,2.5-0.9c1.2,0,2.1,0.5,2.4,1.2c0.7,2.3,2.5,4.3,5.2,5.8c9.3,5.1,26.9,3.1,39.2-4.4c8-4.9,12.2-9.8,12.1-14.2
		c-0.1-3.2-2.3-6.1-6.6-8.4c-10.7-5.9-25-4.3-39.2,4.4c-5.2,3.1-8.8,6.9-10.3,10.7c-0.2,0.6-1.1,1.1-2.1,1.1c-1,0-1.9-0.3-2.3-0.8
		c-0.2-0.3-0.2-0.6-0.1-0.9c2-4.2,6.1-8.4,11.9-11.9l0.2,0.3c-5.7,3.5-9.8,7.5-11.7,11.7c-0.1,0.2-0.1,0.4,0,0.6
		c0.3,0.4,1.1,0.7,2,0.7c0.9,0,1.6-0.4,1.8-0.9c1.5-3.8,5.3-7.7,10.5-10.9c14.3-8.7,28.8-10.3,39.6-4.4c4.4,2.4,6.7,5.4,6.8,8.7
		c0.1,4.6-4.1,9.6-12.3,14.6c-12.5,7.6-30.2,9.5-39.6,4.4c-2.8-1.5-4.7-3.6-5.4-6c-0.2-0.5-1-0.9-2-0.9c-0.9,0-1.8,0.3-2.2,0.7
		c-0.2,0.2-0.2,0.4-0.2,0.6c0.7,3,2.8,5.6,6.3,7.5c3.2,1.7,7.4,2.9,12.2,3.2L171.8,145.5z"/>
	<path class="st0" d="M186.2,139.1c-0.8,0-1.6-0.3-2-0.7c-0.3-0.3-0.4-0.6-0.3-1c0.2-0.5,0.7-0.9,1.5-1.1c4-0.9,7.8-2.4,11.1-4.4
		c5.4-3.3,8.4-6.6,8.8-9.4c0.2-1.5-0.4-2.9-1.6-4.1c-0.3-0.3-0.4-0.7-0.3-1c0.1-0.5,0.6-0.9,1.2-1.2c1.2-0.5,2.9-0.2,3.6,0.5
		c1.5,1.6,2.3,3.3,2.2,5.2c-0.2,2.8-2.1,5.7-5.8,8.7l-0.2-0.3c3.6-2.9,5.5-5.8,5.7-8.4c0.1-1.8-0.6-3.4-2.1-4.9
		c-0.6-0.6-2.1-0.8-3.2-0.4c-0.5,0.2-0.9,0.5-1,0.9c0,0.2,0,0.5,0.2,0.7c1.3,1.3,1.9,2.8,1.7,4.4c-0.4,3.1-3.4,6.3-9,9.7
		c-3.3,2-7.2,3.6-11.2,4.5c-0.6,0.1-1.1,0.5-1.2,0.8c-0.1,0.2,0,0.4,0.2,0.6c0.5,0.5,1.5,0.7,2.4,0.5c4.5-1.1,8.9-2.8,12.5-5.1
		l0.2,0.3c-3.7,2.3-8.1,4-12.6,5.1C186.8,139.1,186.5,139.1,186.2,139.1z"/>
	<path class="st0" d="M177,140.2C177,140.2,177,140.2,177,140.2c-4.2,0-7.9-0.8-10.6-2.3c-3-1.6-4.6-3.9-4.6-6.7
		c-0.1-4.3,3.6-9.1,9.8-12.9c10-6.1,20.1-8.2,28.4-6c0.8,0.2,1.3,0.6,1.5,1.1c0.1,0.4,0,0.7-0.2,1l0,0c-0.6,0.8-2.2,1.1-3.5,0.7
		c-6.1-1.7-13.7-0.2-21.4,4.1c-0.4,0.2-0.6,0.5-0.6,0.8c0,0.3,0.2,0.5,0.5,0.7c0.8,0.4,2,0.4,2.8,0c7.4-4.2,14.4-5.1,19.2-2.5
		c1.8,1,2.8,2.3,2.8,3.8c0.1,2.5-2.5,5.4-7.5,8.5c-7,4.2-16.2,5.7-20.6,3.3c-1.3-0.7-2.1-1.7-2.3-2.9c-0.3-1.6,0.5-3.6,2.2-5.5
		c0.2-0.2,0.2-0.4,0.2-0.5c-0.1-0.3-0.3-0.5-0.8-0.7c-1-0.4-2.4-0.2-2.9,0.4c-2,2.3-3,4.7-2.6,6.8c0.3,1.6,1.4,3,3.2,4
		c1.8,1,4.3,1.6,7.2,1.7c1.3,0,2.2,0.6,2.3,1.4c0,0.3-0.1,0.6-0.3,0.9C178.7,140,177.9,140.2,177,140.2z M193.3,111.9
		c-6.7,0-14,2.3-21.4,6.8c-6.1,3.7-9.7,8.4-9.6,12.5c0.1,2.6,1.6,4.8,4.4,6.4c2.6,1.4,6.2,2.2,10.3,2.2c0.8,0,1.5-0.2,1.9-0.6
		c0.1-0.1,0.2-0.3,0.2-0.5c0-0.6-0.9-1-1.9-1.1c-2.9-0.1-5.5-0.7-7.3-1.7c-1.9-1.1-3.1-2.6-3.4-4.3c-0.4-2.2,0.6-4.7,2.7-7.1
		c0.6-0.7,2.2-1,3.3-0.5c0.5,0.2,0.9,0.6,1,1c0.1,0.3,0,0.6-0.3,0.9c-1.6,1.8-2.3,3.6-2.1,5.1c0.2,1.1,0.9,2,2.1,2.7
		c4.3,2.3,13.4,0.9,20.2-3.3c4.8-2.9,7.4-5.7,7.3-8.1c0-1.3-0.9-2.6-2.6-3.5c-4.6-2.5-11.4-1.6-18.8,2.5c-0.9,0.5-2.3,0.5-3.1,0
		c-0.5-0.3-0.7-0.6-0.7-1c0-0.4,0.3-0.8,0.8-1.1c7.8-4.4,15.5-5.8,21.7-4.1c1.1,0.3,2.5,0,3-0.6l0,0c0.2-0.2,0.2-0.4,0.2-0.7
		c-0.1-0.4-0.6-0.7-1.2-0.9C197.8,112.2,195.6,111.9,193.3,111.9z"/>
	<path class="st0" d="M179.4,132.5c-1.2,0-2.3-0.2-3-0.6c-0.8-0.4-1.3-1.1-1.3-2c0-1.9,2.1-4.4,5.6-6.6c5.9-3.6,11-4.7,14.1-3
		c1,0.5,1.5,1.3,1.6,2.1c0.1,1.5-1.4,3.4-4.4,5.4c-0.8,0.6-2.4,0.6-3.3,0.1c-0.5-0.3-0.7-0.6-0.7-1c0-0.4,0.2-0.7,0.6-1
		c2.4-1.7,2.7-2.5,2.6-2.7c0-0.1,0-0.2-0.3-0.3c-0.4-0.2-2-0.7-7,2.4c-0.4,0.2-0.8,0.5-1.1,0.7c-1.9,1.3-2.8,2.4-2.8,2.9l-0.4,0
		c0-0.8,1.1-2,2.9-3.3c0.4-0.2,0.7-0.5,1.1-0.7c3.6-2.2,6.2-3,7.4-2.4c0.4,0.2,0.4,0.5,0.5,0.7c0,0.7-0.9,1.8-2.8,3.1
		c-0.3,0.2-0.4,0.4-0.4,0.7c0,0.2,0.2,0.5,0.5,0.7c0.8,0.4,2.1,0.4,2.9-0.1c3.6-2.5,4.3-4.1,4.2-5.1c0-0.7-0.5-1.3-1.3-1.8
		c-3-1.6-8-0.6-13.7,2.9c-3.4,2-5.5,4.5-5.5,6.2c0,0.7,0.4,1.2,1.1,1.6c1.5,0.8,4.4,0.7,7.7-0.3l0.1,0.4
		C182.6,132.2,180.9,132.5,179.4,132.5z"/>
</g>
</svg>
