<?xml version="1.0" encoding="utf-8"?>
<!-- Generator: Adobe Illustrator 21.0.0, SVG Export Plug-In . SVG Version: 6.00 Build 0)  -->
<svg version="1.1" id="_x2014_ÎÓÈ_x5F_1" xmlns="http://www.w3.org/2000/svg" xmlns:xlink="http://www.w3.org/1999/xlink"
	 x="0px" y="0px" viewBox="0 0 290.7 193" style="enable-background:new 0 0 290.7 193;" xml:space="preserve">
<style type="text/css">
	.st0{fill:#42E8E0;}
	.st1{fill:url(#SVGID_1_);}
	.st2{fill:#24126A;}
	.st3{fill:#FFFFFF;}
	.st4{opacity:0.51;fill:#453C9E;}
	.st5{opacity:0.8;fill:url(#SVGID_2_);}
	.st6{opacity:0.3;}
	.st7{opacity:0.4;fill:#24126A;}
	.st8{fill:#453C9E;}
</style>
<g>
	<path class="st0" d="M102,193c-2.6,0-5.2-0.5-7-1.6L2.9,138.2C1,137.1,0,135.6,0,134c0-2,1.5-3.9,4-5.4L179.6,27.2
		c4.8-2.8,12-3.1,16.2-0.7l92.1,53.2c1.8,1.1,2.9,2.5,2.9,4.2c0,2-1.5,3.9-4,5.4L111.1,190.7C108.5,192.2,105.1,193,102,193z
		 M95.1,191c4,2.3,11.1,2,15.8-0.7L286.5,89c2.4-1.4,3.8-3.2,3.8-5c0-1.5-0.9-2.8-2.7-3.8l-92.1-53.2c-4-2.3-11.1-2-15.8,0.7
		L4.2,129c-2.4,1.4-3.8,3.2-3.8,5c0,1.5,0.9,2.8,2.7,3.8L95.1,191z"/>
</g>
<g>
	<linearGradient id="SVGID_1_" gradientUnits="userSpaceOnUse" x1="0.1982" y1="94.6716" x2="290.4873" y2="94.6716">
		<stop  offset="0" style="stop-color:#BCBEFF"/>
		<stop  offset="0.151" style="stop-color:#A3A7F5"/>
		<stop  offset="0.3866" style="stop-color:#8289E8"/>
		<stop  offset="0.6124" style="stop-color:#6A73DF"/>
		<stop  offset="0.8221" style="stop-color:#5C66D9"/>
		<stop  offset="1" style="stop-color:#5761D7"/>
	</linearGradient>
	<path class="st1" d="M290.5,59.4l-13.2,2.3l-81.6-47.1c-4.1-2.4-11.2-2.1-16,0.7L23.6,105.3l-23.4,4l0,8.3l0,0c0,1.5,0.9,3,2.8,4
		L95,174.8c4.1,2.4,11.2,2.1,16-0.7L286.6,72.8c2.5-1.5,3.9-3.3,3.9-5.1l0,0V59.4z"/>
	<path class="st2" d="M95,166.5L3,113.3c-4.1-2.4-3.6-6.5,1.1-9.2L179.7,2.7c4.7-2.7,11.9-3,16-0.7l92.1,53.2
		c4.1,2.4,3.6,6.5-1.1,9.2L111,165.8C106.3,168.5,99.1,168.8,95,166.5z"/>
	<path class="st3" d="M286.6,64.4L111,165.8c-4.7,2.7-11.9,3-16,0.7L3,113.3c-1.6-0.9-2.5-2.2-2.7-3.5c-0.3,1.7,0.6,3.4,2.7,4.6
		L95,167.5c4.1,2.4,11.2,2.1,16-0.7L286.6,65.5c2.8-1.6,4.1-3.8,3.9-5.7C290.2,61.4,288.9,63.1,286.6,64.4z"/>
	<path class="st4" d="M95.2,164.4L6.4,113.1c-4-2.3-3.5-6.3,1.1-8.9L179.9,4.8c4.6-2.6,11.5-2.9,15.5-0.6l88.8,51.3
		c4,2.3,3.5,6.3-1.1,8.9l-172.3,99.5C106.1,166.4,99.2,166.7,95.2,164.4z"/>
</g>
<g>
	<linearGradient id="SVGID_2_" gradientUnits="userSpaceOnUse" x1="185.7758" y1="135.7401" x2="104.7435" y2="28.2067">
		<stop  offset="0" style="stop-color:#42E8E0"/>
		<stop  offset="0.1055" style="stop-color:#37B6BF"/>
		<stop  offset="0.2197" style="stop-color:#2C87A1"/>
		<stop  offset="0.338" style="stop-color:#235F87"/>
		<stop  offset="0.4587" style="stop-color:#1C3F72"/>
		<stop  offset="0.5824" style="stop-color:#162561"/>
		<stop  offset="0.7105" style="stop-color:#121355"/>
		<stop  offset="0.8458" style="stop-color:#10084E"/>
		<stop  offset="1" style="stop-color:#0F054C"/>
	</linearGradient>
	<path class="st5" d="M101.9,163.9c-2.6,0-5-0.5-6.9-1.6L6.3,111.1c-1.8-1-2.8-2.5-2.8-4.1c0-1.9,1.4-3.9,3.9-5.3L179.7,2.2
		c4.6-2.7,11.7-3,15.7-0.6l88.8,51.3c1.8,1,2.8,2.5,2.8,4.1c0,1.9-1.4,3.9-3.9,5.3l-172.3,99.5C108.3,163.2,105,163.9,101.9,163.9z
		 M95.3,161.9c3.9,2.2,10.7,2,15.2-0.6l172.3-99.5c2.3-1.3,3.6-3.1,3.6-4.8c0-1.4-0.9-2.7-2.5-3.6L195.2,2.1
		c-3.9-2.2-10.7-2-15.2,0.6L7.7,102.2C5.4,103.5,4,105.3,4,107c0,1.4,0.9,2.7,2.5,3.6L95.3,161.9z"/>
</g>
<g class="st6">
	<defs>
		<path id="SVGID_3_" class="st6" d="M95.2,162.1L6.4,110.9c-4-2.3-3.5-6.3,1.1-8.9L179.9,2.5c4.6-2.6,11.5-2.9,15.5-0.6l88.8,51.3
			c4,2.3,3.5,6.3-1.1,8.9l-172.3,99.5C106.1,164.1,99.2,164.4,95.2,162.1z"/>
	</defs>
	<radialGradient id="SVGID_4_" cx="102.8051" cy="98.7192" r="227.2109" gradientUnits="userSpaceOnUse">
		<stop  offset="0" style="stop-color:#42E8E0"/>
		<stop  offset="0.1055" style="stop-color:#37B6BF"/>
		<stop  offset="0.2197" style="stop-color:#2C87A1"/>
		<stop  offset="0.338" style="stop-color:#235F87"/>
		<stop  offset="0.4587" style="stop-color:#1C3F72"/>
		<stop  offset="0.5824" style="stop-color:#162561"/>
		<stop  offset="0.7105" style="stop-color:#121355"/>
		<stop  offset="0.8458" style="stop-color:#10084E"/>
		<stop  offset="1" style="stop-color:#0F054C"/>
	</radialGradient>
	<use xlink:href="#SVGID_3_"  style="overflow:visible;opacity:0.5;fill:url(#SVGID_4_);"/>
	<clipPath id="SVGID_5_">
		<use xlink:href="#SVGID_3_"  style="overflow:visible;opacity:0.5;"/>
	</clipPath>
</g>
<path class="st7" d="M265.1,61.6c-1.4,0.8-3.6,0.8-4.9,0c-1.4-0.8-1.4-2.1,0-2.8c1.4-0.8,3.6-0.8,4.9,0
	C266.5,59.6,266.5,60.8,265.1,61.6z"/>
<path class="st7" d="M246.4,48l9.6,5.5c1.2,0.7,1,1.9-0.3,2.6l0,0c-1.4,0.8-3.4,0.9-4.6,0.2l-9.6-5.5c-1.2-0.7-1-1.9,0.3-2.6l0,0
	C243.2,47.4,245.2,47.3,246.4,48z"/>
<path class="st7" d="M192.4,16.1l9.6,5.5c1.2,0.7,1,1.9-0.3,2.6v0c-1.4,0.8-3.4,0.9-4.6,0.2l-9.6-5.5c-1.2-0.7-1-1.9,0.3-2.6l0,0
	C189.2,15.5,191.2,15.4,192.4,16.1z"/>
<path class="st0" d="M265.1,58.2c-1.4,0.8-3.6,0.8-4.9,0c-1.4-0.8-1.4-2.1,0-2.8c1.4-0.8,3.6-0.8,4.9,0
	C266.5,56.1,266.5,57.4,265.1,58.2z"/>
<path class="st0" d="M246.4,44.5l9.6,5.5c1.2,0.7,1,1.9-0.3,2.6l0,0c-1.4,0.8-3.4,0.9-4.6,0.2l-9.6-5.5c-1.2-0.7-1-1.9,0.3-2.6l0,0
	C243.2,43.9,245.2,43.8,246.4,44.5z"/>
<path class="st8" d="M166.9,106.3c-13.4,7.8-35.2,7.8-48.6,0s-13.4-20.3,0-28.1c13.4-7.8,35.2-7.8,48.6,0S180.4,98.5,166.9,106.3z"
	/>
<g>
	<path class="st0" d="M132.4,120.6l-0.1-0.8c18.4-1.9,36.7-7.9,51.5-16.9C200,93,209.6,83.3,212.4,74l0.8,0.2
		c-2.9,9.5-12.6,19.3-29,29.3C169.3,112.7,150.9,118.7,132.4,120.6z"/>
	<path class="st0" d="M213.2,67.7c-0.4-7.5-6-14.3-16-19.8c-21.8-11.9-49.8-11.2-78.9,1.9l-0.3-0.8c29.3-13.3,57.6-14,79.7-1.9
		c10.3,5.6,16,12.7,16.4,20.5L213.2,67.7z"/>
	<path class="st0" d="M113.9,121c-10.1-0.7-19-3-25.8-6.7c-7.4-4-12.1-9.6-13.5-16.1c-0.2-0.7,0-1.4,0.5-2c1-1.2,3-1.9,5.3-1.9
		c2.5,0.1,4.5,1.1,4.9,2.6c1.5,4.8,5.3,9,10.9,12c19.4,10.6,56.1,6.5,81.8-9.1c16.7-10.2,25.5-20.4,25.2-29.7
		c-0.2-6.6-4.9-12.6-13.7-17.5c-22.3-12.2-52.2-8.9-81.8,9.1C97,68.2,89.3,76.1,86.2,84c-0.5,1.3-2.3,2.2-4.4,2.3
		c-2.1,0.1-4-0.6-4.8-1.8c-0.4-0.6-0.5-1.3-0.2-2c4.1-8.9,12.7-17.4,24.7-24.7l0.4,0.7C90,65.8,81.6,74.2,77.5,82.9
		c-0.2,0.4-0.1,0.8,0.1,1.2c0.6,0.9,2.3,1.5,4.1,1.4c1.8-0.1,3.3-0.8,3.7-1.8c3.2-8,11-16.1,21.9-22.7c29.9-18.2,60.1-21.5,82.7-9.2
		c9.1,5,14,11.3,14.1,18.2c0.2,9.6-8.6,20.1-25.6,30.4c-26,15.8-63,19.9-82.7,9.2C90,106.4,86.1,102,84.5,97c-0.3-1.1-2.1-1.9-4.1-2
		c-1.9,0-3.8,0.6-4.6,1.6c-0.4,0.4-0.5,0.9-0.4,1.3c1.4,6.3,5.9,11.6,13.1,15.6c6.7,3.6,15.4,5.9,25.4,6.6L113.9,121z"/>
	<path class="st0" d="M144,107.8c-1.7,0-3.3-0.5-4.1-1.4c-0.6-0.6-0.8-1.3-0.6-2.1c0.3-1.1,1.5-1.9,3.1-2.3
		c8.3-1.9,16.2-5.1,23.1-9.2c11.3-6.9,17.6-13.7,18.3-19.7c0.4-3.1-0.8-6-3.4-8.6c-0.6-0.6-0.9-1.4-0.7-2.1c0.2-1,1.2-1.9,2.6-2.4
		c2.6-1,6-0.5,7.5,1c3.2,3.3,4.7,6.9,4.5,10.8c-0.3,5.8-4.4,11.9-12.2,18.1l-0.5-0.6c7.6-6.1,11.5-12,11.9-17.5
		c0.2-3.7-1.2-7.1-4.3-10.1c-1.3-1.3-4.4-1.7-6.7-0.9c-1.1,0.4-1.9,1.1-2.1,1.8c-0.1,0.5,0.1,0.9,0.5,1.4c2.8,2.8,4,5.9,3.6,9.3
		c-0.7,6.4-7,13.2-18.7,20.3c-6.9,4.2-15,7.4-23.3,9.3c-1.3,0.3-2.2,0.9-2.5,1.7c-0.1,0.4,0,0.9,0.4,1.3c0.9,1,3.2,1.4,5.1,1
		c9.4-2.3,18.5-5.9,26.1-10.6l0.4,0.7c-7.7,4.7-16.9,8.4-26.4,10.7C145.2,107.7,144.6,107.8,144,107.8z"/>
	<path class="st0" d="M124.8,110.1C124.8,110.1,124.8,110.1,124.8,110.1c-8.8-0.1-16.4-1.7-22-4.8c-6.2-3.4-9.5-8.2-9.6-14
		c-0.2-8.9,7.5-18.9,20.5-26.9c20.9-12.7,41.9-17.1,59.2-12.4c1.6,0.4,2.7,1.3,3.1,2.4c0.2,0.7,0.1,1.5-0.5,2.2l0,0
		c-1.3,1.6-4.6,2.3-7.2,1.6c-12.7-3.5-28.5-0.5-44.6,8.5c-0.8,0.4-1.2,1-1.2,1.6c0,0.5,0.4,1.1,1.1,1.4c1.6,0.9,4.1,0.8,5.7-0.1
		c15.5-8.7,30.1-10.5,39.9-5.2c3.8,2.1,5.9,4.8,5.9,8c0.1,5.2-5.3,11.3-15.6,17.6c-14.5,8.8-33.8,11.9-43,6.9
		c-2.7-1.5-4.4-3.6-4.8-6.1c-0.6-3.4,1-7.4,4.5-11.4c0.3-0.4,0.4-0.7,0.3-1.1c-0.1-0.6-0.7-1.1-1.6-1.4c-2-0.8-4.9-0.4-6.1,0.9
		c-4.3,4.8-6.2,9.8-5.5,14.1c0.6,3.4,2.9,6.3,6.8,8.4c3.8,2.1,9,3.3,14.9,3.5c2.6,0.1,4.6,1.3,4.7,2.9c0,0.7-0.2,1.3-0.7,1.8
		C128.3,109.5,126.6,110.1,124.8,110.1z M158.7,51c-13.9,0-29.2,4.8-44.6,14.1C101.3,73,93.8,82.7,94,91.3c0.1,5.4,3.3,10,9.2,13.2
		c5.5,3,12.9,4.6,21.5,4.7c1.6,0,3.1-0.5,3.9-1.3c0.2-0.2,0.5-0.6,0.5-1.1c-0.1-1.2-1.8-2.1-3.9-2.2c-6.1-0.2-11.4-1.5-15.3-3.6
		c-4.1-2.2-6.5-5.3-7.2-9c-0.8-4.5,1.2-9.8,5.7-14.8c1.3-1.5,4.6-2.1,7-1.1c1.1,0.4,1.9,1.2,2.1,2c0.2,0.6,0,1.3-0.5,1.9
		c-3.3,3.8-4.9,7.6-4.3,10.7c0.4,2.3,1.9,4.2,4.4,5.5c8.9,4.9,27.8,1.8,42.1-6.9c10.1-6.1,15.3-12,15.2-16.9c-0.1-2.8-2-5.3-5.5-7.3
		c-9.6-5.2-23.9-3.4-39.1,5.1c-1.8,1-4.7,1.1-6.5,0.1c-1-0.5-1.6-1.3-1.6-2.2c0-0.9,0.6-1.7,1.6-2.3c16.2-9.1,32.3-12.1,45.2-8.6
		c2.3,0.6,5.2,0.1,6.4-1.3l0,0c0.4-0.5,0.5-0.9,0.4-1.4c-0.2-0.8-1.2-1.4-2.5-1.8C168.2,51.6,163.5,51,158.7,51z"/>
	<path class="st0" d="M129.8,93.9c-2.6,0-4.7-0.4-6.3-1.3c-1.7-0.9-2.6-2.3-2.7-4.1c-0.1-4,4.4-9.2,11.8-13.7
		c12.3-7.5,23-9.7,29.5-6.2c2,1.1,3.2,2.6,3.2,4.4c0.2,3.2-3,7.1-9.2,11.3c-1.8,1.2-4.9,1.3-6.9,0.3c-1-0.5-1.5-1.3-1.6-2.1
		c0-0.8,0.4-1.5,1.2-2.1c5.1-3.5,5.5-5.1,5.5-5.7c0-0.2-0.1-0.5-0.5-0.7c-0.8-0.4-4.2-1.4-14.6,4.9c-0.8,0.5-1.6,1-2.4,1.5
		c-4,2.8-5.8,5.1-5.8,6.1l-0.8,0c0-1.6,2.2-4.1,6.1-6.8c0.7-0.5,1.6-1,2.4-1.6c7.5-4.5,12.9-6.3,15.4-5c0.7,0.4,0.9,1,1,1.4
		c0.1,1.5-1.9,3.7-5.9,6.4c-0.6,0.4-0.9,0.9-0.9,1.4c0,0.5,0.4,1,1.1,1.4c1.7,0.9,4.5,0.8,6-0.2c7.5-5.1,8.9-8.6,8.8-10.6
		c-0.1-1.5-1-2.7-2.8-3.7c-6.2-3.4-16.6-1.2-28.7,6.1c-7,4.3-11.5,9.3-11.4,13c0,1.4,0.8,2.6,2.2,3.4c3.2,1.7,9.2,1.5,16.1-0.5
		l0.2,0.8C136.5,93.3,132.9,93.9,129.8,93.9z"/>
</g>
<path class="st0" d="M192.4,12.7l9.6,5.5c1.2,0.7,1,1.9-0.3,2.6l0,0c-1.4,0.8-3.4,0.9-4.6,0.2l-9.6-5.5c-1.2-0.7-1-1.9,0.3-2.6h0
	C189.2,12.1,191.2,12,192.4,12.7z"/>
<path class="st2" d="M185.6,75.3v-7.9h-2.3c-2-3.5-5.5-6.8-10.3-9.7c-16.8-9.7-44-9.7-60.9,0c-4.9,2.8-8.3,6.1-10.3,9.7h-2.3v7.8h0
	c0,6.4,4.2,12.8,12.6,17.6c16.8,9.7,44,9.7,60.9,0C181.4,88,185.6,81.7,185.6,75.3z"/>
<path class="st0" d="M173,85c-16.8,9.7-44,9.7-60.9,0c-16.8-9.7-16.8-25.4,0-35.1c16.8-9.7,44-9.7,60.9,0
	C189.8,59.5,189.8,75.3,173,85z"/>
<path class="st3" d="M173,85c-16.8,9.7-44,9.7-60.9,0c-8.1-4.6-12.2-10.7-12.5-16.8c-0.4,6.6,3.8,13.3,12.5,18.4
	c16.8,9.7,44,9.7,60.9,0c8.8-5.1,12.9-11.7,12.5-18.4C185.2,74.3,181.1,80.3,173,85z"/>
<g>
	<path class="st3" d="M121.9,75.6c-0.7-0.4-1.1-1-1.1-1.6l0-16.2c0-1.2,1.7-2.2,3.9-2.2c2.1,0,3.9,1,3.9,2.2l0,13.4l39-4.8
		c2.1-0.3,4.1,0.5,4.6,1.7c0.4,1.2-0.9,2.4-3,2.7l-43.6,5.3c-1.1,0.1-2.3,0-3.2-0.5C122.1,75.7,122,75.7,121.9,75.6z"/>
</g>
</svg>
