<?xml version="1.0" encoding="utf-8"?>
<!-- Generator: Adobe Illustrator 21.0.0, SVG Export Plug-In . SVG Version: 6.00 Build 0)  -->
<svg version="1.1" id="_x2014_ÎÓÈ_x5F_1" xmlns="http://www.w3.org/2000/svg" xmlns:xlink="http://www.w3.org/1999/xlink"
	 x="0px" y="0px" viewBox="0 0 346.3 214.7" style="enable-background:new 0 0 346.3 214.7;" xml:space="preserve">
<style type="text/css">
	.st0{fill:#30A1E5;}
	.st1{opacity:0.5;fill:#7BDAFF;}
	.st2{opacity:0.5;}
	.st3{clip-path:url(#SVGID_2_);fill:#FFFFFF;}
	.st4{clip-path:url(#SVGID_2_);fill:#FEFFFF;}
	.st5{clip-path:url(#SVGID_2_);fill:#FEFEFF;}
	.st6{clip-path:url(#SVGID_2_);fill:#FDFEFF;}
	.st7{clip-path:url(#SVGID_2_);fill:#FDFEFE;}
	.st8{clip-path:url(#SVGID_2_);fill:#FCFDFE;}
	.st9{clip-path:url(#SVGID_2_);fill:#FBFDFE;}
	.st10{clip-path:url(#SVGID_2_);fill:#FBFCFE;}
	.st11{clip-path:url(#SVGID_2_);fill:#FAFCFE;}
	.st12{clip-path:url(#SVGID_2_);fill:#FAFCFD;}
	.st13{clip-path:url(#SVGID_2_);fill:#F9FCFD;}
	.st14{clip-path:url(#SVGID_2_);fill:#F9FBFD;}
	.st15{clip-path:url(#SVGID_2_);fill:#F8FBFD;}
	.st16{clip-path:url(#SVGID_2_);fill:#F8FAFD;}
	.st17{clip-path:url(#SVGID_2_);fill:#F7FAFC;}
	.st18{clip-path:url(#SVGID_2_);fill:#F6FAFC;}
	.st19{clip-path:url(#SVGID_2_);fill:#F6F9FC;}
	.st20{clip-path:url(#SVGID_2_);fill:#F5F9FC;}
	.st21{clip-path:url(#SVGID_2_);fill:#F4F9FC;}
	.st22{clip-path:url(#SVGID_2_);fill:#F4F8FB;}
	.st23{clip-path:url(#SVGID_2_);fill:#F3F8FB;}
	.st24{clip-path:url(#SVGID_2_);fill:#F2F7FB;}
	.st25{clip-path:url(#SVGID_2_);fill:#F1F7FB;}
	.st26{clip-path:url(#SVGID_2_);fill:#F1F6FA;}
	.st27{clip-path:url(#SVGID_2_);fill:#F0F6FA;}
	.st28{clip-path:url(#SVGID_2_);fill:#EFF5FA;}
	.st29{clip-path:url(#SVGID_2_);fill:#EEF5FA;}
	.st30{clip-path:url(#SVGID_2_);fill:#EDF4F9;}
	.st31{clip-path:url(#SVGID_2_);fill:#ECF3F9;}
	.st32{clip-path:url(#SVGID_2_);fill:#EBF3F9;}
	.st33{clip-path:url(#SVGID_2_);fill:#EAF2F8;}
	.st34{clip-path:url(#SVGID_2_);fill:#E9F2F8;}
	.st35{clip-path:url(#SVGID_2_);fill:#E8F1F8;}
	.st36{clip-path:url(#SVGID_2_);fill:#E8F1F7;}
	.st37{clip-path:url(#SVGID_2_);fill:#E7F0F7;}
	.st38{clip-path:url(#SVGID_2_);fill:#E6F0F7;}
	.st39{clip-path:url(#SVGID_2_);fill:#E6EFF7;}
	.st40{clip-path:url(#SVGID_2_);fill:#E5EFF7;}
	.st41{clip-path:url(#SVGID_2_);fill:#E4EFF6;}
	.st42{clip-path:url(#SVGID_2_);fill:#E4EEF6;}
	.st43{clip-path:url(#SVGID_2_);fill:#E3EEF6;}
	.st44{clip-path:url(#SVGID_2_);fill:#E2EDF6;}
	.st45{clip-path:url(#SVGID_2_);fill:#E1EDF6;}
	.st46{clip-path:url(#SVGID_2_);fill:#E1ECF5;}
	.st47{clip-path:url(#SVGID_2_);fill:#E0ECF5;}
	.st48{clip-path:url(#SVGID_2_);fill:#DFECF5;}
	.st49{clip-path:url(#SVGID_2_);fill:#DFEBF5;}
	.st50{clip-path:url(#SVGID_2_);fill:#DEEBF4;}
	.st51{clip-path:url(#SVGID_2_);fill:#DDEAF4;}
	.st52{clip-path:url(#SVGID_2_);fill:#DCEAF4;}
	.st53{clip-path:url(#SVGID_2_);fill:#DCE9F4;}
	.st54{clip-path:url(#SVGID_2_);fill:#DBE9F3;}
	.st55{clip-path:url(#SVGID_2_);fill:#DAE8F3;}
	.st56{clip-path:url(#SVGID_2_);fill:#D9E8F3;}
	.st57{clip-path:url(#SVGID_2_);fill:#D8E7F3;}
	.st58{clip-path:url(#SVGID_2_);fill:#D8E7F2;}
	.st59{clip-path:url(#SVGID_2_);fill:#D7E6F2;}
	.st60{clip-path:url(#SVGID_2_);fill:#D6E6F2;}
	.st61{clip-path:url(#SVGID_2_);fill:#D5E5F2;}
	.st62{clip-path:url(#SVGID_2_);fill:#D4E5F1;}
	.st63{clip-path:url(#SVGID_2_);fill:#D4E4F1;}
	.st64{clip-path:url(#SVGID_2_);fill:#D3E4F1;}
	.st65{clip-path:url(#SVGID_2_);fill:#D2E3F0;}
	.st66{clip-path:url(#SVGID_2_);fill:#D1E3F0;}
	.st67{clip-path:url(#SVGID_2_);fill:#D0E2F0;}
	.st68{clip-path:url(#SVGID_2_);fill:#CFE2F0;}
	.st69{clip-path:url(#SVGID_2_);fill:#CEE1EF;}
	.st70{clip-path:url(#SVGID_2_);fill:#CDE0EF;}
	.st71{clip-path:url(#SVGID_2_);fill:#CCE0EF;}
	.st72{clip-path:url(#SVGID_2_);fill:#CBDFEE;}
	.st73{clip-path:url(#SVGID_2_);fill:#CADFEE;}
	.st74{clip-path:url(#SVGID_2_);fill:#C9DEEE;}
	.st75{clip-path:url(#SVGID_2_);fill:#C8DEED;}
	.st76{clip-path:url(#SVGID_2_);fill:#C7DDED;}
	.st77{clip-path:url(#SVGID_2_);fill:#C6DCED;}
	.st78{clip-path:url(#SVGID_2_);fill:#C5DBEC;}
	.st79{clip-path:url(#SVGID_2_);fill:#C4DBEC;}
	.st80{clip-path:url(#SVGID_2_);fill:#C3DAEC;}
	.st81{clip-path:url(#SVGID_2_);fill:#C2DAEB;}
	.st82{clip-path:url(#SVGID_2_);fill:#C1D9EB;}
	.st83{clip-path:url(#SVGID_2_);fill:#C0D8EB;}
	.st84{clip-path:url(#SVGID_2_);fill:#BFD8EA;}
	.st85{clip-path:url(#SVGID_2_);fill:#BED7EA;}
	.st86{clip-path:url(#SVGID_2_);fill:#BDD7EA;}
	.st87{clip-path:url(#SVGID_2_);fill:#BCD6E9;}
	.st88{clip-path:url(#SVGID_2_);fill:#BBD5E9;}
	.st89{clip-path:url(#SVGID_2_);fill:#BAD5E9;}
	.st90{clip-path:url(#SVGID_2_);fill:#B9D4E9;}
	.st91{clip-path:url(#SVGID_2_);fill:#B8D4E8;}
	.st92{clip-path:url(#SVGID_2_);fill:#B7D3E8;}
	.st93{clip-path:url(#SVGID_2_);fill:#B6D2E8;}
	.st94{clip-path:url(#SVGID_2_);fill:#B5D2E7;}
	.st95{clip-path:url(#SVGID_2_);fill:#B4D1E7;}
	.st96{clip-path:url(#SVGID_2_);fill:#B3D1E7;}
	.st97{clip-path:url(#SVGID_2_);fill:#B2D0E6;}
	.st98{clip-path:url(#SVGID_2_);fill:#B1CFE6;}
	.st99{clip-path:url(#SVGID_2_);fill:#B0CFE6;}
	.st100{clip-path:url(#SVGID_2_);fill:#AFCEE5;}
	.st101{clip-path:url(#SVGID_2_);fill:#AECDE5;}
	.st102{clip-path:url(#SVGID_2_);fill:#ADCDE5;}
	.st103{clip-path:url(#SVGID_2_);fill:#ACCCE4;}
	.st104{clip-path:url(#SVGID_2_);fill:#ABCCE4;}
	.st105{clip-path:url(#SVGID_2_);fill:#AACBE4;}
	.st106{clip-path:url(#SVGID_2_);fill:#A9CAE3;}
	.st107{clip-path:url(#SVGID_2_);fill:#A8CAE3;}
	.st108{clip-path:url(#SVGID_2_);fill:#A7C9E3;}
	.st109{clip-path:url(#SVGID_2_);fill:#A6C8E2;}
	.st110{clip-path:url(#SVGID_2_);fill:#A4C8E2;}
	.st111{clip-path:url(#SVGID_2_);fill:#A3C7E2;}
	.st112{clip-path:url(#SVGID_2_);fill:#A2C6E1;}
	.st113{clip-path:url(#SVGID_2_);fill:#A1C6E1;}
	.st114{clip-path:url(#SVGID_2_);fill:#A0C5E0;}
	.st115{clip-path:url(#SVGID_2_);fill:#9FC4E0;}
	.st116{clip-path:url(#SVGID_2_);fill:#9EC4E0;}
	.st117{clip-path:url(#SVGID_2_);fill:#9DC3DF;}
	.st118{clip-path:url(#SVGID_2_);fill:#9CC2DF;}
	.st119{clip-path:url(#SVGID_2_);fill:#9AC2DF;}
	.st120{clip-path:url(#SVGID_2_);fill:#99C1DE;}
	.st121{clip-path:url(#SVGID_2_);fill:#98C0DE;}
	.st122{clip-path:url(#SVGID_2_);fill:#97BFDE;}
	.st123{clip-path:url(#SVGID_2_);fill:#96BFDD;}
	.st124{clip-path:url(#SVGID_2_);fill:#95BEDD;}
	.st125{clip-path:url(#SVGID_2_);fill:#94BDDC;}
	.st126{clip-path:url(#SVGID_2_);fill:#92BDDC;}
	.st127{clip-path:url(#SVGID_2_);fill:#91BCDC;}
	.st128{clip-path:url(#SVGID_2_);fill:#90BBDB;}
	.st129{clip-path:url(#SVGID_2_);fill:#8FBADB;}
	.st130{clip-path:url(#SVGID_2_);fill:#8EBADB;}
	.st131{clip-path:url(#SVGID_2_);fill:#8DB9DA;}
	.st132{clip-path:url(#SVGID_2_);fill:#8BB8DA;}
	.st133{clip-path:url(#SVGID_2_);fill:#8AB8D9;}
	.st134{clip-path:url(#SVGID_2_);fill:#89B7D9;}
	.st135{clip-path:url(#SVGID_2_);fill:#88B6D9;}
	.st136{clip-path:url(#SVGID_2_);fill:#87B5D8;}
	.st137{clip-path:url(#SVGID_2_);fill:#85B5D8;}
	.st138{clip-path:url(#SVGID_2_);fill:#84B4D8;}
	.st139{clip-path:url(#SVGID_2_);fill:#83B3D7;}
	.st140{clip-path:url(#SVGID_2_);fill:#82B2D7;}
	.st141{clip-path:url(#SVGID_2_);fill:#81B2D6;}
	.st142{clip-path:url(#SVGID_2_);fill:#7FB1D6;}
	.st143{clip-path:url(#SVGID_2_);fill:#7EB0D6;}
	.st144{clip-path:url(#SVGID_2_);fill:#7DAFD5;}
	.st145{clip-path:url(#SVGID_2_);fill:#7CAFD5;}
	.st146{clip-path:url(#SVGID_2_);fill:#7AAED4;}
	.st147{clip-path:url(#SVGID_2_);fill:#79ADD4;}
	.st148{clip-path:url(#SVGID_2_);fill:#78ACD4;}
	.st149{clip-path:url(#SVGID_2_);fill:#77ACD3;}
	.st150{clip-path:url(#SVGID_2_);fill:#75ABD3;}
	.st151{clip-path:url(#SVGID_2_);fill:#74AAD2;}
	.st152{clip-path:url(#SVGID_2_);fill:#73A9D2;}
	.st153{clip-path:url(#SVGID_2_);fill:#72A8D2;}
	.st154{clip-path:url(#SVGID_2_);fill:#70A8D1;}
	.st155{clip-path:url(#SVGID_2_);fill:#6FA7D1;}
	.st156{clip-path:url(#SVGID_2_);fill:#6EA6D0;}
	.st157{clip-path:url(#SVGID_2_);fill:#6CA5D0;}
	.st158{clip-path:url(#SVGID_2_);fill:#6BA5CF;}
	.st159{clip-path:url(#SVGID_2_);fill:#6AA4CF;}
	.st160{clip-path:url(#SVGID_2_);fill:#68A3CF;}
	.st161{clip-path:url(#SVGID_2_);fill:#67A2CE;}
	.st162{clip-path:url(#SVGID_2_);fill:#66A1CE;}
	.st163{clip-path:url(#SVGID_2_);fill:#65A1CD;}
	.st164{clip-path:url(#SVGID_2_);fill:#63A0CD;}
	.st165{clip-path:url(#SVGID_2_);fill:#629FCC;}
	.st166{clip-path:url(#SVGID_2_);fill:#619ECC;}
	.st167{clip-path:url(#SVGID_2_);fill:#5F9DCC;}
	.st168{clip-path:url(#SVGID_2_);fill:#5E9CCB;}
	.st169{clip-path:url(#SVGID_2_);fill:#5D9CCB;}
	.st170{clip-path:url(#SVGID_2_);fill:#5B9BCA;}
	.st171{clip-path:url(#SVGID_2_);fill:#5A9ACA;}
	.st172{clip-path:url(#SVGID_2_);fill:#5899C9;}
	.st173{clip-path:url(#SVGID_2_);fill:#5798C9;}
	.st174{clip-path:url(#SVGID_2_);fill:#5697C9;}
	.st175{clip-path:url(#SVGID_2_);fill:#5497C8;}
	.st176{clip-path:url(#SVGID_2_);fill:#5396C8;}
	.st177{clip-path:url(#SVGID_2_);fill:#5295C7;}
	.st178{clip-path:url(#SVGID_2_);fill:#5094C7;}
	.st179{clip-path:url(#SVGID_2_);fill:#4F93C6;}
	.st180{clip-path:url(#SVGID_2_);fill:#4E92C6;}
	.st181{clip-path:url(#SVGID_2_);fill:#4C92C5;}
	.st182{clip-path:url(#SVGID_2_);fill:#4B91C5;}
	.st183{clip-path:url(#SVGID_2_);fill:#4990C5;}
	.st184{clip-path:url(#SVGID_2_);fill:#488FC4;}
	.st185{clip-path:url(#SVGID_2_);fill:#478EC4;}
	.st186{clip-path:url(#SVGID_2_);fill:#458DC3;}
	.st187{clip-path:url(#SVGID_2_);fill:#448CC3;}
	.st188{clip-path:url(#SVGID_2_);fill:#428CC2;}
	.st189{clip-path:url(#SVGID_2_);fill:#418BC2;}
	.st190{clip-path:url(#SVGID_2_);fill:#3F8AC1;}
	.st191{clip-path:url(#SVGID_2_);fill:#3E89C1;}
	.st192{clip-path:url(#SVGID_2_);fill:#3D88C0;}
	.st193{clip-path:url(#SVGID_2_);fill:#3B87C0;}
	.st194{clip-path:url(#SVGID_2_);fill:#3A86C0;}
	.st195{clip-path:url(#SVGID_2_);fill:#3885BF;}
	.st196{clip-path:url(#SVGID_2_);fill:#3784BF;}
	.st197{clip-path:url(#SVGID_2_);fill:#3584BE;}
	.st198{clip-path:url(#SVGID_2_);fill:#3483BE;}
	.st199{clip-path:url(#SVGID_2_);fill:#3282BD;}
	.st200{clip-path:url(#SVGID_2_);fill:#3181BD;}
	.st201{clip-path:url(#SVGID_2_);fill:#2F80BC;}
	.st202{clip-path:url(#SVGID_2_);fill:#2E7FBC;}
	.st203{clip-path:url(#SVGID_2_);fill:#2C7EBB;}
	.st204{clip-path:url(#SVGID_2_);fill:#2B7DBB;}
	.st205{clip-path:url(#SVGID_2_);fill:#2A7CBA;}
	.st206{clip-path:url(#SVGID_2_);fill:#287BBA;}
	.st207{clip-path:url(#SVGID_2_);fill:#277BB9;}
	.st208{clip-path:url(#SVGID_2_);fill:#257AB9;}
	.st209{clip-path:url(#SVGID_2_);fill:#2479B8;}
	.st210{clip-path:url(#SVGID_2_);fill:#2278B8;}
	.st211{clip-path:url(#SVGID_2_);fill:#2177B7;}
	.st212{clip-path:url(#SVGID_2_);fill:#1F76B7;}
	.st213{clip-path:url(#SVGID_2_);fill:#1E75B6;}
	.st214{clip-path:url(#SVGID_2_);fill:#1C74B6;}
	.st215{clip-path:url(#SVGID_2_);fill:#1A73B6;}
	.st216{clip-path:url(#SVGID_2_);fill:#1972B5;}
	.st217{clip-path:url(#SVGID_2_);fill:#1771B5;}
	.st218{clip-path:url(#SVGID_2_);fill:#1670B4;}
	.st219{clip-path:url(#SVGID_2_);fill:#146FB4;}
	.st220{clip-path:url(#SVGID_2_);fill:#136EB3;}
	.st221{clip-path:url(#SVGID_2_);fill:#116EB3;}
	.st222{clip-path:url(#SVGID_2_);fill:#106DB2;}
	.st223{clip-path:url(#SVGID_2_);fill:#0E6CB2;}
	.st224{clip-path:url(#SVGID_2_);fill:#0D6BB1;}
	.st225{clip-path:url(#SVGID_2_);fill:#0B6AB1;}
	.st226{clip-path:url(#SVGID_2_);fill:#0969B0;}
	.st227{clip-path:url(#SVGID_2_);fill:#0868B0;}
	.st228{clip-path:url(#SVGID_2_);fill:#0667AF;}
	.st229{clip-path:url(#SVGID_2_);fill:#0566AF;}
	.st230{clip-path:url(#SVGID_2_);fill:#0365AE;}
	.st231{clip-path:url(#SVGID_2_);fill:#0264AE;}
	.st232{clip-path:url(#SVGID_2_);fill:#0063AD;}
	.st233{fill:#FFFFFF;}
	.st234{fill:url(#SVGID_3_);}
	.st235{fill:url(#SVGID_4_);}
	.st236{fill:url(#SVGID_5_);}
	.st237{fill:url(#SVGID_6_);}
	.st238{fill:url(#SVGID_7_);}
	.st239{fill:url(#SVGID_8_);}
	.st240{fill:url(#SVGID_9_);}
	.st241{fill:url(#SVGID_10_);}
	.st242{fill:url(#SVGID_11_);}
	.st243{fill:url(#SVGID_12_);}
	.st244{fill:url(#SVGID_13_);}
	.st245{fill:url(#SVGID_14_);}
	.st246{fill:url(#SVGID_15_);}
	.st247{fill:url(#SVGID_16_);}
	.st248{fill:url(#SVGID_17_);}
</style>
<g>
	<path class="st0" d="M315.2,88.4l-13.4-8.7l22.3-34.4l-34.4-22.3l8.7-13.4l47.9,31L315.2,88.4z M305,79l9.5,6.2l28.5-44l-44-28.5
		l-6.2,9.5l34.4,22.3L305,79z"/>
	<polygon class="st1" points="254.8,20.5 247.3,31.9 281.8,54.3 259.4,88.7 270.9,96.2 293.2,61.7 300.7,50.2 	"/>
</g>
<g class="st2">
	<g>
		<defs>
			<ellipse id="SVGID_1_" cx="199.3" cy="196.6" rx="122.9" ry="18.1"/>
		</defs>
		<clipPath id="SVGID_2_">
			<use xlink:href="#SVGID_1_"  style="overflow:visible;"/>
		</clipPath>
		<rect x="76.4" y="178.5" class="st3" width="245.8" height="36.2"/>
		
			<ellipse transform="matrix(1 -5.640931e-03 5.640931e-03 1 -1.11 1.1258)" class="st3" cx="199" cy="197.3" rx="110.1" ry="14.8"/>
		
			<ellipse transform="matrix(1 -5.640791e-03 5.640791e-03 1 -1.11 1.1236)" class="st3" cx="198.6" cy="197.3" rx="109.6" ry="14.7"/>
		
			<ellipse transform="matrix(1 -5.641108e-03 5.641108e-03 1 -1.1101 1.1215)" class="st3" cx="198.3" cy="197.3" rx="109.2" ry="14.7"/>
		
			<ellipse transform="matrix(1 -5.640965e-03 5.640965e-03 1 -1.1101 1.1194)" class="st3" cx="197.9" cy="197.3" rx="108.8" ry="14.6"/>
		
			<ellipse transform="matrix(1 -5.641283e-03 5.641283e-03 1 -1.1102 1.1173)" class="st3" cx="197.5" cy="197.3" rx="108.3" ry="14.5"/>
		
			<ellipse transform="matrix(1 -5.641142e-03 5.641142e-03 1 -1.1101 1.1152)" class="st4" cx="197.1" cy="197.4" rx="107.9" ry="14.5"/>
		
			<ellipse transform="matrix(1 -5.640998e-03 5.640998e-03 1 -1.1101 1.113)" class="st4" cx="196.8" cy="197.4" rx="107.5" ry="14.4"/>
		
			<ellipse transform="matrix(1 -5.640852e-03 5.640852e-03 1 -1.1101 1.1109)" class="st5" cx="196.4" cy="197.4" rx="107" ry="14.4"/>
		
			<ellipse transform="matrix(1 -5.641177e-03 5.641177e-03 1 -1.1102 1.1088)" class="st5" cx="196" cy="197.4" rx="106.6" ry="14.3"/>
		
			<ellipse transform="matrix(1 -5.641031e-03 5.641031e-03 1 -1.1102 1.1067)" class="st5" cx="195.6" cy="197.4" rx="106.2" ry="14.3"/>
		
			<ellipse transform="matrix(1 -5.641359e-03 5.641359e-03 1 -1.1103 1.1046)" class="st6" cx="195.2" cy="197.4" rx="105.7" ry="14.2"/>
		
			<ellipse transform="matrix(1 -5.641215e-03 5.641215e-03 1 -1.1103 1.1024)" class="st7" cx="194.9" cy="197.4" rx="105.3" ry="14.1"/>
		
			<ellipse transform="matrix(1 -5.641067e-03 5.641067e-03 1 -1.1102 1.1003)" class="st7" cx="194.5" cy="197.4" rx="104.9" ry="14.1"/>
		
			<ellipse transform="matrix(1 -5.640921e-03 5.640921e-03 1 -1.1102 1.0981)" class="st7" cx="194.1" cy="197.4" rx="104.4" ry="14"/>
		
			<ellipse transform="matrix(1 -5.641252e-03 5.641252e-03 1 -1.1103 1.0961)" class="st8" cx="193.7" cy="197.4" rx="104" ry="14"/>
		
			<ellipse transform="matrix(1 -5.641102e-03 5.641102e-03 1 -1.1103 1.0939)" class="st8" cx="193.4" cy="197.4" rx="103.6" ry="13.9"/>
		
			<ellipse transform="matrix(1 -5.641439e-03 5.641439e-03 1 -1.1104 1.0919)" class="st8" cx="193" cy="197.4" rx="103.1" ry="13.8"/>
		
			<ellipse transform="matrix(1 -5.640802e-03 5.640802e-03 1 -1.1103 1.0896)" class="st9" cx="192.6" cy="197.4" rx="102.7" ry="13.8"/>
		
			<ellipse transform="matrix(1 -5.641138e-03 5.641138e-03 1 -1.1104 1.0875)" class="st9" cx="192.2" cy="197.4" rx="102.3" ry="13.7"/>
		
			<ellipse transform="matrix(1 -5.640988e-03 5.640988e-03 1 -1.1104 1.0854)" class="st10" cx="191.9" cy="197.4" rx="101.9" ry="13.7"/>
		
			<ellipse transform="matrix(1 -5.641328e-03 5.641328e-03 1 -1.1104 1.0833)" class="st11" cx="191.5" cy="197.4" rx="101.4" ry="13.6"/>
		
			<ellipse transform="matrix(1 -5.641177e-03 5.641177e-03 1 -1.1104 1.0812)" class="st12" cx="191.1" cy="197.4" rx="101" ry="13.6"/>
		
			<ellipse transform="matrix(1 -5.641523e-03 5.641523e-03 1 -1.1105 1.0791)" class="st12" cx="190.7" cy="197.4" rx="100.6" ry="13.5"/>
		
			<ellipse transform="matrix(1 -5.640870e-03 5.640870e-03 1 -1.1104 1.0769)" class="st13" cx="190.3" cy="197.4" rx="100.1" ry="13.4"/>
		
			<ellipse transform="matrix(1 -5.641215e-03 5.641215e-03 1 -1.1105 1.0748)" class="st14" cx="190" cy="197.4" rx="99.7" ry="13.4"/>
		
			<ellipse transform="matrix(1 -5.641062e-03 5.641062e-03 1 -1.1105 1.0726)" class="st15" cx="189.6" cy="197.4" rx="99.3" ry="13.3"/>
		
			<ellipse transform="matrix(1 -5.641410e-03 5.641410e-03 1 -1.1106 1.0706)" class="st15" cx="189.2" cy="197.4" rx="98.8" ry="13.3"/>
		
			<ellipse transform="matrix(1 -5.641256e-03 5.641256e-03 1 -1.1105 1.0684)" class="st16" cx="188.8" cy="197.4" rx="98.4" ry="13.2"/>
		
			<ellipse transform="matrix(1 -5.641099e-03 5.641099e-03 1 -1.1105 1.0663)" class="st17" cx="188.5" cy="197.4" rx="98" ry="13.2"/>
		
			<ellipse transform="matrix(1 -5.640939e-03 5.640939e-03 1 -1.1105 1.0641)" class="st17" cx="188.1" cy="197.4" rx="97.5" ry="13.1"/>
		
			<ellipse transform="matrix(1 -5.640781e-03 5.640781e-03 1 -1.1105 1.062)" class="st18" cx="187.7" cy="197.4" rx="97.1" ry="13"/>
		
			<ellipse transform="matrix(1 -5.641136e-03 5.641136e-03 1 -1.1106 1.0599)" class="st19" cx="187.3" cy="197.4" rx="96.7" ry="13"/>
		
			<ellipse transform="matrix(1 -5.640978e-03 5.640978e-03 1 -1.1106 1.0578)" class="st20" cx="187" cy="197.4" rx="96.2" ry="12.9"/>
		
			<ellipse transform="matrix(1 -5.641340e-03 5.641340e-03 1 -1.1107 1.0557)" class="st20" cx="186.6" cy="197.4" rx="95.8" ry="12.9"/>
		
			<ellipse transform="matrix(1 -5.640653e-03 5.640653e-03 1 -1.1105 1.0534)" class="st21" cx="186.2" cy="197.4" rx="95.4" ry="12.8"/>
		
			<ellipse transform="matrix(1 -5.641014e-03 5.641014e-03 1 -1.1106 1.0514)" class="st22" cx="185.8" cy="197.4" rx="94.9" ry="12.7"/>
		
			<ellipse transform="matrix(1 -5.640853e-03 5.640853e-03 1 -1.1106 1.0492)" class="st23" cx="185.4" cy="197.4" rx="94.5" ry="12.7"/>
		
			<ellipse transform="matrix(1 -5.641218e-03 5.641218e-03 1 -1.1107 1.0472)" class="st23" cx="185.1" cy="197.4" rx="94.1" ry="12.6"/>
		
			<ellipse transform="matrix(1 -5.641052e-03 5.641052e-03 1 -1.1107 1.045)" class="st24" cx="184.7" cy="197.4" rx="93.7" ry="12.6"/>
		
			<ellipse transform="matrix(1 -5.641425e-03 5.641425e-03 1 -1.1108 1.043)" class="st24" cx="184.3" cy="197.4" rx="93.2" ry="12.5"/>
		
			<ellipse transform="matrix(1 -5.640720e-03 5.640720e-03 1 -1.1107 1.0407)" class="st25" cx="183.9" cy="197.4" rx="92.8" ry="12.5"/>
		
			<ellipse transform="matrix(1 -5.641091e-03 5.641091e-03 1 -1.1107 1.0386)" class="st26" cx="183.6" cy="197.4" rx="92.4" ry="12.4"/>
		
			<ellipse transform="matrix(1 -5.640928e-03 5.640928e-03 1 -1.1107 1.0365)" class="st27" cx="183.2" cy="197.4" rx="91.9" ry="12.3"/>
		
			<ellipse transform="matrix(1 -5.641304e-03 5.641304e-03 1 -1.1108 1.0344)" class="st27" cx="182.8" cy="197.4" rx="91.5" ry="12.3"/>
		
			<ellipse transform="matrix(1 -5.641137e-03 5.641137e-03 1 -1.1108 1.0323)" class="st28" cx="182.4" cy="197.4" rx="91.1" ry="12.2"/>
		
			<ellipse transform="matrix(1 -5.641518e-03 5.641518e-03 1 -1.1109 1.0302)" class="st29" cx="182.1" cy="197.4" rx="90.6" ry="12.2"/>
		
			<ellipse transform="matrix(1 -5.640793e-03 5.640793e-03 1 -1.1108 1.028)" class="st29" cx="181.7" cy="197.4" rx="90.2" ry="12.1"/>
		
			<ellipse transform="matrix(1 -5.641178e-03 5.641178e-03 1 -1.1109 1.0259)" class="st30" cx="181.3" cy="197.4" rx="89.8" ry="12.1"/>
		
			<ellipse transform="matrix(1 -5.641005e-03 5.641005e-03 1 -1.1108 1.0237)" class="st30" cx="180.9" cy="197.4" rx="89.3" ry="12"/>
		
			<ellipse transform="matrix(1 -5.641392e-03 5.641392e-03 1 -1.1109 1.0217)" class="st31" cx="180.5" cy="197.4" rx="88.9" ry="11.9"/>
		
			<ellipse transform="matrix(1 -5.641221e-03 5.641221e-03 1 -1.1109 1.0195)" class="st32" cx="180.2" cy="197.4" rx="88.5" ry="11.9"/>
		
			<ellipse transform="matrix(1 -5.641613e-03 5.641613e-03 1 -1.111 1.0175)" class="st32" cx="179.8" cy="197.4" rx="88" ry="11.8"/>
		
			<ellipse transform="matrix(1 -5.640870e-03 5.640870e-03 1 -1.1109 1.0152)" class="st33" cx="179.4" cy="197.4" rx="87.6" ry="11.8"/>
		
			<ellipse transform="matrix(1 -5.641268e-03 5.641268e-03 1 -1.111 1.0132)" class="st33" cx="179" cy="197.4" rx="87.2" ry="11.7"/>
		
			<ellipse transform="matrix(1 -5.641089e-03 5.641089e-03 1 -1.111 1.011)" class="st34" cx="178.7" cy="197.4" rx="86.7" ry="11.6"/>
		
			<ellipse transform="matrix(1 -5.641488e-03 5.641488e-03 1 -1.1111 1.009)" class="st35" cx="178.3" cy="197.4" rx="86.3" ry="11.6"/>
		
			<ellipse transform="matrix(1 -5.641313e-03 5.641313e-03 1 -1.111 1.0068)" class="st36" cx="177.9" cy="197.4" rx="85.9" ry="11.5"/>
		
			<ellipse transform="matrix(1 -5.640547e-03 5.640547e-03 1 -1.1109 1.0045)" class="st37" cx="177.5" cy="197.5" rx="85.5" ry="11.5"/>
		
			<ellipse transform="matrix(1 -5.640949e-03 5.640949e-03 1 -1.111 1.0025)" class="st38" cx="177.2" cy="197.5" rx="85" ry="11.4"/>
		
			<ellipse transform="matrix(1 -5.640768e-03 5.640768e-03 1 -1.111 1.0003)" class="st39" cx="176.8" cy="197.5" rx="84.6" ry="11.4"/>
		
			<ellipse transform="matrix(1 -5.641175e-03 5.641175e-03 1 -1.1111 0.9983)" class="st40" cx="176.4" cy="197.5" rx="84.2" ry="11.3"/>
		
			<ellipse transform="matrix(1 -5.640994e-03 5.640994e-03 1 -1.1111 0.9961)" class="st41" cx="176" cy="197.5" rx="83.7" ry="11.2"/>
		
			<ellipse transform="matrix(1 -5.641407e-03 5.641407e-03 1 -1.1112 0.9941)" class="st42" cx="175.7" cy="197.5" rx="83.3" ry="11.2"/>
		
			<ellipse transform="matrix(1 -5.640621e-03 5.640621e-03 1 -1.111 0.9918)" class="st43" cx="175.3" cy="197.5" rx="82.9" ry="11.1"/>
		
			<ellipse transform="matrix(1 -5.641040e-03 5.641040e-03 1 -1.1111 0.9897)" class="st44" cx="174.9" cy="197.5" rx="82.4" ry="11.1"/>
		
			<ellipse transform="matrix(1 -5.640850e-03 5.640850e-03 1 -1.1111 0.9876)" class="st45" cx="174.5" cy="197.5" rx="82" ry="11"/>
		
			<ellipse transform="matrix(1 -5.641271e-03 5.641271e-03 1 -1.1112 0.9855)" class="st46" cx="174.1" cy="197.5" rx="81.6" ry="11"/>
		
			<ellipse transform="matrix(1 -5.641084e-03 5.641084e-03 1 -1.1112 0.9834)" class="st47" cx="173.8" cy="197.5" rx="81.1" ry="10.9"/>
		
			<ellipse transform="matrix(1 -5.641511e-03 5.641511e-03 1 -1.1113 0.9813)" class="st48" cx="173.4" cy="197.5" rx="80.7" ry="10.8"/>
		
			<ellipse transform="matrix(1 -5.640696e-03 5.640696e-03 1 -1.1111 0.9791)" class="st49" cx="173" cy="197.5" rx="80.3" ry="10.8"/>
		
			<ellipse transform="matrix(1 -5.641129e-03 5.641129e-03 1 -1.1112 0.977)" class="st50" cx="172.6" cy="197.5" rx="79.8" ry="10.7"/>
		
			<ellipse transform="matrix(1 -5.640934e-03 5.640934e-03 1 -1.1112 0.9748)" class="st51" cx="172.3" cy="197.5" rx="79.4" ry="10.7"/>
		
			<ellipse transform="matrix(1 -5.641369e-03 5.641369e-03 1 -1.1113 0.9728)" class="st52" cx="171.9" cy="197.5" rx="79" ry="10.6"/>
		
			<ellipse transform="matrix(1 -5.641180e-03 5.641180e-03 1 -1.1113 0.9706)" class="st53" cx="171.5" cy="197.5" rx="78.5" ry="10.5"/>
		
			<ellipse transform="matrix(1 -5.640981e-03 5.640981e-03 1 -1.1113 0.9685)" class="st54" cx="171.1" cy="197.5" rx="78.1" ry="10.5"/>
		
			<ellipse transform="matrix(1 -5.640781e-03 5.640781e-03 1 -1.1113 0.9663)" class="st55" cx="170.8" cy="197.5" rx="77.7" ry="10.4"/>
		
			<ellipse transform="matrix(1 -5.641229e-03 5.641229e-03 1 -1.1114 0.9643)" class="st56" cx="170.4" cy="197.5" rx="77.3" ry="10.4"/>
		
			<ellipse transform="matrix(1 -5.641027e-03 5.641027e-03 1 -1.1113 0.9621)" class="st57" cx="170" cy="197.5" rx="76.8" ry="10.3"/>
		
			<ellipse transform="matrix(1 -5.641477e-03 5.641477e-03 1 -1.1114 0.9601)" class="st58" cx="169.6" cy="197.5" rx="76.4" ry="10.3"/>
		
			<ellipse transform="matrix(1 -5.641278e-03 5.641278e-03 1 -1.1114 0.9579)" class="st59" cx="169.2" cy="197.5" rx="76" ry="10.2"/>
		
			<ellipse transform="matrix(1 -5.641074e-03 5.641074e-03 1 -1.1114 0.9557)" class="st60" cx="168.9" cy="197.5" rx="75.5" ry="10.1"/>
		
			<ellipse transform="matrix(1 -5.640870e-03 5.640870e-03 1 -1.1114 0.9536)" class="st61" cx="168.5" cy="197.5" rx="75.1" ry="10.1"/>
		
			<ellipse transform="matrix(1 -5.641330e-03 5.641330e-03 1 -1.1115 0.9515)" class="st62" cx="168.1" cy="197.5" rx="74.7" ry="10"/>
		
			<ellipse transform="matrix(1 -5.641126e-03 5.641126e-03 1 -1.1115 0.9494)" class="st63" cx="167.7" cy="197.5" rx="74.2" ry="10"/>
		
			<ellipse transform="matrix(1 -5.641597e-03 5.641597e-03 1 -1.1116 0.9473)" class="st64" cx="167.4" cy="197.5" rx="73.8" ry="9.9"/>
		
			<ellipse transform="matrix(1 -5.641388e-03 5.641388e-03 1 -1.1115 0.9452)" class="st65" cx="167" cy="197.5" rx="73.4" ry="9.8"/>
		
			<ellipse transform="matrix(1 -5.641177e-03 5.641177e-03 1 -1.1115 0.943)" class="st66" cx="166.6" cy="197.5" rx="72.9" ry="9.8"/>
		
			<ellipse transform="matrix(1 -5.640967e-03 5.640967e-03 1 -1.1115 0.9408)" class="st67" cx="166.2" cy="197.5" rx="72.5" ry="9.7"/>
		
			<ellipse transform="matrix(1 -5.640750e-03 5.640750e-03 1 -1.1115 0.9387)" class="st68" cx="165.9" cy="197.5" rx="72.1" ry="9.7"/>
		
			<ellipse transform="matrix(1 -5.641229e-03 5.641229e-03 1 -1.1116 0.9366)" class="st69" cx="165.5" cy="197.5" rx="71.6" ry="9.6"/>
		
			<ellipse transform="matrix(1 -5.641015e-03 5.641015e-03 1 -1.1115 0.9345)" class="st69" cx="165.1" cy="197.5" rx="71.2" ry="9.6"/>
		
			<ellipse transform="matrix(1 -5.641502e-03 5.641502e-03 1 -1.1117 0.9324)" class="st70" cx="164.7" cy="197.5" rx="70.8" ry="9.5"/>
		
			<ellipse transform="matrix(1 -5.640572e-03 5.640572e-03 1 -1.1115 0.9301)" class="st71" cx="164.3" cy="197.5" rx="70.3" ry="9.4"/>
		
			<ellipse transform="matrix(1 -5.641066e-03 5.641066e-03 1 -1.1116 0.9281)" class="st72" cx="164" cy="197.5" rx="69.9" ry="9.4"/>
		
			<ellipse transform="matrix(1 -5.640846e-03 5.640846e-03 1 -1.1116 0.9259)" class="st73" cx="163.6" cy="197.5" rx="69.5" ry="9.3"/>
		
			<ellipse transform="matrix(1 -5.641344e-03 5.641344e-03 1 -1.1117 0.9239)" class="st74" cx="163.2" cy="197.5" rx="69.1" ry="9.3"/>
		
			<ellipse transform="matrix(1 -5.641123e-03 5.641123e-03 1 -1.1117 0.9217)" class="st75" cx="162.8" cy="197.5" rx="68.6" ry="9.2"/>
		
			<ellipse transform="matrix(1 -5.640895e-03 5.640895e-03 1 -1.1116 0.9196)" class="st76" cx="162.5" cy="197.5" rx="68.2" ry="9.2"/>
		
			<ellipse transform="matrix(1 -5.640668e-03 5.640668e-03 1 -1.1116 0.9174)" class="st77" cx="162.1" cy="197.5" rx="67.8" ry="9.1"/>
		
			<ellipse transform="matrix(1 -5.641177e-03 5.641177e-03 1 -1.1117 0.9154)" class="st77" cx="161.7" cy="197.5" rx="67.3" ry="9"/>
		
			<ellipse transform="matrix(1 -5.640945e-03 5.640945e-03 1 -1.1117 0.9132)" class="st78" cx="161.3" cy="197.5" rx="66.9" ry="9"/>
		
			<ellipse transform="matrix(1 -5.641467e-03 5.641467e-03 1 -1.1118 0.9112)" class="st79" cx="161" cy="197.5" rx="66.5" ry="8.9"/>
		
			<ellipse transform="matrix(1 -5.641234e-03 5.641234e-03 1 -1.1118 0.909)" class="st80" cx="160.6" cy="197.5" rx="66" ry="8.9"/>
		
			<ellipse transform="matrix(1 -5.640998e-03 5.640998e-03 1 -1.1118 0.9068)" class="st81" cx="160.2" cy="197.5" rx="65.6" ry="8.8"/>
		
			<ellipse transform="matrix(1 -5.640768e-03 5.640768e-03 1 -1.1117 0.9047)" class="st82" cx="159.8" cy="197.5" rx="65.2" ry="8.7"/>
		
			<ellipse transform="matrix(1 -5.641297e-03 5.641297e-03 1 -1.1119 0.9026)" class="st83" cx="159.4" cy="197.5" rx="64.7" ry="8.7"/>
		
			<ellipse transform="matrix(1 -5.641057e-03 5.641057e-03 1 -1.1118 0.9005)" class="st84" cx="159.1" cy="197.5" rx="64.3" ry="8.6"/>
		
			<ellipse transform="matrix(1 -5.641601e-03 5.641601e-03 1 -1.1119 0.8984)" class="st85" cx="158.7" cy="197.5" rx="63.9" ry="8.6"/>
		
			<ellipse transform="matrix(1 -5.641359e-03 5.641359e-03 1 -1.1119 0.8963)" class="st86" cx="158.3" cy="197.5" rx="63.4" ry="8.5"/>
		
			<ellipse transform="matrix(1 -5.641114e-03 5.641114e-03 1 -1.1119 0.8941)" class="st87" cx="157.9" cy="197.5" rx="63" ry="8.5"/>
		
			<ellipse transform="matrix(1 -5.640870e-03 5.640870e-03 1 -1.1119 0.8919)" class="st88" cx="157.6" cy="197.6" rx="62.6" ry="8.4"/>
		
			<ellipse transform="matrix(1 -5.641423e-03 5.641423e-03 1 -1.112 0.8899)" class="st89" cx="157.2" cy="197.6" rx="62.1" ry="8.3"/>
		
			<ellipse transform="matrix(1 -5.641174e-03 5.641174e-03 1 -1.1119 0.8877)" class="st90" cx="156.8" cy="197.6" rx="61.7" ry="8.3"/>
		
			<ellipse transform="matrix(1 -5.641741e-03 5.641741e-03 1 -1.1121 0.8857)" class="st91" cx="156.4" cy="197.6" rx="61.3" ry="8.2"/>
		
			<ellipse transform="matrix(1 -5.640673e-03 5.640673e-03 1 -1.1119 0.8834)" class="st92" cx="156.1" cy="197.6" rx="60.9" ry="8.2"/>
		
			<ellipse transform="matrix(1 -5.641245e-03 5.641245e-03 1 -1.112 0.8814)" class="st93" cx="155.7" cy="197.6" rx="60.4" ry="8.1"/>
		
			<ellipse transform="matrix(1 -5.640987e-03 5.640987e-03 1 -1.112 0.8792)" class="st94" cx="155.3" cy="197.6" rx="60" ry="8.1"/>
		
			<ellipse transform="matrix(1 -5.640725e-03 5.640725e-03 1 -1.1119 0.877)" class="st95" cx="154.9" cy="197.6" rx="59.6" ry="8"/>
		
			<ellipse transform="matrix(1 -5.641310e-03 5.641310e-03 1 -1.1121 0.875)" class="st96" cx="154.5" cy="197.6" rx="59.1" ry="7.9"/>
		
			<ellipse transform="matrix(1 -5.641046e-03 5.641046e-03 1 -1.112 0.8728)" class="st97" cx="154.2" cy="197.6" rx="58.7" ry="7.9"/>
		
			<ellipse transform="matrix(1 -5.640779e-03 5.640779e-03 1 -1.112 0.8707)" class="st98" cx="153.8" cy="197.6" rx="58.3" ry="7.8"/>
		
			<ellipse transform="matrix(1 -5.640513e-03 5.640513e-03 1 -1.112 0.8685)" class="st99" cx="153.4" cy="197.6" rx="57.8" ry="7.8"/>
		
			<ellipse transform="matrix(1 -5.641109e-03 5.641109e-03 1 -1.1121 0.8665)" class="st100" cx="153" cy="197.6" rx="57.4" ry="7.7"/>
		
			<ellipse transform="matrix(1 -5.640836e-03 5.640836e-03 1 -1.1121 0.8643)" class="st101" cx="152.7" cy="197.6" rx="57" ry="7.6"/>
		
			<ellipse transform="matrix(1 -5.641448e-03 5.641448e-03 1 -1.1122 0.8623)" class="st102" cx="152.3" cy="197.6" rx="56.5" ry="7.6"/>
		
			<ellipse transform="matrix(1 -5.641179e-03 5.641179e-03 1 -1.1122 0.8601)" class="st103" cx="151.9" cy="197.6" rx="56.1" ry="7.5"/>
		
			<ellipse transform="matrix(1 -5.640900e-03 5.640900e-03 1 -1.1121 0.8579)" class="st104" cx="151.5" cy="197.6" rx="55.7" ry="7.5"/>
		
			<ellipse transform="matrix(1 -5.640623e-03 5.640623e-03 1 -1.1121 0.8558)" class="st105" cx="151.2" cy="197.6" rx="55.2" ry="7.4"/>
		
			<ellipse transform="matrix(1 -5.641248e-03 5.641248e-03 1 -1.1122 0.8537)" class="st106" cx="150.8" cy="197.6" rx="54.8" ry="7.4"/>
		
			<ellipse transform="matrix(1 -5.640963e-03 5.640963e-03 1 -1.1122 0.8516)" class="st107" cx="150.4" cy="197.6" rx="54.4" ry="7.3"/>
		
			<ellipse transform="matrix(1 -5.641606e-03 5.641606e-03 1 -1.1123 0.8495)" class="st108" cx="150" cy="197.6" rx="53.9" ry="7.2"/>
		
			<ellipse transform="matrix(1 -5.641319e-03 5.641319e-03 1 -1.1123 0.8474)" class="st109" cx="149.6" cy="197.6" rx="53.5" ry="7.2"/>
		
			<ellipse transform="matrix(1 -5.641028e-03 5.641028e-03 1 -1.1123 0.8452)" class="st110" cx="149.3" cy="197.6" rx="53.1" ry="7.1"/>
		
			<ellipse transform="matrix(1 -5.640738e-03 5.640738e-03 1 -1.1122 0.843)" class="st111" cx="148.9" cy="197.6" rx="52.7" ry="7.1"/>
		
			<ellipse transform="matrix(1 -5.641394e-03 5.641394e-03 1 -1.1124 0.841)" class="st112" cx="148.5" cy="197.6" rx="52.2" ry="7"/>
		
			<ellipse transform="matrix(1 -5.641108e-03 5.641108e-03 1 -1.1123 0.8388)" class="st113" cx="148.1" cy="197.6" rx="51.8" ry="7"/>
		
			<ellipse transform="matrix(1 -5.641778e-03 5.641778e-03 1 -1.1125 0.8368)" class="st114" cx="147.8" cy="197.6" rx="51.4" ry="6.9"/>
		
			<ellipse transform="matrix(1 -5.640497e-03 5.640497e-03 1 -1.1122 0.8345)" class="st115" cx="147.4" cy="197.6" rx="50.9" ry="6.8"/>
		
			<ellipse transform="matrix(1 -5.641180e-03 5.641180e-03 1 -1.1124 0.8325)" class="st116" cx="147" cy="197.6" rx="50.5" ry="6.8"/>
		
			<ellipse transform="matrix(1 -5.640870e-03 5.640870e-03 1 -1.1123 0.8303)" class="st117" cx="146.6" cy="197.6" rx="50.1" ry="6.7"/>
		
			<ellipse transform="matrix(1 -5.641562e-03 5.641562e-03 1 -1.1125 0.8283)" class="st118" cx="146.3" cy="197.6" rx="49.6" ry="6.7"/>
		
			<ellipse transform="matrix(1 -5.641256e-03 5.641256e-03 1 -1.1125 0.8261)" class="st119" cx="145.9" cy="197.6" rx="49.2" ry="6.6"/>
		
			<ellipse transform="matrix(1 -5.641964e-03 5.641964e-03 1 -1.1126 0.8241)" class="st120" cx="145.5" cy="197.6" rx="48.8" ry="6.5"/>
		
			<ellipse transform="matrix(1 -5.640616e-03 5.640616e-03 1 -1.1124 0.8217)" class="st121" cx="145.1" cy="197.6" rx="48.3" ry="6.5"/>
		
			<ellipse transform="matrix(1 -5.641337e-03 5.641337e-03 1 -1.1125 0.8197)" class="st122" cx="144.7" cy="197.6" rx="47.9" ry="6.4"/>
		
			<ellipse transform="matrix(1 -5.641018e-03 5.641018e-03 1 -1.1125 0.8176)" class="st123" cx="144.4" cy="197.6" rx="47.5" ry="6.4"/>
		
			<ellipse transform="matrix(1 -5.641749e-03 5.641749e-03 1 -1.1126 0.8155)" class="st124" cx="144" cy="197.6" rx="47" ry="6.3"/>
		
			<ellipse transform="matrix(1 -5.641428e-03 5.641428e-03 1 -1.1126 0.8134)" class="st125" cx="143.6" cy="197.6" rx="46.6" ry="6.3"/>
		
			<ellipse transform="matrix(1 -5.641094e-03 5.641094e-03 1 -1.1125 0.8112)" class="st126" cx="143.2" cy="197.6" rx="46.2" ry="6.2"/>
		
			<ellipse transform="matrix(1 -5.640754e-03 5.640754e-03 1 -1.1125 0.809)" class="st127" cx="142.9" cy="197.6" rx="45.7" ry="6.1"/>
		
			<ellipse transform="matrix(1 -5.640414e-03 5.640414e-03 1 -1.1124 0.8068)" class="st128" cx="142.5" cy="197.6" rx="45.3" ry="6.1"/>
		
			<ellipse transform="matrix(1 -5.641175e-03 5.641175e-03 1 -1.1126 0.8048)" class="st129" cx="142.1" cy="197.6" rx="44.9" ry="6"/>
		
			<ellipse transform="matrix(1 -5.640833e-03 5.640833e-03 1 -1.1126 0.8026)" class="st130" cx="141.7" cy="197.6" rx="44.5" ry="6"/>
		
			<ellipse transform="matrix(1 -5.641613e-03 5.641613e-03 1 -1.1127 0.8006)" class="st131" cx="141.4" cy="197.6" rx="44" ry="5.9"/>
		
			<ellipse transform="matrix(1 -5.640114e-03 5.640114e-03 1 -1.1124 0.7983)" class="st132" cx="141" cy="197.6" rx="43.6" ry="5.9"/>
		
			<ellipse transform="matrix(1 -5.640916e-03 5.640916e-03 1 -1.1126 0.7963)" class="st133" cx="140.6" cy="197.6" rx="43.2" ry="5.8"/>
		
			<ellipse transform="matrix(1 -5.640550e-03 5.640550e-03 1 -1.1126 0.7941)" class="st134" cx="140.2" cy="197.6" rx="42.7" ry="5.7"/>
		
			<ellipse transform="matrix(1 -5.641359e-03 5.641359e-03 1 -1.1127 0.7921)" class="st135" cx="139.9" cy="197.6" rx="42.3" ry="5.7"/>
		
			<ellipse transform="matrix(1 -5.640997e-03 5.640997e-03 1 -1.1127 0.7899)" class="st136" cx="139.5" cy="197.6" rx="41.9" ry="5.6"/>
		
			<ellipse transform="matrix(1 -5.641828e-03 5.641828e-03 1 -1.1129 0.7879)" class="st137" cx="139.1" cy="197.6" rx="41.4" ry="5.6"/>
		
			<ellipse transform="matrix(1 -5.640237e-03 5.640237e-03 1 -1.1126 0.7856)" class="st138" cx="138.7" cy="197.6" rx="41" ry="5.5"/>
		
			<ellipse transform="matrix(1 -5.641084e-03 5.641084e-03 1 -1.1128 0.7836)" class="st139" cx="138.3" cy="197.6" rx="40.6" ry="5.4"/>
		
			<ellipse transform="matrix(1 -5.640696e-03 5.640696e-03 1 -1.1127 0.7814)" class="st140" cx="138" cy="197.7" rx="40.1" ry="5.4"/>
		
			<ellipse transform="matrix(1 -5.641560e-03 5.641560e-03 1 -1.1129 0.7794)" class="st141" cx="137.6" cy="197.7" rx="39.7" ry="5.3"/>
		
			<ellipse transform="matrix(1 -5.641176e-03 5.641176e-03 1 -1.1128 0.7772)" class="st142" cx="137.2" cy="197.7" rx="39.3" ry="5.3"/>
		
			<ellipse transform="matrix(1 -5.642064e-03 5.642064e-03 1 -1.113 0.7752)" class="st143" cx="136.8" cy="197.7" rx="38.8" ry="5.2"/>
		
			<ellipse transform="matrix(1 -5.640376e-03 5.640376e-03 1 -1.1127 0.7728)" class="st144" cx="136.5" cy="197.7" rx="38.4" ry="5.2"/>
		
			<ellipse transform="matrix(1 -5.641282e-03 5.641282e-03 1 -1.1129 0.7708)" class="st145" cx="136.1" cy="197.7" rx="38" ry="5.1"/>
		
			<ellipse transform="matrix(1 -5.640870e-03 5.640870e-03 1 -1.1128 0.7686)" class="st146" cx="135.7" cy="197.7" rx="37.5" ry="5"/>
		
			<ellipse transform="matrix(1 -5.641804e-03 5.641804e-03 1 -1.113 0.7666)" class="st147" cx="135.3" cy="197.7" rx="37.1" ry="5"/>
		
			<ellipse transform="matrix(1 -5.641388e-03 5.641388e-03 1 -1.113 0.7645)" class="st148" cx="135" cy="197.7" rx="36.7" ry="4.9"/>
		
			<ellipse transform="matrix(1 -5.642342e-03 5.642342e-03 1 -1.1132 0.7625)" class="st149" cx="134.6" cy="197.7" rx="36.3" ry="4.9"/>
		
			<ellipse transform="matrix(1 -5.640535e-03 5.640535e-03 1 -1.1128 0.7601)" class="st150" cx="134.2" cy="197.7" rx="35.8" ry="4.8"/>
		
			<ellipse transform="matrix(1 -5.641502e-03 5.641502e-03 1 -1.113 0.7581)" class="st151" cx="133.8" cy="197.7" rx="35.4" ry="4.8"/>
		
			<ellipse transform="matrix(1 -5.641062e-03 5.641062e-03 1 -1.113 0.7559)" class="st152" cx="133.4" cy="197.7" rx="35" ry="4.7"/>
		
			<ellipse transform="matrix(1 -5.642068e-03 5.642068e-03 1 -1.1132 0.7539)" class="st153" cx="133.1" cy="197.7" rx="34.5" ry="4.6"/>
		
			<ellipse transform="matrix(1 -5.641632e-03 5.641632e-03 1 -1.1131 0.7517)" class="st154" cx="132.7" cy="197.7" rx="34.1" ry="4.6"/>
		
			<ellipse transform="matrix(1 -5.639692e-03 5.639692e-03 1 -1.1128 0.7494)" class="st155" cx="132.3" cy="197.7" rx="33.7" ry="4.5"/>
		
			<ellipse transform="matrix(1 -5.640719e-03 5.640719e-03 1 -1.113 0.7474)" class="st156" cx="131.9" cy="197.7" rx="33.2" ry="4.5"/>
		
			<ellipse transform="matrix(1 -5.640240e-03 5.640240e-03 1 -1.1129 0.7452)" class="st157" cx="131.6" cy="197.7" rx="32.8" ry="4.4"/>
		
			<ellipse transform="matrix(1 -5.641293e-03 5.641293e-03 1 -1.1131 0.7432)" class="st158" cx="131.2" cy="197.7" rx="32.4" ry="4.3"/>
		
			<ellipse transform="matrix(1 -5.640818e-03 5.640818e-03 1 -1.113 0.741)" class="st159" cx="130.8" cy="197.7" rx="31.9" ry="4.3"/>
		
			<ellipse transform="matrix(1 -5.641907e-03 5.641907e-03 1 -1.1133 0.739)" class="st160" cx="130.4" cy="197.7" rx="31.5" ry="4.2"/>
		
			<ellipse transform="matrix(1 -5.639810e-03 5.639810e-03 1 -1.1129 0.7366)" class="st161" cx="130.1" cy="197.7" rx="31.1" ry="4.2"/>
		
			<ellipse transform="matrix(1 -5.640925e-03 5.640925e-03 1 -1.1131 0.7346)" class="st162" cx="129.7" cy="197.7" rx="30.6" ry="4.1"/>
		
			<ellipse transform="matrix(1 -5.640408e-03 5.640408e-03 1 -1.113 0.7324)" class="st163" cx="129.3" cy="197.7" rx="30.2" ry="4.1"/>
		
			<ellipse transform="matrix(1 -5.641574e-03 5.641574e-03 1 -1.1133 0.7305)" class="st164" cx="128.9" cy="197.7" rx="29.8" ry="4"/>
		
			<ellipse transform="matrix(1 -5.641051e-03 5.641051e-03 1 -1.1132 0.7283)" class="st165" cx="128.5" cy="197.7" rx="29.3" ry="3.9"/>
		
			<ellipse transform="matrix(1 -5.642242e-03 5.642242e-03 1 -1.1134 0.7263)" class="st166" cx="128.2" cy="197.7" rx="28.9" ry="3.9"/>
		
			<ellipse transform="matrix(1 -5.639968e-03 5.639968e-03 1 -1.113 0.7239)" class="st167" cx="127.8" cy="197.7" rx="28.5" ry="3.8"/>
		
			<ellipse transform="matrix(1 -5.641179e-03 5.641179e-03 1 -1.1133 0.7219)" class="st168" cx="127.4" cy="197.7" rx="28.1" ry="3.8"/>
		
			<ellipse transform="matrix(1 -5.640618e-03 5.640618e-03 1 -1.1132 0.7197)" class="st169" cx="127" cy="197.7" rx="27.6" ry="3.7"/>
		
			<ellipse transform="matrix(1 -5.641887e-03 5.641887e-03 1 -1.1134 0.7178)" class="st170" cx="126.7" cy="197.7" rx="27.2" ry="3.7"/>
		
			<ellipse transform="matrix(1 -5.641319e-03 5.641319e-03 1 -1.1133 0.7156)" class="st171" cx="126.3" cy="197.7" rx="26.8" ry="3.6"/>
		
			<ellipse transform="matrix(1 -5.640732e-03 5.640732e-03 1 -1.1132 0.7134)" class="st172" cx="125.9" cy="197.7" rx="26.3" ry="3.5"/>
		
			<ellipse transform="matrix(1 -5.640137e-03 5.640137e-03 1 -1.1131 0.7112)" class="st173" cx="125.5" cy="197.7" rx="25.9" ry="3.5"/>
		
			<ellipse transform="matrix(1 -5.641473e-03 5.641473e-03 1 -1.1134 0.7092)" class="st174" cx="125.2" cy="197.7" rx="25.5" ry="3.4"/>
		
			<ellipse transform="matrix(1 -5.640870e-03 5.640870e-03 1 -1.1133 0.707)" class="st175" cx="124.8" cy="197.7" rx="25" ry="3.4"/>
		
			<ellipse transform="matrix(1 -5.642279e-03 5.642279e-03 1 -1.1136 0.705)" class="st176" cx="124.4" cy="197.7" rx="24.6" ry="3.3"/>
		
			<ellipse transform="matrix(1 -5.641656e-03 5.641656e-03 1 -1.1135 0.7028)" class="st177" cx="124" cy="197.7" rx="24.2" ry="3.2"/>
		
			<ellipse transform="matrix(1 -5.641012e-03 5.641012e-03 1 -1.1134 0.7006)" class="st178" cx="123.6" cy="197.7" rx="23.7" ry="3.2"/>
		
			<ellipse transform="matrix(1 -5.640355e-03 5.640355e-03 1 -1.1133 0.6984)" class="st179" cx="123.3" cy="197.7" rx="23.3" ry="3.1"/>
		
			<ellipse transform="matrix(1 -5.641847e-03 5.641847e-03 1 -1.1136 0.6965)" class="st180" cx="122.9" cy="197.7" rx="22.9" ry="3.1"/>
		
			<ellipse transform="matrix(1 -5.641169e-03 5.641169e-03 1 -1.1135 0.6943)" class="st181" cx="122.5" cy="197.7" rx="22.4" ry="3"/>
		
			<ellipse transform="matrix(1 -5.642748e-03 5.642748e-03 1 -1.1138 0.6924)" class="st182" cx="122.1" cy="197.7" rx="22" ry="3"/>
		
			<ellipse transform="matrix(1 -5.642061e-03 5.642061e-03 1 -1.1137 0.6901)" class="st183" cx="121.8" cy="197.7" rx="21.6" ry="2.9"/>
		
			<ellipse transform="matrix(1 -5.641359e-03 5.641359e-03 1 -1.1136 0.6879)" class="st184" cx="121.4" cy="197.7" rx="21.1" ry="2.8"/>
		
			<ellipse transform="matrix(1 -5.640628e-03 5.640628e-03 1 -1.1134 0.6857)" class="st185" cx="121" cy="197.7" rx="20.7" ry="2.8"/>
		
			<ellipse transform="matrix(1 -5.639852e-03 5.639852e-03 1 -1.1133 0.6835)" class="st186" cx="120.6" cy="197.7" rx="20.3" ry="2.7"/>
		
			<ellipse transform="matrix(1 -5.641574e-03 5.641574e-03 1 -1.1137 0.6816)" class="st187" cx="120.3" cy="197.7" rx="19.9" ry="2.7"/>
		
			<ellipse transform="matrix(1 -5.640784e-03 5.640784e-03 1 -1.1135 0.6794)" class="st188" cx="119.9" cy="197.7" rx="19.4" ry="2.6"/>
		
			<ellipse transform="matrix(1 -5.642591e-03 5.642591e-03 1 -1.1139 0.6774)" class="st189" cx="119.5" cy="197.7" rx="19" ry="2.5"/>
		
			<ellipse transform="matrix(1 -5.639109e-03 5.639109e-03 1 -1.1132 0.6749)" class="st190" cx="119.1" cy="197.7" rx="18.6" ry="2.5"/>
		
			<ellipse transform="matrix(1 -5.640963e-03 5.640963e-03 1 -1.1136 0.673)" class="st191" cx="118.7" cy="197.7" rx="18.1" ry="2.4"/>
		
			<ellipse transform="matrix(1 -5.640081e-03 5.640081e-03 1 -1.1134 0.6708)" class="st192" cx="118.4" cy="197.8" rx="17.7" ry="2.4"/>
		
			<ellipse transform="matrix(1 -5.642068e-03 5.642068e-03 1 -1.1139 0.6689)" class="st193" cx="118" cy="197.8" rx="17.3" ry="2.3"/>
		
			<ellipse transform="matrix(1 -5.641169e-03 5.641169e-03 1 -1.1137 0.6666)" class="st194" cx="117.6" cy="197.8" rx="16.8" ry="2.3"/>
		
			<ellipse transform="matrix(1 -5.640240e-03 5.640240e-03 1 -1.1135 0.6644)" class="st195" cx="117.2" cy="197.8" rx="16.4" ry="2.2"/>
		
			<ellipse transform="matrix(1 -5.639261e-03 5.639261e-03 1 -1.1134 0.6622)" class="st196" cx="116.9" cy="197.8" rx="16" ry="2.1"/>
		
			<ellipse transform="matrix(1 -5.641428e-03 5.641428e-03 1 -1.1138 0.6603)" class="st197" cx="116.5" cy="197.8" rx="15.5" ry="2.1"/>
		
			<ellipse transform="matrix(1 -5.640408e-03 5.640408e-03 1 -1.1136 0.6581)" class="st198" cx="116.1" cy="197.8" rx="15.1" ry="2"/>
		
			<ellipse transform="matrix(1 -5.642755e-03 5.642755e-03 1 -1.1141 0.6562)" class="st199" cx="115.7" cy="197.8" rx="14.7" ry="2"/>
		
			<ellipse transform="matrix(1 -5.641714e-03 5.641714e-03 1 -1.1139 0.654)" class="st200" cx="115.4" cy="197.8" rx="14.2" ry="1.9"/>
		
			<ellipse transform="matrix(1 -5.640628e-03 5.640628e-03 1 -1.1137 0.6517)" class="st201" cx="115" cy="197.8" rx="13.8" ry="1.9"/>
		
			<ellipse transform="matrix(1 -5.639451e-03 5.639451e-03 1 -1.1135 0.6494)" class="st202" cx="114.6" cy="197.8" rx="13.4" ry="1.8"/>
		
			<ellipse transform="matrix(1 -5.642057e-03 5.642057e-03 1 -1.114 0.6476)" class="st203" cx="114.2" cy="197.8" rx="12.9" ry="1.7"/>
		
			<ellipse transform="matrix(1 -5.640870e-03 5.640870e-03 1 -1.1138 0.6454)" class="st204" cx="113.8" cy="197.8" rx="12.5" ry="1.7"/>
		
			<ellipse transform="matrix(1 -5.643713e-03 5.643713e-03 1 -1.1144 0.6436)" class="st205" cx="113.5" cy="197.8" rx="12.1" ry="1.6"/>
		
			<ellipse transform="matrix(1 -5.642500e-03 5.642500e-03 1 -1.1142 0.6413)" class="st206" cx="113.1" cy="197.8" rx="11.7" ry="1.6"/>
		
			<ellipse transform="matrix(1 -5.641194e-03 5.641194e-03 1 -1.1139 0.639)" class="st207" cx="112.7" cy="197.8" rx="11.2" ry="1.5"/>
		
			<ellipse transform="matrix(1 -5.639757e-03 5.639757e-03 1 -1.1137 0.6367)" class="st208" cx="112.3" cy="197.8" rx="10.8" ry="1.4"/>
		
			<ellipse transform="matrix(1 -5.643028e-03 5.643028e-03 1 -1.1143 0.635)" class="st209" cx="112" cy="197.8" rx="10.4" ry="1.4"/>
		
			<ellipse transform="matrix(1 -5.641574e-03 5.641574e-03 1 -1.114 0.6327)" class="st210" cx="111.6" cy="197.8" rx="9.9" ry="1.3"/>
		
			<ellipse transform="matrix(1 -5.645224e-03 5.645224e-03 1 -1.1148 0.631)" class="st211" cx="111.2" cy="197.8" rx="9.5" ry="1.3"/>
		
			<ellipse transform="matrix(1 -5.638189e-03 5.638189e-03 1 -1.1134 0.628)" class="st212" cx="110.8" cy="197.8" rx="9.1" ry="1.2"/>
		
			<ellipse transform="matrix(1 -5.642068e-03 5.642068e-03 1 -1.1142 0.6264)" class="st213" cx="110.5" cy="197.8" rx="8.6" ry="1.2"/>
		
			<ellipse transform="matrix(1 -5.640223e-03 5.640223e-03 1 -1.1138 0.624)" class="st214" cx="110.1" cy="197.8" rx="8.2" ry="1.1"/>
		
			<ellipse transform="matrix(1 -5.638173e-03 5.638173e-03 1 -1.1135 0.6217)" class="st215" cx="109.7" cy="197.8" rx="7.8" ry="1"/>
		
			<ellipse transform="matrix(1 -5.642774e-03 5.642774e-03 1 -1.1144 0.6201)" class="st216" cx="109.3" cy="197.8" rx="7.3" ry="1"/>
		
			<ellipse transform="matrix(1 -5.640628e-03 5.640628e-03 1 -1.114 0.6177)" class="st217" cx="109" cy="197.8" rx="6.9" ry="0.9"/>
		
			<ellipse transform="matrix(1 -5.638239e-03 5.638239e-03 1 -1.1135 0.6153)" class="st218" cx="108.6" cy="197.8" rx="6.5" ry="0.9"/>
		
			<ellipse transform="matrix(1 -5.635462e-03 5.635462e-03 1 -1.113 0.6129)" class="st219" cx="108.2" cy="197.8" rx="6" ry="0.8"/>
		
			<ellipse transform="matrix(1 -5.641169e-03 5.641169e-03 1 -1.1141 0.6114)" class="st220" cx="107.8" cy="197.8" rx="5.6" ry="0.8"/>
		
			<ellipse transform="matrix(1 -5.638228e-03 5.638228e-03 1 -1.1136 0.6089)" class="st221" cx="107.4" cy="197.8" rx="5.2" ry="0.7"/>
		
			<ellipse transform="matrix(1 -5.645224e-03 5.645224e-03 1 -1.115 0.6076)" class="st222" cx="107.1" cy="197.8" rx="4.7" ry="0.6"/>
		
			<ellipse transform="matrix(1 -5.642035e-03 5.642035e-03 1 -1.1144 0.6051)" class="st223" cx="106.7" cy="197.8" rx="4.3" ry="0.6"/>
		
			<ellipse transform="matrix(1 -5.638210e-03 5.638210e-03 1 -1.1136 0.6026)" class="st224" cx="106.3" cy="197.8" rx="3.9" ry="0.5"/>
		
			<ellipse transform="matrix(1 -5.633346e-03 5.633346e-03 1 -1.1127 0.5999)" class="st225" cx="105.9" cy="197.8" rx="3.5" ry="0.5"/>
		
			<ellipse transform="matrix(1 -5.643737e-03 5.643737e-03 1 -1.1147 0.5989)" class="st226" cx="105.6" cy="197.8" rx="3" ry="0.4"/>
		
			<ellipse transform="matrix(1 -5.638282e-03 5.638282e-03 1 -1.1137 0.5962)" class="st227" cx="105.2" cy="197.8" rx="2.6" ry="0.3"/>
		
			<ellipse transform="matrix(1 -5.653685e-03 5.653685e-03 1 -1.1167 0.5957)" class="st228" cx="104.8" cy="197.8" rx="2.2" ry="0.3"/>
		
			<ellipse transform="matrix(1 -5.647827e-03 5.647827e-03 1 -1.1156 0.5929)" class="st229" cx="104.4" cy="197.8" rx="1.7" ry="0.2"/>
		
			<ellipse transform="matrix(1 -5.638282e-03 5.638282e-03 1 -1.1137 0.5898)" class="st230" cx="104.1" cy="197.8" rx="1.3" ry="0.2"/>
		
			<ellipse transform="matrix(1 -5.618865e-03 5.618865e-03 1 -1.1099 0.5857)" class="st231" cx="103.7" cy="197.8" rx="0.9" ry="0.1"/>
		
			<ellipse transform="matrix(1 -5.676461e-03 5.676461e-03 1 -1.1213 0.5896)" class="st232" cx="103.3" cy="197.8" rx="0.4" ry="0.1"/>
	</g>
</g>
<g class="st2">
	<g>
		<path class="st233" d="M1.5,69.1L1.5,69.1L1.5,69.1c0-0.1,0.1-0.1,0.1-0.2c0-0.1,0.1-0.1,0.1-0.2c0-0.1,0.1-0.1,0.1-0.2
			c1.1-2,2.7-3.6,4.4-4.3L6.7,64l0,0l61.4-26.8l61.4-26.8l0,0l0.5-0.2c1.8-0.8,3.5-0.6,4.8,0.3c0,0,0.1,0,0.1,0.1c0,0,0.1,0,0.1,0.1
			l7.1,5.2l-4.6,1.4l6.1,82.4c0.2,2.1-0.4,4.4-1.6,6.4c0,0.1-0.1,0.1-0.1,0.2c0,0.1-0.1,0.1-0.1,0.2c-1.1,2-2.7,3.6-4.4,4.4
			L15,164.2l0.5,5.2l-6.7-5c0,0-0.1,0-0.1-0.1c-1.3-0.9-2.2-2.5-2.4-4.6L0,75.3C-0.1,73.2,0.4,71,1.5,69.1z"/>
		<g>
			
				<linearGradient id="SVGID_3_" gradientUnits="userSpaceOnUse" x1="-2605.2629" y1="-186.8359" x2="-2439.0925" y2="-186.8359" gradientTransform="matrix(-0.8267 0.3605 7.820000e-02 1.0571 -1991.6531 1199.4211)">
				<stop  offset="0" style="stop-color:#7BDAFF"/>
				<stop  offset="1" style="stop-color:#59BDEF"/>
			</linearGradient>
			<path class="st234" d="M20.6,169.9l123.8-54c3.7-1.6,6.5-6.8,6.1-11.6l-6.2-83.2c-0.4-4.8-3.7-7.3-7.4-5.7l-123.8,54
				C9.5,71,6.7,76.2,7.1,81l6.2,83.2C13.6,169,16.9,171.6,20.6,169.9z"/>
			
				<linearGradient id="SVGID_4_" gradientUnits="userSpaceOnUse" x1="-2400.3425" y1="-98.5798" x2="-2490.8057" y2="-196.6787" gradientTransform="matrix(-0.8267 0.3605 7.820000e-02 1.0571 -1991.6531 1199.4211)">
				<stop  offset="0.7677" style="stop-color:#59BDEF"/>
				<stop  offset="0.8452" style="stop-color:#55B8EB"/>
				<stop  offset="0.9318" style="stop-color:#49ABE1"/>
				<stop  offset="1" style="stop-color:#3A9BD5"/>
			</linearGradient>
			<path class="st235" d="M13.7,69.2l61.4-26.8l7.2,97.8l-61.2,29.5c-4,1.8-7.6-0.4-7.9-4.9L7,80.4C6.7,76,9.7,70.9,13.7,69.2z"/>
			
				<linearGradient id="SVGID_5_" gradientUnits="userSpaceOnUse" x1="-5233.8003" y1="-98.6711" x2="-5324.2671" y2="-196.7734" gradientTransform="matrix(0.8267 -0.3605 7.820000e-02 1.0571 4521.0542 -1640.6246)">
				<stop  offset="0.7677" style="stop-color:#59BDEF"/>
				<stop  offset="0.8452" style="stop-color:#55B8EB"/>
				<stop  offset="0.9318" style="stop-color:#49ABE1"/>
				<stop  offset="1" style="stop-color:#3A9BD5"/>
			</linearGradient>
			<path class="st236" d="M136.5,15.6L75.1,42.4l7.2,97.2l61.6-23.4c4-1.8,7-6.8,6.7-11.2l-6.2-84.4
				C144.1,16.1,140.5,13.9,136.5,15.6z"/>
			
				<linearGradient id="SVGID_6_" gradientUnits="userSpaceOnUse" x1="-2522.179" y1="-44.8688" x2="-2522.179" y2="-184.9496" gradientTransform="matrix(-0.8267 0.3605 7.820000e-02 1.0571 -1991.6531 1199.4211)">
				<stop  offset="0.7677" style="stop-color:#3A9BD5"/>
				<stop  offset="0.8386" style="stop-color:#3896D2"/>
				<stop  offset="0.9179" style="stop-color:#3189C9"/>
				<stop  offset="1" style="stop-color:#2573BA"/>
			</linearGradient>
			<path class="st237" d="M149.2,111.1c-1.2,2.3-3.1,4.2-5.3,5.1L21.1,169.7c-2.2,0.9-4.2,0.7-5.7-0.4L77.9,80L149.2,111.1z"/>
			
				<linearGradient id="SVGID_7_" gradientUnits="userSpaceOnUse" x1="-2577.6829" y1="-254.395" x2="-2434.7737" y2="-178.6479" gradientTransform="matrix(-0.8267 0.3605 7.820000e-02 1.0571 -1991.6531 1199.4211)">
				<stop  offset="0" style="stop-color:#7BDAFF"/>
				<stop  offset="1" style="stop-color:#59BDEF"/>
			</linearGradient>
			<path class="st238" d="M8.4,74.3c1.2-2.3,3.1-4.2,5.3-5.1l122.8-53.5c2.2-0.9,4.2-0.7,5.7,0.4l-62.4,89.3L8.4,74.3z"/>
		</g>
	</g>
	<g>
		<path class="st233" d="M34.8,85.2L34.8,85.2L34.8,85.2c0-0.1,0.1-0.2,0.1-0.2c0-0.1,0.1-0.1,0.1-0.2c0-0.1,0.1-0.1,0.1-0.2
			c1-2.2,2.6-4.1,4.4-5l0.5-0.3l0,0l63.9-33.8l63.9-33.8l0,0l0.5-0.3c1.9-1,3.7-0.9,5.2,0c0,0,0.1,0,0.1,0.1c0,0,0.1,0,0.1,0.1
			l8.1,5.1l-4.8,1.8l13.3,88.2c0.3,2.3-0.1,4.8-1.2,7c0,0.1-0.1,0.1-0.1,0.2c0,0.1-0.1,0.1-0.1,0.2c-1,2.2-2.6,4.1-4.4,5L57.1,186.3
			l0.9,5.5l-7.7-4.8c0,0-0.1,0-0.1-0.1c-1.5-0.9-2.6-2.5-2.9-4.8L33.8,91.9C33.5,89.7,33.9,87.3,34.8,85.2z"/>
		<g>
			
				<linearGradient id="SVGID_8_" gradientUnits="userSpaceOnUse" x1="-2865.0205" y1="-284.817" x2="-2685.7219" y2="-284.817" gradientTransform="matrix(-0.7971 0.4219 0.1578 1.0482 -2047.324 1573.6788)">
				<stop  offset="0" style="stop-color:#7BDAFF"/>
				<stop  offset="1" style="stop-color:#59BDEF"/>
			</linearGradient>
			<path class="st239" d="M63.7,192.1l128.8-68.2c3.9-2.1,6.4-7.9,5.7-13l-13.4-89c-0.8-5.1-4.6-7.6-8.4-5.5L47.5,84.5
				c-3.9,2.1-6.4,7.9-5.7,13l13.4,89C56,191.7,59.8,194.1,63.7,192.1z"/>
			
				<linearGradient id="SVGID_9_" gradientUnits="userSpaceOnUse" x1="-2643.9138" y1="-189.5919" x2="-2741.5205" y2="-295.4373" gradientTransform="matrix(-0.7971 0.4219 0.1578 1.0482 -2047.324 1573.6788)">
				<stop  offset="0.7677" style="stop-color:#59BDEF"/>
				<stop  offset="0.8452" style="stop-color:#55B8EB"/>
				<stop  offset="0.9318" style="stop-color:#49ABE1"/>
				<stop  offset="1" style="stop-color:#3A9BD5"/>
			</linearGradient>
			<path class="st240" d="M48,84.2l63.9-33.8l15.8,104.6l-63.4,36.7c-4.2,2.2-8.2,0.1-8.9-4.6L41.7,96.9C41,92.1,43.8,86.5,48,84.2z
				"/>
			
				<linearGradient id="SVGID_10_" gradientUnits="userSpaceOnUse" x1="-4970.8286" y1="-189.6487" x2="-5068.4404" y2="-295.4997" gradientTransform="matrix(0.7971 -0.4219 0.1578 1.0482 4232.0723 -1750.0579)">
				<stop  offset="0.7677" style="stop-color:#59BDEF"/>
				<stop  offset="0.8452" style="stop-color:#55B8EB"/>
				<stop  offset="0.9318" style="stop-color:#49ABE1"/>
				<stop  offset="1" style="stop-color:#3A9BD5"/>
			</linearGradient>
			<path class="st241" d="M175.8,16.6l-63.9,33.8l15.7,104l64.4-30.2c4.2-2.2,7-7.9,6.3-12.6l-13.6-90.3
				C183.9,16.5,179.9,14.4,175.8,16.6z"/>
			
				<linearGradient id="SVGID_11_" gradientUnits="userSpaceOnUse" x1="-2775.3733" y1="-131.6391" x2="-2775.3733" y2="-282.7817" gradientTransform="matrix(-0.7971 0.4219 0.1578 1.0482 -2047.324 1573.6788)">
				<stop  offset="0.7677" style="stop-color:#3A9BD5"/>
				<stop  offset="0.8386" style="stop-color:#3896D2"/>
				<stop  offset="0.9179" style="stop-color:#3189C9"/>
				<stop  offset="1" style="stop-color:#2573BA"/>
			</linearGradient>
			<path class="st242" d="M197.2,118.2c-1.1,2.5-3,4.7-5.2,5.9L64.2,191.8c-2.3,1.2-4.5,1.1-6.1,0.1l59.9-101.2L197.2,118.2z"/>
			
				<linearGradient id="SVGID_12_" gradientUnits="userSpaceOnUse" x1="-2835.26" y1="-357.7122" x2="-2681.0618" y2="-275.9815" gradientTransform="matrix(-0.7971 0.4219 0.1578 1.0482 -2047.324 1573.6788)">
				<stop  offset="0" style="stop-color:#7BDAFF"/>
				<stop  offset="1" style="stop-color:#59BDEF"/>
			</linearGradient>
			<path class="st243" d="M42.8,90.2c1.1-2.5,3-4.7,5.2-5.9l127.8-67.6c2.3-1.2,4.5-1.1,6.1-0.1L122,117.7L42.8,90.2z"/>
		</g>
	</g>
</g>
<g>
	<path class="st233" d="M70.1,84.8L70.1,84.8L70.1,84.8c0-0.1,0.1-0.2,0.1-0.3c0-0.1,0.1-0.1,0.1-0.2c0-0.1,0.1-0.1,0.1-0.2
		c1-2.4,2.6-4.4,4.5-5.5l0.5-0.3l0,0l66.7-38.5l66.7-38.5l0,0l0.5-0.3c1.9-1.1,3.9-1.1,5.5-0.3c0,0,0.1,0,0.1,0.1c0,0,0.1,0,0.1,0.1
		l8.8,5.1L219,8l17.6,93.4c0.5,2.4,0.1,5.1-1,7.5c0,0.1-0.1,0.1-0.1,0.2c0,0.1-0.1,0.1-0.1,0.2c-1,2.4-2.6,4.4-4.5,5.5L97.9,191.7
		l1.2,5.9l-8.3-4.8c0,0-0.1,0-0.1-0.1c-1.6-0.9-2.9-2.6-3.3-5L69.3,92C68.9,89.7,69.2,87.1,70.1,84.8z"/>
	<g>
		
			<linearGradient id="SVGID_13_" gradientUnits="userSpaceOnUse" x1="-3027.3435" y1="-323.0445" x2="-2836.2104" y2="-323.0445" gradientTransform="matrix(-0.781 0.4511 0.1965 1.0417 -2064.6279 1760.7506)">
			<stop  offset="0" style="stop-color:#7BDAFF"/>
			<stop  offset="1" style="stop-color:#59BDEF"/>
		</linearGradient>
		<path class="st244" d="M105.1,197.5l134.5-77.7c4.1-2.3,6.5-8.7,5.5-14.1l-17.8-94.3c-1-5.4-5.2-7.9-9.2-5.6L83.6,83.6
			c-4.1,2.3-6.5,8.7-5.5,14.1L95.9,192C96.9,197.4,101,199.9,105.1,197.5z"/>
		
			<linearGradient id="SVGID_14_" gradientUnits="userSpaceOnUse" x1="-2791.6399" y1="-221.5316" x2="-2895.6919" y2="-334.3662" gradientTransform="matrix(-0.781 0.4511 0.1965 1.0417 -2064.6279 1760.7506)">
			<stop  offset="0.7677" style="stop-color:#59BDEF"/>
			<stop  offset="0.8452" style="stop-color:#55B8EB"/>
			<stop  offset="0.9318" style="stop-color:#49ABE1"/>
			<stop  offset="1" style="stop-color:#3A9BD5"/>
		</linearGradient>
		<path class="st245" d="M84.1,83.3l66.7-38.5l20.9,110.8l-66.1,41.6c-4.4,2.5-8.7,0.5-9.6-4.6L78,97C77,91.9,79.8,85.8,84.1,83.3z"
			/>
		
			<linearGradient id="SVGID_15_" gradientUnits="userSpaceOnUse" x1="-4806.1416" y1="-221.5528" x2="-4910.1924" y2="-334.3864" gradientTransform="matrix(0.781 -0.4511 0.1965 1.0417 4088.2371 -1793.2522)">
			<stop  offset="0.7677" style="stop-color:#59BDEF"/>
			<stop  offset="0.8452" style="stop-color:#55B8EB"/>
			<stop  offset="0.9318" style="stop-color:#49ABE1"/>
			<stop  offset="1" style="stop-color:#3A9BD5"/>
		</linearGradient>
		<path class="st246" d="M217.6,6.2l-66.7,38.5l20.8,110.1l67.4-34.7c4.4-2.5,7.1-8.7,6.2-13.7l-18-95.7
			C226.3,5.7,222,3.7,217.6,6.2z"/>
		
			<linearGradient id="SVGID_16_" gradientUnits="userSpaceOnUse" x1="-2931.7756" y1="-159.7574" x2="-2931.7756" y2="-320.8748" gradientTransform="matrix(-0.781 0.4511 0.1965 1.0417 -2064.6279 1760.7506)">
			<stop  offset="0.7677" style="stop-color:#3A9BD5"/>
			<stop  offset="0.8386" style="stop-color:#3896D2"/>
			<stop  offset="0.9179" style="stop-color:#3189C9"/>
			<stop  offset="1" style="stop-color:#2573BA"/>
		</linearGradient>
		<path class="st247" d="M244.4,113.6c-1.1,2.7-3,5.2-5.3,6.5l-133.4,77.1c-2.4,1.4-4.7,1.4-6.5,0.3l59.8-110.2L244.4,113.6z"/>
		
			<linearGradient id="SVGID_17_" gradientUnits="userSpaceOnUse" x1="-2995.6218" y1="-400.752" x2="-2831.2446" y2="-313.6262" gradientTransform="matrix(-0.781 0.4511 0.1965 1.0417 -2064.6279 1760.7506)">
			<stop  offset="0" style="stop-color:#7BDAFF"/>
			<stop  offset="1" style="stop-color:#59BDEF"/>
		</linearGradient>
		<path class="st248" d="M78.8,89.8c1.1-2.7,3-5.2,5.3-6.5L217.6,6.2c2.4-1.4,4.7-1.4,6.5-0.3L164.3,116L78.8,89.8z"/>
	</g>
</g>
</svg>
