<svg id="Camada_1" xmlns="http://www.w3.org/2000/svg" viewBox="0 0 313.3 50.2">
  <style>
    .st0{fill:#34498a}.st1{fill:#1f2c55}.st2{fill:#455ea3}
  </style>
  <path class="st0" d="M49.8 49H16.7l-.8-1L32 23h34z"/>
  <path class="st1" d="M16.7 49.5L0 25.1 16.7.1l.8-.1 16.3 25.1h-.7z"/>
  <path class="st2" d="M66 25H33.1L16.7 0h32.8z"/>
  <path class="st1" d="M66 49.5L49.5 25.1 66 .1h.9l15.8 24.5 1.7.5L68 49.4z"/>
  <path class="st2" d="M99.2 49H66l16.5-24.1-.7-1.1 33 .6.6.4z"/>
  <path class="st0" d="M115.4 25H82.5L66 0h32.9z"/>
  <path class="st0" d="M49.8 49H33.3L66 0h17.9z"/>
  <path d="M313.3 22.5c-.8-.2-1.5-.3-2.1-.4-.6-.1-1.3-.1-2.1-.1-3.2 0-5.8.9-7.8 2.8-1.9 1.9-2.9 5.1-2.9 9.6v14.9h-11.7V12.5h11.7v5.4c.9-1.7 2.3-3.3 4.3-4.6 2-1.3 4.3-2 6.9-2 1.4 0 2.6.2 3.5.6v10.6zm-51.6 17.8c1.3 0 2.5-.3 3.5-.8 1.1-.5 2-1.2 2.8-2 .8-.8 1.4-1.8 1.8-3 .4-1.2.7-2.4.7-3.6 0-1.3-.2-2.5-.7-3.6-.4-1.1-1-2.1-1.8-3-.8-.9-1.7-1.6-2.8-2.1-1.1-.5-2.3-.8-3.5-.8-1.3 0-2.5.3-3.6.8s-2 1.2-2.8 2.1c-.8.9-1.4 1.9-1.8 3-.4 1.1-.7 2.3-.7 3.6 0 1.3.2 2.5.7 3.6.4 1.2 1 2.1 1.8 3 .8.8 1.7 1.5 2.8 2 1.1.5 2.3.8 3.6.8zm-10.5 9h-11.7V1h11.7v16.7c.5-.8 1.1-1.6 1.8-2.4.8-.8 1.7-1.4 2.7-2 1-.6 2.1-1 3.3-1.3 1.2-.3 2.3-.5 3.6-.5 2.7 0 5.1.5 7.3 1.5s4.1 2.4 5.7 4.1c1.6 1.7 2.8 3.8 3.7 6.1.9 2.4 1.3 5 1.3 7.7s-.4 5.3-1.3 7.7c-.9 2.4-2.1 4.4-3.7 6.1-1.6 1.7-3.5 3.1-5.7 4.1-2.2 1-4.7 1.5-7.3 1.5-1.2 0-2.4-.2-3.6-.5-1.2-.3-2.2-.8-3.3-1.3-1-.5-1.9-1.2-2.7-1.9-.8-.7-1.4-1.5-1.8-2.4v5.1zm-18.9-37v37h-11.7V44c-1 1.9-2.6 3.5-4.6 4.6-2.1 1.1-4.6 1.7-7.5 1.7-2.4 0-4.5-.4-6.2-1.1-1.7-.7-3.1-1.8-4.1-3.1-1.2-1.4-1.9-3.1-2.3-5-.4-1.9-.5-4.1-.5-6.8v-22h11.7v19c0 2.7.5 4.8 1.4 6.5.9 1.7 2.6 2.5 5.1 2.5 2.5 0 4.3-.8 5.4-2.5 1.2-1.7 1.7-4 1.7-6.8V12.3h11.6zm-44.4 10c-.8-.2-1.5-.3-2.1-.4-.6-.1-1.3-.1-2.1-.1-3.3 0-5.9 1-7.8 2.9-2 1.9-2.9 5.1-2.9 9.7v15h-11.8V12.2H173v5.4c.9-1.8 2.3-3.3 4.4-4.6 2-1.3 4.4-2 7-2 1.4 0 2.6.2 3.6.6v10.7zm-33.5 27c-.9.2-2 .3-3.3.4-1.3.1-2.8.2-4.6.2-1.4 0-2.8-.1-4.4-.3-1.5-.2-3-.7-4.3-1.6-1.3-.8-2.4-2.1-3.2-3.9s-1.3-4.2-1.3-7.3V21.1h-5.8v-8.7h5.8v-11H145v11h8v8.7h-8v13.2c0 1.4.1 2.5.4 3.3.3.8.6 1.4 1.1 1.9.5.4 1 .7 1.6.9.6.2 1.3.2 2 .2h2.2c.8 0 1.4-.1 2-.2v8.9z" fill-rule="evenodd" clip-rule="evenodd" fill="#34498a"/>
</svg>
